<?xml version="1.0" encoding="utf-8"?>
<!-- Generator: Adobe Illustrator 25.4.1, SVG Export Plug-In . SVG Version: 6.00 Build 0)  -->
<svg version="1.1" id="Layer_1" xmlns="http://www.w3.org/2000/svg" xmlns:xlink="http://www.w3.org/1999/xlink" x="0px" y="0px"
	 viewBox="0 0 64 64" style="enable-background:new 0 0 64 64;" xml:space="preserve">
<style type="text/css">
	.st0{fill:#FFA300;}
	.st1{fill:none;stroke:#FFB000;stroke-linecap:round;stroke-linejoin:round;}
	.st2{fill:#FF9D00;}
	.st3{fill:#FF9D00;stroke:#FFB000;stroke-linecap:round;stroke-linejoin:round;}
</style>
<path class="st0" d="M23,54v2h5c0.6,0,1-0.4,1-1V33h6v-2h-6V9c0-0.6-0.4-1-1-1h-5v2h4v21h-4v2h4v21H23z"/>
<rect x="19" y="31" class="st0" width="2" height="2"/>
<rect x="19" y="8" class="st0" width="2" height="2"/>
<rect x="19" y="54" class="st0" width="2" height="2"/>
<path class="st0" d="M9,17c4.4,0,8-3.6,8-8s-3.6-8-8-8S1,4.6,1,9C1,13.4,4.6,17,9,17z M5.4,10.2c0-1,0.8-1.8,1.8-1.8H9
	c-1.2,0-2.2-1-2.2-2.3S7.8,4,9,4c1.2,0,2.2,1,2.2,2.3c0,1.2-1,2.2-2.2,2.2h1.7c1,0,1.8,0.8,1.8,1.8v3.6c-2.1,1.6-5,1.6-7.1,0
	L5.4,10.2z"/>
<path class="st0" d="M9,40c4.4,0,8-3.6,8-8s-3.6-8-8-8s-8,3.6-8,8C1,36.4,4.6,40,9,40z M5.4,33.2c0-1,0.8-1.8,1.8-1.8H9
	c-1.2,0-2.2-1-2.2-2.3S7.8,27,9,27c1.2,0,2.2,1,2.2,2.3c0,1.2-1,2.2-2.2,2.2h1.7c1,0,1.8,0.8,1.8,1.8v3.6c-2.1,1.6-5,1.6-7.1,0
	L5.4,33.2z"/>
<path class="st0" d="M9,63c4.4,0,8-3.6,8-8s-3.6-8-8-8s-8,3.6-8,8C1,59.4,4.6,63,9,63z M5.4,56.2c0-1,0.8-1.8,1.8-1.8H9
	c-1.2,0-2.2-1-2.2-2.3S7.8,50,9,50c1.2,0,2.2,1,2.2,2.3c0,1.2-1,2.2-2.2,2.2h1.7c1,0,1.8,0.8,1.8,1.8v3.6c-2.1,1.6-5,1.6-7.1,0
	L5.4,56.2z"/>
<path class="st0" d="M46.9,13.5l2.8,4.2c0.3,0.5,0.9,0.6,1.4,0.3c0,0,0,0,0,0l7.3-4.9l1.4,2.1L62.6,9l-6.8,0.4l1.4,2.1l-6.4,4.3
	L48,11.6c-0.3-0.5-0.9-0.6-1.4-0.3l-9.1,6.1l1.1,1.7L46.9,13.5z"/>
<g>
	<path class="st0" d="M61,21.1H39c-1.1,0-2,0.9-2,2v18c0,1.1,0.9,2,2,2h22c1.1,0,2-0.9,2-2v-18C63,21.9,62.1,21.1,61,21.1z
		 M58.5,37.7c-0.2,0.2-0.4,0.3-0.6,0.3H57l0.8,1.8l0,0.2c0,0.1,0,0.2,0,0.2l-0.1,0.2c-0.1,0.2-0.2,0.3-0.4,0.4
		c-0.2,0.1-0.3,0.1-0.4,0.1l-0.1,0l-1.6-0.4v0.3v0.1l-0.1,0.2c-0.1,0.3-0.4,0.5-0.8,0.5c-0.1,0-0.2,0-0.3-0.1l0,0l-1.9-0.6l-0.5,0.5
		l-0.1,0c-0.5,0.4-1.1,0.6-1.7,0.6c-0.7,0-1.3-0.2-1.8-0.6l-0.6-0.6c-0.1,0.1-0.2,0.3-0.3,0.3l-2.2,0.7l-0.2,0H45
		c-0.3,0-0.5-0.1-0.6-0.3c-0.2-0.2-0.3-0.4-0.3-0.6v-0.3L42.5,41l-0.1,0h-0.1c-0.1,0-0.3-0.1-0.4-0.1c-0.1-0.1-0.2-0.3-0.2-0.4
		c0-0.1,0-0.2,0-0.3l0-0.2l0.7-1.9h-0.8c-0.1,0-0.3,0-0.3-0.1l0,0l0,0c-0.2-0.1-0.3-0.2-0.4-0.4c-0.1-0.1-0.1-0.3-0.1-0.4
		c0-0.2,0-0.3,0.1-0.5l0,0l1.4-2.3h-0.1c-0.1,0-0.2,0-0.3-0.1c0,0,0,0,0,0l-0.1,0c-0.2-0.1-0.3-0.2-0.4-0.4
		c-0.1-0.1-0.1-0.3-0.1-0.4c0-0.2,0-0.3,0.1-0.5l0-0.1l1.1-1.6c-0.9-1.8-1.2-3.4-1.2-4.7c0-2.1,0.7-3.4,0.8-3.5
		c0.1-0.1,0.2-0.2,0.4-0.3s0.3,0.1,0.4,0.2l3.3,4.4c1.1-0.6,2.3-0.9,3.6-0.9c1.3,0,2.6,0.3,3.7,0.9l3.4-4.4c0.1-0.1,0.3-0.2,0.4-0.2
		c0.2,0,0.3,0.1,0.4,0.3c0,0,0.8,1.4,0.8,3.5c0,1.4-0.3,3-1.3,4.9l0.9,1.3c0,0,0,0,0,0c0.1,0.1,0.2,0.2,0.2,0.3c0,0.2,0,0.2,0,0.3
		c0,0.3-0.1,0.5-0.3,0.6c-0.2,0.2-0.4,0.3-0.6,0.3l-0.2,0l1.4,2.2c0,0,0,0,0,0c0.1,0.1,0.2,0.2,0.2,0.3c0,0.2,0,0.2,0,0.3
		C58.8,37.3,58.6,37.5,58.5,37.7z"/>
</g>
<g id="wolf_00000146474797037187346980000007966443903492120510_">
	<path class="st1" d="M45.9,27.7l-3.5-4.6c0,0-1.9,3.5,0.6,8.1"/>
	<path class="st1" d="M53.9,27.7l3.6-4.6c0,0,1.9,3.5-0.6,8.1"/>
	<path class="st1" d="M52.3,40.5l2.2,0.7c0.2,0.1,0.4,0,0.5-0.2v-0.1v-1l2.2,0.6c0.1,0,0.2,0,0.3-0.2c0,0,0-0.1,0-0.2l-1.1-2.6h1.6
		c0.2,0,0.4-0.2,0.4-0.4c0-0.1,0-0.2-0.1-0.2l-1.9-3.2h1.1c0.2,0,0.4-0.2,0.4-0.4c0-0.1,0-0.2-0.1-0.2l-2-3.1c-1.3-2-3.6-3.2-6-3.2
		l0,0c-2.5,0-4.6,1.2-6,3.2l-2,3.1c-0.1,0.2-0.1,0.5,0.1,0.6c0.1,0,0.2,0.1,0.2,0.1h1L41.3,37c-0.1,0.2-0.1,0.5,0.1,0.6
		c0.1,0,0.1,0.1,0.2,0.1h1.5l-1,2.7c0,0.1,0,0.2,0.1,0.3h0.1l2.2-0.6v1c0,0.2,0.2,0.4,0.4,0.4h0.1l2.2-0.7"/>
	<path class="st1" d="M47.7,35.5L47.7,35.5c-0.5,0.5-0.8,1.1-0.8,1.8v0.4c0,1,0.4,1.9,1.1,2.7l0.7,0.7c0.3,0.3,0.8,0.5,1.4,0.5l0,0
		c0.5,0,1-0.2,1.4-0.5l0.7-0.7c0.7-0.7,1.1-1.6,1.1-2.7v-0.4c0-0.7-0.3-1.4-0.8-1.8l0,0"/>
	<path class="st1" d="M51.1,37.9c0,0.3-0.4,1-1,1c-0.6,0-1-0.7-1-1c0-0.3,0.4-0.6,1-0.6C50.7,37.3,51.1,37.5,51.1,37.9z"/>
	<line class="st1" x1="50" y1="39" x2="50" y2="40.5"/>
	<circle class="st2" cx="52.9" cy="33.1" r="0.5"/>
	<circle class="st2" cx="47.1" cy="33.1" r="0.5"/>
	<path class="st3" d="M51.6,30.4h1.2c0.9,0,1.7,0.4,2.2,1.2l0,0"/>
	<path class="st3" d="M48.8,30.4h-1.2c-0.9,0-1.7,0.4-2.2,1.2l0,0"/>
</g>
</svg>
