<?xml version="1.0" encoding="utf-8"?>
<!-- Generator: Adobe Illustrator 25.4.1, SVG Export Plug-In . SVG Version: 6.00 Build 0)  -->
<svg version="1.1" id="Layer_1" xmlns="http://www.w3.org/2000/svg" xmlns:xlink="http://www.w3.org/1999/xlink" x="0px" y="0px"
	 viewBox="0 0 64 64" style="enable-background:new 0 0 64 64;" xml:space="preserve">
<style type="text/css">
	.st0{fill:none;stroke:#FF9700;stroke-width:2;stroke-linecap:round;stroke-linejoin:round;}
	.st1{fill:none;stroke:#FFA300;stroke-width:2;stroke-linecap:round;stroke-linejoin:round;}
	.st2{fill:none;stroke:#FFA300;stroke-miterlimit:10;}
	.st3{fill:#FFA300;}
	.st4{fill:none;stroke:#FFA300;stroke-width:2;stroke-miterlimit:10;}
</style>
<path class="st0" d="M30.7,13H9.3C6.9,13,5,14.9,5,17.3c0,0,0,0,0,0v15.5C5,35.1,6.9,37,9.3,37h0H17v8l6.4-8h7.3
	c2.4,0,4.3-1.9,4.3-4.3c0,0,0,0,0,0V17.3C35,14.9,33.1,13,30.7,13C30.7,13,30.7,13,30.7,13z"/>
<path class="st0" d="M29,41v1.7c0,2.4,1.9,4.3,4.3,4.3c0,0,0,0,0,0h9.3l6.4,8v-8h5.7c2.4,0,4.3-1.9,4.3-4.3c0,0,0,0,0,0V27.3
	c0-2.3-1.8-4.1-4-4.3c-0.1,0-0.2,0-0.3,0L50,23l-11,0"/>
<path class="st1" d="M16,22c0-2.2,1.8-4,4-4c2.2,0,4,1.8,4,4c0,1.6-1,3.1-2.5,3.7C20.6,26.1,20,27,20,28l0,0"/>
<circle class="st2" cx="20" cy="32" r="1"/>
<line class="st1" x1="39" y1="29" x2="55" y2="29"/>
<line class="st1" x1="39" y1="33" x2="55" y2="33"/>
<line class="st1" x1="39" y1="37" x2="55" y2="37"/>
<line class="st1" x1="39" y1="41" x2="44" y2="41"/>
<rect x="44.7" y="9.2" transform="matrix(0.7071 -0.7071 0.7071 0.7071 5.8413 36.1023)" class="st0" width="3.5" height="3.5"/>
<circle class="st3" cx="53" cy="17" r="1"/>
<circle class="st3" cx="39" cy="5" r="1"/>
<circle class="st4" cx="14" cy="56" r="2"/>
<circle class="st3" cx="27" cy="51" r="1"/>
<circle class="st3" cx="7" cy="47" r="1"/>
</svg>
