<?xml version="1.0" encoding="utf-8"?>
<!-- Generator: Adobe Illustrator 25.4.1, SVG Export Plug-In . SVG Version: 6.00 Build 0)  -->
<svg version="1.1" id="Layer_1" xmlns="http://www.w3.org/2000/svg" xmlns:xlink="http://www.w3.org/1999/xlink" x="0px" y="0px"
	 viewBox="0 0 411.9 409.9" style="enable-background:new 0 0 411.9 409.9;" xml:space="preserve">
<style type="text/css">
	.st0{fill:none;}
	.st1{fill:#FFA300;}
	.st2{stroke:#FFB000;stroke-width:8;stroke-linecap:round;stroke-linejoin:round;}
	.st3{fill:none;stroke:#FFB000;stroke-width:4;stroke-linecap:round;stroke-linejoin:round;}
	.st4{fill:none;stroke:#FFB000;stroke-width:8;stroke-linecap:round;stroke-linejoin:round;}
	.st5{fill:#FFB000;}
</style>
<g>
	<rect x="208.5" y="200" width="139.1" height="53.2"/>
	<path d="M288.5,124h-32c-28.6,0-52,23.4-52,52v32c0,28.6,23.4,46,52,46h32c28.6,0,52-17.4,52-46v-32
		C340.5,147.4,317.1,124,288.5,124z"/>
</g>
<g>
	<rect x="73.5" y="198.5" width="132.6" height="53.2"/>
	<path d="M153.4,122.5h-32c-28.6,0-52,23.4-52,52v32c0,28.6,23.4,46,52,46h32c28.6,0,52-17.4,52-46v-32
		C205.4,145.9,182.1,122.5,153.4,122.5z"/>
</g>
<rect x="275.5" y="340.5" width="139.1" height="53.2"/>
<path d="M355.5,264.5h-32c-28.6,0-52,23.4-52,52v32c0,28.6,23.4,46,52,46h32c28.6,0,52-17.4,52-46v-32
	C407.5,287.9,384.1,264.5,355.5,264.5z"/>
<g>
	<rect x="141.4" y="339.5" width="139.1" height="53.2"/>
	<path d="M221.4,263.5h-32c-28.6,0-52,23.4-52,52v32c0,28.6,23.4,46,52,46h32c28.6,0,52-17.4,52-46v-32
		C273.5,286.9,250.1,263.5,221.4,263.5z"/>
</g>
<rect x="5" y="339" width="139.1" height="53.2"/>
<path d="M85,263H53c-28.6,0-52,23.4-52,52v32c0,28.6,23.4,46,52,46h32c28.6,0,52-17.4,52-46v-32C137,286.4,113.6,263,85,263z"/>
<path class="st0" d="M72,298V172.9c0-27.8,22.5-50.3,50.3-50.3h33.3c27.8,0,50.3,22.5,50.3,50.3V298"/>
<circle class="st0" cx="139" cy="82.3" r="40.3"/>
<path class="st0" d="M206,298V172.9c0-27.8,22.5-50.3,50.3-50.3h33.3c27.8,0,50.3,22.5,50.3,50.3V298"/>
<ellipse transform="matrix(0.1735 -0.9848 0.9848 0.1735 144.5819 336.8802)" class="st0" cx="273" cy="82.3" rx="40.3" ry="40.3"/>
<path class="st0" d="M5,389.9v-76.5C5,285.6,27.5,263,55.3,263h33.3c27.8,0,50.3,22.5,50.3,68.3v96.5"/>
<circle class="st0" cx="72" cy="222.8" r="40.3"/>
<path class="st0" d="M139,427.9v-96.5c0-45.8,22.5-68.3,50.3-68.3l0,0h33.3c27.8,0,50.3,22.5,50.3,62.3v96.5"/>
<ellipse class="st0" cx="206" cy="222.8" rx="40.3" ry="40.3"/>
<path class="st0" d="M273,313.4c0-27.8,22.5-50.3,50.3-50.3h33.3c27.8,0,50.3,22.5,50.3,50.3v76.5"/>
<circle class="st0" cx="339.9" cy="222.8" r="40.3"/>
<path class="st1" d="M10,350.5v5.1c0,2.8-2.2,5-5,5s-5-2.2-5-5v-5.1c0-2.8,2.2-5,5-5S10,347.7,10,350.5z M5,366.5c-2.8,0-5,2.2-5,5
	v18.4c0,2.8,2.2,5,5,5s5-2.2,5-5v-18.4C10,368.7,7.8,366.5,5,366.5z M406.9,369.5c-2.8,0-5,2.2-5,5v15.4c0,2.8,2.2,5,5,5s5-2.2,5-5
	v-15.4C411.9,371.7,409.7,369.5,406.9,369.5z M406.9,345.5c-2.8,0-5,2.2-5,5v5.1c0,2.8,2.2,5,5,5s5-2.2,5-5v-5.1
	C411.9,347.7,409.7,345.5,406.9,345.5z M134.6,392.4l-0.6-79.1c0-25-20.3-45.3-45.3-45.3H55.3c-25,0-45.3,20.3-45.3,45.3V334
	c0,2.8-2.2,5-5,5s-5-2.2-5-5v-20.6c0-26.5,18.9-49.3,44.9-54.3c-20-14.9-24.2-43.3-9.2-63.3c7.5-10.1,18.8-16.5,31.3-17.9V173
	c0-26.5,18.9-49.3,44.9-54.3c-20-14.9-24.2-43.3-9.2-63.3S146,31,166,46s24.2,43.3,9.2,63.3c-2.6,3.5-5.7,6.6-9.2,9.2
	c17.6,3.4,32.5,15.1,39.9,31.4c7.5-16.3,22.3-28,39.9-31.4c-20-14.9-24.2-43.3-9.2-63.3C251.6,35.1,280,31,300,46
	s24.2,43.3,9.2,63.3c-2.6,3.5-5.7,6.6-9.2,9.2c26.1,5,44.9,27.8,44.9,54.3v4.9c24.8,2.8,42.7,25.1,40,49.9
	c-1.4,12.5-7.9,23.8-17.9,31.3c26.1,5,44.9,27.8,44.9,54.3v21.1c0,2.8-2.2,5-5,5s-5-2.2-5-5v-21.1c0-25-20.3-45.3-45.3-45.3h-33.3
	c-25,0-45.3,20.3-45.3,45.3l-0.9,79.1 M339.9,187.5c-19.5,0-35.3,15.8-35.3,35.3s15.8,35.3,35.3,35.3s35.3-15.8,35.3-35.3l0,0
	C375.2,203.3,359.4,187.5,339.9,187.5z M273,117.5c19.5,0,35.3-15.8,35.3-35.3S292.4,47,273,47s-35.3,15.8-35.3,35.3l0,0
	C237.7,101.7,253.5,117.5,273,117.5L273,117.5z M268,392.2v-78.9c0-25-20.3-45.3-45.3-45.3h-33.3c-25,0-45.3,20.3-45.3,45.3v78.9
	 M241.2,222.8c0-19.5-15.8-35.3-35.3-35.3s-35.3,15.8-35.3,35.3S186.5,258,206,258l0,0C225.4,258,241.2,242.3,241.2,222.8z
	 M139,117.5c19.5,0,35.3-15.8,35.3-35.3S158.5,47,139,47s-35.3,15.8-35.3,35.3l0,0C103.7,101.7,119.5,117.5,139,117.5z M72,258
	c19.5,0,35.3-15.8,35.3-35.3S91.5,187.5,72,187.5s-35.3,15.8-35.3,35.3l0,0C36.8,242.3,52.5,258,72,258z M139,290.4
	c7.5-16.3,22.3-28,39.9-31.4c-20-14.9-24.2-43.3-9.2-63.3c7.5-10.1,18.8-16.5,31.3-17.9v-4.9c0-25-20.3-45.3-45.3-45.3h-33.3
	c-25,0-45.3,20.3-45.3,45.3v4.9c6.3,0.7,12.4,2.7,17.9,6v-14.7c0-2.8,2.2-5,5-5s5,2.2,5,5v22.7c17.1,18.1,16.4,46.7-1.8,63.9
	c-1.3,1.2-2.6,2.4-4.1,3.4C116.7,262.4,131.5,274.1,139,290.4L139,290.4z M312.9,259c-20-14.9-24.2-43.2-9.3-63.2
	c1.1-1.4,2.2-2.8,3.4-4.1V169c0-2.8,2.2-5,5-5s5,2.2,5,5v14.7c5.5-3.2,11.6-5.3,17.9-6v-4.9c0-25-20.3-45.3-45.3-45.3h-33.3
	c-25,0-45.3,20.3-45.3,45.3v4.9c24.8,2.8,42.7,25.1,40,49.9c-1.4,12.5-7.9,23.8-17.9,31.3c17.6,3.4,32.5,15.1,39.9,31.4
	C280.4,274.1,295.3,262.5,312.9,259L312.9,259z M32.9,304.6c-2.8,0-5,2.2-5,5v80.3c0,2.8,2.2,5,5,5s5-2.2,5-5v-80.3
	C37.9,306.8,35.7,304.6,32.9,304.6z M116.1,384.2v-74.6c0-2.8-2.2-5-5-5s-5,2.2-5,5v74.6c0,2.8,2.2,5,5,5S116.1,387,116.1,384.2z
	 M166.9,304.6c-2.8,0-5,2.2-5,5V344c0,2.8,2.2,5,5,5s5-2.2,5-5v-34.4C171.9,306.8,169.6,304.6,166.9,304.6L166.9,304.6L166.9,304.6z
	 M245.1,349c2.8,0,5-2.2,5-5v-34.4c0-2.8-2.2-5-5-5s-5,2.2-5,5V344C240.1,346.8,242.3,349,245.1,349L245.1,349z M295.9,309.6v74.6
	c0,2.8,2.2,5,5,5s5-2.2,5-5v-74.6c0-2.8-2.2-5-5-5S295.9,306.8,295.9,309.6z M379,304.6c-2.8,0-5,2.2-5,5v80.3c0,2.8,2.2,5,5,5
	s5-2.2,5-5v-80.3C384,306.8,381.8,304.6,379,304.6z"/>
<g id="wolf">
	<path class="st2" d="M45.9,182.2L22.6,152c0,0-12.8,23,3.9,53.4"/>
	<path class="st2" d="M99.2,182.2l23.2-30.2c0,0,12.8,23-3.9,53.4"/>
	<path class="st2" d="M88.3,266.4l14.6,4.9c1.4,0.5,2.8-0.2,3.2-1.6c0-0.2,0.2-0.5,0.2-0.7v-6.7l14.6,4.2c0.9,0.2,1.6-0.2,1.9-1.2
		c0-0.2,0-0.7,0-1.2l-7.4-16.9l10.9-0.2c1.6,0,3-1.4,3-3c0-0.5-0.2-1.2-0.5-1.4l-12.5-21.1h7.2c1.6,0,3-1.4,3-3
		c0-0.5-0.2-1.2-0.5-1.6l-13.5-20.2c-8.8-13.2-23.7-21.1-39.5-21.1l0,0c-16,0-30.6,7.9-39.5,21.1L20,216.9c-0.9,1.4-0.5,3.2,0.9,4.2
		c0.5,0.2,1.2,0.5,1.6,0.5h6.7l-12.5,21.1c-0.9,1.4-0.5,3.2,0.9,4.2c0.5,0.2,0.9,0.5,1.6,0.5h10l-6.5,17.4c-0.2,0.9,0,1.6,0.9,2.1
		c0.2,0.2,0.7,0.2,0.9,0l14.9-4.2v6.7c0,1.4,1.2,2.6,2.6,2.6c0.2,0,0.5,0,0.7-0.2l14.9-4.9"/>
	<path class="st3" d="M32.9,196.1c0,0-7.9-9.3-7.9-18.6"/>
	<path class="st4" d="M57.9,234.2L57.9,234.2c-3.2,3.2-5.3,7.7-5.3,12.3v3c0,6.5,2.8,13,7.4,17.6l4.6,4.4c2.3,2.3,5.6,3.7,9.1,3.7
		l0,0c3.5,0,6.5-1.4,9.1-3.7l4.6-4.4c4.6-4.6,7.4-10.9,7.4-17.6v-2.8c0-4.6-1.9-9.1-5.3-12.3l0,0"/>
	<path class="st4" d="M80,249.5c0,2.3-3,7-7,7s-7-4.6-7-7s3-4.2,7-4.2S80,247.2,80,249.5z"/>
	<line class="st4" x1="73" y1="257.2" x2="73" y2="266.4"/>
	<circle class="st5" cx="92" cy="217.7" r="3.7"/>
	<circle class="st5" cx="54" cy="217.7" r="3.7"/>
	<path class="st4" d="M83.2,200.7h8.4c6,0,11.4,3,14.6,8.1l0,0"/>
	<path class="st4" d="M65.4,200.7H57c-6,0-11.4,3-14.6,8.1l0,0"/>
	<path class="st3" d="M112.2,196.1c0,0,7.9-9.3,7.9-18.6"/>
</g>
<g id="wolf_00000038387944199145687150000014432679159708210357_">
	<path class="st2" d="M109.9,38.2L86.6,8c0,0-12.8,23,3.9,53.4"/>
	<path class="st2" d="M163.2,38.2L186.5,8c0,0,12.8,23-3.9,53.4"/>
	<path class="st2" d="M152.3,122.4l14.6,4.9c1.4,0.5,2.8-0.2,3.2-1.6c0-0.2,0.2-0.5,0.2-0.7v-6.7l14.6,4.2c0.9,0.2,1.6-0.2,1.9-1.2
		c0-0.2,0-0.7,0-1.2l-7.4-16.9l10.9-0.2c1.6,0,3-1.4,3-3c0-0.5-0.2-1.2-0.5-1.4l-12.5-21.1h7.2c1.6,0,3-1.4,3-3
		c0-0.5-0.2-1.2-0.5-1.6l-13.5-20.2c-8.8-13.2-23.7-21.1-39.5-21.1l0,0c-16,0-30.6,7.9-39.5,21.1L84.3,72.8
		c-0.9,1.4-0.5,3.2,0.9,4.2c0.5,0.2,1.2,0.5,1.6,0.5h6.7l-12.4,21c-0.9,1.4-0.5,3.2,0.9,4.2c0.5,0.2,0.9,0.5,1.6,0.5h10l-6.5,17.4
		c-0.2,0.9,0,1.6,0.9,2.1c0.2,0.2,0.7,0.2,0.9,0l14.9-4.2v6.7c0,1.4,1.2,2.6,2.6,2.6c0.2,0,0.5,0,0.7-0.2l14.9-4.9"/>
	<path class="st3" d="M96.9,52.1c0,0-7.9-9.3-7.9-18.6"/>
	<path class="st4" d="M121.9,90.2L121.9,90.2c-3.2,3.2-5.3,7.7-5.3,12.3v3c0,6.5,2.8,13,7.4,17.6l4.6,4.4c2.3,2.3,5.6,3.7,9.1,3.7
		l0,0c3.5,0,6.5-1.4,9.1-3.7l4.6-4.4c4.6-4.6,7.4-10.9,7.4-17.6v-2.8c0-4.6-1.9-9.1-5.3-12.3l0,0"/>
	<path class="st4" d="M144,105.5c0,2.3-3,7-7,7s-7-4.6-7-7s3-4.2,7-4.2S144,103.2,144,105.5z"/>
	<line class="st4" x1="137" y1="113.2" x2="137" y2="122.4"/>
	<circle class="st5" cx="156" cy="73.7" r="3.7"/>
	<circle class="st5" cx="118" cy="73.7" r="3.7"/>
	<path class="st4" d="M147.2,56.7h8.4c6,0,11.4,3,14.6,8.1l0,0"/>
	<path class="st4" d="M129.4,56.7H121c-6,0-11.4,3-14.6,8.1l0,0"/>
	<path class="st3" d="M176.2,52.1c0,0,7.9-9.3,7.9-18.6"/>
</g>
<g id="wolf_00000170268145600405003460000007190133846844332212_">
	<path class="st2" d="M246.9,34.2L223.6,4c0,0-12.8,23,3.9,53.4"/>
	<path class="st2" d="M300.2,34.2L323.5,4c0,0,12.8,23-3.9,53.4"/>
	<path class="st2" d="M289.3,118.4l14.6,4.9c1.4,0.5,2.8-0.2,3.2-1.6c0-0.2,0.2-0.5,0.2-0.7v-6.7l14.6,4.2c0.9,0.2,1.6-0.2,1.9-1.2
		c0-0.2,0-0.7,0-1.2l-7.4-16.9l10.9-0.2c1.6,0,3-1.4,3-3c0-0.5-0.2-1.2-0.5-1.4l-12.5-21.1h7.2c1.6,0,3-1.4,3-3
		c0-0.5-0.2-1.2-0.5-1.6l-13.5-20.2c-8.8-13.2-23.7-21.1-39.5-21.1l0,0c-16,0-30.6,7.9-39.5,21.1L221,68.9c-0.9,1.4-0.5,3.2,0.9,4.2
		c0.5,0.2,1.2,0.5,1.6,0.5h6.7l-12.5,21.1c-0.9,1.4-0.5,3.2,0.9,4.2c0.5,0.2,0.9,0.5,1.6,0.5h10l-6.5,17.4c-0.2,0.9,0,1.6,0.9,2.1
		c0.2,0.2,0.7,0.2,0.9,0l14.9-4.2v6.7c0,1.4,1.2,2.6,2.6,2.6c0.2,0,0.5,0,0.7-0.2l14.9-4.9"/>
	<path class="st3" d="M233.9,48.1c0,0-7.9-9.3-7.9-18.6"/>
	<path class="st4" d="M258.9,86.2L258.9,86.2c-3.2,3.2-5.3,7.7-5.3,12.3v3c0,6.5,2.8,13,7.4,17.6l4.6,4.4c2.3,2.3,5.6,3.7,9.1,3.7
		l0,0c3.5,0,6.5-1.4,9.1-3.7l4.6-4.4c4.6-4.6,7.4-10.9,7.4-17.6v-2.8c0-4.6-1.9-9.1-5.3-12.3l0,0"/>
	<path class="st4" d="M281,101.5c0,2.3-3,7-7,7c-3.9,0-7-4.6-7-7s3-4.2,7-4.2S281,99.2,281,101.5z"/>
	<line class="st4" x1="274" y1="109.2" x2="274" y2="118.4"/>
	<circle class="st5" cx="293" cy="69.7" r="3.7"/>
	<ellipse transform="matrix(0.1602 -0.9871 0.9871 0.1602 145.3536 310.2426)" class="st5" cx="255" cy="69.7" rx="3.7" ry="3.7"/>
	<path class="st4" d="M284.2,52.7h8.4c6,0,11.4,3,14.6,8.1l0,0"/>
	<path class="st4" d="M266.4,52.7H258c-6,0-11.4,3-14.6,8.1l0,0"/>
	<path class="st3" d="M313.2,48.1c0,0,7.9-9.3,7.9-18.6"/>
</g>
<g id="wolf_00000097476820385754870790000017678055784591432125_">
	<path class="st2" d="M178.9,177.2L155.6,147c0,0-12.8,23,3.9,53.4"/>
	<path class="st2" d="M232.2,177.2l23.2-30.2c0,0,12.8,23-3.9,53.4"/>
	<path class="st2" d="M221.3,261.4l14.6,4.9c1.4,0.5,2.8-0.2,3.2-1.6c0-0.2,0.2-0.5,0.2-0.7v-6.7l14.6,4.2c0.9,0.2,1.6-0.2,1.9-1.2
		c0-0.2,0-0.7,0-1.2l-7.4-16.9l10.9-0.2c1.6,0,3-1.4,3-3c0-0.5-0.2-1.2-0.5-1.4l-12.5-21.1h7.2c1.6,0,3-1.4,3-3
		c0-0.5-0.2-1.2-0.5-1.6l-13.5-20.2c-8.8-13.2-23.7-21.1-39.5-21.1l0,0c-16,0-30.6,7.9-39.5,21.1L153,211.9
		c-0.9,1.4-0.5,3.2,0.9,4.2c0.5,0.2,1.2,0.5,1.6,0.5h6.7l-12.5,21.1c-0.9,1.4-0.5,3.2,0.9,4.2c0.5,0.2,0.9,0.5,1.6,0.5h10l-6.5,17.4
		c-0.2,0.9,0,1.6,0.9,2.1c0.2,0.2,0.7,0.2,0.9,0l14.9-4.2v6.7c0,1.4,1.2,2.6,2.6,2.6c0.2,0,0.5,0,0.7-0.2l14.9-4.9"/>
	<path class="st3" d="M165.9,191.1c0,0-7.9-9.3-7.9-18.6"/>
	<path class="st4" d="M190.9,229.2L190.9,229.2c-3.2,3.2-5.3,7.7-5.3,12.3v3c0,6.5,2.8,13,7.4,17.6l4.6,4.4c2.3,2.3,5.6,3.7,9.1,3.7
		l0,0c3.5,0,6.5-1.4,9.1-3.7l4.6-4.4c4.6-4.6,7.4-10.9,7.4-17.6v-2.8c0-4.6-1.9-9.1-5.3-12.3l0,0"/>
	<path class="st4" d="M213,244.5c0,2.3-3,7-7,7s-7-4.6-7-7s3-4.2,7-4.2S213,242.2,213,244.5z"/>
	<line class="st4" x1="206" y1="252.2" x2="206" y2="261.4"/>
	<circle class="st5" cx="225" cy="212.7" r="3.7"/>
	<circle class="st5" cx="187" cy="212.7" r="3.7"/>
	<path class="st4" d="M216.2,195.7h8.4c6,0,11.4,3,14.6,8.1l0,0"/>
	<path class="st4" d="M198.4,195.7H190c-6,0-11.4,3-14.6,8.1l0,0"/>
	<path class="st3" d="M245.2,191.1c0,0,7.9-9.3,7.9-18.6"/>
</g>
<g id="wolf_00000067202743300457662830000017516057773996438188_">
	<path class="st2" d="M311.9,176.2L288.6,146c0,0-12.8,23,3.9,53.4"/>
	<path class="st2" d="M365.2,176.2l23.2-30.2c0,0,12.8,23-3.9,53.4"/>
	<path class="st2" d="M354.3,260.4l14.6,4.9c1.4,0.5,2.8-0.2,3.2-1.6c0-0.2,0.2-0.5,0.2-0.7v-6.7l14.6,4.2c0.9,0.2,1.6-0.2,1.9-1.2
		c0-0.2,0-0.7,0-1.2l-7.4-16.9l10.9-0.2c1.6,0,3-1.4,3-3c0-0.5-0.2-1.2-0.5-1.4l-12.5-21.1h7.2c1.6,0,3-1.4,3-3
		c0-0.5-0.2-1.2-0.5-1.6l-13.5-20.2c-8.8-13.2-23.7-21.1-39.5-21.1l0,0c-16,0-30.6,7.9-39.5,21.1L286,210.9
		c-0.9,1.4-0.5,3.2,0.9,4.2c0.5,0.2,1.2,0.5,1.6,0.5h6.7l-12.5,21.1c-0.9,1.4-0.5,3.2,0.9,4.2c0.5,0.2,0.9,0.5,1.6,0.5h10l-6.5,17.4
		c-0.2,0.9,0,1.6,0.9,2.1c0.2,0.2,0.7,0.2,0.9,0l14.9-4.2v6.7c0,1.4,1.2,2.6,2.6,2.6c0.2,0,0.5,0,0.7-0.2l14.9-4.9"/>
	<path class="st3" d="M298.9,190.1c0,0-7.9-9.3-7.9-18.6"/>
	<path class="st4" d="M323.9,228.2L323.9,228.2c-3.2,3.2-5.3,7.7-5.3,12.3v3c0,6.5,2.8,13,7.4,17.6l4.6,4.4c2.3,2.3,5.6,3.7,9.1,3.7
		l0,0c3.5,0,6.5-1.4,9.1-3.7l4.6-4.4c4.6-4.6,7.4-10.9,7.4-17.6v-2.8c0-4.6-1.9-9.1-5.3-12.3l0,0"/>
	<path class="st4" d="M346,243.5c0,2.3-3,7-7,7c-3.9,0-7-4.6-7-7s3-4.2,7-4.2S346,241.2,346,243.5z"/>
	<line class="st4" x1="339" y1="251.2" x2="339" y2="260.4"/>
	<circle class="st5" cx="358" cy="211.7" r="3.7"/>
	<circle class="st5" cx="320" cy="211.7" r="3.7"/>
	<path class="st4" d="M349.2,194.7h8.4c6,0,11.4,3,14.6,8.1l0,0"/>
	<path class="st4" d="M331.4,194.7H323c-6,0-11.4,3-14.6,8.1l0,0"/>
	<path class="st3" d="M378.2,190.1c0,0,7.9-9.3,7.9-18.6"/>
</g>
</svg>
