<?xml version="1.0" encoding="utf-8"?>
<!-- Generator: Adobe Illustrator 25.4.1, SVG Export Plug-In . SVG Version: 6.00 Build 0)  -->
<svg version="1.1" id="Solid" xmlns="http://www.w3.org/2000/svg" xmlns:xlink="http://www.w3.org/1999/xlink" x="0px" y="0px"
	 viewBox="0 0 64 64" style="enable-background:new 0 0 64 64;" xml:space="preserve">
<style type="text/css">
	.st0{fill:#FF9D00;}
</style>
<g>
	<path class="st0" d="M5.9,15.6l-0.6,3.7c-0.1,0.4,0.1,0.8,0.4,1c0.3,0.2,0.7,0.2,1.1,0l3.2-1.7l3.2,1.7c0.1,0.1,0.3,0.1,0.5,0.1
		s0.4-0.1,0.6-0.2c0.3-0.2,0.5-0.6,0.4-1l-0.6-3.6l2.6-2.6c0.3-0.3,0.4-0.7,0.3-1c-0.1-0.3-0.4-0.6-0.8-0.7l-3.6-0.5l-1.7-3.2
		c-0.3-0.7-1.5-0.7-1.8,0l-1.6,3.2l-3.6,0.6c-0.4,0-0.7,0.3-0.9,0.7c-0.2,0.4,0,0.8,0.3,1L5.9,15.6z"/>
	<path class="st0" d="M61.1,34.1l-3.6-0.5l-1.6-3.3c-0.3-0.7-1.5-0.7-1.8,0l-1.6,3.3l-3.6,0.5c-0.4,0.1-0.7,0.3-0.8,0.7s0,0.8,0.3,1
		l2.6,2.6L50.3,42c-0.1,0.4,0.1,0.8,0.4,1c0.3,0.2,0.7,0.3,1.1,0.1l3.2-1.7l3.2,1.7c0.1,0.1,0.3,0.1,0.5,0.1s0.4-0.1,0.6-0.2
		c0.3-0.2,0.5-0.6,0.4-1l-0.6-3.6l2.6-2.6c0.3-0.3,0.4-0.7,0.3-1S61.5,34.1,61.1,34.1z"/>
	<path class="st0" d="M47,23v1.6l1.5-0.8l7.3,3.8c0.1,0.1,0.3,0.1,0.5,0.1s0.4-0.1,0.6-0.2c0.3-0.2,0.5-0.6,0.4-1l-1.4-8.1l5.9-5.7
		c0.3-0.3,0.4-0.7,0.3-1c-0.1-0.4-0.4-0.6-0.8-0.7L53,9.9l-3.6-7.4c-0.3-0.7-1.5-0.7-1.8,0L44,9.9l-5.7,0.8C43.4,12.5,47,17.3,47,23
		z"/>
	<path class="st0" d="M7,44.4L6.4,44c-1.3-0.8-3-0.4-3.9,0.9c-0.9,1.3-0.5,3,0.7,3.9L7.7,52c0.6,0.4,1.3,0.7,2,0.8l4.8,8.6
		c0.2,0.3,0.5,0.5,0.9,0.5c0.2,0,0.3,0,0.5-0.1c0.5-0.3,0.7-0.9,0.4-1.4L12,53h3.8l5.7,8.6c0.3,0.5,0.9,0.6,1.4,0.3s0.6-0.9,0.3-1.4
		L21,57.2V54h4v7c0,0.6,0.4,1,1,1h18c0.6,0,1-0.4,1-1v-7h4v7c0,0.6,0.4,1,1,1s1-0.4,1-1V49c0-5-4-9-9-9h-1c2.4-1.8,4-4.7,4-8
		c0.6-0.8,1-1.9,1-3v-2c0-0.5-0.5-1-1-1v-0.3V23c0-5.7-4.4-10.4-10-11l0,0l0,0c-0.3,0-0.7,0-1,0H21c-0.5,0-1,0.5-1,1v4
		c0,3.2,2.1,5.8,5,6.7V26c-0.5,0-1,0.5-1,1v2c0,1.1,0.4,2.2,1,3c0,3.3,1.6,6.2,4,8h-1c-5,0-9,4-9,9v5.2l-1.7-2.6
		c-0.1-1.6-0.8-3-1.9-4 M10.6,51c-0.6,0-1.2-0.2-1.7-0.6l-4.5-3.2C4,47,3.9,46.4,4.1,46c0.2-0.3,0.4-0.4,0.7-0.4
		c0.2,0,0.3,0,0.5,0.1l3.5,2.1C8.9,48,9.1,48,9.3,48h2c1.9,0,3.4,1.3,3.9,3H10.6z M41.5,32L38,28.4V28h2.4l2.9,2.9
		C42.9,31.4,42.3,31.8,41.5,32z M43,24v2H27v-2H43z M30,16c0.6,0,1,0.4,1,1c0,1.1,0.4,2.2,1,3c0.4,0.5,0.2,1.1-0.3,1.4
		c-0.4,0.2-1,0.1-1.3-0.3c-0.9-1-1.4-2.5-1.4-4.1C29,16.4,29.4,16,30,16z M24,17c0-0.6,0.4-1,1-1s1,0.4,1,1c0,1.1,0.4,2.2,1,3
		c0.4,0.5,0.2,1.1-0.3,1.4c-0.4,0.2-1,0.1-1.3-0.3C24.5,20.1,24,18.6,24,17z M26,28h2.4l2.9,2.9c-0.4,0.5-1.1,0.9-1.8,1.1L26,28.4
		V28z M27.2,33.7c0.6,0.2,1.2,0.3,1.8,0.3c2.8,0,5-2.2,5-5v-1h2v1c0,2.8,2.2,5,5,5c0.6,0,1.3-0.1,1.8-0.3C42,37.3,38.8,40,35,40
		S27.9,37.3,27.2,33.7z M38,41.5V42c0,1.7-1.3,3-3,3s-3-1.3-3-3v-0.5c0.9,0.3,2,0.5,3,0.5S37.1,41.8,38,41.5z M40.7,53.3l-2.1,2.1
		l0.5,2.9c0.1,0.4-0.1,0.8-0.4,1c-0.2,0.1-0.4,0.2-0.6,0.2c-0.2,0-0.3,0-0.5-0.1L35,58l-2.6,1.4c-0.3,0.2-0.7,0.1-1.1-0.1
		c-0.3-0.2-0.5-0.6-0.4-1l0.5-2.9l-2.1-2.1c-0.3-0.3-0.4-0.7-0.3-1s0.4-0.6,0.8-0.7l2.9-0.4l1.3-2.7c0.3-0.7,1.5-0.7,1.8,0l1.3,2.7
		l2.9,0.4c0.4,0.1,0.7,0.3,0.8,0.7S41,53.1,40.7,53.3z"/>
	<path class="st0" d="M35,37.9c1.2,0,2.5-0.4,3.6-1.1c0.5-0.3,0.6-0.9,0.3-1.4s-0.9-0.6-1.4-0.3c-1.5,1-3.4,1-4.9,0
		c-0.5-0.3-1.1-0.2-1.4,0.3s-0.2,1.1,0.3,1.4C32.5,37.6,33.8,37.9,35,37.9z"/>
</g>
<g>
	<path class="st0" d="M3.9,47.6C4,47.3,4,47,4,46.7c0-0.2,0-0.3,0-0.5c-0.1-0.7-0.2-1.3-0.3-2c0-0.1-0.1-0.1-0.1-0.2
		c-0.2,0.5-0.3,1-0.4,1.4c0,0,0,0-0.1,0c0.1-0.3,0.1-0.6,0.2-1c0-0.2-0.3-0.4-0.6-0.3c-0.1,0-0.3,0.1-0.4,0.1c-0.3,0-0.3,0-0.7-0.2
		c0.2-0.3,0.4-0.6,0.5-1c0.1-0.2,0.1-0.5,0.2-0.8c0-0.1-0.1-0.2-0.2-0.2c-0.2,0-0.4,0.1-0.6,0.1c0.2-0.3,0.4-0.4,0.8-0.4
		c0.3,0,0.4-0.2,0.4-0.5c0-0.1,0.1-0.3,0.1-0.4c0-0.2,0.2-0.4,0.1-0.5c-0.2-0.4,0.2-0.6,0.4-0.9c0.1-0.1,0.2-0.3,0.2-0.3
		c-0.1-0.3,0.1-0.6,0.2-0.8c0.1-0.1,0.1-0.3,0.1-0.5c0-0.4,0-0.8,0.1-1.1c0.1-0.3,0.4-0.6,0.6-1c0.2-0.4,0.7-0.7,0.7-1.3
		c0-0.1,0.3-0.3,0.4-0.4c-0.4-0.4-0.7-0.8-1.1-1.2c0,0,0,0,0.1-0.1c0.7,0.4,1.3,1.2,2.3,0.9c-0.1,0-0.2,0-0.3-0.1c0.3,0,0.6,0,1,0
		c-0.6-0.6-1.1-1.1-1.4-1.8c0.4,0.4,0.8,0.7,1.2,1c0.3,0.2,0.6,0.5,0.9,0.6c0.3,0.1,0.6,0.1,0.9,0.2c0,0,0-0.1,0.1-0.1
		c-0.4-0.3-0.8-0.7-1.1-1c-0.3-0.3-0.6-0.5-0.8-0.8c-0.1-0.2-0.3-0.2-0.5-0.1c-0.3,0.1-0.6,0.1-0.9,0.1c0.3-0.2,0.7-0.4,1.1-0.6
		c0.1,0,0.3,0,0.5,0c0.7-0.2,1.4,0,2.1,0.3c0.5,0.2,1,0.5,1.5,0.8c0.1,0.1,0.3,0.2,0.4,0.3c0.2,0.1,0.4,0.1,0.6-0.1
		c0.2-0.2,0.4-0.5,0.5-0.7c0,0,0-0.1-0.1-0.1c-0.1,0-0.3,0.1-0.4,0.1c0.3-0.4,0.6-0.9,0.9-1.3c-0.2,0-0.4,0-0.6,0
		c-0.5,0-0.6-0.2-0.4-0.7c0.2-0.5,0.6-0.8,1.1-0.9c0.2-0.1,0.4-0.4,0.6-0.6c0.2-0.4,0.5-0.9,1-1c0.6-0.1,0.8-0.6,1-1.1
		c0.2-0.4,0.4-0.7,0.6-1.1c0-0.1,0.2-0.1,0.3-0.1c0.3,0.2,0.5,0.4,0.7,0.6c0.1,0.1,0.1,0.2,0.2,0.3c0.5,0.3,0.6,0.6,0.4,1.1
		c-0.3,0.6-0.3,1.1-0.2,1.7c0,0.1,0.1,0.2,0.1,0.3c0.1,0.1,0.1,0.2,0.2,0.3c0.1,0.4,0.1,0.8,0.1,1.2c0,0.2,0.1,0.3,0.1,0.5
		c0,0.1,0.1,0.2,0,0.3c-0.2,0.6-0.1,1.2,0,1.9c0,0.1,0,0.1,0,0.2c-0.1,0.4-0.1,0.8-0.1,1.2c0,0.2-0.1,0.4-0.2,0.6
		c-0.2,0.7-0.4,1.5-0.6,2.2c0,0.1,0,0.1,0,0.2c0.2,0.4-0.1,0.6-0.2,0.8c-0.1,0.1-0.1,0.1-0.2,0.2c-0.2,0.6-0.5,1.2-0.9,1.7
		c-0.1,0.1-0.2,0.3-0.1,0.5c0.1,0.6-0.1,1.1-0.1,1.7c0,0.5,0,1,0,1.5c0,0.7-0.1,1.3-0.1,2c0,0.4-0.1,0.7-0.1,1.1
		c0,0.3,0.5,0.8,0.9,0.8c0.1,0,0.1,0,0.2,0c0.1,0.2,0.1,0.5,0.2,0.7c0,0.1-0.3,0.3-0.5,0.3c0,0-0.1,0-0.1,0
		c-0.4-0.2-0.8-0.3-1.2-0.3c-0.1,0-0.3-0.2-0.5-0.3c0-0.2,0.1-0.4,0.1-0.6c0-0.2,0-0.5-0.1-0.7c-0.1-0.6-0.3-1.1-0.5-1.6
		c-0.2-0.6-0.8-1-1.1-1.5c-0.2-0.3-0.3-0.6-0.4-0.9c0.5,0.5,1,1,1.6,1.2c0-0.4-0.1-0.7-0.1-1.1c-0.1-1.1-0.3-2.1,0.2-3.1
		c-0.6,0.3-1.1,0.5-1.7,0.8c-0.1,0.1-0.2,0.3-0.2,0.4c0,0.8-0.1,1.5-0.1,2.3c0,0.5,0,1.1,0,1.6c0,0.1,0.1,0.2,0.1,0.4
		c0,0.1,0,0.1,0,0.2c0,0.2,0,0.4,0,0.6c0,0.3,0,0.5,0,0.8c0,0.2-0.1,0.4-0.2,0.6c0,0.1,0,0.1,0,0.1c0.3,0.2,0.6,0.5,0.9,0.7
		c-0.1,0.1-0.1,0.3-0.2,0.3c-0.4,0.1-0.7,0.1-1.1,0.1c-0.1,0-0.1-0.1-0.2-0.1c-0.5,0-0.6-0.4-0.7-0.8c-0.1-0.2,0-0.5,0-0.8
		c0-0.7,0.1-1.4,0.1-2.1c-0.1-0.7-0.3-1.3-0.5-2c-0.1-0.3-0.1-0.5-0.2-0.8c0,0,0.1,0,0.1,0c0.1,0.2,0.3,0.5,0.4,0.8
		c0-0.4,0-0.7,0-0.9c0-0.4-0.1-0.8-0.1-1.2c0-0.1-0.1-0.2-0.2-0.2c-0.4-0.2-0.8-0.3-1.2-0.4c-0.2,0.4-0.4,0.9-0.6,1.3
		c-0.3,0.6-0.8,1-1.4,1.3c-0.5,0.3-0.9,0.6-1.3,0.9c-0.1,0.1-0.2,0.2-0.2,0.3c-0.1,0.3-0.1,0.6-0.1,0.8c0,0.5,0,1.1,0,1.6
		c0,0.1,0.2,0.3,0.2,0.3c0.3,0,0.4,0.2,0.6,0.4c0.1,0.1,0.2,0.2,0.3,0.4C5.7,47.8,4.9,47.7,3.9,47.6z M8.7,31.8
		c-0.3-0.2-0.7-0.2-1-0.3c0,0,0,0.1-0.1,0.1c0.3,0.2,0.5,0.4,0.8,0.5c0.7,0.3,1.3,0.7,1.7,1.4c0.1,0.2,0.3,0.1,0.3,0
		c0.1-0.2,0.2-0.4,0-0.5"/>
</g>
</svg>
