<?xml version="1.0" encoding="utf-8"?>
<!-- Generator: Adobe Illustrator 25.4.1, SVG Export Plug-In . SVG Version: 6.00 Build 0)  -->
<svg version="1.1" xmlns="http://www.w3.org/2000/svg" xmlns:xlink="http://www.w3.org/1999/xlink" x="0px" y="0px"
	 viewBox="0 0 1854.5 267.1" style="enable-background:new 0 0 1854.5 267.1;" xml:space="preserve">
<style type="text/css">
	.st0{display:none;}
	.st1{display:inline;fill:#232323;}
	.st2{fill:#FFFFFF;}
	.st3{fill-rule:evenodd;clip-rule:evenodd;fill:#E84142;}
	.st4{fill:#343434;}
	.st5{fill:#8C8C8C;}
	.st6{fill:#3C3C3B;}
	.st7{fill:#141414;}
	.st8{fill:#393939;}
	.st9{clip-path:url(#SVGID_00000177448890779587330930000012306585500561707440_);}
	.st10{fill:#13B5EC;}
	.st11{fill:#8247E5;}
	.st12{clip-path:url(#SVGID_00000131355256898747383570000000107629850222845614_);}
	.st13{clip-path:url(#SVGID_00000131355256898747383570000000107629850222845614_);fill:#F0B90B;}
</style>
<g id="Layer_2" class="st0">
	<rect x="-52.5" y="-7.7" class="st1" width="1000" height="650"/>
</g>
<g id="Layer_1">
	<g>
		<rect x="1642.7" y="42.8" class="st2" width="165" height="150.1"/>
		<path class="st3" d="M1854.5,133.6c0,73.8-59.8,133.6-133.6,133.6c-73.8,0-133.6-59.8-133.6-133.6C1587.4,59.8,1647.2,0,1721,0
			C1794.8,0,1854.5,59.8,1854.5,133.6z M1683.1,186.7h-25.9c-5.4,0-8.1,0-9.8-1c-1.8-1.1-2.9-3.1-3-5.2c-0.1-1.9,1.2-4.3,3.9-9
			l64-112.8c2.7-4.8,4.1-7.2,5.8-8.1c1.9-1,4.1-1,6,0c1.7,0.9,3.1,3.3,5.8,8.1l13.2,23l0.1,0.1c2.9,5.1,4.4,7.7,5.1,10.5
			c0.7,3,0.7,6.1,0,9.1c-0.7,2.8-2.1,5.4-5.1,10.6l-33.6,59.4l-0.1,0.2c-3,5.2-4.5,7.8-6.5,9.8c-2.3,2.2-5,3.7-8,4.6
			C1692.3,186.7,1689.2,186.7,1683.1,186.7z M1748.6,186.7h37.1c5.5,0,8.2,0,9.9-1.1c1.8-1.1,2.9-3.1,3-5.2c0.1-1.9-1.2-4.1-3.8-8.6
			c-0.1-0.2-0.2-0.3-0.3-0.5l-18.6-31.8l-0.2-0.4c-2.6-4.4-3.9-6.7-5.6-7.5c-1.9-1-4.1-1-5.9,0c-1.7,0.9-3.1,3.2-5.8,7.9l-18.5,31.8
			l-0.1,0.1c-2.7,4.7-4.1,7-4,8.9c0.1,2.1,1.2,4,3,5.2C1740.4,186.7,1743.1,186.7,1748.6,186.7z"/>
	</g>
	<g>
		<circle class="st2" cx="451" cy="133.5" r="133.5"/>
		<g>
			<g>
				<polygon class="st4" points="451,20.1 449.5,25.2 449.5,175.2 451,176.8 520.6,135.6 				"/>
				<polygon class="st5" points="451,20.1 381.3,135.6 451,176.8 451,104 				"/>
				<polygon class="st6" points="451,190 450.1,191 450.1,244.4 451,246.9 520.7,148.8 				"/>
				<polygon class="st5" points="451,246.9 451,190 381.3,148.8 				"/>
				<polygon class="st7" points="451,176.8 520.6,135.6 451,104 				"/>
				<polygon class="st8" points="381.3,135.6 451,176.8 451,104 				"/>
			</g>
		</g>
	</g>
	<g>
		<defs>
			<circle id="SVGID_1_" cx="133.5" cy="133.5" r="133.5"/>
		</defs>
		<clipPath id="SVGID_00000090283129363668959450000008096682204474331793_">
			<use xlink:href="#SVGID_1_"  style="overflow:visible;"/>
		</clipPath>
		<g style="clip-path:url(#SVGID_00000090283129363668959450000008096682204474331793_);">
			<path d="M268.8,267c-89.6,0-179.2,0-268.8,0C0,177.4,0,87.8,0-1.8c89.6,0,179.2,0,268.8,0C268.8,87.8,268.8,177.4,268.8,267z
				 M64.4,68.8c0,3.9,3.1,7.1,7,7.1c3.8,0.1,7.2-3.2,7.2-6.9c0.1-3.9-3.4-7.4-7.2-7.3C67.5,61.7,64.4,64.9,64.4,68.8z M190.7,68.8
				c0,4,3,7,7,7.1c3.9,0,7.1-3.1,7.2-6.9c0.1-3.9-3.4-7.3-7.3-7.3C193.8,61.7,190.7,64.9,190.7,68.8z M187.3,91.1
				c3.7,0.2,6.7-2.7,6.8-6.3c0.1-3.4-2.8-6.5-6.2-6.6c-3.6-0.2-6.7,2.7-6.8,6.4C181.1,88.2,183.7,91,187.3,91.1z M88,84.6
				c-0.1-3.7-3.1-6.5-6.7-6.4c-3.4,0.1-6.2,3.1-6.2,6.6c0.1,3.7,3,6.5,6.7,6.3C85.4,91,88.1,88.2,88,84.6z M98.1,98
				c-0.1-3.5-3-6.3-6.5-6.3c-3.5,0-6.5,3.2-6.4,6.8c0.1,3.5,3.1,6.2,6.7,6.1C95.4,104.4,98.2,101.5,98.1,98z M177.4,104.5
				c3.5,0.1,6.5-2.6,6.6-6.1c0.1-3.5-2.9-6.7-6.5-6.7c-3.4,0-6.3,2.9-6.4,6.4C171.1,101.6,173.8,104.4,177.4,104.5z M70.5,85.3
				c0.1-3.4-2.8-6.4-6.2-6.5c-3.6-0.1-6.5,2.5-6.6,6.1c-0.1,3.7,2.6,6.7,6.3,6.7C67.5,91.6,70.5,88.8,70.5,85.3z M211.5,85.2
				c0-3.5-2.8-6.4-6.4-6.4c-3.6,0-6.4,2.8-6.4,6.4c0,3.5,2.8,6.4,6.4,6.4C208.7,91.6,211.5,88.8,211.5,85.2z M66.8,109.4
				c-3.4,0-6.2,2.7-6.3,6.1c0,3.3,2.8,6.2,6.2,6.2c3.2,0,6-2.7,6.1-5.9C73,112.3,70.2,109.4,66.8,109.4z M208.5,115.5
				c0-3.5-2.6-6.2-6.1-6.1c-3.5,0.1-6.2,2.8-6.1,6.2c0,3.2,2.8,6,6,6C205.7,121.7,208.5,119,208.5,115.5z M74,107.2
				c3.4,0.1,6-2.4,6.1-5.8c0.1-3.5-2.5-6.3-5.9-6.4c-3.3,0-6,2.6-6.2,5.9C67.9,104.4,70.5,107.1,74,107.2z M195,95c-3.3,0-6,2.7-6,6
				c0,3.4,2.7,6.2,6.1,6.2c3.5,0,6-2.7,5.9-6.3C201,97.6,198.3,95,195,95z M71.8,182.1c3,0.1,5.8-2.5,6-5.6c0.1-3-2.5-5.9-5.6-6.1
				c-3.1-0.2-6.1,2.6-6.1,5.8C66.1,179.2,68.8,182,71.8,182.1z M84.1,119.9c3.3,0,5.9-2.6,5.9-5.9c0-3.2-2.6-5.7-5.7-5.7
				c-3.4,0-5.9,2.6-5.9,5.9C78.5,117.3,81,119.9,84.1,119.9z M190.8,114.1c0.1-3.1-2.5-5.8-5.6-5.9c-3.2-0.1-6,2.5-6.1,5.8
				c0,3.1,2.5,5.8,5.6,5.9C188,120,190.7,117.4,190.8,114.1z M164.8,137c-3.1,0-5.7,2.6-5.7,5.8c0,3.3,2.4,5.8,5.6,5.9
				c3.1,0.1,5.8-2.5,5.9-5.6C170.8,139.8,168.1,137,164.8,137z M205.6,145.7c-0.1-3.1-2.7-5.7-5.8-5.7c-3.4,0-5.8,2.7-5.7,6.1
				c0.1,3.3,2.6,5.6,5.9,5.5C203.2,151.4,205.7,148.9,205.6,145.7z M203,176.3c0-3.2-2.4-5.8-5.6-5.9c-3.3-0.1-5.9,2.5-5.9,5.9
				c0,3.1,2.6,5.8,5.8,5.8C200.3,182.1,202.9,179.4,203,176.3z M110.1,142.7c-0.1-3.1-2.8-5.8-5.8-5.8c-3.3,0-5.9,2.8-5.8,6.1
				c0.1,3.2,2.9,5.7,6,5.6C107.6,148.5,110.2,145.8,110.1,142.7z M69.2,140c-3.1,0.1-5.7,2.7-5.7,5.9c0,3.3,2.8,5.8,6.1,5.7
				c3.1-0.1,5.7-2.9,5.5-6C75,142.5,72.3,139.9,69.2,140z M160.5,157c-0.1-3.2-2.7-5.7-5.9-5.6c-3.3,0.1-5.6,2.6-5.5,5.9
				c0.1,3.2,2.7,5.7,5.8,5.6C158,162.8,160.5,160.1,160.5,157z M114.5,151.4c-3.3,0-5.7,2.4-5.8,5.7c0,3.3,2.4,5.8,5.6,5.9
				c3.1,0,5.8-2.5,5.8-5.7C120.2,154,117.7,151.4,114.5,151.4z M106.8,112.4c0-2.8-2.4-5.2-5.2-5.1c-2.8,0.1-5,2.5-4.9,5.3
				c0.1,2.7,2.4,4.9,5,4.9C104.5,117.6,106.8,115.3,106.8,112.4z M119.5,171.3c-0.1,2.8,2,5.2,4.8,5.3c2.7,0.1,5.2-2.2,5.3-4.9
				c0.1-2.6-2.2-5.2-4.9-5.4C122.1,166.3,119.6,168.6,119.5,171.3z M207.3,156.6c-2.9,0-5,2.2-5.1,5c0,3.1,2.2,5.3,5.2,5.2
				c2.8-0.1,5-2.4,5-5.2C212.3,158.9,210,156.6,207.3,156.6z M61.8,166.8c2.9,0.1,5.2-2.1,5.3-5c0.1-2.7-2.3-5.2-5-5.3
				c-2.8-0.1-5.2,2.2-5.3,5C56.7,164.4,58.9,166.8,61.8,166.8z M172.6,112.5c0-2.6-2.5-5.1-5.1-5.1c-2.8,0-5,2.3-5,5.1
				c0,2.9,2.2,5.1,5,5.1C170,117.6,172.6,115.1,172.6,112.5z M144.7,176.7c2.7-0.1,5.1-2.6,5-5.3c-0.1-2.8-2.6-5.1-5.3-4.9
				c-2.6,0.2-4.8,2.4-4.8,5.1C139.6,174.4,142,176.8,144.7,176.7z M94.4,123.3c-2.8,0-5.1,2.2-5,5.1c0,2.8,2.1,4.9,4.8,5
				c2.8,0.1,5.2-2.1,5.3-4.9C99.5,125.7,97.2,123.4,94.4,123.3z M139.7,158.6c0.1-2.7-2.3-5.2-5.1-5.2c-2.7,0-4.9,2.1-5,4.8
				c-0.1,3,1.9,5.2,4.8,5.3C137.3,163.7,139.6,161.5,139.7,158.6z M192.5,125c-2.8-0.1-5.2,2.2-5.2,5c0,2.8,2.4,5.1,5.2,5.1
				c2.7,0,4.9-2.2,5-4.9C197.6,127.3,195.4,125,192.5,125z M179.9,128.6c0.1-2.8-2.2-5.2-5-5.2c-2.8,0-5.1,2.2-5.1,5.1
				c0,2.8,2,4.9,4.7,5.1C177.3,133.6,179.8,131.3,179.9,128.6z M76.7,125c-2.9,0-5.1,2.3-5,5.2c0.1,2.7,2.3,4.8,5,4.9
				c2.9,0,5.2-2.2,5.2-5C81.8,127.2,79.6,125,76.7,125z M134.5,191.3c2.8,0.1,5.2-2.2,5.2-5c0-2.8-2.3-5.1-5.1-5.1
				c-2.7,0-4.9,2.1-5,4.8C129.5,189,131.6,191.3,134.5,191.3z M111.8,122.6c-2.6,0.3-4.2,1.7-4.2,4.3c0,2.5,1.5,4.1,4.1,4.3
				c2.4,0.2,4.6-2,4.4-4.4C116,124.1,114.4,122.8,111.8,122.6z M157.1,131.2c2.5-0.1,4.7-2.2,4.5-4.3c-0.2-2.5-1.6-4.1-4.3-4.2
				c-2.5-0.1-4.5,1.9-4.3,4.4C153.3,129.7,154.9,131,157.1,131.2z M209.8,127.2c-2.4,0.4-4.1,1.7-4.1,4.4c0,2.6,1.7,4.1,4.2,4.3
				c2.3,0.2,4.5-2.2,4.3-4.5C214,128.6,212.4,127.4,209.8,127.2z M63.4,131.6c-0.2-2.5-1.4-4.2-4.1-4.3c-2.6-0.1-4.2,1.3-4.4,3.9
				c-0.2,2.5,1.8,4.8,4.2,4.6C61.6,135.7,63.1,134.2,63.4,131.6z M208.7,192.4c0.1-2.4-1.8-4.4-4.1-4.5c-2.2-0.1-4.4,2-4.3,4.2
				c0,2.5,1.5,3.9,3.9,4.2C206.6,196.6,208.6,194.8,208.7,192.4z M64.3,188c-2.3,0.4-3.9,1.7-3.8,4.4c0,2.4,2,4.2,4.4,4
				c2.5-0.2,3.9-1.6,3.9-4.2C68.8,189.8,66.9,187.9,64.3,188z M61,102c0-0.5,0-1.1,0-1.6c-1.5-1-2.8-2.7-4.4-2.9
				c-2.2-0.3-3.8,1.3-3.8,3.7c0,2.4,1.5,4.1,3.8,3.7C58.2,104.6,59.5,103,61,102z M208.1,100.4c0,0.5,0,1.1,0,1.6
				c1.5,1,2.8,2.6,4.4,2.9c2.2,0.4,3.8-1.2,3.8-3.7c0-2.4-1.6-4-3.8-3.7C211,97.7,209.6,99.3,208.1,100.4z M121.1,188
				c0-0.5,0-1-0.1-1.5c-1.3-0.9-2.6-2.3-4-2.4c-2.1-0.2-3.8,1.4-3.3,3.5c0.3,1.3,2.2,3.1,3.3,3.1C118.4,190.8,119.8,189,121.1,188z
				 M152.7,183.4c-0.5,0-1,0-1.5,0c-0.9,1.4-2.6,2.9-2.5,4.2c0.1,1.2,2,2.9,3.3,3.1c2.1,0.4,3.7-1.4,3.3-3.5
				C155.1,185.9,153.6,184.7,152.7,183.4z M78.7,164.2c0.5,0,1.1,0,1.6,0c0.9-1.3,2.3-2.5,2.5-3.9c0.3-2.1-1.2-3.9-3.4-3.4
				c-1.3,0.3-3.1,2.1-3.2,3.2C76.1,161.5,77.8,162.9,78.7,164.2z M189,164.2c0.5,0,1,0,1.5,0c0.9-1.3,2.3-2.5,2.5-3.9
				c0.3-2.1-1.1-3.6-3.4-3.5c-2.3,0.1-3.7,1.6-3.3,3.7C186.6,161.8,188.1,163,189,164.2z M215.3,174c-0.5,0-0.9,0-1.4,0
				c-0.8,1.2-2.4,2.6-2.3,3.7c0.1,1.2,1.9,2.2,3,3.2c1-1.1,2.8-2.1,2.9-3.3C217.8,176.6,216.2,175.3,215.3,174z M54.8,173.1
				c-1.7,2.1-3.4,3.4-3.3,4.5c0.1,1.2,1.8,2.3,2.8,3.4c1.1-1,2.9-1.9,3.2-3.1C57.7,176.8,56.1,175.4,54.8,173.1z M123.4,139
				c0-0.5,0-0.9,0-1.4c-1.2-0.8-2.5-2.4-3.6-2.3c-1.2,0.1-3,1.9-3,2.9c0,1.1,1.7,2.8,2.9,3C120.9,141.4,122.2,139.8,123.4,139z
				 M148.8,142c0.5,0,1,0,1.5-0.1c0.8-1.3,2.2-2.6,2.1-3.7c-0.2-1.2-2-2-3.1-3.1c-1,1.1-2.7,2.1-2.8,3.3
				C146.4,139.6,148,140.8,148.8,142z M166.2,173.4c-1.8-1.4-2.8-2.9-3.8-2.9c-1,0-2,1.5-3,2.4c0.9,1,1.6,2.6,2.6,2.7
				C163,175.8,164.2,174.5,166.2,173.4z M110.9,173.4c-1.8-1.5-2.8-3-3.8-2.9c-1,0.1-2,1.6-3,2.5c0.9,1,1.6,2.5,2.7,2.7
				C107.7,175.8,109,174.5,110.9,173.4z M220.7,147.1c-1.8-1-2.8-2.1-3.8-2c-0.8,0.1-2.2,1.7-2,2.3c0.3,1,1.5,2.1,2.5,2.3
				C218.2,149.8,219.1,148.4,220.7,147.1z M146.1,148.2c-1.8-1.2-2.9-2.4-3.8-2.3c-0.8,0-2.1,1.5-2.1,2.3c0,0.8,1.3,2.3,2.1,2.3
				C143.3,150.5,144.3,149.4,146.1,148.2z M55.8,147.5c-1.9-1.3-2.9-2.5-3.9-2.4c-0.8,0-2.1,1.4-2.2,2.3c0,0.8,1.2,2.3,2,2.4
				C52.7,149.8,53.8,148.7,55.8,147.5z M172,162.1c1.3-1.5,2.6-2.4,2.5-3.1c-0.1-1-1.4-1.9-2.1-2.8c-0.8,0.8-2.1,1.6-2.3,2.6
				C169.8,159.5,171,160.5,172,162.1z M90.5,144.4c-1.7-1.2-2.7-2.4-3.5-2.3c-1,0.2-2.1,1.4-2.3,2.4c-0.1,0.6,1.4,2.1,2.1,2.1
				C87.8,146.6,88.8,145.5,90.5,144.4z M185.9,144.7c-1.6-1.3-2.5-2.6-3.3-2.5c-1,0.1-2.2,1.2-2.5,2.2c-0.2,0.6,1.2,2.2,2,2.3
				C183,146.7,184,145.7,185.9,144.7z M126.6,144.4c-1.1,2-2.2,3-2.1,4c0.1,0.8,1.5,2.1,2.3,2.1c0.8,0,2.2-1.4,2.2-2.2
				C129,147.3,127.8,146.3,126.6,144.4z M100.5,158.7c-1.7-1.2-2.6-2.3-3.6-2.3c-0.7,0-2.2,1.6-2.1,2.2c0.2,0.9,1.4,2.2,2.3,2.3
				C97.8,161.1,98.8,159.8,100.5,158.7z M218.9,70.7c-1.9-1.1-3-2.2-3.9-2.1c-0.8,0.1-2,1.6-2,2.4c0,0.8,1.4,2.2,2.2,2.2
				C216.1,73.1,217.1,71.9,218.9,70.7z M53.8,67.3c-1.1,1.7-2.2,2.8-2.1,3.5c0.2,1,1.5,1.7,2.4,2.5c0.8-0.8,2.1-1.6,2.1-2.4
				C56.3,69.9,55.1,68.9,53.8,67.3z M130.1,202.1c-1.3-1-2.2-2.1-2.9-2.1c-0.8,0-1.5,1.2-2.2,1.9c0.7,0.7,1.3,1.9,2.1,2
				C127.8,203.9,128.7,202.9,130.1,202.1z M145,201.9c-1.5-1-2.4-2-3.1-1.9c-0.8,0.2-1.7,1.3-1.9,2.2c-0.1,0.4,1.3,1.7,1.9,1.7
				C142.8,203.8,143.6,202.9,145,201.9z"/>
			<path class="st2" d="M64.4,68.8c0-3.9,3.1-7,7-7.1c3.9-0.1,7.3,3.4,7.2,7.3c-0.1,3.8-3.5,7-7.2,6.9
				C67.5,75.8,64.4,72.7,64.4,68.8z"/>
			<path class="st2" d="M190.7,68.8c0-3.9,3.1-7.1,7-7.2c3.9,0,7.3,3.4,7.3,7.3c-0.1,3.9-3.3,6.9-7.2,6.9
				C193.7,75.8,190.7,72.8,190.7,68.8z"/>
			<path class="st2" d="M187.3,91.1c-3.6-0.1-6.2-2.9-6.1-6.6c0.1-3.7,3.1-6.5,6.8-6.4c3.4,0.2,6.3,3.2,6.2,6.6
				C194.1,88.5,191,91.3,187.3,91.1z"/>
			<path class="st2" d="M88,84.6c0.1,3.6-2.6,6.4-6.2,6.5c-3.8,0.1-6.7-2.6-6.7-6.3c-0.1-3.5,2.7-6.5,6.2-6.6
				C84.9,78.1,87.9,80.9,88,84.6z"/>
			<path class="st2" d="M98.1,98c0.1,3.5-2.6,6.4-6.2,6.5c-3.6,0.1-6.5-2.6-6.7-6.1c-0.2-3.6,2.8-6.8,6.4-6.8
				C95,91.6,98,94.5,98.1,98z"/>
			<path class="st2" d="M177.4,104.5c-3.6-0.1-6.3-2.8-6.3-6.4c0-3.5,3-6.4,6.4-6.4c3.6,0,6.6,3.1,6.5,6.7
				C183.9,101.8,180.9,104.5,177.4,104.5z"/>
			<path class="st2" d="M70.5,85.3c-0.1,3.4-3.1,6.3-6.5,6.2c-3.7,0-6.5-3-6.3-6.7c0.1-3.5,3-6.2,6.6-6.1
				C67.8,78.9,70.6,81.9,70.5,85.3z"/>
			<path class="st2" d="M211.5,85.2c0,3.6-2.9,6.4-6.4,6.4c-3.5,0-6.4-2.9-6.4-6.4c0-3.6,2.8-6.4,6.4-6.4
				C208.7,78.8,211.5,81.7,211.5,85.2z"/>
			<path class="st2" d="M66.8,109.4c3.4,0,6.1,2.9,6,6.3c-0.1,3.2-2.9,5.9-6.1,5.9c-3.4,0-6.2-2.8-6.2-6.2
				C60.6,112.1,63.4,109.4,66.8,109.4z"/>
			<path class="st2" d="M208.5,115.5c0,3.5-2.8,6.2-6.2,6.1c-3.2-0.1-6-2.8-6-6c-0.1-3.4,2.6-6.1,6.1-6.2
				C205.8,109.3,208.5,112,208.5,115.5z"/>
			<path class="st2" d="M74,107.2c-3.5-0.1-6.1-2.8-6-6.3c0.1-3.3,2.9-5.9,6.2-5.9c3.4,0,6,2.8,5.9,6.4
				C80,104.8,77.4,107.3,74,107.2z"/>
			<path class="st2" d="M195,95c3.3,0,6,2.5,6.1,5.9c0.1,3.6-2.4,6.3-5.9,6.3c-3.4,0-6.2-2.7-6.1-6.2C189.1,97.8,191.8,95.1,195,95z
				"/>
			<path class="st2" d="M71.8,182.1c-3-0.1-5.7-2.8-5.7-5.9c0-3.2,3-6,6.1-5.8c3.1,0.2,5.7,3.1,5.6,6.1
				C77.7,179.5,74.9,182.2,71.8,182.1z"/>
			<path class="st2" d="M84.1,119.9c-3.1,0-5.7-2.6-5.7-5.7c0-3.4,2.5-6,5.9-5.9c3.2,0,5.7,2.6,5.7,5.7
				C90.1,117.2,87.4,119.9,84.1,119.9z"/>
			<path class="st2" d="M190.8,114.1c-0.1,3.3-2.8,5.9-6.1,5.8c-3.1-0.1-5.7-2.8-5.6-5.9c0-3.3,2.8-5.9,6.1-5.8
				C188.3,108.3,190.9,111,190.8,114.1z"/>
			<path class="st2" d="M164.8,137c3.2,0,5.9,2.8,5.8,6.1c-0.1,3.1-2.8,5.7-5.9,5.6c-3.2-0.1-5.6-2.6-5.6-5.9
				C159.2,139.5,161.7,136.9,164.8,137z"/>
			<path class="st2" d="M205.6,145.7c0.1,3.2-2.4,5.8-5.6,5.9c-3.3,0.1-5.8-2.2-5.9-5.5c-0.1-3.4,2.3-6.1,5.7-6.1
				C202.9,139.9,205.5,142.5,205.6,145.7z"/>
			<path class="st2" d="M203,176.3c0,3.1-2.7,5.8-5.7,5.8c-3.1,0-5.7-2.6-5.8-5.8c0-3.4,2.6-6.1,5.9-5.9
				C200.5,170.5,203,173.1,203,176.3z"/>
			<path class="st2" d="M110.1,142.7c0.1,3.1-2.6,5.8-5.7,5.9c-3.1,0.1-5.8-2.4-6-5.6c-0.1-3.3,2.5-6.1,5.8-6.1
				C107.4,136.9,110.1,139.6,110.1,142.7z"/>
			<path class="st2" d="M69.2,140c3.1-0.1,5.8,2.5,6,5.6c0.1,3.1-2.4,5.8-5.5,6c-3.3,0.1-6.1-2.4-6.1-5.7
				C63.5,142.7,66.1,140.1,69.2,140z"/>
			<path class="st2" d="M160.5,157c0.1,3.1-2.5,5.9-5.6,5.9c-3.1,0.1-5.8-2.4-5.8-5.6c-0.1-3.3,2.3-5.8,5.5-5.9
				C157.8,151.3,160.4,153.8,160.5,157z"/>
			<path class="st2" d="M114.5,151.4c3.1,0,5.7,2.7,5.7,5.8c-0.1,3.2-2.7,5.7-5.8,5.7c-3.2,0-5.6-2.6-5.6-5.9
				C108.8,153.7,111.2,151.3,114.5,151.4z"/>
			<path class="st2" d="M106.8,112.4c0,2.8-2.3,5.2-5.1,5.2c-2.6,0-4.9-2.2-5-4.9c-0.1-2.8,2.1-5.2,4.9-5.3
				C104.4,107.3,106.8,109.6,106.8,112.4z"/>
			<path class="st2" d="M119.5,171.3c0.1-2.8,2.6-5,5.3-4.9c2.7,0.1,5,2.7,4.9,5.4c-0.1,2.7-2.7,5-5.3,4.9
				C121.5,176.5,119.4,174.2,119.5,171.3z"/>
			<path class="st2" d="M207.3,156.6c2.8,0,5.1,2.3,5.1,5.1c0,2.8-2.2,5.1-5,5.2c-3,0.1-5.3-2.1-5.2-5.2
				C202.2,158.7,204.4,156.6,207.3,156.6z"/>
			<path class="st2" d="M61.8,166.8c-2.9-0.1-5.1-2.4-5-5.2c0.1-2.8,2.4-5.1,5.3-5c2.8,0.1,5.1,2.5,5,5.3
				C67,164.7,64.7,166.9,61.8,166.8z"/>
			<path class="st2" d="M172.6,112.5c0,2.6-2.6,5.1-5.1,5.1c-2.8,0-5-2.2-5-5.1c0-2.9,2.2-5.1,5-5.1
				C170.1,107.4,172.6,109.9,172.6,112.5z"/>
			<path class="st2" d="M144.7,176.7c-2.7,0.1-5.1-2.3-5.1-5.1c0-2.7,2.1-5,4.8-5.1c2.7-0.2,5.2,2.1,5.3,4.9
				C149.8,174.1,147.5,176.6,144.7,176.7z"/>
			<path class="st2" d="M94.4,123.3c2.8,0,5.1,2.4,5,5.2c-0.1,2.8-2.5,5-5.3,4.9c-2.7-0.1-4.8-2.3-4.8-5
				C89.3,125.6,91.5,123.3,94.4,123.3z"/>
			<path class="st2" d="M139.7,158.6c-0.1,2.8-2.4,5.1-5.3,5c-2.9-0.1-4.9-2.3-4.8-5.3c0.1-2.7,2.3-4.8,5-4.8
				C137.4,153.4,139.8,155.9,139.7,158.6z"/>
			<path class="st2" d="M192.5,125c2.9,0.1,5.1,2.4,5,5.2c-0.1,2.7-2.3,4.9-5,4.9c-2.8,0-5.2-2.3-5.2-5.1
				C187.3,127.2,189.7,124.9,192.5,125z"/>
			<path class="st2" d="M179.9,128.6c-0.1,2.7-2.6,5-5.3,4.9c-2.7-0.1-4.7-2.3-4.7-5.1c0-2.9,2.2-5.1,5.1-5.1
				C177.7,123.4,180,125.8,179.9,128.6z"/>
			<path class="st2" d="M76.7,125c2.9,0,5.2,2.2,5.2,5c0,2.8-2.3,5.1-5.2,5c-2.7,0-4.9-2.2-5-4.9C71.6,127.3,73.7,125,76.7,125z"/>
			<path class="st2" d="M134.5,191.3c-2.9-0.1-5-2.3-4.9-5.2c0.1-2.7,2.2-4.8,5-4.8c2.8,0,5.1,2.3,5.1,5.1
				C139.7,189.1,137.3,191.4,134.5,191.3z"/>
			<path class="st2" d="M111.8,122.6c2.6,0.3,4.2,1.6,4.4,4.2c0.2,2.4-2.1,4.5-4.4,4.4c-2.6-0.2-4.1-1.8-4.1-4.3
				C107.6,124.2,109.2,122.8,111.8,122.6z"/>
			<path class="st2" d="M157.1,131.2c-2.2-0.2-3.8-1.5-4-4.1c-0.2-2.5,1.8-4.5,4.3-4.4c2.7,0.1,4,1.8,4.3,4.2
				C161.9,129,159.6,131.1,157.1,131.2z"/>
			<path class="st2" d="M209.8,127.2c2.6,0.2,4.2,1.5,4.4,4.1c0.2,2.4-2,4.8-4.3,4.5c-2.5-0.3-4.2-1.7-4.2-4.3
				C205.7,128.9,207.4,127.6,209.8,127.2z"/>
			<path class="st2" d="M63.4,131.6c-0.3,2.6-1.8,4.1-4.3,4.2c-2.4,0.1-4.4-2.2-4.2-4.6c0.2-2.6,1.8-4.1,4.4-3.9
				C62,127.4,63.3,129.1,63.4,131.6z"/>
			<path class="st2" d="M208.7,192.4c-0.1,2.4-2.1,4.2-4.5,4c-2.4-0.3-3.9-1.7-3.9-4.2c0-2.3,2.1-4.3,4.3-4.2
				C206.9,188,208.8,190,208.7,192.4z"/>
			<path class="st2" d="M64.3,188c2.6-0.1,4.5,1.8,4.5,4.2c0,2.5-1.4,3.9-3.9,4.2c-2.4,0.2-4.4-1.6-4.4-4
				C60.4,189.6,62,188.3,64.3,188z"/>
			<path class="st2" d="M61,102c-1.5,1-2.9,2.6-4.5,2.8c-2.3,0.4-3.8-1.3-3.8-3.7c0-2.4,1.6-4.1,3.8-3.7c1.6,0.2,3,1.9,4.4,2.9
				C61,100.9,61,101.5,61,102z"/>
			<path class="st2" d="M208.1,100.4c1.5-1,2.9-2.7,4.4-2.9c2.2-0.3,3.8,1.3,3.8,3.7c0,2.4-1.5,4-3.8,3.7c-1.6-0.3-3-1.9-4.4-2.9
				C208.1,101.4,208.1,100.9,208.1,100.4z"/>
			<path class="st2" d="M121.1,188c-1.3,1-2.7,2.7-4,2.7c-1.2,0-3-1.8-3.3-3.1c-0.5-2.1,1.2-3.7,3.3-3.5c1.4,0.2,2.7,1.6,4,2.4
				C121.1,187,121.1,187.5,121.1,188z"/>
			<path class="st2" d="M152.7,183.4c0.9,1.3,2.4,2.4,2.7,3.8c0.4,2.1-1.1,3.9-3.3,3.5c-1.3-0.2-3.3-2-3.3-3.1
				c-0.1-1.3,1.6-2.8,2.5-4.2C151.7,183.5,152.2,183.5,152.7,183.4z"/>
			<path class="st2" d="M78.7,164.2c-0.9-1.4-2.6-2.8-2.5-4.1c0.1-1.2,1.9-3,3.2-3.2c2.2-0.5,3.7,1.3,3.4,3.4
				c-0.2,1.4-1.6,2.6-2.5,3.9C79.8,164.2,79.3,164.2,78.7,164.2z"/>
			<path class="st2" d="M189,164.2c-0.9-1.3-2.4-2.4-2.7-3.8c-0.4-2.1,1-3.6,3.3-3.7c2.3-0.1,3.7,1.4,3.4,3.5
				c-0.2,1.4-1.6,2.6-2.5,3.9C190,164.2,189.5,164.2,189,164.2z"/>
			<path class="st2" d="M215.3,174c0.8,1.2,2.4,2.5,2.3,3.7c-0.1,1.2-1.9,2.2-2.9,3.3c-1.1-1.1-2.9-2.1-3-3.2
				c-0.1-1.1,1.4-2.5,2.3-3.7C214.4,174,214.9,174,215.3,174z"/>
			<path class="st2" d="M54.8,173.1c1.4,2.3,2.9,3.7,2.7,4.8c-0.2,1.2-2,2.1-3.2,3.1c-1-1.1-2.8-2.2-2.8-3.4
				C51.4,176.4,53.1,175.2,54.8,173.1z"/>
			<path class="st2" d="M123.4,139c-1.2,0.8-2.6,2.4-3.6,2.2c-1.2-0.2-2.9-1.9-2.9-3c0-1,1.8-2.8,3-2.9c1.1-0.1,2.4,1.5,3.6,2.3
				C123.4,138.1,123.4,138.6,123.4,139z"/>
			<path class="st2" d="M148.8,142c-0.8-1.2-2.4-2.4-2.3-3.5c0.1-1.2,1.8-2.2,2.8-3.3c1.1,1,2.9,1.9,3.1,3.1
				c0.2,1.1-1.3,2.5-2.1,3.7C149.8,141.9,149.3,142,148.8,142z"/>
			<path class="st2" d="M166.2,173.4c-1.9,1.2-3.2,2.5-4.1,2.3c-1-0.2-1.8-1.8-2.6-2.7c1-0.9,1.9-2.4,3-2.4
				C163.4,170.5,164.4,171.9,166.2,173.4z"/>
			<path class="st2" d="M110.9,173.4c-1.9,1.2-3.2,2.5-4.1,2.3c-1-0.2-1.8-1.7-2.7-2.7c1-0.9,1.9-2.4,3-2.5
				C108.1,170.4,109.1,171.9,110.9,173.4z"/>
			<path class="st2" d="M220.7,147.1c-1.6,1.3-2.5,2.6-3.3,2.5c-1-0.2-2.2-1.3-2.5-2.3c-0.2-0.6,1.2-2.3,2-2.3
				C217.9,145,219,146.1,220.7,147.1z"/>
			<path class="st2" d="M146.1,148.2c-1.9,1.2-2.9,2.3-3.8,2.3c-0.8,0-2.1-1.5-2.1-2.3c0-0.8,1.3-2.3,2.1-2.3
				C143.3,145.8,144.3,147,146.1,148.2z"/>
			<path class="st2" d="M55.8,147.5c-2,1.2-3,2.3-4,2.2c-0.8-0.1-2.1-1.5-2-2.4c0-0.8,1.4-2.2,2.2-2.3
				C52.9,145.1,53.8,146.2,55.8,147.5z"/>
			<path class="st2" d="M172,162.1c-1-1.6-2.1-2.7-2-3.4c0.3-1,1.5-1.7,2.3-2.6c0.8,0.9,2,1.8,2.1,2.8
				C174.6,159.7,173.2,160.6,172,162.1z"/>
			<path class="st2" d="M90.5,144.4c-1.7,1.1-2.7,2.3-3.7,2.2c-0.8,0-2.3-1.6-2.1-2.1c0.2-1,1.4-2.2,2.3-2.4
				C87.8,142,88.8,143.2,90.5,144.4z"/>
			<path class="st2" d="M185.9,144.7c-1.8,1-2.9,2.1-3.8,2c-0.8-0.1-2.1-1.8-2-2.3c0.3-0.9,1.6-2,2.5-2.2
				C183.3,142,184.2,143.3,185.9,144.7z"/>
			<path class="st2" d="M126.6,144.4c1.2,1.9,2.4,2.9,2.4,3.9c0,0.8-1.4,2.1-2.2,2.2c-0.8,0-2.2-1.3-2.3-2.1
				C124.4,147.4,125.5,146.4,126.6,144.4z"/>
			<path class="st2" d="M100.5,158.7c-1.6,1.1-2.7,2.4-3.4,2.2c-0.9-0.2-2.2-1.4-2.3-2.3c-0.1-0.7,1.4-2.2,2.1-2.2
				C97.9,156.4,98.8,157.5,100.5,158.7z"/>
			<path class="st2" d="M218.9,70.7c-1.8,1.3-2.8,2.4-3.8,2.5c-0.8,0-2.1-1.4-2.2-2.2c0-0.8,1.2-2.3,2-2.4
				C215.9,68.5,217,69.6,218.9,70.7z"/>
			<path class="st2" d="M53.8,67.3c1.2,1.7,2.4,2.6,2.4,3.6c0,0.8-1.4,1.6-2.1,2.4c-0.8-0.8-2.2-1.5-2.4-2.5
				C51.6,70,52.8,69,53.8,67.3z"/>
			<path class="st2" d="M130.1,202.1c-1.4,0.9-2.3,1.9-3,1.8c-0.8-0.1-1.4-1.3-2.1-2c0.7-0.7,1.4-1.8,2.2-1.9
				C128,199.9,128.8,201,130.1,202.1z"/>
			<path class="st2" d="M145,201.9c-1.4,1-2.2,2-3,2c-0.7,0-2-1.3-1.9-1.7c0.2-0.9,1.1-2,1.9-2.2C142.6,199.8,143.5,200.9,145,201.9
				z"/>
		</g>
	</g>
	<g>
		<path class="st10" d="M1396,0c5,0,10,0,15,0c4.6,0.6,9.2,1.1,13.7,1.8c73.3,12.1,122.5,80.4,110.5,153.5
			c-12.4,75.7-87,125.8-161.6,108.3c-52.8-12.4-92.2-54.2-101.5-107.6c-0.9-5-1.4-10-2.1-15c0-5,0-10,0-15
			c0.7-5.1,1.3-10.2,2.1-15.3c9.1-55,53.6-99.5,108.6-108.6C1385.8,1.3,1390.9,0.7,1396,0z M1453.7,133.2c0-17.4,0-34.9,0-52.3
			c0-1.7-0.4-2.7-2-3.6c-15.5-8.7-31-17.5-46.4-26.3c-1.4-0.8-2.3-0.7-3.6,0.1c-15.4,8.8-30.8,17.5-46.2,26.2
			c-1.6,0.9-2.2,1.9-2.2,3.7c0.1,34.8,0.1,69.6,0,104.3c0,1.7,0.5,2.7,2,3.6c15.5,8.7,31,17.5,46.4,26.3c1.3,0.8,2.3,0.7,3.6,0
			c15.4-8.8,30.8-17.5,46.2-26.2c1.6-0.9,2.2-1.9,2.2-3.8C1453.7,167.9,1453.7,150.6,1453.7,133.2z"/>
		<path class="st2" d="M1453.7,133.2c0,17.3,0,34.7,0,52c0,1.8-0.6,2.8-2.2,3.8c-15.4,8.7-30.8,17.4-46.2,26.2
			c-1.3,0.7-2.3,0.8-3.6,0c-15.4-8.8-30.9-17.6-46.4-26.3c-1.5-0.9-2-1.9-2-3.6c0-34.8,0.1-69.6,0-104.3c0-1.9,0.6-2.8,2.2-3.7
			c15.4-8.7,30.8-17.4,46.2-26.2c1.3-0.7,2.3-0.8,3.6-0.1c15.4,8.8,30.9,17.6,46.4,26.3c1.6,0.9,2,1.9,2,3.6
			C1453.7,98.4,1453.7,115.8,1453.7,133.2z M1363.9,142.2c-0.2,0.5-0.3,0.7-0.3,0.8c0,12.7-0.1,25.4,0,38.1c0,0.9,0.9,2.1,1.7,2.6
			c12.2,7.2,24.4,14.3,36.6,21.4c1.3,0.7,2.1,0.7,3.4,0c12.1-7.1,24.2-14.2,36.4-21.2c1.4-0.8,1.9-1.7,1.9-3.4
			c-0.1-9.6,0-19.2,0-28.8c0-3.1,0-6.2,0-9.6c-1.2,0.6-2,1-2.8,1.5c-11.6,6.8-23.2,13.5-34.8,20.3c-1.8,1.1-3.1,1-4.8-0.1
			c-6.2-3.8-12.6-7.4-18.9-11.1C1376.2,149.3,1370.1,145.8,1363.9,142.2z M1368.7,81.9c11.4,6.5,22.6,13,33.9,19.3
			c0.7,0.4,2,0,2.8-0.4c10.5-5.9,20.9-11.9,31.3-17.8c0.5-0.3,1-0.6,1.6-1.1c-1-0.6-1.7-1.1-2.4-1.6c-10-6-20-11.9-30-17.9
			c-1.7-1-2.8-1.1-4.5,0c-10,6.1-20.2,12-30.2,18.1C1370.3,80.8,1369.6,81.3,1368.7,81.9z M1368.6,133.6
			c10.2,5.9,19.9,11.6,29.8,17.4c0-11.8,0-23.1,0-34.8C1388.4,122,1378.7,127.6,1368.6,133.6z M1363.8,90.4c0,11.8,0,23,0,34.7
			c10-5.8,19.7-11.5,29.7-17.3C1383.4,101.8,1373.8,96.2,1363.8,90.4z M1443.3,125c0-11.7,0-23,0-34.6c-10,5.8-19.7,11.5-29.7,17.3
			C1423.7,113.6,1433.4,119.2,1443.3,125z M1408.7,150.9c10-5.9,19.7-11.5,29.8-17.4c-10.2-5.9-19.9-11.6-29.8-17.4
			C1408.7,127.9,1408.7,139.1,1408.7,150.9z"/>
		<path class="st10" d="M1363.9,142.2c6.3,3.6,12.3,7.2,18.4,10.7c6.3,3.7,12.6,7.3,18.9,11.1c1.7,1,3,1.1,4.8,0.1
			c11.5-6.9,23.2-13.6,34.8-20.3c0.8-0.5,1.7-0.9,2.8-1.5c0,3.5,0,6.5,0,9.6c0,9.6,0,19.2,0,28.8c0,1.6-0.5,2.5-1.9,3.4
			c-12.2,7-24.3,14.1-36.4,21.2c-1.2,0.7-2.1,0.8-3.4,0c-12.2-7.2-24.4-14.2-36.6-21.4c-0.8-0.5-1.7-1.7-1.7-2.6
			c-0.1-12.7-0.1-25.4,0-38.1C1363.6,142.8,1363.7,142.7,1363.9,142.2z"/>
		<path class="st10" d="M1368.7,81.9c0.9-0.6,1.7-1.1,2.4-1.6c10.1-6,20.2-12,30.2-18.1c1.7-1,2.9-1,4.5,0c10,6,20,12,30,17.9
			c0.7,0.4,1.5,0.9,2.4,1.6c-0.7,0.5-1.1,0.8-1.6,1.1c-10.4,6-20.8,11.9-31.3,17.8c-0.8,0.5-2.2,0.8-2.8,0.4
			C1391.3,94.9,1380.1,88.4,1368.7,81.9z"/>
		<path class="st10" d="M1368.6,133.6c10.2-5.9,19.8-11.6,29.8-17.4c0,11.7,0,23,0,34.8C1388.5,145.1,1378.7,139.5,1368.6,133.6z"/>
		<path class="st10" d="M1363.8,90.4c10,5.8,19.7,11.5,29.7,17.3c-10,5.8-19.7,11.5-29.7,17.3
			C1363.8,113.4,1363.8,102.1,1363.8,90.4z"/>
		<path class="st10" d="M1443.3,125c-9.9-5.8-19.6-11.5-29.7-17.3c10-5.9,19.7-11.5,29.7-17.3C1443.3,102,1443.3,113.3,1443.3,125z"
			/>
		<path class="st10" d="M1408.7,150.9c0-11.8,0-23.1,0-34.8c10,5.8,19.6,11.4,29.8,17.4C1428.5,139.4,1418.8,145.1,1408.7,150.9z"/>
	</g>
	<g>
		<path class="st11" d="M1085.9,267c-75.9,0.1-134.2-63-133.4-135c0.8-72.4,61.2-132.9,135.3-132c70.5,0.9,132.6,59.1,131.7,135.3
			C1218.6,208,1159,267.2,1085.9,267z M1077,114.9c5.7-3.2,10.9-6.1,16-9.1c0.7-0.4,1.1-1.7,1.1-2.6c0.1-3.8,0-7.6,0.1-11.4
			c0.1-4.7-2-8-6.2-10.3c-11.5-6.4-23-12.9-34.4-19.5c-4.5-2.6-8.7-2.6-13.2-0.1c-11.5,6.5-23.1,13-34.8,19.3
			c-4.5,2.4-6.5,5.9-6.5,11c0.1,12.9,0.1,25.8,0,38.7c0,5,1.9,8.4,6.3,10.8c11.6,6.3,23.1,12.7,34.5,19.2c4.8,2.7,9.2,2.6,13.9-0.1
			c21.5-12.2,43.1-24.2,64.6-36.3c3.8-2.1,7.6-2.5,11.4-0.5c6.6,3.5,13.1,7.2,19.6,10.9c3.8,2.1,5.6,5.4,5.6,9.8
			c0,6.7,0,13.5,0,20.2c0,4.6-1.8,8-5.9,10.2c-6.1,3.4-12.2,6.9-18.3,10.4c-4.1,2.4-8.2,2.5-12.4,0.1c-5.7-3.2-11.3-6.5-17.1-9.5
			c-5.1-2.7-7.5-6.6-7.2-12.4c0.2-3.8,0-7.6,0-11.9c-5.7,3.2-10.8,6-15.8,9c-0.7,0.4-1.2,1.7-1.2,2.5c-0.1,3.8,0,7.6-0.1,11.4
			c-0.1,4.7,1.9,8.1,6.1,10.4c11.9,6.6,23.9,13.2,35.7,19.9c3.9,2.2,7.8,2.2,11.6,0.1c12.2-6.7,24.3-13.5,36.5-20.3
			c3.7-2.1,5.6-5.3,5.6-9.6c0-13.5,0-26.9,0-40.4c0-4.4-2-7.6-5.8-9.7c-11.9-6.6-23.8-13.2-35.7-20c-4.6-2.6-8.9-2.5-13.4,0.1
			c-21.6,12.3-43.2,24.4-64.7,36.7c-4.1,2.3-8.1,2.5-12.1,0.2c-6.4-3.6-12.9-7.2-19.3-10.9c-3.6-2.1-5.5-5.3-5.5-9.6
			c0.1-7,0.1-14,0-21c0-4.3,1.8-7.4,5.6-9.5c6.1-3.4,12.3-6.8,18.3-10.3c4.3-2.5,8.4-2.4,12.7,0c5.9,3.4,11.9,6.7,17.9,10
			c4.2,2.3,6.3,5.7,6.2,10.6C1076.9,106,1077,110.1,1077,114.9z"/>
		<path class="st2" d="M1077,114.9c0-4.8-0.1-9,0-13.1c0.1-4.9-2-8.3-6.2-10.6c-6-3.3-11.9-6.6-17.9-10c-4.2-2.4-8.4-2.5-12.7,0
			c-6.1,3.5-12.2,6.9-18.3,10.3c-3.7,2.1-5.6,5.2-5.6,9.5c0.1,7,0.1,14,0,21c-0.1,4.4,1.9,7.5,5.5,9.6c6.4,3.7,12.8,7.3,19.3,10.9
			c4.1,2.3,8,2.1,12.1-0.2c21.6-12.3,43.2-24.4,64.7-36.7c4.5-2.6,8.8-2.7,13.4-0.1c11.8,6.8,23.8,13.4,35.7,20
			c3.8,2.1,5.8,5.3,5.8,9.7c0,13.5,0,26.9,0,40.4c0,4.3-1.9,7.5-5.6,9.6c-12.1,6.8-24.3,13.6-36.5,20.3c-3.8,2.1-7.7,2.1-11.6-0.1
			c-11.9-6.7-23.8-13.3-35.7-19.9c-4.2-2.3-6.2-5.7-6.1-10.4c0.1-3.8-0.1-7.6,0.1-11.4c0-0.9,0.5-2.1,1.2-2.5c5-3,10.1-5.8,15.8-9
			c0,4.3,0.2,8.1,0,11.9c-0.3,5.8,2.1,9.7,7.2,12.4c5.8,3,11.4,6.3,17.1,9.5c4.2,2.3,8.2,2.3,12.4-0.1c6.1-3.5,12.1-7,18.3-10.4
			c4.1-2.3,5.9-5.7,5.9-10.2c0-6.7,0-13.5,0-20.2c0-4.4-1.9-7.7-5.6-9.8c-6.5-3.7-13-7.4-19.6-10.9c-3.8-2-7.6-1.7-11.4,0.5
			c-21.5,12.1-43.1,24.2-64.6,36.3c-4.7,2.7-9.1,2.8-13.9,0.1c-11.4-6.5-22.9-12.9-34.5-19.2c-4.4-2.4-6.4-5.8-6.3-10.8
			c0.1-12.9,0.1-25.8,0-38.7c0-5.1,2-8.6,6.5-11c11.6-6.3,23.2-12.8,34.8-19.3c4.5-2.5,8.7-2.5,13.2,0.1c11.4,6.6,22.9,13,34.4,19.5
			c4.1,2.3,6.3,5.6,6.2,10.3c-0.1,3.8,0.1,7.6-0.1,11.4c0,0.9-0.4,2.2-1.1,2.6C1087.8,108.9,1082.6,111.7,1077,114.9z"/>
	</g>
	<g>
		<g>
			<defs>
				<circle id="SVGID_00000011026847240144830170000010246120598895062951_" cx="768.5" cy="133.5" r="133.5"/>
			</defs>
			<clipPath id="SVGID_00000118387133971031197200000011682425884073093768_">
				<use xlink:href="#SVGID_00000011026847240144830170000010246120598895062951_"  style="overflow:visible;"/>
			</clipPath>
			<circle style="clip-path:url(#SVGID_00000118387133971031197200000011682425884073093768_);" cx="769.4" cy="136.6" r="133.5"/>
			<path style="clip-path:url(#SVGID_00000118387133971031197200000011682425884073093768_);fill:#F0B90B;" d="M724,138.2
				l-19.2,19.2l-19.4-19.2l19.3-19.3L724,138.2z M770.9,91.3l33,33l19.4-19.3l-52.4-52.2l-52.4,52.4l19.4,19.3L770.9,91.3z
				 M836.9,118.8l-19.2,19.3l19.3,19.3l19.3-19.3L836.9,118.8z M770.9,185.1l-33-33.2l-19.4,19.3l52.4,52.4l52.4-52.4l-19.4-19.3
				L770.9,185.1z M770.9,157.4l19.3-19.4l-19.3-19.2l-19.3,19.3L770.9,157.4L770.9,157.4z"/>
		</g>
	</g>
</g>
</svg>
