<?xml version="1.0" encoding="utf-8"?>
<!-- Generator: Adobe Illustrator 25.4.1, SVG Export Plug-In . SVG Version: 6.00 Build 0)  -->
<svg version="1.1" id="Layer_1" xmlns="http://www.w3.org/2000/svg" xmlns:xlink="http://www.w3.org/1999/xlink" x="0px" y="0px"
	 viewBox="0 0 128 128" style="enable-background:new 0 0 128 128;" xml:space="preserve">
<style type="text/css">
	.st0{fill:#FFFFFF;stroke:#020000;stroke-width:2;stroke-miterlimit:10;}
</style>
<polygon class="st0" points="51.4,120.5 51.9,119 52.7,117.3 53.7,115.6 54.1,113.8 55.3,112.1 55.5,110.2 56.3,108.4 57.4,106.8 
	58.5,105.3 59.6,103.7 60.3,101.9 61.4,100.3 61.7,98.3 62.9,96.7 63.8,95.1 65.3,93.7 65.8,91.8 67.1,90.3 68.3,88.8 69.1,87.1 
	70.3,85.5 71.7,84.1 73.3,83 74.2,81.3 75.4,79.7 76.4,78.1 77.8,76.8 78.7,75.2 80.5,74.1 81.5,72.5 82.2,70.4 84,69.7 84.9,67.9 
	86.6,66.6 87.5,65.2 88.7,63.4 90.4,62.8 91.3,61.1 92.6,59.7 94.3,58.7 95.3,57.1 96.7,55.9 98.1,54.5 99.1,53 100.8,51.9 
	102.3,50.9 103.6,49.5 104.9,48.1 106.4,47 107.8,45.7 109.2,44.5 110.9,43.5 112,42 113.6,41 114.9,39.6 116.6,38.8 118.1,37.7 
	119.2,36.9 117.8,37.2 116.3,38.4 114.4,38.6 113,40 111,40.1 109.7,41.7 107.7,41.9 106.5,43.5 104.9,44.4 103.2,45.3 101.4,45.8 
	100,47.1 98.2,47.7 96.7,48.8 95.3,50.2 93.6,51 92.4,52.5 90.8,53.4 89,54.2 87.9,55.8 86.7,57.3 84.9,57.9 84,59.7 82.2,60.5 
	81.1,62.2 79.7,63.3 78,64 77,66 76,67.6 74.4,68.6 73.1,70 72.6,71.9 71.1,73.2 69.8,74.6 69.1,76.4 68.2,78 66.6,79.1 65.9,80.9 
	65,82.5 64.4,84.3 63.6,86 62.7,87.5 61.9,89.3 60.9,90.8 59.7,92.3 59.6,94.3 58.1,95.7 57.6,97.5 57.6,99.6 56.4,101.1 
	55.9,102.9 55.2,104.7 55.2,106.5 54.4,108.2 53.6,109.9 53.5,111.9 52.8,113.7 52.5,115.4 52,117.1 51.5,118.9 "/>
<polygon class="st0" points="9.6,92.8 10.3,90.3 11.4,88.1 12.6,86.3 13.1,84.3 14.2,82.8 14.7,80.8 15.9,79.3 16.9,77.7 17.6,75.9 
	18.9,74.4 19.9,72.7 20.5,71 22.3,69.7 22.8,67.8 24.4,66.5 24.6,64.6 26.2,63 27.7,62 28.7,60.1 29.8,58.5 31.6,57.5 32.2,55.5 
	34.1,54.6 34.8,52.6 36.3,51.5 37.7,50 38.8,48.5 40.5,47.5 41.2,45.5 43.2,44.8 44.5,43.4 45.3,41.6 46.8,41 48,39 49.8,38.1 
	50.6,36.2 52.3,35.2 53.1,33.8 55.3,33 56.6,31.4 58.2,30.6 59.2,28.8 60.3,27.4 62.2,26.5 63.4,25.2 65.4,24.5 66.7,23.1 
	68.4,22.1 69.5,20.5 71.4,19.7 72.6,18.2 74.6,17.7 75.7,16.1 77.6,15.7 79.1,14.3 82.1,13 78.7,13.5 77.1,14.4 75,14.6 73.7,15.9 
	71.7,16.4 69.6,16.5 68.1,17.7 66.2,18.2 65,19.6 63.2,19.8 61.7,21.4 60.1,21.6 58.3,23.1 56.4,23.3 54.9,24.6 53.5,25.9 51.9,27 
	50.1,27.5 48.8,28.9 46.8,29.3 45.7,31.1 44.1,31.8 43,34 41.1,34.4 40.3,36.2 38.5,37.2 37.7,38.9 35.7,39.8 34.9,41.5 32.9,42.4 
	32.2,44.1 31.2,45.8 29.3,47 28.7,48.7 27.4,50.1 26.7,51.8 25.2,53.1 24.6,54.9 23,56.2 22.7,58.2 21,59.4 20.8,61.5 19.3,62.8 
	19.2,64.8 18.3,66.6 17.3,68.1 16.2,69.8 15.6,71.6 14.6,73.2 14,74.9 13.7,76.8 12.8,78.6 12.6,80.5 11.9,82.2 11.4,84 11,85.9 
	10.2,87.6 9.6,89.7 "/>
<polygon class="st0" points="25.6,118.9 26.2,116.7 27.3,115.3 28,113.5 28.4,111.7 29.8,110.2 30.5,108.4 31.4,106.7 31.8,104.9 
	33,103.4 33.3,101.4 34.2,99.6 34.7,97.7 36,96.3 37.2,95.3 37.9,93.1 39.3,91.7 39.8,89.8 41.2,88.5 42.1,86.8 43.1,85.2 
	43.6,83.2 45,81.9 45.8,80.2 46.7,78.5 48.3,77.3 49.1,75.6 50.6,74.3 51.5,72.7 52.4,71 53.8,69.5 54.7,67.9 55.9,66.4 57.6,65.3 
	58.3,63.4 60,62.4 61,60.8 61.8,59 63.1,57.5 65,56.7 65.9,55.1 66.9,53.5 68.5,52.3 69.6,50.8 71.3,49.9 72.8,48.8 73.7,46.8 
	75.3,45.9 76.7,44.7 77.7,43 79.2,41.9 80.8,40.7 82.1,39.4 83.9,38.8 85.5,37.8 86.7,36.3 88,34.8 89.7,34 91.1,32.7 92.5,31.5 
	94.2,30.7 95.7,29.5 97,28.1 99,27.6 100.1,26.1 102,25.4 103.3,24 104.8,22.9 106.6,22.1 108.1,21.1 109.7,20 111.6,19.7 113,18.2 
	114.8,17.9 116.1,16.2 117.9,15.6 119.7,14.7 117.8,15.2 115.8,15.4 114.2,16.6 112.2,16.4 110.4,17.1 108.8,18.4 107.1,19 
	105.2,19.7 103.3,19.9 101.9,21.3 99.9,21.6 98.1,22.3 96.3,22.9 94.7,24 92.9,24.5 91.5,25.9 89.8,26.8 88,27.5 86.3,28.2 84.6,29 
	83.1,30.3 81.4,31.1 80.1,32.7 78.3,33 77,34.9 75.3,35.4 73.9,37.2 72,37.4 70.8,39.2 69.5,40.6 67.7,41 66.3,42.8 64.6,43.7 
	63.5,45.2 62.1,46.6 60.4,47.2 59.3,49.1 57.7,50 56.6,51.8 55,53 54.5,55 53.4,56.6 51.9,57.8 51.1,59.7 49.6,60.4 48.5,62.6 
	47.4,64.1 46.7,65.9 45.6,67.5 44.2,68.9 43.5,70.7 42.6,72.3 41.6,74 41,75.8 39.7,77.3 38.7,78.9 38.4,80.6 37.4,82.5 36.1,84.1 
	35.7,85.9 35,87.7 33.9,89.4 33.7,91.3 33.2,93.1 32.5,94.9 31.5,96.6 30.9,98.4 30.8,100.3 29.6,102.1 29.5,103.9 28.3,105.6 
	28.6,107.6 27.3,109.3 27.2,111.2 26.4,113 26.5,114.8 25.6,116.6 "/>
</svg>
