<?xml version="1.0" encoding="utf-8"?>
<!-- Generator: Adobe Illustrator 25.4.1, SVG Export Plug-In . SVG Version: 6.00 Build 0)  -->
<svg version="1.1" id="Layer_1" xmlns="http://www.w3.org/2000/svg" xmlns:xlink="http://www.w3.org/1999/xlink" x="0px" y="0px"
	 viewBox="0 0 201.8 66.3" style="enable-background:new 0 0 201.8 66.3;" xml:space="preserve">
<style type="text/css">
	.st0{opacity:0.6;}
	.st1{clip-path:url(#SVGID_00000157301276704459499170000004806738164270955650_);fill:#010101;}
	.st2{opacity:0.45;}
	.st3{clip-path:url(#SVGID_00000181059891099807234870000005062241625263045264_);fill:#686861;}
	.st4{opacity:0.8;}
	.st5{clip-path:url(#SVGID_00000034048375824679583830000005727717177798748062_);fill:#010101;}
	.st6{clip-path:url(#SVGID_00000005945789131965196600000011844883612450266013_);fill:#4C4C48;}
	.st7{clip-path:url(#SVGID_00000095318783833183194190000017232854418158191504_);fill:#333325;}
	.st8{fill:#FFFFFF;}
	.st9{fill:none;stroke:#FFFFFD;stroke-miterlimit:10;}
</style>
<g>
	<g class="st0">
		<g>
			<g>
				<defs>
					<rect id="SVGID_1_" x="1.8" y="24.8" width="39.6" height="20.7"/>
				</defs>
				<clipPath id="SVGID_00000146461735352017679990000004101390477253185432_">
					<use xlink:href="#SVGID_1_"  style="overflow:visible;"/>
				</clipPath>
				<path style="clip-path:url(#SVGID_00000146461735352017679990000004101390477253185432_);fill:#010101;" d="M21.6,24.8l-19.8,9
					l19.8,11.7l19.8-11.7L21.6,24.8z"/>
			</g>
		</g>
	</g>
	<g class="st2">
		<g>
			<g>
				<defs>
					<rect id="SVGID_00000060021563362431243690000001113707312698084019_" x="1.8" y="1" width="19.8" height="44.5"/>
				</defs>
				<clipPath id="SVGID_00000140718285032415394790000004420636095497041085_">
					<use xlink:href="#SVGID_00000060021563362431243690000001113707312698084019_"  style="overflow:visible;"/>
				</clipPath>
				<path style="clip-path:url(#SVGID_00000140718285032415394790000004420636095497041085_);fill:#686861;" d="M1.8,33.8l19.8,11.7
					V1L1.8,33.8z"/>
			</g>
		</g>
	</g>
	<g class="st4">
		<g>
			<g>
				<defs>
					<rect id="SVGID_00000090270829409644276090000005475727746489586335_" x="21.6" y="1" width="19.8" height="44.5"/>
				</defs>
				<clipPath id="SVGID_00000034804193139595075230000009151598986339109793_">
					<use xlink:href="#SVGID_00000090270829409644276090000005475727746489586335_"  style="overflow:visible;"/>
				</clipPath>
				<path style="clip-path:url(#SVGID_00000034804193139595075230000009151598986339109793_);fill:#010101;" d="M21.6,1v44.5
					l19.8-11.7L21.6,1z"/>
			</g>
		</g>
	</g>
	<g class="st2">
		<g>
			<g>
				<defs>
					<rect id="SVGID_00000141424218742575212620000008419059343729864114_" x="1.8" y="37.6" width="19.8" height="27.9"/>
				</defs>
				<clipPath id="SVGID_00000160896929861103272880000013939220370140617382_">
					<use xlink:href="#SVGID_00000141424218742575212620000008419059343729864114_"  style="overflow:visible;"/>
				</clipPath>
				<path style="clip-path:url(#SVGID_00000160896929861103272880000013939220370140617382_);fill:#4C4C48;" d="M1.8,37.6l19.8,27.9
					V49.3L1.8,37.6z"/>
			</g>
		</g>
	</g>
	<g class="st4">
		<g>
			<g>
				<defs>
					<rect id="SVGID_00000019651309197140058930000015548903800322122155_" x="21.6" y="37.6" width="19.8" height="27.9"/>
				</defs>
				<clipPath id="SVGID_00000126303264285580854310000006148491842672136885_">
					<use xlink:href="#SVGID_00000019651309197140058930000015548903800322122155_"  style="overflow:visible;"/>
				</clipPath>
				<path style="clip-path:url(#SVGID_00000126303264285580854310000006148491842672136885_);fill:#333325;" d="M21.6,49.3v16.2
					l19.8-27.9L21.6,49.3z"/>
			</g>
		</g>
	</g>
	<path class="st8" d="M63.7,35c0,0.3-0.3,0.6-0.6,0.6H51.3c0.3,2.9,2.5,5.6,5.6,5.6c2.1,0,3.7-0.8,4.9-2.5c0.2-0.2,0.4-0.4,0.8-0.2
		c0.2,0.1,0.3,0.2,0.3,0.4s0,0.3-0.1,0.4c-1.2,2.1-3.6,3.1-5.9,3.1c-4,0-6.8-3.6-6.8-7.4s2.8-7.4,6.8-7.4
		C60.9,27.7,63.7,31.2,63.7,35 M62.5,34.5c-0.3-2.9-2.5-5.6-5.6-5.6s-5.3,2.7-5.6,5.6H62.5z M78.1,28c0.3,0,0.6,0.3,0.6,0.6
		c0,0.3-0.3,0.6-0.6,0.6h-3.2v12.5c0,0.3-0.3,0.6-0.6,0.6c-0.3,0-0.6-0.3-0.6-0.6V29.2h-3.1c-0.3,0-0.6-0.3-0.6-0.6
		c0-0.3,0.3-0.6,0.6-0.6h3.2v-4.6c0-0.3,0.2-0.6,0.5-0.6c0.4-0.1,0.7,0.2,0.7,0.6V28H78.1L78.1,28z M97.5,34v7.5
		c0,0.3-0.3,0.6-0.6,0.6c-0.3,0-0.6-0.3-0.6-0.6V34c0-2.5-1.4-5.1-4.3-5.1c-3.6,0-5.2,3.2-5,6.4c0,0.1,0,0.5,0,0.5v5.7
		c0,0.3-0.2,0.6-0.5,0.6c-0.4,0.1-0.7-0.2-0.7-0.6V16.7c0-0.3,0.3-0.6,0.6-0.6c0.3,0,0.6,0.3,0.6,0.6v14c1-1.8,2.8-3.1,5-3.1
		C95.5,27.7,97.5,30.8,97.5,34 M118.7,35c0,0.3-0.3,0.6-0.6,0.6h-11.9c0.3,2.9,2.5,5.6,5.6,5.6c2.1,0,3.7-0.8,4.9-2.5
		c0.2-0.2,0.4-0.4,0.8-0.2c0.2,0.1,0.3,0.2,0.3,0.4s0,0.3-0.1,0.4c-1.2,2.1-3.6,3.1-5.9,3.1c-4,0-6.8-3.6-6.8-7.4s2.8-7.4,6.8-7.4
		C115.8,27.7,118.7,31.2,118.7,35 M117.5,34.5c-0.3-2.9-2.5-5.6-5.6-5.6s-5.3,2.7-5.6,5.6H117.5z M133.3,28.5c0,0.4-0.2,0.6-0.6,0.6
		c-3.5,0.5-5,3.3-5,6.7v5.7c0,0.3-0.2,0.6-0.5,0.6c-0.4,0.1-0.7-0.2-0.7-0.6V28.6c0-0.3,0.2-0.6,0.5-0.6c0.4-0.1,0.7,0.2,0.7,0.6
		v2.6c1-1.6,2.9-3.2,5-3.2C132.9,28,133.3,28.2,133.3,28.5 M152.7,35c0,0.3-0.3,0.6-0.6,0.6h-11.8c0.3,2.9,2.5,5.6,5.6,5.6
		c2.1,0,3.7-0.8,4.9-2.5c0.2-0.2,0.4-0.4,0.8-0.2c0.2,0.1,0.3,0.2,0.3,0.4s0,0.3-0.1,0.4c-1.2,2.1-3.6,3.1-5.9,3.1
		c-4,0-6.8-3.6-6.8-7.4s2.8-7.4,6.8-7.4C149.8,27.7,152.7,31.2,152.7,35 M151.5,34.5c-0.3-2.9-2.5-5.6-5.6-5.6s-5.3,2.7-5.6,5.6
		H151.5z M171.8,28.7v12.9c0,0.3-0.3,0.6-0.6,0.6s-0.6-0.3-0.6-0.6v-2.5c-1,2-2.7,3.3-4.9,3.3c-3.5,0-5.5-3.1-5.5-6.3v-7.6
		c0-0.3,0.3-0.6,0.6-0.6s0.6,0.3,0.6,0.6v7.6c0,2.5,1.4,5.1,4.3,5.1c4,0,4.9-3.7,4.9-7.8v-4.8c0-0.3,0.3-0.7,0.8-0.6
		C171.7,28.2,171.8,28.4,171.8,28.7 M201.8,33.9v7.6c0,0.3-0.3,0.6-0.6,0.6s-0.6-0.3-0.6-0.6v-7.6c0-2.5-1.4-5-4.3-5
		c-3.6,0-4.9,3.8-4.9,6.8v5.9c0,0.3-0.3,0.6-0.6,0.6s-0.6-0.3-0.6-0.6V34c0-2.5-1.4-5-4.3-5c-3.6,0-5.1,2.8-5,6.6c0,0.1,0,0.3,0,0.3
		v5.7c0,0.3-0.2,0.6-0.5,0.6c-0.4,0.1-0.7-0.2-0.7-0.6v-13c0-0.3,0.2-0.6,0.5-0.6c0.4-0.1,0.7,0.2,0.7,0.6v2.2c1-1.8,2.8-3,5-3
		c2.4,0,4.3,1.5,5,3.8c1-2.2,2.9-3.8,5.3-3.8C199.8,27.7,201.8,30.7,201.8,33.9"/>
</g>
<polygon class="st9" points="21.6,1 1.8,33.8 21.6,45.5 41.4,33.8 "/>
<polygon class="st9" points="1.8,37.6 21.6,49.3 41.4,37.6 21.6,65.5 "/>
</svg>
