<?xml version="1.0" encoding="utf-8"?>
<!-- Generator: Adobe Illustrator 25.4.1, SVG Export Plug-In . SVG Version: 6.00 Build 0)  -->
<svg version="1.1" id="Layer_1" xmlns="http://www.w3.org/2000/svg" xmlns:xlink="http://www.w3.org/1999/xlink" x="0px" y="0px"
	 viewBox="0 0 375.8 428.7" style="enable-background:new 0 0 375.8 428.7;" xml:space="preserve">
<style type="text/css">
	.st0{fill:#FFFFFF;}
</style>
<circle class="st0" cx="187.9" cy="187.9" r="187.9"/>
<g>
	<path d="M42.2,408.2c1-5.9,2-10.6,2.5-15.4c0.3-2.5-0.3-5.1-0.6-7.7c-1.3-10.6-2.6-21.1-4-31.7c-0.1-0.9-1-1.7-1.7-2.7
		c-2.4,8-4.6,15.2-6.8,22.4c-0.4-0.1-0.7-0.2-1.1-0.3c0.9-5.1,1.7-10.1,2.6-15.2c0.6-3.6-4.3-6.4-9.4-5.1c-2,0.5-4,1.4-6.1,1.7
		c-4,0.5-5,0.1-11.5-3.7c2.7-5.2,5.8-10.3,8.1-15.7c1.6-3.8,2.3-8.1,2.8-12.3c0.1-1-2.1-3.2-3.1-3.1c-3.1,0.3-6.1,1.4-9.1,2.1
		c2.6-4.3,6.8-6.1,12-6.3c5.5-0.2,7-2.5,6.1-7.9c-0.3-2.1,0.8-4.5,1.3-6.7c0.6-2.7,2.6-5.8,1.8-7.9c-2.7-7,3-10,5.8-14.4
		c1.1-1.8,3.3-4,2.9-5.5c-1.2-5.3,1.2-9.2,3.3-13.5c1.1-2.2,1.3-4.8,1.6-7.2c0.6-5.8,0.1-12,1.8-17.4c1.8-5.5,6.2-10.2,8.8-15.5
		c3.4-6.9,10.7-11.4,11.8-19.9c0.3-2.3,4.4-4,6.6-5.9c-5.8-6.3-11.9-13-18-19.7c0.3-0.4,0.6-0.7,1-1.1c11.4,6.2,20.2,18.6,36.1,14.2
		c-1.7-0.4-3.1-0.7-5.2-1.2c5.3,0,9.8,0,15.6,0c-9.1-8.9-16.9-17.1-21.6-28.5c7,5.6,13.2,10.8,19.7,15.8c4.7,3.6,9.2,7.8,14.5,10.2
		c4.4,2,9.8,1.8,14.7,2.6c0.3-0.5,0.6-1,1-1.6c-6-5.4-12-10.8-17.9-16.2c-4.4-4-9.1-7.8-13-12.3c-2.3-2.7-4.4-2.6-7.2-2
		c-4.7,1-9.4,1.7-14.5,1.7c5.3-3.2,10.6-6.4,16.7-10c1.7,0,5,0.6,8.1-0.1c11.5-2.7,22.3,0.6,32.6,4.8c8.2,3.3,15.6,8.5,23.3,13
		c2.3,1.3,4.6,2.8,6.8,4.3c3.3,2.3,6.3,2.3,8.9-1c2.9-3.6,5.8-7.2,8.7-10.8c-0.3-0.5-0.7-1-1-1.5c-2.2,0.7-4.5,1.3-7,2.1
		c4.9-6.9,9.6-13.6,14.8-20.9c-3.3,0-6.6,0.1-9.9,0c-8-0.2-9.9-3.2-6.6-10.5c3.5-7.6,9-12.2,17.2-14.9c3.7-1.2,7-5.9,9-9.8
		c3.5-7,7.3-13.8,15.2-15.6c9.5-2.2,12.6-9.5,16.4-16.8c3.1-5.9,6.3-11.8,9.9-17.4c0.7-1.1,3.9-2.1,4.7-1.5c4,3,7.6,6.5,11.3,10
		c1.3,1.2,1.9,3.2,3.3,4c7.6,4.4,9.5,8.9,5.8,16.9c-4.1,8.9-5.4,17.9-2.9,27.3c0.4,1.6,1.6,3,2.3,4.6c0.9,1.8,2.1,3.5,2.4,5.3
		c0.9,6.2,1.4,12.5,2.1,18.8c0.3,2.8,0.8,5.5,1.1,8.2c0.2,1.8,0.8,3.6,0.4,5.3c-2.4,10-1.8,19.8,0.3,29.8c0.2,1-0.3,2.2-0.4,3.4
		c-0.8,6.2-1.4,12.4-2.3,18.6c-0.5,3.5-1.5,6.9-2.4,10.3c-3.1,11.8-6.4,23.6-9.5,35.4c-0.2,0.9-0.3,2.2,0.1,2.9
		c3.3,5.7-1,9.4-3.5,13.5c-0.8,1.2-2.2,2.2-2.6,3.5c-2.9,10.2-7.4,19.4-14.2,27.7c-1.5,1.9-2.6,5-2.3,7.3c1.1,9-1.3,17.7-1.5,26.6
		c-0.2,7.9,0.6,15.9,0.3,23.8c-0.4,10.4-1.5,20.7-2.2,31.1c-0.4,5.8-1,11.5-1,17.3c0,5.1,8.2,12.4,14.2,13.1c1,0.1,2,0.1,2.7,0.1
		c0.9,3.7,1.9,7.2,2.6,10.7c0.4,2-4.2,4.7-7.6,4.4c-0.5,0-1-0.2-1.4-0.4c-6.1-3.4-12.6-4.5-19.5-4.6c-2.2,0-4.3-2.9-7.5-5.2
		c0.4-2.4,1.2-5.8,1.3-9.3c0.1-3.8-0.5-7.6-0.9-11.3c-0.8-9.2-5.1-17.3-8.1-25.9c-3.5-10.1-12.2-15.3-17.7-23.3
		c-2.9-4.2-4.6-9.2-6.2-14.2c7.5,8.2,15.4,15.2,26.2,19.6c-0.5-6.1-1.1-11.8-1.5-17.5c-1.1-16.9-4.1-33.9,2.6-49.4
		c-8.8,4-18.2,8.1-27.2,12.8c-1.7,0.9-2.9,4.2-3.1,6.5c-0.7,12.1-0.9,24.2-1.3,36.3c-0.3,8.5-0.7,17-0.7,25.5c0,1.8,1.5,3.7,2.2,5.6
		c0.3,0.9,0.5,1.9,0.5,2.8c0.1,3,0,6.1,0,9.1c0,4.2,0.4,8.5-0.1,12.6c-0.4,3.1-2,6-3.1,9.1c-0.4,1-0.7,2-0.7,2.1
		c5.1,3.9,9.7,7.4,14.5,11.1c-1.1,1.5-2,4.3-3.4,4.5c-5.8,1.2-11.7,1.6-17.6,2.2c-0.9,0.1-1.9-0.8-2.8-0.9c-7.2-0.7-9.8-6.6-11.7-12
		c-1.3-3.7-0.3-8.3-0.1-12.5c0.4-11,2.2-22.1,1.1-33c-1.1-10.5-5.1-20.8-7.8-31.1c-1.1-4.1-2-8.2-3-12.3c0.5-0.1,0.9-0.2,1.4-0.3
		c2.1,3.9,4.1,7.8,6.8,12.8c0-5.9,0.3-10.4-0.1-14.9c-0.5-6.4-1.3-12.8-2.3-19.1c-0.2-1.2-1.7-2.7-2.9-3.2c-6-2.4-12.1-4.5-18.4-6.8
		c-3.4,7.1-6.5,14.1-10.1,20.8c-5,9.3-13,15.7-21.6,21.4c-7.2,4.7-14.1,9.9-21,15c-1.2,0.9-2.4,2.5-2.7,4c-0.9,4.4-1.6,8.9-1.8,13.4
		c-0.3,8.4-0.3,16.9,0,25.3c0.1,1.8,2.4,5.1,3.8,5.1c4.8,0.1,7,2.8,9.1,6.3c1.1,1.8,2.5,3.4,4.8,6.6
		C71.3,410.6,57.6,409.4,42.2,408.2z M118.5,156.9c-4.7-2.8-10.7-3.3-16.1-4.9c-0.3,0.7-0.6,1.4-0.9,2.2c4.4,2.6,8.5,5.7,13.1,7.7
		c11.1,4.8,20.6,11.3,26.6,22.1c2,3.6,4.2,1.7,5.3,0.1c1.9-2.7,3.1-5.9-0.7-8.5"/>
</g>
</svg>
