<?xml version="1.0" encoding="utf-8"?>
<!-- Generator: Adobe Illustrator 25.4.1, SVG Export Plug-In . SVG Version: 6.00 Build 0)  -->
<svg version="1.1" id="Layer_1_1_" xmlns="http://www.w3.org/2000/svg" xmlns:xlink="http://www.w3.org/1999/xlink" x="0px" y="0px"
	 viewBox="0 0 64 64" style="enable-background:new 0 0 64 64;" xml:space="preserve">
<style type="text/css">
	.st0{fill:#FF9D00;}
	.st1{fill:none;stroke:#FFB000;stroke-linecap:round;stroke-linejoin:round;}
	.st2{fill:#FF9D00;stroke:#FFB000;stroke-width:0.75;stroke-linecap:round;stroke-linejoin:round;}
	.st3{fill:#FF9D00;stroke:#FFB000;stroke-linecap:round;stroke-linejoin:round;}
</style>
<g>
	<path class="st0" d="M55,21V11h-4V1H5v57c0,2.8,2.2,5,5,5h44c2.8,0,5-2.2,5-5V21H55z M10,61c-1.7,0-3-1.3-3-3V3h42v55
		c0,1.1,0.4,2.2,1,3H10z M57,58c0,1.7-1.3,3-3,3s-3-1.3-3-3V13h2v42h2V23h2V58z"/>
	<rect x="53" y="57" class="st0" width="2" height="2"/>
	<path class="st0" d="M19,59h28V31H19V59z M21,33h24v24H21V33z"/>
	<path class="st0" d="M21,29c6.6,0,12-5.4,12-12S27.6,5,21,5S9,10.4,9,17S14.4,29,21,29z M21,27c-4.1,0-7.6-2.5-9.1-6
		c1.2,0.1,2.3,0.6,3.2,1.4l0.2,0.2c0.9,0.9,2,1.3,3.2,1.3c2.5,0,4.5-2,4.5-4.5v-1c0-1.9-1.6-3.5-3.5-3.5c-0.8,0-1.5-0.7-1.5-1.5V12
		c0-1.4-0.5-2.8-1.3-4c1-0.5,2.2-0.8,3.4-0.9C20,7.3,20,7.5,20,7.7c0,1.8,0.8,3.4,2.1,4.5l1.7,1.4c0.7,0.6,1.1,1.5,1.1,2.4
		c0,2.8,2.3,5.1,5.1,5.1c0,0,0.1,0,0.1,0C28.6,24.5,25.1,27,21,27z M31,17c0,0.7-0.1,1.3-0.2,1.9c-0.3,0-0.5,0.1-0.8,0.1
		c-1.7,0-3.1-1.4-3.1-3.1c0-1.5-0.7-3-1.9-3.9l-1.7-1.4C22.5,9.9,22,8.9,22,7.7c0-0.2,0-0.4,0.1-0.7C27.1,7.6,31,11.8,31,17z M15,9
		c0.6,0.9,1,1.9,1,3v1.5c0,1.9,1.6,3.5,3.5,3.5c0.8,0,1.5,0.7,1.5,1.5v1c0,1.4-1.1,2.5-2.5,2.5c-0.7,0-1.3-0.3-1.8-0.7l-0.2-0.2
		c-1.3-1.3-3.1-2.1-4.9-2.1c-0.1,0-0.2,0-0.3,0c-0.1-0.6-0.2-1.3-0.2-2C11,13.7,12.6,10.8,15,9z"/>
	<rect x="35" y="5" class="st0" width="12" height="2"/>
	<rect x="35" y="9" class="st0" width="2" height="2"/>
	<rect x="39" y="9" class="st0" width="8" height="2"/>
	<rect x="35" y="13" class="st0" width="12" height="2"/>
	<rect x="35" y="17" class="st0" width="12" height="2"/>
	<rect x="35" y="21" class="st0" width="8" height="2"/>
	<rect x="45" y="21" class="st0" width="2" height="2"/>
	<rect x="9" y="56" class="st0" width="8" height="2"/>
	<rect x="9" y="52" class="st0" width="8" height="2"/>
	<rect x="9" y="48" class="st0" width="8" height="2"/>
	<rect x="9" y="44" class="st0" width="8" height="2"/>
	<rect x="9" y="40" class="st0" width="8" height="2"/>
	<g id="wolf_00000038387944199145687150000014432679159708210357_">
		<path class="st1" d="M28.9,40.5L25.5,36c0,0-1.9,3.4,0.6,7.9"/>
		<path class="st1" d="M36.8,40.5l3.5-4.5c0,0,1.9,3.4-0.6,7.9"/>
		<path class="st1" d="M35.2,53l2.2,0.7c0.2,0.1,0.4,0,0.5-0.2c0,0,0-0.1,0-0.1v-1l2.2,0.6c0.1,0,0.2,0,0.3-0.2c0,0,0-0.1,0-0.2
			l-1.1-2.5l1.6,0c0.2,0,0.4-0.2,0.4-0.4c0-0.1,0-0.2-0.1-0.2l-1.9-3.1h1.1c0.2,0,0.4-0.2,0.4-0.4c0-0.1,0-0.2-0.1-0.2l-2-3
			c-1.3-2-3.5-3.1-5.9-3.1l0,0c-2.4,0-4.5,1.2-5.9,3.1l-2,3c-0.1,0.2-0.1,0.5,0.1,0.6c0.1,0,0.2,0.1,0.2,0.1h1l-1.8,3.1
			c-0.1,0.2-0.1,0.5,0.1,0.6c0.1,0,0.1,0.1,0.2,0.1h1.5l-1,2.6c0,0.1,0,0.2,0.1,0.3c0,0,0.1,0,0.1,0l2.2-0.6v1
			c0,0.2,0.2,0.4,0.4,0.4c0,0,0.1,0,0.1,0l2.2-0.7"/>
		<path class="st2" d="M27,42.6c0,0-1.2-1.4-1.2-2.8"/>
		<path class="st1" d="M30.7,48.2L30.7,48.2c-0.5,0.5-0.8,1.1-0.8,1.8v0.4c0,1,0.4,1.9,1.1,2.6l0.7,0.7c0.3,0.3,0.8,0.5,1.4,0.5l0,0
			c0.5,0,1-0.2,1.4-0.5l0.7-0.7c0.7-0.7,1.1-1.6,1.1-2.6v-0.4c0-0.7-0.3-1.4-0.8-1.8l0,0"/>
		<path class="st1" d="M34,50.5c0,0.3-0.4,1-1,1s-1-0.7-1-1s0.4-0.6,1-0.6S34,50.1,34,50.5z"/>
		<line class="st3" x1="32.9" y1="51.6" x2="32.9" y2="53"/>
		<circle class="st0" cx="35.8" cy="45.8" r="0.5"/>
		<circle class="st0" cx="30.1" cy="45.8" r="0.5"/>
		<path class="st3" d="M34.5,43.2h1.2c0.9,0,1.7,0.4,2.2,1.2l0,0"/>
		<path class="st3" d="M31.8,43.2h-1.2c-0.9,0-1.7,0.4-2.2,1.2l0,0"/>
		<path class="st2" d="M38.8,42.6c0,0,1.2-1.4,1.2-2.8"/>
	</g>
</g>
</svg>
