<?xml version="1.0" encoding="utf-8"?>
<!-- Generator: Adobe Illustrator 25.4.1, SVG Export Plug-In . SVG Version: 6.00 Build 0)  -->
<svg version="1.1" id="Layer_1" xmlns="http://www.w3.org/2000/svg" xmlns:xlink="http://www.w3.org/1999/xlink" x="0px" y="0px"
	 viewBox="0 0 194 194" style="enable-background:new 0 0 194 194;" xml:space="preserve">
<style type="text/css">
	.st0{fill:#FFFFFF;stroke:#000000;stroke-width:5;stroke-miterlimit:10;}
	.st1{clip-path:url(#SVGID_00000143580742265095007720000002448994995630053778_);}
	.st2{fill:#FFFFFF;}
	.st3{fill:#020000;stroke:#000000;stroke-width:5;stroke-miterlimit:10;}
	.st4{clip-path:url(#SVGID_00000143580742265095007720000002448994995630053778_);fill:#FFFFFF;}
	.st5{fill:none;stroke:#000000;stroke-width:2;stroke-miterlimit:10;}
</style>
<circle class="st0" cx="97" cy="97" r="94.5"/>
<g>
	<defs>
		<circle id="SVGID_1_" cx="105.2" cy="89.8" r="103.1"/>
	</defs>
	<clipPath id="SVGID_00000155854758837145417390000005211831360994723219_">
		<use xlink:href="#SVGID_1_"  style="overflow:visible;"/>
	</clipPath>
	<g style="clip-path:url(#SVGID_00000155854758837145417390000005211831360994723219_);">
		<path class="st2" d="M57.9,251.4c2.9,0.8,5,1.1,7.1-2.6c2.2-4,6.8-6.5,11.5-10.5c-0.1-5.1-0.2-11.6-0.3-18.2
			c0-2.5-0.5-5.2,3.3-5.5c0.4-0.1,0.8-0.4,1.1-0.8c2.8-3.7,5.5-7.3,8.2-11.1c0.6-0.8,0.5-2.1,0.4-3.1c-0.3-5.7-0.7-11.4-1.2-17.8
			c-5.3-3.4-6.4-10.1-1.8-16.2c4.6-6.1,9.3-12.1,14-18.1c0.6-0.7,1.6-1.2,2.5-1.4c5.4-1.1,10.9-2,16.3-3c1.2-0.2,2.6-0.4,3.8-0.1
			c6.5,2.3,12.5-1.2,18.6-1.9c2.2-0.2,4.3-3.4,6.7-5.4c-1-1-1.8-1.7-3.3-3c8.7,0,10.1-7.6,14.4-12c2.3-2.5-2.7-11.9-6.6-12
			c-10.6-0.5-16.7-8.5-24.2-14c-4.1-2.9,0.6-3.3,2.2-4.2c-1-8.1-7.1-12.6-12.5-17.3c-3.6-3-3.6-6.6-3-10.5c0.5-3.3,1.6-6.5,2.6-10.4
			c-2.3-0.8-4.5-1.5-6.6-2.1c-2.3,2.6-4,6.2-6.6,7c-2.3,0.7-5.5-2.5-8.4-3c-5.4-0.8-6.1-3.8-6-8.4c0.2-6.7-7.3-10.8-13.6-8.3
			c-9.4,3.6-12.8,12.4-18.2,19.5c-0.3,0.4-0.6,0.7-1.2,1.3c-1.2-1.7-2.3-3.2-3.5-4.7c-6,3.2-11.8,6.7-17.8,9.4
			c-7.7,3.5-15.7,6.5-23.5,9.9c0.1-1.4,0.1-2.6,0.2-5.1c-5.3,3.2-10,5.8-14.5,8.9c-13.6,9.2-27.2,18.6-40.6,28.2
			c-2.9,2.1-4.9,5.5-7.5,8.2c-2.6,2.7-5.2,5.2-7.9,7.7c-3.2,2.8-4.8,8-10.4,7.6c-0.1-0.1-0.3,0.1-0.4,0.2c-2.6,4.3-4.9,8.6-7.6,12.7
			c-1.9,2.8-3.8,6.1-6.4,8c-6.2,4.7-13.5,7.8-18.3,14.6c-1.5,2.1-5.1,2.6-7.9,3.7c-2,0.8-4.7,0.7-5.9,2.1c-3.9,4.5-8.5,5.9-14.3,6.5
			c-3.4,0.4-6.7,3-9.4,5.3c-3.4,2.9-6.4,5.1-10.7,1.6c-0.8-0.6-2-0.9-3-1c-7.3-0.4-14.7-1.3-21.9-0.7c-11.2,0.9-17.8,11.6-15,22.6
			c1.5,5.8,1.4,11.5-0.5,17.2c-0.4,1-1.3,2.2-2.2,2.6c-3.9,1.5-4.4,4.5-3.9,7.9c0.5,3.9,1.4,7.9,1.9,11.8c0.3,2.2,0.6,4.8,0,6.9
			c-2.9,9.2,0,18.3,1.1,27.4c0,0.2,0.2,0.4,0.2,0.5c-0.1,4.8-1.3,9.8-0.1,14.3c1.2,4.3,4.7,7.9,7,12c0.5,0.9,0.2,2.3,0.3,4.2
			c-2.3-0.8-4.4-2.3-5.5-1.7c-1.9,0.9-3.8,2.9-4.4,4.8c-1.3,4.2-2.6,8.7-2.6,13c0,2.8,2.4,5.5,4.4,8.2c-0.7,2.5-0.6,6.6-5.9,4.7
			c-0.9-0.4-3.2,1.6-3.8,2.9c-2.3,4.6-4.5,9.3-5.8,14.2c-0.5,2.1,1,4.8,1.9,7c0.8,2,2.6,3.7,2.7,5.7c0.6,6.6,0.9,6.8,7,5.9
			c2.5-0.3,5.8-0.4,7.5,1c1.4,1.2,1.1,4.5,1.6,7.1c-2.9,1.7-3.6,3.2-2.1,7.3c2.6,7,3.1,14.7,4.6,22.1c0.3,1.6,0.9,3.3,0.9,5
			c0.1,3.4,1.6,7.5-4.3,7.9c-1,0.1-2.4,2.3-2.7,3.7c-0.4,2.3,0,4.7,0,7.1c1.8,0.3,3.1,0.5,5.1,0.9c-0.4,1.2-0.5,2.4-1.2,3.3
			c-3,4.2-1.3,8.9,3.7,10.4c9,2.5,18,3.3,27.9,2.5c-2.4-6.2-4.4-12-6.9-17.7c-2.3-5.3-1.4-7.3,4.4-9c1.7-0.5,3.2-1.7,4.8-2.8
			c-0.2-1-0.6-2.4-0.4-3.7c1.9-12.1-3.3-22.5-8.8-32.5c-1.9-3.5-4.9-6.5-7.2-9.7c-1.6-2.3-3.3-4.7-0.9-7.6c0.2-0.3,0.5-0.7,0.4-0.9
			c-2.5-10.5,5.8-15.7,11-22.3c0.3-0.4,0.5-0.8,1-1.6c5.9,3.9,9.8,0,13.7-3.8c2.6-2.6,5.8-4.5,7.8-7.3c2.6-3.9,4.5-8.3,6.2-12.7
			c1.7-4.4,3-9.1,4.5-14.1c3,2,6.1,3.9,9,5.9c-2.6,4.8,5.2,13.6-5,14.8c-0.3,2.3,0,4-0.9,5.3c-3.2,4.9-6.1,10.3-10.4,14.1
			c-2.8,2.5-5.2,6.4-10.4,6.4c-2.4-0.1-5.3,4.5-7.4,7.3c-1.1,1.4-1.3,3.8-1.4,5.7c-0.1,5.7-0.4,7.2,5.7,6.7c1,0,2.3,0.3,3.2,0.7
			c0.9,0.4,2.3,1,2.3,1.6c-0.1,1.1-0.8,2.2-1.4,3.2c-1,2-2.8,3.9-2.8,6c-0.3,7-0.1,14.1,0.1,21.2c0.1,2.2,0.3,4.4,0.9,6.5
			c2,7.3-0.8,14.7,0.8,21.9c0.2,0.7,0.1,1.6,0.3,2.3c1.8,8.1,3.1,9,11.3,7.6c3.4-0.5,7.3-0.3,10-2c4.2-2.7,7.7-6.5,11-10.2
			c0.6-0.6-0.7-3-1.3-5c5.7-1.7,5.2-5.5,4-10.6c-2.1-8.5-2.6-17.5-4.8-26c-1.5-5.7-4.8-11-7.3-16.7c4.9-3.5,1.9-8.1,1-12.1
			c-0.6-2.6-0.2-3.8,1.6-5.7c3.6-3.7,6.5-8.2,9.8-12.3c1.1-1.3,2.3-2.6,4.4-3.3c-0.6,1-1.3,2.1-2.6,4.4c3.4-0.3,6.7,0.5,8.3-0.9
			c6.1-5,11.7-10.6,17.7-16.3c0.9,0.4,2,0.8,2.7,1.1c1.8-15.8,6.3-31.4,1.5-48.2c3.3,1.2,5.5,2,7.7,2.8c1.3,0.4,2.9,1.6,3.9,1.3
			c7.7-3.2,15,2.1,22.6,1.3c3.4-0.3,7.1,2.9,10.6,4.5c0.4,0.2,0.9,0.6,1.2,0.5c6.7-1,8.2,3.5,9.3,8.7c-5,1.7-5.8,0.9-7.1-6.7
			c-2.8-0.2-4.1,0.8-4.1,3.9c0.2,6.6,0,13.1,0.3,19.7c0,1.9,0.7,3.9,1.6,5.7c2.5,5,5.3,10,8,15c0.2,0.3,0.2,0.8,0.4,0.8
			c9.1,1.7,3,7.6,2.5,11.2c-1.1,7.2-1.8,13.7,5.4,18.7c2.6,1.7,3.8,5.1,6,7.5c2.4,2.7,5.1,5,7.7,7.5c0.7-0.3,1.5-0.6,2.2-0.9
			c0.1,8.5,0.3,17,0.4,25.5c0,6.5,0,12.9,0,19.4c0,2.8,1.2,4.7,4.2,4.3c11.4-1.2,23.2-0.2,34.2-4.5c4.4-1.7,8.9-11,6.5-15
			C41,399.9,37.2,387.6,26.6,380c-1.5-1.1-2.8-2.6,0-5.4c4.4-4.6,5.1-11.3,4-17.6c-1.2-7.5-3.1-14.9-4.8-22.4
			c-0.2-0.9-0.1-1.9,0-2.8c1.3-10.2,2.2-20.4,4.3-30.4c2.1-9.9,5.6-19.5,8.2-29.3c2.2-8.3,4.1-16.6,6.2-25.5
			C49.6,248.2,53.8,249.6,57.9,251.4z"/>
		<path class="st3" d="M38.5,271.5c-2.7,9.8-6.1,19.4-8.2,29.3c-2.1,10-3,20.2-4.3,30.4c-0.1,0.9-0.2,1.9,0,2.8
			c1.6,7.5,3.5,14.9,4.8,22.4c1,6.3,0.4,13-4,17.6c-2.8,2.8-1.5,4.3,0,5.4c10.6,7.6,14.4,19.9,20.8,30.4c2.5,4-2,13.3-6.5,15
			c-11,4.3-22.7,3.4-34.2,4.5c-3,0.2-4.2-1.5-4.2-4.3c0-6.5,0.1-13,0-19.4c-0.1-8.5-0.3-17-0.4-25.5c-0.7,0.3-1.5,0.6-2.2,0.9
			c-2.6-2.5-5.3-4.8-7.7-7.5c-2.2-2.4-3.5-5.8-6-7.5c-7.1-5-6.5-11.4-5.4-18.7c0.6-3.7,6.6-9.5-2.5-11.2c-0.2,0-0.2-0.6-0.4-0.8
			c-2.7-5-5.5-10-8-15c-0.9-1.8-1.5-3.7-1.6-5.7c-0.2-6.6-0.1-13.1-0.3-19.7c-0.1-3.1,1.2-4.1,4.1-3.9c1.2,7.7,2,8.4,7.1,6.7
			c-1-5.1-2.6-9.6-9.3-8.7c-0.4,0-0.9-0.4-1.2-0.5c-3.6-1.6-7.2-4.9-10.6-4.5c-7.7,0.8-14.9-4.5-22.6-1.3c-0.9,0.4-2.5-0.8-3.9-1.3
			c-2.2-0.8-4.4-1.6-7.7-2.8c4.8,16.6,0.3,32.3-1.5,48.2c-0.9-0.4-2-0.8-2.7-1.1c-6.1,5.7-11.6,11.4-17.7,16.3
			c-1.7,1.3-5,0.6-8.3,0.9c1.4-2.3,1.9-3.3,2.6-4.4c-2,0.6-3.3,1.8-4.4,3.3c-3.3,4.1-6.2,8.5-9.8,12.3c-1.8,1.9-2.2,3.1-1.6,5.7
			c0.9,4,3.9,8.6-1,12.1c2.5,5.7,5.8,10.9,7.3,16.7c2.2,8.5,2.7,17.4,4.8,26c1.2,5,1.7,8.9-4,10.6c0.5,2,1.9,4.3,1.3,5
			c-3.4,3.7-6.8,7.6-11,10.2c-2.7,1.7-6.6,1.4-10,2c-8.2,1.4-9.5,0.4-11.3-7.6c-0.2-0.7-0.1-1.6-0.3-2.3c-1.5-7.2,1.3-14.7-0.8-21.9
			c-0.6-2.1-0.8-4.3-0.9-6.5c-0.1-7-0.4-14.2-0.1-21.2c0.1-2,1.8-4,2.8-6c0.5-1.1,1.4-2.2,1.4-3.2c0-0.5-1.4-1.2-2.3-1.6
			c-1-0.5-2.2-0.8-3.2-0.7c-6.1,0.7-5.8-0.9-5.7-6.7c0-2,0.3-4.2,1.4-5.7c2.1-2.8,4.9-7.3,7.4-7.3c5.3,0,7.6-3.9,10.4-6.4
			c4.3-3.8,7.2-9.2,10.4-14.1c0.7-1.1,0.5-3,0.9-5.3c10.3-1.2,2.5-9.9,5-14.8c-2.9-1.9-6-3.8-9-5.9c-1.6,5.1-2.8,9.7-4.5,14.1
			c-1.7,4.3-3.6,8.8-6.2,12.7c-1.9,2.9-5.2,4.9-7.8,7.3c-4,3.9-7.9,7.7-13.7,3.8c-0.5,0.9-0.7,1.2-1,1.6c-5.2,6.7-13.5,11.9-11,22.3
			c0.1,0.3-0.2,0.7-0.4,0.9c-2.4,2.9-0.8,5.3,0.9,7.6c2.4,3.3,5.3,6.2,7.2,9.7c5.6,10,10.7,20.4,8.8,32.5c-0.2,1.2,0.3,2.6,0.4,3.7
			c-1.7,1.1-3.2,2.3-4.8,2.8c-5.8,1.7-6.7,3.7-4.4,9c2.5,5.7,4.6,11.6,6.9,17.7c-9.8,0.9-19,0-27.9-2.5c-5-1.4-6.8-6.2-3.7-10.4
			c0.6-0.9,0.7-2.1,1.2-3.3c-2-0.3-3.3-0.5-5.1-0.9c0-2.5-0.5-4.9,0-7.1c0.3-1.4,1.6-3.6,2.7-3.7c5.8-0.4,4.4-4.5,4.3-7.9
			c0-1.7-0.6-3.3-0.9-5c-1.4-7.4-2-15.1-4.6-22.1c-1.5-4-0.7-5.5,2.1-7.3c-0.5-2.5-0.2-5.9-1.6-7.1c-1.7-1.4-5.1-1.3-7.5-1
			c-6.2,0.8-6.5,0.7-7-5.9c-0.1-2-1.9-3.7-2.7-5.7c-0.9-2.3-2.4-5-1.9-7c1.3-4.9,3.6-9.6,5.8-14.2c0.6-1.3,3-3.1,3.8-2.9
			c5.3,1.9,5.2-2.2,5.9-4.7c-1.9-2.7-4.3-5.5-4.4-8.2c-0.1-4.3,1.3-8.8,2.6-13c0.6-1.9,2.6-3.9,4.4-4.8c1.2-0.5,3.3,1,5.5,1.7
			c-0.1-1.9,0.2-3.3-0.3-4.2c-2.3-4.1-5.9-7.7-7-12c-1.2-4.4-0.1-9.5,0.1-14.3c0-0.2-0.2-0.3-0.2-0.5c-1.1-9.1-3.9-18-1.1-27.4
			c0.6-2.1,0.3-4.6,0-6.9c-0.4-3.9-1.3-7.9-1.9-11.8c-0.5-3.5,0-6.5,3.9-7.9c0.9-0.3,1.9-1.5,2.2-2.6c1.9-5.7,2-11.4,0.5-17.2
			c-2.8-10.9,3.9-21.6,15-22.6c7.2-0.5,14.6,0.3,21.9,0.7c1,0.1,2.3,0.3,3,1c4.2,3.5,7.2,1.3,10.7-1.6c2.8-2.3,6.1-4.9,9.4-5.3
			c5.7-0.7,10.4-2,14.3-6.5c1.2-1.3,3.9-1.3,5.9-2.1c2.7-1.1,6.4-1.6,7.9-3.7c4.8-6.7,12-10,18.3-14.6c2.7-2,4.6-5.1,6.4-8
			c2.8-4.1,5-8.4,7.6-12.7c0.1-0.1,0.3-0.2,0.4-0.2c5.5,0.4,7.2-4.7,10.4-7.6c2.8-2.5,5.4-5.1,7.9-7.7c2.5-2.7,4.5-6.1,7.5-8.2
			C-28.9,95-15.4,85.7-1.7,76.3c4.5-3,9.2-5.6,14.5-8.9c-0.1,2.4-0.1,3.8-0.2,5.1c7.8-3.2,15.8-6.3,23.5-9.9
			c6.1-2.8,11.7-6.2,17.8-9.4c1.2,1.7,2.3,3.2,3.5,4.7c0.6-0.7,0.9-1,1.2-1.3c5.3-7.2,8.8-15.9,18.2-19.5c6.2-2.4,13.7,1.7,13.6,8.3
			c-0.1,4.6,0.6,7.6,6,8.4c2.9,0.4,6.1,3.7,8.4,3c2.6-0.7,4.3-4.4,6.6-7c2.1,0.7,4.2,1.4,6.6,2.1c-1,3.9-2,7.1-2.6,10.4
			c-0.6,3.8-0.6,7.3,3,10.5c5.4,4.7,11.5,9.2,12.5,17.3c-1.6,0.8-6.3,1.1-2.2,4.2c7.5,5.5,13.6,13.5,24.2,14c3.9,0.2,9,9.6,6.6,12
			c-4.2,4.4-5.6,12-14.4,12c1.5,1.4,2.3,2.1,3.3,3c-2.4,2-4.4,5.1-6.7,5.4c-6.2,0.7-12.1,4.2-18.6,1.9c-1.1-0.5-2.5-0.1-3.8,0.1
			c-5.4,0.9-10.9,1.9-16.3,3c-0.9,0.2-2,0.8-2.5,1.4c-4.7,6-9.4,12-14,18.1c-4.7,6.1-3.5,12.8,1.8,16.2c0.4,6.4,0.8,12.1,1.2,17.8
			c0,1,0.1,2.3-0.4,3.1c-2.6,3.8-5.4,7.4-8.2,11.1c-0.2,0.4-0.7,0.8-1.1,0.8c-3.7,0.3-3.3,3-3.3,5.5c0.1,6.6,0.2,13.1,0.3,18.2
			c-4.5,4-9.2,6.6-11.5,10.5c-2.2,3.7-4.3,3.4-7.1,2.6c-4.3-1.2-8.5-2.7-13.7-4.3C42.3,255.5,40.5,263.8,38.5,271.5z"/>
	</g>
	<polygon style="clip-path:url(#SVGID_00000155854758837145417390000005211831360994723219_);fill:#FFFFFF;" points="96,68.8 
		86.2,91.3 96.2,82.6 105.4,83.4 126.5,94 133.3,91.5 132.4,85.9 128.4,78.6 118.4,69.7 	"/>
</g>
<polygon class="st5" points="96,68.8 86.2,91.3 96.2,82.6 105.4,83.4 126.5,94 133.3,91.5 132.4,85.9 128.4,78.6 118.4,69.7 "/>
</svg>
