<?xml version="1.0" encoding="utf-8"?>
<!-- Generator: Adobe Illustrator 25.4.1, SVG Export Plug-In . SVG Version: 6.00 Build 0)  -->
<svg version="1.1" id="Layer_1" xmlns="http://www.w3.org/2000/svg" xmlns:xlink="http://www.w3.org/1999/xlink" x="0px" y="0px"
	 viewBox="0 0 468.1 381.2" style="enable-background:new 0 0 468.1 381.2;" xml:space="preserve">
<style type="text/css">
	.st0{stroke:#D30202;stroke-width:2;stroke-miterlimit:10;}
</style>
<g>
	<path class="st0" d="M245.8,98.5c3.1-0.6,6.4-0.9,9.4-1.9c5.7-1.7,11.2-3.7,16.8-5.6c0,0,0,0,0,0c2.9-1.1,5.9-2.2,8.8-3.3
		c0.1,0.2,0.1,0.4,0.2,0.7c-5.3,3.6-10.6,7.2-15.9,10.7c0.4,0.5,0.7,1.1,1.1,1.6c1.4-1.1,2.8-2.2,3.8-3c1.5,0.6,3.3,1.9,4,1.5
		c4.9-3.1,10.5-1.7,15.7-2.4c5-0.7,8.7-2,10.3-7.6c0.5-1.9,3.8-3.8,6-4.1c2-0.3,4.4,1.4,6.4,2.6c1.3,0.7,2.4,1.9,3.5,2.9
		c0.9-1.2,1.8-2.3,2.4-3.1c3.5,0,6.7,0,10.8,0c-14.6,6.2-28.7,12.3-42.8,18.3c1.2,1.9,0.3,3.2-4.4,4.9c1.4,3.2,6.3,5.2,10.1,4.8
		c4.6-0.6,9.3-0.5,14-0.9c1.8-0.1,3.6-0.4,5.2-1.1c1-0.4,1.4-2.3,2.4-2.7c3.5-1.5,7.2-2.6,10.9-3.8c1.2-0.4,2.5-0.9,3.6-1.6
		c2.1-1.3,3.6-1.4,6.3-0.3c3.2,1.3,7.3,0,11.1-0.1c1.3,0,2.6,0,3.9,0c0-0.7-0.3-2.5,0.1-2.7c2.3-1.1,4.8-1.8,7.3-2.6
		c0.3,0.5,0.6,1,0.8,1.5c-2.8,3.5-5.6,7.1-8.5,10.8c2.3,0.1,4.2,0.2,7.1,0.3c0.5-0.3,2.1-1.5,3.8-2.6c0.3,0.9,0.6,1.7,1,3.1
		c1.8-2.4,3.4-4.6,5.1-6.8c0.3,0.1,0.5,0.3,0.8,0.4c-0.4,1.2-0.8,2.4-1.2,3.9c1,0,2,0,3.8,0c-1.3,0.7-2.1,1.1-3,1.6
		c1,1.2,1.9,2.5,3,3.9c-5.3,1.3-1.8,2.8-0.4,4.3c-1.4,0.9-2.8,1.8-4.3,2.8c0.3,0.2,0.7,0.3,1,0.5c-0.4,0.9-0.8,1.9-1.3,2.9
		c2.5,1.6,12.7-0.3,15-3.7c1.4,6.9,5.1,1.9,8,2.3c4.6,0.6,5.8-2.5,8.4-6.4c-0.6,2.5-0.8,3.4-1,4.4c1.3,0.1,2.6,0.2,4.3,0.4
		c0.1,0.7,0.4,2,0.7,3.3c1-0.2,2.1-0.3,2.8-0.5c-1.6,2.7-3,5.3-4.4,7.7c4.9-3,9.6-5.9,14.4-8.8c0.3,0.3,0.6,0.7,1,1
		c-0.7,1.4-1.4,2.9-2.4,4.9c2.2-0.5,3.7-0.8,4.9-1c-0.9,1.1-2.1,2.3-2.9,3.7c-0.7,1.3-0.6,3.2-1.6,4.2c-1.1,1.1-3,1.5-4.6,2.2
		c0.2,0.6,0.5,1.1,0.7,1.7c1.5-0.3,3-0.5,5.2-0.9c-1.5,1.1-2.4,1.8-4.1,3c1.9,0.4,3.3,0.6,4.5,0.8c-2.7,1.2-5.4,2.4-8.2,3.6
		c0.1,0.5,0.3,1,0.4,1.6c2.4-0.4,4.8-0.7,7.2-1.1c2.4-0.4,4.9-1,7.8-1.6c-1.9,2.2-3.6,3.4-4,5c-0.3,1,1.3,2.5,2,3.6
		c-1,1.3-2.3,3-3.9,5c-1.5,0-4-0.2-6.3,0.1c-1.1,0.1-2,1.4-3,2.1c0.8,0.9,1.6,1.8,2.5,2.9c-0.6,1-2.4,2.6-2.1,3.6
		c1.4,5.2,1.7,11.4,7.2,14.1c4.2,2.1,6.1,4.6,7.9,9c2.8,6.9,7.3,13.2,11.9,19.1c5.7,7.4,9.3,16.5,7.9,24.6
		c-1.5,8.3,3.5,12.3,5.3,18.3c2.1,7.2,9.7,9.5,11.4,16.2c5.7,1.2,5.8,6.7,8.2,10.5c0.5,0.8,1.5,1.3,2.4,2.1c-2.7,1.2-5.6,2-7.9,3.5
		c-3.7,2.3-6.9,1.7-10.6-0.1c-10.7-5.1-20.5-11.1-28.1-20.4c-0.7-0.9-1.6-1.6-2.6-2.1c-4-2.5-7.1-5.4-7.9-10.5
		c-0.3-1.6-2.3-2.9-3.4-4.5c-4-5.8-5.7-13.3-13.2-16.4c-1-0.4-1.3-2.5-2.1-3.7c-0.7-1-1.7-1.7-2.6-2.5c-0.7,1.2-1.6,2.2-1.9,3.5
		c-0.3,1.4,0.1,3-0.2,4.5c-0.6,3.1-1.1,6.2-4.9,7.6c-2.7,1-2.7,5.6-6.7,5.8c-1.2,0-2.3,0.8-2.4,0.8c-2.7,3.2-4.7,5.9-7,8.3
		c-1.4,1.5-1.8,8.7-0.3,10.4c3.2,3.5,6.2,7.1,9.5,10.5c1.2,1.2,3.3,1.6,4.3,2.9c3.7,4.8,7.3,9.8,10.5,15c0.9,1.5,0.4,3.9,1.4,5.5
		c0.9,2.1,2.3,4.1,2.6,6.3c1.1,8.4-2.1,15.1-7.9,21.1c-1.9,2-2.7,5.6-2.9,8.5c-0.4,7-0.2,14.1-0.1,21.1c0,1.5,1.8,3.2-1.3,3.4
		c-0.2,0-0.7,0.5-0.6,0.6c1.9,6.6-4.2,9-7.2,12.8c-2.3,2.8-5.9,5.6-9.3,6c-4.4,0.6-9-1.2-13.6-2c-0.9-0.2-2-0.5-2.8-0.3
		c-4.1,1-4.1,1.1-3-3.7c-1-0.1-1.9-0.1-3.4-0.2c3.8-5.6,7.4-10.7,10.8-15.9c0.7-1,1.2-2.3,1.3-3.6c0.6-6.4,1.7-12.9,1.4-19.3
		c-0.2-4-2.6-8-3.8-12c-0.7-2.2-1.6-4.5-1.3-6.7c0.6-5.5-1.8-9.4-5.9-12.4c-5.4-4-11-7.7-16.6-11.4c-7.8-5.2-14.4-11.4-18.5-19.9
		c-0.4-0.9-1.4-1.9-2.4-2.3c-11.8-4.7-19.9-12.5-22.2-26.1c-4.7,3-9.8,5.3-13.6,8.9c-8.7,8.4-19.6,7.8-30.1,7.8
		c-8.2,0-16.4-1.6-24.8-2.6c-0.5,5-1.1,9.8-1.3,14.5c-0.7,17.6-1.3,35.1-2.1,52.7c-0.1,2-1.3,4-2,5.9c-1.1,3.1-2,6.2-3.4,9.2
		c-1.8,3.8-4.1,7.4-6.2,11.1c-0.6,1.1-1.6,2.7-1.2,3.4c2.1,4.5-0.9,7.1-3.8,8.9c-3.2,2-9.4-0.3-11.6-3.3c-0.2-0.2-0.6-0.2-0.9-0.4
		c-0.4-0.2-0.8-0.3-1.5-0.6c2.6-2.2,2-3.7,0.9-6.8c-4.1-12.4-12-24.3-6.3-38.5c1-2.4,0.3-6.1-1-8.5c-5.5-10.9-5-22.4-4.2-35.2
		c-1.5,1.8-2.6,2.9-3.3,4.1c-8.5,15.7-16.9,31.4-25.3,47.1c-3.5,6.5-6.9,12.8-12.6,18c-6.3,5.8-11.2,13.3-16.7,19.9
		c-0.9,1-2.3,1.6-3.3,2.5c-1,0.9-2.6,2.3-2.4,2.9c1.2,3.6-1.5,4.5-3.6,5.1c-10.5,3-21.2,4.8-32.2,3.7c-3.1-0.3-4.4-1.6-2.2-4.5
		c1.1-1.5,2.1-3.3,3.5-4.2c10.9-6.3,15.6-17.8,22.4-27.4c2.2-3.1,1.1-8.4,2.1-12.6c1-3.8,2.3-7.8,4.5-11
		c5.1-7.6,10.4-14.5,10.9-24.6c0.3-6.4,4.8-12.6,7.4-19c2.5-6.3,6.7-11.4,12.1-15.3c6-4.2,3.2-9.5,2.6-14.6
		c-0.9-7.9-8.1-10.5-13-14.6c-3.4-2.8-5.5-5.5-6.5-9.8c-0.5-2-2.3-4.5-4.1-5.2c-8.9-3.6-17.2-8.6-22.8-15.8
		C84.2,190,78,185,70.5,181c-1.8-0.9-3-3.1-4.2-4.8c-5.3-7.4-10.6-9.5-19.5-7.3c-6.2,1.5-12.3,3.2-18.5,4.7
		c-2.2,0.5-4.5,0.9-6.8,0.9c-5.7-0.1-6.9-2.2-4.8-6c-4.9-3.3-9.9-6.4-14.6-9.8c-2.9-2.1-2.6-4.6,0.3-6.6c1.6-1.1,3.5-1.9,5-3.1
		c7.1-5.6,14.3-11.2,21.1-17.1c2.2-1.9,3.4-4.8,5-7.3c2.6-4,5.2-7.9,7.6-12c1.1-2,2.7-4.7,2.2-6.5c-2.9-10.6,2.5-17.5,9.6-24
		c2.3-2.1,4.1-4.8,6.6-7.1c-1.4,2.6-2.7,5.2-4.1,7.7c-1.7,3.2-4.1,6.2-4.9,9.6c-0.8,3.5,0.8,7.6-4.3,10.1
		c9.7,0.6,13.5-3.2,13.5-11.8c0-9.7,4.2-16,14.8-20.5C67,77.6,72.3,83,75.7,90c1.9-6.6,3.8-12,4.9-17.6c1.2-5.6,4-9.6,8.8-12.4
		c5.2-3.1,9.9-6.7,11.6-13c0.4-1.6,1.3-3.2,2.5-4.3c1.6-1.3,4.1-3.3,5.3-2.8c1.9,0.8,5.1,2.4,3.1,6c-0.3,0.4,0.1,1.2,1.5,2.7
		c1.2-1.7,3.8-4.4,3.3-5.1c-3-4.6,1.4-6.2,3.1-9.2c0.8,1.1,1.5,2,2.7,3.7c2.6-4.8,4.8-9.2,7.3-13.4c1.4-2.4,3.1-4.7,5-6.6
		c1.1-1.1,2.8-2.1,4.3-2.1c12.3,0,23.7-5,35.9-5.7c5.7-0.3,11.5-1.2,17.2-2c9.6-1.4,19.2-2.9,28.8-4.3c8.3-1.2,16.7-2.4,25.1-3.5
		c2.7-0.4,5.4-0.5,8.2-0.2c-31.6,10.2-64.6,14.9-96.7,22.9c-0.1,0.6-0.1,1.2-0.2,1.7c1.9,0.4,4,1.4,5.8,1.1c7-1.1,13.9-2.9,21-3.7
		c5.3-0.6,10.8,0.3,16.1-0.3c6.3-0.7,12.5-2.5,18.8-3.5c5.4-0.9,10.8-1.4,16.4-0.9c-10.3,2.3-20.6,4.7-30.9,7
		c-3.8,0.9-7.5,2.1-11.4,2.9c-7.7,1.7-15.4,3.2-23.1,4.6c-1.5,0.3-3.4-0.8-4.7-0.3c-3.2,1.2-6.2,3.1-9.3,4.5
		c-4.2,1.8-8.5,3.4-12.7,5.1c-0.2-0.4-0.5-0.9-0.7-1.3c3.1-4.4,6.2-8.8,9.5-13.6c-6.8-1.3-9,0.4-11.9,5.1c-1.9,3.2-3.9,6.7-8.8,7.4
		c-6.5,1-11,5-12.1,12.2c-0.3,2.2-2.1,4.3-4,7.8c2.8-0.9,4.4-1.2,5.8-1.9c7.3-3.8,14.4-8.5,22.9-8.8c2.9-0.1,5.9,1,10.1,1.7
		c-1.8,0.5-2.3,0.9-2.8,0.8C141,48.4,137,57,131.2,62.6c-0.6,0.6-0.4,1.9-0.5,2.9c3.3-0.4,7.4,0.1,9.8-1.6c2.3-1.6,2.9-5.7,3.8-7.4
		c4.2,1.5,7.3,3.7,10.3,3.5c2.1-0.2,4-3.6,6.9-6.5c-3.4-0.5-5.3-0.7-7.1-1c0-0.5,0-0.9,0-1.4c2.4-0.1,4.9,0,7.3-0.5
		c2.5-0.5,4.8-1.5,7.2-2.3c0,0.3-0.1,1.3-0.3,3c1.5-0.3,3-0.2,3.9-0.9c5.3-3.8,10.7-4.7,16.8-1.6c1,0.5,3.5-0.4,4.4-1.4
		c3.5-4,7.9-4.9,12.8-5.4c1.2-0.1,2.3-1.6,3.5-1.7c2.4-0.3,5-0.3,7.4-0.3c1.4,0,3,0.7,4.3,0.3c3.6-1.1,6.9-3.6,10.5-3.8
		c6.6-0.5,13-2.3,19.8-0.7c5.3,1.2,10.8,1.1,17.1,1.6c-5,5.3-13.2,1.3-17.1,7.8c10,0,19.4,0,30.2,0c-1.9,1.2-2.5,1.9-3.2,2.1
		c-7.8,1.8-15.7,3.1-23.3,5.3c-4.5,1.3-8.6,3.9-12.9,5.7c-8.1,3.4-16.3,6.7-24.5,10c-0.9,0.3-1.9,0.7-2.8,0.5
		c-5.3-1.3-8,2.3-10.9,5.6c-0.7,0.8-1.6,1.9-2.3,1.9c-9.5-0.9-7.6,9.8-13.1,12.6c2.7,0.5,5.5,1,8.2,1.5c0.2,0.3,0.4,0.7,0.7,1
		c-4.2,2.3-7.2,5.2-6.3,10.9c2.3-0.7,4.4-1.4,6.6-2.1c-0.1,0.4-0.2,0.9-0.3,1.3c1.8,0.8,3.6,2.5,5.2,2.3c5.6-0.6,11.3-0.3,16.1-4.7
		c4.3-3.9,9.8-6.6,14.7-10c1-0.7,1.5-2,2.2-3.1c0.9-1.4,1.8-2.8,2.6-4.3c0.4,0.2,0.9,0.5,1.3,0.7c-0.5,1.2-1,2.4-1.5,3.7
		c6.8,1.5,16.6-3.7,19-9.8c1.7-4.5,5.3-5.7,9.9-3.2c5.3,2.8,11.1,3.2,16.9,3.6c1.7,0.1,3.4,0.8,5.2,2c-0.8,0.2-1.8,0.7-2.4,0.4
		c-5.9-2.1-10.8,0.8-16,2.7c-3.7,1.4-7.5,2.2-11.3,3.3C252.7,87.2,248.3,91.9,245.8,98.5c-0.9-2.2-1.8-4.5-2.7-6.8
		c-11.5,0.7-18.6,9.1-26.8,15.5C227.1,107.5,236.2,102,245.8,98.5z M221.7,112.4c4.3,2,8.1,5.1,12,5.3c4.7,0.2,9.5-1.8,14.1-3.4
		c3.3-1.1,5.7-6.3,4.7-9.1c-1.6-4.6-5.3-2-8.1-2.2c-1.3-0.1-2.7,0.9-4.1,1.5C234.5,107,228.7,109.4,221.7,112.4z M251.1,45.6
		c-0.2-0.6-0.4-1.2-0.6-1.7c-4.9,1.1-9.8,1.9-14.6,3.3c-6.2,1.7-12.2,4.1-18.5,5.5c-3.9,0.9-10.9,5.2-11.6,8
		c3.5-0.2,7.2-0.4,10.8-0.7c0.7,0,1.4,0,1.9-0.3c4.2-2.4,8.4-4.9,12.7-7.2c1.5-0.8,3.6-1.6,5.1-1.3C242.9,52.5,246,46.9,251.1,45.6z
		 M128.4,73c0.5,0.4,0.9,0.9,1.4,1.3c2.6-1.3,5.4-2.6,7.9-4.1c0.4-0.3,0.1-1.8,0.1-2.8c-2.2,0.6-4.6,0.8-6.6,1.8
		C130,69.9,129.3,71.7,128.4,73z M184,63.2c-4.1,1.8-8.7,1.1-8.6,7.4C178.9,68.8,183.2,69.3,184,63.2z M195.6,61.3
		c0.2,0.9,0.3,1.9,0.5,2.8c1.6-0.2,3.5-0.1,4.9-0.8c0.6-0.3,0.3-2.4,0.3-3.7C199.4,60.1,197.5,60.7,195.6,61.3z"/>
	<path d="M236.2,69.9c8.4-4,16.8-8,25.2-12c0.2,0.5,0.5,0.9,0.7,1.4c-8.2,4.2-16.5,8.4-24.7,12.6C237,71.2,236.6,70.5,236.2,69.9z"
		/>
	<path d="M272,91c-0.6-1.5-1.3-3-2.2-5.1c1.6-0.9,3.3-1.8,5-2.7c0.3,0.3,0.6,0.7,0.9,1C274.5,86.4,273.2,88.7,272,91
		C272,91,272,91,272,91z"/>
</g>
</svg>
