<?xml version="1.0" encoding="utf-8"?>
<!-- Generator: Adobe Illustrator 25.4.1, SVG Export Plug-In . SVG Version: 6.00 Build 0)  -->
<svg version="1.1" id="Layer_1" xmlns="http://www.w3.org/2000/svg" xmlns:xlink="http://www.w3.org/1999/xlink" x="0px" y="0px"
	 viewBox="0 0 157.4 380.6" style="enable-background:new 0 0 157.4 380.6;" xml:space="preserve">
<style type="text/css">
	.st0{fill:#FFFFFF;stroke:#FFFFFF;stroke-width:2;stroke-miterlimit:10;}
	.st1{stroke:#FFFFFF;stroke-width:2;stroke-miterlimit:10;}
</style>
<g>
	<path class="st0" d="M133.5,47.2c-0.2-3-0.3-5.9-0.4-7.8c-1.6-2.7-2.8-4.7-4-6.7c-0.3,0.1-0.5,0.2-0.8,0.3
		C130,37.8,131.7,42.5,133.5,47.2c1.2,3.5,2.3,7.1,3.7,11.2c4.5-7.6,4.6-8.6,0.4-11c0,1.6,0,3,0,5C135.9,50.3,134.7,48.7,133.5,47.2
		z M46.6,14.6c-0.7,0.4-1.3,0.7-2,1.1c1.1,2.3,2.3,4.6,3.8,7.6c-3.3-1.2-6.1-2.2-9.1-3.3c0.3,2.4,0.5,4.2,0.7,5.9
		c3.7-0.6,8-1.4,12.2-2.2c-0.3-0.2-1.1-0.9-2-1.5c0.9-1.1,1.8-2.2,2.7-3.3c-0.2-0.3-0.4-0.5-0.7-0.8c-0.9,0.6-1.8,1.2-2.4,1.6
		C48.7,17.8,47.6,16.2,46.6,14.6z M112,20.2c0-0.5-0.1-1-0.1-1.5c-3.6-0.3-7.2-0.5-10.8-0.8c-0.1,0.4-0.1,0.8-0.2,1.2
		c2.3,0.7,4.5,1.3,6.8,2c0.5,3.8,5.3,4.7,10.7,1c-3.2,0.1-6.4,0.3-9.6,0.4c0-0.5,0.1-1,0.1-1.6C110,20.7,111,20.5,112,20.2z
		 M110.4,7.7c-1.4,7.2,0.4,11.6,8.1,10C115.9,14.6,113.1,11.1,110.4,7.7z M8.3,30.2c3,0.4,5.9-0.1,7.6,1.1c3.5,2.5,5.5,0.7,8.2-1.4
		C18.7,28.4,13.8,25.8,8.3,30.2z M66.7,41.9c-0.6,0.2-1.1,0.3-1.7,0.5c1.2,4.4,2.5,8.7,3.7,13.1c0.6-0.2,1.2-0.3,1.8-0.5
		C69.2,50.6,67.9,46.3,66.7,41.9z M6.9,24.4c-0.7,0.3-1.3,0.6-2,0.9c2.1-0.6,5.7,2.1,6.3-2.7C8.7,22,6.5,21.6,4,21
		C5.1,22.3,6,23.3,6.9,24.4z"/>
	<path class="st1" d="M64.3,23.2c-3.4-4.2,3.5-5.3,1.8-8.3c-1.6-2.6-3.3-5.3-4.9-7.9c0.2-0.2,0.4-0.4,0.5-0.6
		c1.6,2.1,3.2,4.2,4.8,6.2c0.4-4.2,9.1-0.9,5.2-7.8c4.8,3.3,2.9,6.8,2.5,10.6c-1.3-1.2-2.3-2.7-3-2.6c-1.1,0.2-1.9,1.6-3.6,3.1
		c2.4,0.6,3.7,0.9,5,1.2C69,17.8,64.7,17.7,64.3,23.2L64.3,23.2z"/>
	<path class="st1" d="M46.6,14.6c1,1.6,2.1,3.2,3.3,5c0.6-0.4,1.5-1,2.4-1.6c0.2,0.3,0.4,0.5,0.7,0.8c-0.9,1.1-1.8,2.2-2.7,3.3
		c0.8,0.7,1.7,1.3,2,1.5c-4.2,0.7-8.5,1.5-12.2,2.2c-0.2-1.7-0.4-3.5-0.7-5.9c3,1.1,5.9,2.1,9.1,3.3c-1.5-2.9-2.6-5.3-3.8-7.6
		C45.2,15.4,45.9,15,46.6,14.6z"/>
	<path class="st1" d="M112,20.2c-1,0.3-2,0.5-3,0.8c0,0.5-0.1,1-0.1,1.6c3.2-0.1,6.4-0.3,9.6-0.4c-5.4,3.7-10.3,2.8-10.7-1
		c-2.3-0.7-4.6-1.4-6.8-2c0.1-0.4,0.1-0.8,0.2-1.2c3.6,0.3,7.2,0.5,10.8,0.8C111.9,19.2,112,19.7,112,20.2z"/>
	<path class="st1" d="M110.4,7.7c2.8,3.4,5.6,6.9,8.1,10C110.7,19.3,108.9,14.9,110.4,7.7z"/>
	<path class="st1" d="M8.3,30.2c5.5-4.4,10.4-1.7,15.8-0.4c-2.7,2.2-4.6,3.9-8.2,1.4C14.2,30,11.3,30.5,8.3,30.2z"/>
	<path class="st1" d="M115.3,34.4c-5.4,3.1-8.3-1.7-12.1-3.9c4.6-0.8,8.3,1.6,11.9,4C115.2,34.5,115.3,34.4,115.3,34.4z"/>
	<path class="st1" d="M133.5,47.2c1.2,1.5,2.4,3.1,4.1,5.2c0-2,0-3.4,0-5c4.1,2.4,4.1,3.4-0.4,11C135.8,54.3,134.6,50.7,133.5,47.2
		L133.5,47.2z"/>
	<path class="st1" d="M66.7,41.9c1.3,4.4,2.5,8.7,3.8,13.1c-0.6,0.2-1.2,0.3-1.8,0.5c-1.2-4.4-2.5-8.7-3.7-13.1
		C65.6,42.3,66.1,42.1,66.7,41.9z"/>
	<path class="st1" d="M133.5,47.2c-1.8-4.7-3.5-9.4-5.3-14.1c0.3-0.1,0.5-0.2,0.8-0.3c1.2,2,2.4,3.9,4,6.7
		C133.2,41.3,133.3,44.2,133.5,47.2L133.5,47.2z"/>
	<path class="st1" d="M6.9,24.4C6,23.3,5.1,22.3,4,21c2.5,0.6,4.7,1.1,7.2,1.6c-0.5,4.8-4.2,2.1-6.3,2.7C5.5,25,6.2,24.7,6.9,24.4z"
		/>
</g>
<path class="st1" d="M115.2,34.5c2.8,2.7,4.1,1.4,4.2-2.9c2.8,6.1,4.9,11.2,7.5,16c1.7,3,3.8,5.5,1.9,9.3c-0.5,1.1,0.5,2.9,0.8,4.8
	c2.1-0.8,3.6-1.3,5.5-2.1c-0.5,3.6-0.6,6.5-4.2,8.8c-2.4,1.5-3.3,5.2-5.8,9.3c7.1-2.1,8.5,2.2,9.2,5.4c1.9,9.2,2.9,18.7,4.2,28.1
	c0.4-0.2,1.7-0.7,3.5-1.5c1.5,2.2,3.3,4.5,4.9,7c1.6,2.5,2,4.8,0.1,7.6c-1.3,1.9-2.8,5.1,2.2,4.6c0.1,0,0.3,0.2,0.4,0.2
	c4.5,1.7,8.2,17,4.8,20.3c-2.8,2.8-5.1,5-3.9,10c1.5,6.4-0.3,7.6-9.4,10.7c1.7,3.9,1.5,7.3-1.5,10.7c-2.3,2.5-0.2,7.7,4.7,10.3
	c-1.5,2.1-2.9,4.1-4.4,6.1c-1.4,2-3.4,3.8-4.2,6.1c-1.8,5.2-5.1,10.2-3.5,16.2c0.4,1.6,1.2,3.1,1.7,4.6c0.2,0.7,0.6,1.6,0.4,2.2
	c-2.8,7.7-3.8,16.5-11.9,21.2c-0.6,0.3-1.2,0.6-1.8,0.9c-0.5,0.2-1,0.2-1.5,0.3c-1.6-1.5,3.2-6.7-2.2-5.8c-1.2,4.4-2.3,8.3-3.3,12.3
	c-0.3,1.2-0.4,2.5-0.2,3.6c1.1,5.3-0.1,9.8-4.2,13.5c-0.7,0.6-1.2,1.7-1.2,2.6c-0.3,6.6-0.2,13.2-0.9,19.7
	c-0.5,4.2-2.2,8.3-3.3,12.5c-0.1,0.5-0.8,1.1-0.8,1.2c4.1,4.7-2,9.8,0.6,14.8c0.9,1.7-0.4,4.3-0.5,6.6c-0.1,3.3-0.2,6.6-0.2,10
	c0.1,5.3,0.4,10.6,0.6,15.8c0,0.7,0,1.5-0.3,1.9c-1,1.5-3.4,3.8-3.2,4c2,2.4,4.5,4.5,6.8,6.6c0.9,0.8,1.8,1.6,2.9,2
	c3.9,1.4,5,4,3.4,8.1c-7.4,2.3-14.6-0.4-21.3-3.3c-2.1-0.9-2.5-6-3.5-9.3c-0.5-1.7-0.4-3.6-0.6-5.7c-1.2,0.4-2,0.7-3,1
	c6.2-33.9,4.4-68,4.2-103.3c-6.5,5-14.8,5.7-16.7,14.7c-0.5,2.4-2.5,4.5-4,6.6c-6.5,9-6.9,19.8-8.4,30c-1.2,8.5-0.3,17.3,0,26
	c0,1.2,1.4,2.4,2.3,3.6c2.2,2.8,4.5,5.6,7.2,8.8c-2.5,0.9-5.2,1.9-7.9,2.8c0.3,0.2,0.5,0.4,0.8,0.6c-1,1.7-2.3,3.2-2.9,5
	c-0.4,1-0.2,2.5,0.3,3.6c0.8,1.9,2.2,3.6,3,5.5c1.4,3.7-0.3,5.8-4.3,5.2c-4.9-0.8-10.8,0.1-13.2-5.9c-0.6-1.5-0.7-3.3-0.7-4.9
	c0-4.5,0.3-9,0.4-13.6c0-0.8-0.3-1.9,0.1-2.4c4.5-6.4,3-13.6,2.8-20.6s0.9-14.2-0.3-21c-0.9-5.4-3.9-10.6-8.8-15.3
	c-0.5,2.4-0.8,3.6-1.3,6.1c-1.5-3.5,1.3-8.6-5.7-7.5c-0.2,8.5-1,17.1-0.6,25.6c0.4,8.6,2,17.2,3,26.1c-4.3-0.5-5.5,1.6-4.6,5.6
	c6.7-1.2,7.3,3,7,8.4c-6.9-0.4-14.4,2.4-19.9-4.6c1.4-3.2,3.7-6.4,4.2-9.9c1-8.2,1.2-16.6,1.7-25.6c-3.5,1.5-6.1,2.5-9.2,3.9
	c0.2-3.3,0.4-5.8,0.6-8.9c-1.3,0.7-2,1.1-3.2,1.8c0.7-4.6,1.4-8.8,2.1-13.1c-0.3-0.1-0.6-0.1-0.9-0.2c-1.1,2.6-2.2,5.2-3.2,7.8
	c-1.9-5.9-1.8-11.4,0.7-17.5c1.8-4.5,1.6-10.1,1.5-15.2c0-5.3,1.9-9.3,4.9-13.5c4.4-6.1,5.3-12.7,2.6-20.2
	c-2.2-6.2-3.3-13.1-3.6-19.7c-0.3-9.7,0.3-19.4,1-29.1c0.3-4,1.6-8,5.1-10.8c0.9-0.7,1-3.4,0.4-4.6c-1.8-3.4,0.4-4.8,2.2-7.2
	c3.5-4.7,6.3-10,9.4-15c-6.1-3.1-7.7-7.4-5.6-12.9c0.3-0.8,0-1.9-0.1-2.8c-0.4-2.7,0.3-3.9,3-5.7c3-1.9,9.5-2.8,7.4-9.5
	c-0.3-0.8,1.3-2.7,2.4-3.4c5.2-3.1,6-7.4,3.7-12.6c5.3-0.8,10.1-1.6,13.5-2.1c3.2-2.6,5.3-5.6,7.9-6.1c5.5-1.2,4.8-5.9,6.3-9.3
	c0.8-1.8,0.7-4,1.4-6c-3.1-9-9-16.2-17.1-22c-3.1-2.2-4.5-6.8-6.5-10.4c-0.3-0.5,0.3-2,0.9-2.5c5.1-4,6-9.7,6.7-15.1
	c0.6-0.2,1.5-0.3,2-0.8c1.8-1.6,3.4-3.3,5.1-4.9l0,0c-0.4,0.6-0.9,1.2-1.4,1.9c4.7,2.3,4.1-1.1,4.2-5.3c1.6,2.9,2.5,4.5,3.4,6.2
	C60,26.9,55.4,32,58.9,37.1C58,40.7,56,43.7,55.1,47c-0.5,1.6,0.5,4.5,1.8,5.6c4.1,3.7,8.7,6.9,13.1,10.3c3.5-3.7,1.8-10.5,8.5-11.8
	c-0.7,5.7-7,10.4-4,15.9c2.6,4.9,7.3,8.6,11,12.8c5.9-3.4,5.7-4.7-0.9-8.5C91,63.6,92,63,98.9,68.9c2.1,1.8,4.6,3,7.9,5
	c0-4.1,0-6.7,0-10.3c6.8,3.3,8,10.3,12.9,14.9c0.4-2.2,1-4.3,1.2-6.3c0.2-2.2,0-4.5,0.2-6.7c0.1-1.1,0-2.8,0.7-3.2
	c5.2-3.7,1.8-5.8,0-6.9c-0.2-3.8,0.2-6.6-0.6-8.9c-1-2.8-3.1-5.1-5.4-8.8c-1.8,3.2-3.3,5.9-4.5,8.1c-2.5-2.5-4.8-4.8-7.8-7.7
	c5,0.2,10,2.6,11.9-3.6L115.2,34.5z"/>
</svg>
