<?xml version="1.0" encoding="utf-8"?>
<!-- Generator: Adobe Illustrator 25.4.1, SVG Export Plug-In . SVG Version: 6.00 Build 0)  -->
<svg version="1.1" id="Layer_1" xmlns="http://www.w3.org/2000/svg" xmlns:xlink="http://www.w3.org/1999/xlink" x="0px" y="0px"
	 viewBox="0 0 207 212" style="enable-background:new 0 0 207 212;" xml:space="preserve">
<style type="text/css">
	.st0{clip-path:url(#SVGID_00000049212656737543308230000005471807555629154705_);fill:#FFFFFF;}
	.st1{clip-path:url(#SVGID_00000078032640186413868730000014416277292267193000_);}
</style>
<g>
	<g>
		<defs>
			<circle id="SVGID_1_" cx="103.3" cy="103.7" r="103.7"/>
		</defs>
		<clipPath id="SVGID_00000102542796530148090200000002038282118980729769_">
			<use xlink:href="#SVGID_1_"  style="overflow:visible;"/>
		</clipPath>
		
			<circle style="clip-path:url(#SVGID_00000102542796530148090200000002038282118980729769_);fill:#FFFFFF;" cx="103.3" cy="103.7" r="103.7"/>
	</g>
	<g>
		<defs>
			<circle id="SVGID_00000029752668936149627450000007821550964490026661_" cx="103.3" cy="103.7" r="103.7"/>
		</defs>
		<clipPath id="SVGID_00000000911876490613997590000014294402456443884720_">
			<use xlink:href="#SVGID_00000029752668936149627450000007821550964490026661_"  style="overflow:visible;"/>
		</clipPath>
		<g style="clip-path:url(#SVGID_00000000911876490613997590000014294402456443884720_);">
			<path d="M9.7,151.2c2.4-4,4.6-8,7.3-11.8c2-2.9,4.6-5.6,7-8.5c-0.4-0.7-0.9-1.7-1.4-2.5c4.9-4.7,11.9-8.3,14-13.9
				C41.9,99.8,55.8,95.8,66,87.1c-1.3-0.2-3-0.3-4.8-0.5c0-0.4,0-0.7-0.1-1.1c2-0.3,4-0.5,6.9-0.8c0.6-8.2,1.1-16.6,1.6-25
				c0.4-0.2,0.7-0.4,1-0.5c2.7,4.4,5.3,8.8,8,13.2c1.4,2.1,2.5,4.4,4.1,6.2c0.9,1,2.7,1.6,4.2,1.6c4.6,0.1,9.2-0.6,13.8-0.3
				c11.6,1,19.3,5.1,30.2,12.2c5,3.3,11.7,4,17.9,4.9c8.6,1.3,17.5,1.2,26.1,2.2c5.6,0.6,7.3,4.8,4.5,11.2
				c-2.4,5.7-4.1,12.1-12.8,11.4c-1.5-0.1-3.2,3.6-5,5.8c-2.3-7.7-8-2.1-12.1-3.5c-0.2,0.5-0.4,1.1-0.7,1.6
				c4.8,2.8,9.5,5.6,14.8,8.6c1.2-1.6,2.5-3.4,4.8-6.6c0.3,4.8,0.6,8.4,0.8,12c0,0.5,0.3,0.9,0.4,1.5c1.4,8.2,1.6,8.7-7.2,11
				c-5.3,1.4-11.3,1.4-16.9,1.2c-8.7-0.3-17.1-0.5-23.8,4.7c0,2.6-0.1,4.6,0,6.6c0,1.2,0.2,2.7,0.9,3.6c6.3,7.9,6.1,16.1,1.6,24.6
				c-2.5,4.8-2.1,9.9-0.3,14.7c1.1,2.7,2.6,4.6,1,8c-0.9,1.8,0.6,4.7,1.1,7.1c-13.3,10.1-26.5,20.1-39.8,30.2
				C60.9,218.7,35.2,184.9,9.7,151.2z"/>
		</g>
	</g>
</g>
</svg>
