<?xml version="1.0" encoding="utf-8"?>
<!-- Generator: Adobe Illustrator 25.4.1, SVG Export Plug-In . SVG Version: 6.00 Build 0)  -->
<svg version="1.1" id="Layer_1" xmlns="http://www.w3.org/2000/svg" xmlns:xlink="http://www.w3.org/1999/xlink" x="0px" y="0px"
	 viewBox="0 0 549.6 297.4" style="enable-background:new 0 0 549.6 297.4;" xml:space="preserve">
<style type="text/css">
	.st0{stroke:#FFFFFF;stroke-width:9;stroke-miterlimit:10;}
</style>
<g>
	<path class="st0" d="M538,289.1c-12.1,1.4-22.7,2.5-33.8,0.4c-7.4-1.4-15.5,0-23.3,0.6c-19,1.5-38,4.7-57.1,1.2
		c-6.2-1.1-12.3-2.9-18.6-3.4c-12.2-0.9-24.6-2.3-36.7-1.2c-11,1-20.7-1.2-30.6-4.9c-2.1-0.8-4.6-1-6.9-1.2
		c-7.3-0.5-14.7-0.5-19.4-7.4c-4-5.8-9.7-4.3-14.8-3c-7.3,1.9-14.3,3.8-21.1-0.6c-1.4,1.4-2.5,2.7-3.8,3.6c-3.9,2.7-7.9,5.3-12,7.7
		c-1.9,1.1-4.1,2.3-6.1,2.2c-8.9-0.4-17.8-1.8-26.7-1.8c-8.1,0-16.2,1.1-24.3,2c-1.6,0.2-3,2.1-4.5,3.2c0.2,0.7,0.4,1.3,0.6,2
		c-7.9,0-16.1,1.4-23.5-0.5c-5.1-1.3-9.5-0.3-14.1-0.1c-16.4,1-32.7,2.9-49.1,3.7c-9.1,0.4-18-1.2-27-3.6c-15-4-30.7-5.7-46-8.4
		c-1.5-0.3-3-0.3-4.5-0.5c-4.4-0.5-6.5-2.3-7.8-7.2c-4.8-18.6-3.2-36.7,2.4-54.6c2.7-8.8,5.7-17.5,8.9-26.1c1.1-3,3.5-5.5,5.1-8.4
		c0.6-1.1,0.4-2.6,0.6-3.9c-0.4-0.1-0.8-0.3-1.2-0.4c2.7-2.1,5.2-4.6,8.2-6.3c4.5-2.7,2.8-4.5-0.6-6c-7.3-3.2-15.1-5.5-21.9-9.4
		c-7.7-4.5-14.7-10.4-21.9-15.6c0.4-0.5,0.7-1,1.1-1.5c3.7,1.9,7.3,4.3,11.3,5.6c12.9,4.2,25.9,7.9,38.8,11.8
		c0.6,0.2,1.4,0.8,1.9,0.6c5.9-3.1,11.8-6.3,17.7-9.4c-0.1-0.5-0.3-0.9-0.4-1.4c-1.8-0.2-3.7-0.4-7.1-0.7
		c9.2-1.3,15.7-4.6,21.4-10.1c2.2-2.1,7.1-1.4,10.6-2.3c1.9-0.5,3.6-2,5.4-3c-1.5-2-2.6-4.7-4.5-5.8c-3.4-1.9-7.4-2.9-11.1-4.2
		c-10-3.6-19.1-8.5-27.2-17.1c12.3,4.1,23.5,7.8,34.7,11.5c3.4,1.1,6.9,2.2,10.2,3.3c2,0.7,4.3,1.2,5.9,2.6c5.5,4.7,11.4,4.8,17.6,2
		c6.7-3.1,13.3-6.6,20.2-9.5c2.5-1.1,5.5-0.9,8.3-1.3c1.6-5.1,3.6-6,8.3-3.5c-2,0.4-3.5,0.8-5.1,1.1c1.1,3.6,1.1,3.6,4.4,1.9
		c3.3-1.8,6.6-3.4,10.5-5.4c0-0.1-0.1-1.2-0.2-2.7c2.3,0.1,4.6,0.4,6.9,0.2c1.3-0.1,2.5-1.1,3.8-1.6c-0.6-1.2-1-3.1-2-3.6
		c-11.9-6.5-20.7-15.5-27.5-26.6c-0.9-1.4-2.5-2.4-3.5-4c13,7.3,24.8,17.5,40.7,19.8c-2.7-9.6-15.2-19.2-31.2-24.1
		c5.1-0.5,3.8-2.6,2.3-4.8c-4.3-6.4-8.6-12.8-13-19.3c0.3-0.3,0.6-0.7,0.8-1c2.2,1.7,4.5,3.3,6.6,5.2c7.9,7.2,15.8,14.7,26.2,17.4
		c12.2,3.1,24.9,4.5,37.3,6.7c2.6,0.5,5.1,1.1,7.5,2.1c10.1,4.1,20.1,8.3,30,12.8c1.1,0.5,2,3,1.9,4.4c-0.2,2.2-1.3,4.3-2,6.4
		c5.4-1,9.9-1.8,14.6-2.6c-1.5-3.1,7-5.8,1.8-10.6c4.8-3,5.1-3.1,1.2-11.1c-2.2-4.5-5.5-8.3-8.2-12.5c-2.9-4.7-5.4-9.7-8.5-14.3
		c-6.1-8.9-14.9-14.8-24.2-19.9c-14.8-8-31.3-10.9-47.3-15.4c-0.6-0.2-1.2-0.4-3.4-1.3c2.9-0.7,4.5-1.6,6-1.5
		c4.6,0.3,9.2,1,13.8,1.6c7.6,1,15.4,1.4,22.8,3.2c12.2,3.1,23.8,7.8,34,15.6c4.7,3.6,10.1,6.2,14.3,10.3
		c6.5,6.4,12.5,13.5,18.2,20.7c5.5,6.7,11.6,9.3,20,6.4c4.4-1.5,8.3-4.3,12.5-6.1c7.6-3.3,15.1-7,23-9.3c19.3-5.5,39.2-4.9,59.1-4.9
		c25.9-0.1,18.9,2.1,37.5-15.8c2.4-2.3,4.7-4.6,8-7.9c0,5.6-0.1,10.3,0,15c0,3.1,0,6.3,0.5,9.4c0.2,1.2,1.7,2.6,2.9,3
		c4.8,1.7,8,5.1,10,9.5c1.1,2.5,2.2,3.8,4,1.9c2.8,3.5,5.9,7,8.5,10.8c1.2,1.8,2.4,4.2,2.3,6.3c-0.4,11.4,5.7,19.3,13.8,26.2
		c9,7.7,17.9,15.4,26.8,23.1c3.2,2.8,3.9,5.8,0.6,8.9c-4.6,4.4-9.6,7.8-16.4,7.7c-4-0.1-6.8,3.7-5.4,8.1c1.2,3.9-0.4,4.8-3.5,5.3
		c-10.1,1.6-18.9-1.7-27.1-7.3c-8-5.4-16.8-8.4-26.7-7.7c-3.7,0.3-6.3,1.9-8.3,5.3c-2.1,3.6-5.6,6.4-7.9,9.9
		c-4.2,6.7-7.9,13.7-11.8,20.6c-0.3,0.6-0.7,1.5-1.1,1.5c-4.7,0.2-7.4,3.3-10.5,6.3c-1.8,1.8-4.7,2.2-4.4,5.7
		c0.1,0.7-1.4,1.9-2.3,2.1c-6.9,1.5-8.6,7.8-10.9,12.9c-4.7,10.1-7.3,21.3-16.5,28.9c-1.7,1.4-2.9,3.6-3.7,5.7
		c-0.3,0.8,1.1,3,2.1,3.3c3.8,1.1,7.7,1.6,11.6,2.4c7.5,1.7,15,3.8,22.6,5.1c11.6,2,23.2,3.4,34.8,5.1c1,0.1,2.1,0.2,2.8,0.8
		c7.1,5.9,16.3,6.5,24.6,9.1c8.1,2.5,16.8,2.8,25,5.1c4.9,1.4,9.2,4.9,13.8,7.1c2.8,1.4,5.8,3.1,8.7,3.1
		C526.3,278.8,531.3,284,538,289.1z M251.6,96.2c-0.3-3.8-2.3-5-5.6-5.6c-2.8-0.5-5.6-1.6-8-3.1c-9.1-5.8-18.2-11.5-29.3-13.7
		c0.3,0.9,0.3,1.7,0.7,2.1c4.5,5.7,8.9,11.5,13.7,17c0.9,1,3,1.3,4.6,1.5c7.3,0.9,14.9-1.2,21.9,2.2
		C249.8,96.8,250.4,96.5,251.6,96.2z M242.9,258.8c-3.4-0.7-7.7-2.6-8.7-1.5c-3.4,3.7-5.7,8.5-8.5,13.1c2-0.1,4.9,0.6,6.4-0.6
		C235.7,267,238.7,263.3,242.9,258.8z"/>
</g>
</svg>
