<?xml version="1.0" encoding="utf-8"?>
<!-- Generator: Adobe Illustrator 25.4.1, SVG Export Plug-In . SVG Version: 6.00 Build 0)  -->
<svg version="1.1" id="Layer_1" xmlns="http://www.w3.org/2000/svg" xmlns:xlink="http://www.w3.org/1999/xlink" x="0px" y="0px"
	 viewBox="0 0 52 36.2" style="enable-background:new 0 0 52 36.2;" xml:space="preserve">
<style type="text/css">
	.st0{fill:none;stroke:#FFFFFF;stroke-linecap:round;stroke-linejoin:round;stroke-miterlimit:10;}
	.st1{fill:none;stroke:#000000;stroke-width:2;stroke-linecap:round;stroke-linejoin:round;stroke-miterlimit:10;}
	.st2{clip-path:url(#SVGID_00000108283143208179951780000005974725208813127296_);}
	.st3{display:none;}
	.st4{fill:#FFFFFF;}
</style>
<path class="st0" d="M26,3.8c0,0-10-6.2-22,0C4,4,4,30.3,4,30.3s9.2-5.8,22,0c12.8-5.8,22,0,22,0s0-26.2,0-26.5
	C36-2.4,26,3.8,26,3.8z"/>
<path class="st0" d="M1,6.2v28.4c0,0,5.5-3,13.8-3s8.2,1.2,8.2,1.2s-0.5,2.4,2.8,2.4h0.5c3.2,0,2.7-2.4,2.7-2.4s0-1.2,8.2-1.2
	s13.8,3,13.8,3V6.2"/>
<path class="st1" d="M26,26.2"/>
<path class="st1" d="M43.9,9.8"/>
<path class="st1" d="M30.4,9.8"/>
<path class="st1" d="M43.9,13.8"/>
<path class="st1" d="M30.4,13.8"/>
<path class="st1" d="M43.9,17.8"/>
<path class="st1" d="M30.4,17.8"/>
<path class="st1" d="M43.9,21.8"/>
<path class="st1" d="M30.4,21.8"/>
<path class="st1" d="M21.5,9.8"/>
<path class="st1" d="M8,9.8"/>
<path class="st1" d="M21.5,13.8"/>
<path class="st1" d="M8,13.8"/>
<path class="st1" d="M21.5,17.8"/>
<path class="st1" d="M8,17.8"/>
<path class="st1" d="M21.5,21.8"/>
<path class="st1" d="M8,21.8"/>
<g>
	<defs>
		<path id="SVGID_1_" d="M26.8,3.3c0,0-10-6.2-22,0c0,0.2,0,26.5,0,26.5s9.2-5.8,22,0c12.8-5.8,22,0,22,0s0-26.2,0-26.5
			C36.8-2.9,26.8,3.3,26.8,3.3z"/>
	</defs>
	<clipPath id="SVGID_00000048497454566717098790000013728099604595653032_">
		<use xlink:href="#SVGID_1_"  style="overflow:visible;"/>
	</clipPath>
	<g style="clip-path:url(#SVGID_00000048497454566717098790000013728099604595653032_);">
		<path class="st3" d="M11.5,28c0.3-0.6,0.6-1.4,1-1.9c0.4-0.5,0.9-1,1-1.7c0.1-0.2,0-0.5,0.1-0.7c0.2-0.3,0.4-0.6,0.6-0.9
			c0.3-0.3,0.5-0.7,0.8-1c0.1-0.1,0.2-0.1,0.3-0.2c0.1-0.2,0.2-0.3,0.3-0.5c-0.2-0.1-0.4-0.2-0.6-0.1c-0.3,0.1-0.5,0.2-0.9,0.4
			c0.3-0.9,0.9-1.5,1.5-2.1c0.5-0.5,1-0.9,1.5-1.3c0.2-0.2,0.4-0.4,0-0.7c0,0,0-0.2,0-0.3c0.2-0.3,0.4-0.6,0.7-1
			c1.2-0.1,1.4-1.3,2-2.1c-0.2,0.1-0.4,0.1-0.6,0.2c0,0,0-0.1,0-0.1c0.5-0.3,1-0.6,1.6-0.9c-0.1-0.1-0.2-0.1-0.3-0.1
			c0.5-0.2,0.6-0.5,0.7-1c0.3-1.3,0.7-2.5,1.1-3.7c0.1-0.2,0.4-0.6,0.6-0.5c0.3,0,0.6,0.3,0.7,0.6c0.5,0.6,0.8,1.3,1.3,2
			c0.1,0.2,0.5,0.3,0.7,0.2c0.5-0.2,0.9,0.1,1.3,0.2c0.3,0.1,0.6,0.2,1,0.3c0.1,0,0.3-0.1,0.4-0.2c0.5-0.5,1-1,1.5-1.6
			c0.2-0.2,0.5-0.1,0.6,0.1c0.2,0.5,0.4,1,0.5,1.5c0.1,0.7,0.1,1.4,0.2,2.1c0.1,0.6,0.4,1.1,0.6,1.7c0.2,0.5,0.5,1,0.1,1.6
			c0.4,0.2,0.4,0.6,0.3,1c0,0.1,0.1,0.3,0.2,0.4c0.4,0.4,0.6,0.8,0.3,1.3c-0.1,0.2,0,0.5,0,0.7c0,0.7-0.2,0.8-0.9,0.9
			c0.1,0.7-0.4,0.8-0.9,1c-0.3,0.1-0.6,0.3-0.4,0.8c0.2-0.2,0.4-0.3,0.6-0.6c-0.2,0.6-0.3,1.1-0.4,1.8c0.3,0.7,0.1,1.2-0.9,1.3
			c-0.1,0-0.3,0-0.3,0c-0.1,0.1-0.3,0.3-0.2,0.4c0.3,0.5,0.3,1-0.1,1.4c-0.3,0.3-0.6,0.7-0.7,1.1c-0.2,1-0.7,2.1,0,3.1
			c-5.6,0-11.3,0-16.9,0C11.5,29.8,11.5,28.9,11.5,28z"/>
		<g>
			<path class="st4" d="M17.4,30.1c0.3-0.9,0.7-1.8,1-2.8c0.2-0.5,0.3-1,0.4-1.5c0.1-0.3-0.1-0.7-0.4-0.7c-0.5-0.1-0.9-0.1-1.4-0.1
				c-0.8,0-1.4-0.1-2.1-0.5c0.1,0,0.1-0.1,0.1-0.1c1,0.1,1.9-0.2,2.8-0.4c0.2,0,0.4,0,0.6-0.1c0.4,0,0.8,0,0.9-0.5
				c0.1-0.5,0.4-0.9,0.6-1.4c0,0,0-0.1,0-0.1c-0.1,0-0.3,0-0.4,0c-0.1-0.3,0.6-0.4,0.2-0.7c0.2-0.1,0.4-0.2,0.6-0.3
				c0-0.1,0-0.2-0.1-0.2c-0.9-0.4-1.8-0.8-2.7-1.2c-0.6-0.2-1.2-0.1-1.8,0.1c-0.7,0.3-1.3,0.6-1.8,1.1c-0.1,0.1-0.2,0-0.3,0
				c0.2-0.3,0.4-0.5,0.5-0.7c0.4-0.7,1.2-1,1.8-1.4c0.7-0.5,1.6-0.5,2.4-0.4c0.9,0.1,1.7,0.4,2.5,0.7c0.3,0.2,0.5,0,0.6-0.3
				c0,0,0-0.1,0-0.1c-0.3-0.4,0.1-0.6,0.2-1c-0.3,0.1-0.6,0.1-0.9,0.2c0,0,0-0.1-0.1-0.1c0.2-0.1,0.4-0.3,0.6-0.3
				c0.5,0,0.6-0.5,1-0.7c0.2-0.2,0.4-0.4,0.6-0.6c0.1-0.1,0.1-0.2,0.1-0.3c-0.1,0-0.3-0.1-0.4-0.1c-0.2,0.1-0.4,0.2-0.7,0.3
				c0.4-0.9,1.1-1.4,1.7-2c0.2-0.1,0.3-0.3,0.5-0.4c0.2-0.2,0.1-0.3-0.1-0.5c0.4-0.6,0.8-1.1,1.5-1.4c0.4-0.2,0.4-0.6,0.5-0.9
				c0,0-0.1-0.1-0.2-0.1c0.3-0.1,0.5-0.2,0.7-0.3c0.4-0.2,0.5-0.5,0.6-0.9c0.2-1,0.5-1.9,0.8-2.8c0.1-0.3,0.3-0.4,0.5-0.1
				c0.3,0.3,0.5,0.7,0.8,1c0.1,0.1,0.2,0.3,0.3,0.4c0.2,0.4,0.4,0.5,0.9,0.3c0.2-0.1,0.5,0.1,0.7,0.2c0.2,0.1,0.5,0.2,0.7,0.2
				c0.1,0,0.2-0.1,0.3-0.2c0.4-0.4,0.8-0.9,1.2-1.3C34,7.7,34,8.3,34,8.7c0.1,0.6,0.1,1.1,0.2,1.7c0.1,0.3,0.2,0.6,0.4,0.9
				c0.2,0.4,0.4,0.7,0.2,1.2c0,0,0,0.1,0,0.1c0.3,0.2,0.2,0.4,0.1,0.7c0,0.1,0.1,0.2,0.2,0.3c0.2,0.3,0.4,0.5,0.2,0.9
				c-0.1,0.1,0,0.4,0,0.5c0,0.5-0.1,0.6-0.6,0.6c0.1,0.5-0.3,0.6-0.6,0.7c-0.2,0.1-0.4,0.2-0.3,0.5c0.1-0.1,0.2-0.2,0.4-0.4
				c-0.1,0.4-0.2,0.8-0.3,1.3c0.2,0.5,0,0.8-0.7,0.9c-0.1,0-0.2,0-0.2,0c-0.1,0.1-0.2,0.2-0.2,0.3c0.3,0.5,0.2,0.6-0.2,1.1
				c0,0,0,0.1,0,0.1c0,0.1,0,0.3-0.1,0.3c-0.4,0.2-0.3,0.5-0.3,0.9c-0.1-0.1-0.1-0.1-0.1-0.3c0,0.5-0.3,0.9-0.1,1.3
				c0.2,0.5,0.3,1,0.5,1.4c0.3,0.6,0.1,1.2,0,1.8c0,0.9-0.1,1.8-0.2,2.8c0,0.2,0,0.4,0.1,0.5c0.4,0.4,0.4,0.9,0.4,1.3
				C27.7,30.1,22.5,30.1,17.4,30.1z"/>
		</g>
	</g>
	<use xlink:href="#SVGID_1_"  style="overflow:visible;fill:none;stroke:#FFFFFF;stroke-miterlimit:10;"/>
</g>
</svg>
