<?xml version="1.0" encoding="utf-8"?>
<!-- Generator: Adobe Illustrator 25.4.1, SVG Export Plug-In . SVG Version: 6.00 Build 0)  -->
<svg version="1.1" id="Layer_1" xmlns="http://www.w3.org/2000/svg" xmlns:xlink="http://www.w3.org/1999/xlink" x="0px" y="0px"
	 viewBox="0 0 128 128" style="enable-background:new 0 0 128 128;" xml:space="preserve">
<style type="text/css">
	.st0{fill:#C0565A;}
</style>
<polygon class="st0" points="60.9,121.8 61.1,120.3 61.7,118.4 62.3,116.6 62.4,114.7 63.3,112.9 63.2,111 63.7,109 64.5,107.3 
	65.4,105.7 66.2,103.9 66.5,102 67.4,100.2 67.4,98.2 68.3,96.5 68.9,94.7 70.2,93 70.4,91.1 71.4,89.5 72.3,87.8 72.9,85.9 
	73.7,84.2 74.9,82.6 76.3,81.2 76.9,79.4 77.9,77.6 78.5,75.9 79.8,74.3 80.3,72.6 81.9,71.2 82.7,69.5 83,67.3 84.7,66.4 
	85.3,64.4 86.7,62.8 87.4,61.3 88.3,59.3 89.8,58.4 90.5,56.6 91.5,55 93,53.8 93.8,52 94.9,50.6 96,49 96.8,47.3 98.3,46 
	99.6,44.7 100.7,43.2 101.7,41.6 103,40.3 104.2,38.7 105.4,37.3 106.9,36.1 107.7,34.4 109.1,33.1 110.2,31.5 111.8,30.5 
	113.1,29.1 114,28.2 112.6,28.7 111.4,30.1 109.5,30.6 108.3,32.3 106.5,32.7 105.4,34.5 103.5,35 102.5,36.8 101.1,38 99.6,39.1 
	97.9,39.9 96.7,41.4 95,42.3 93.7,43.6 92.6,45.2 91.1,46.3 90.1,48 88.6,49.2 87.1,50.2 86.2,51.9 85.3,53.6 83.6,54.6 83,56.5 
	81.3,57.6 80.6,59.4 79.3,60.7 77.8,61.7 77.2,63.8 76.4,65.5 75,66.8 74,68.4 73.8,70.4 72.5,71.9 71.5,73.5 71.1,75.4 70.4,77.1 
	69,78.5 68.6,80.4 68,82.1 67.7,84 67.2,85.7 66.6,87.4 66.1,89.3 65.3,91 64.4,92.7 64.7,94.6 63.5,96.3 63.2,98.1 63.6,100.1 
	62.6,101.8 62.4,103.7 62,105.6 62.3,107.4 61.8,109.2 61.3,111 61.6,113 61.1,114.8 61.1,116.6 60.9,118.3 60.7,120.2 "/>
<polygon class="st0" points="15.1,101.4 15.4,98.8 16.1,96.4 17,94.4 17.1,92.4 18,90.7 18.2,88.7 19.1,87.1 19.8,85.2 20.2,83.4 
	21.2,81.7 21.9,79.9 22.3,78 23.8,76.5 24,74.5 25.4,73 25.2,71.1 26.5,69.2 27.9,68 28.5,66 29.4,64.2 31,62.9 31.2,60.8 33,59.7 
	33.3,57.6 34.6,56.2 35.8,54.5 36.5,52.8 38.1,51.6 38.5,49.5 40.3,48.5 41.4,46.9 41.9,44.9 43.3,44.1 44.1,41.9 45.7,40.8 
	46.2,38.8 47.7,37.5 48.2,36 50.3,34.9 51.3,33.1 52.8,32 53.5,30.1 54.3,28.5 56.1,27.3 57,25.9 58.9,24.8 60,23.2 61.5,22 
	62.2,20.2 64,19.1 65,17.4 66.8,16.6 67.7,14.8 69.5,14.2 70.7,12.5 73.4,10.7 70.2,11.7 68.8,12.9 66.8,13.5 65.6,15 63.8,15.7 
	61.7,16.2 60.4,17.7 58.6,18.4 57.7,20 55.9,20.5 54.7,22.4 53.1,22.9 51.7,24.6 49.8,25.1 48.5,26.6 47.4,28.2 46,29.5 44.2,30.3 
	43.2,31.9 41.4,32.6 40.5,34.5 39.1,35.5 38.4,37.8 36.5,38.6 36.1,40.4 34.4,41.8 33.9,43.5 32.1,44.8 31.6,46.5 29.8,47.8 
	29.3,49.6 28.7,51.5 27,52.9 26.7,54.7 25.6,56.3 25.2,58.1 23.9,59.7 23.6,61.5 22.3,63.1 22.3,65.1 20.9,66.6 21,68.6 19.7,70.2 
	19.9,72.2 19.3,74 18.6,75.8 17.8,77.6 17.5,79.4 16.8,81.2 16.5,83 16.5,84.9 15.9,86.8 16,88.7 15.6,90.6 15.4,92.4 15.3,94.4 
	14.8,96.1 14.6,98.3 "/>
<polygon class="st0" points="35.2,124.4 35.4,122.2 36.3,120.6 36.7,118.8 36.7,116.9 37.9,115.2 38.3,113.4 38.8,111.5 38.9,109.6 
	39.9,107.9 39.9,105.9 40.5,104.1 40.6,102.1 41.7,100.5 42.7,99.2 43,97 44.2,95.4 44.4,93.4 45.5,91.9 46.2,90.1 46.8,88.3 
	47,86.3 48.2,84.8 48.7,83 49.3,81.1 50.7,79.7 51.2,77.9 52.5,76.3 53.1,74.6 53.7,72.8 54.9,71.1 55.5,69.4 56.4,67.7 57.9,66.3 
	58.3,64.4 59.8,63.1 60.5,61.4 61,59.4 62,57.7 63.8,56.7 64.4,54.9 65.1,53.1 66.5,51.7 67.4,50 68.9,48.9 70.2,47.5 70.7,45.5 
	72.2,44.3 73.3,42.8 74.1,41 75.4,39.7 76.7,38.3 77.8,36.7 79.5,35.9 80.9,34.6 81.9,32.9 82.8,31.2 84.4,30.1 85.6,28.7 
	86.8,27.2 88.3,26.2 89.6,24.7 90.7,23.2 92.5,22.3 93.4,20.6 95.2,19.7 96.2,18 97.5,16.7 99.1,15.6 100.4,14.4 101.8,13.1 
	103.7,12.5 104.8,10.7 106.5,10.2 107.6,8.3 109.2,7.4 110.8,6.3 109.1,7 107.1,7.5 105.7,8.9 103.7,9.1 102,10.1 100.7,11.6 
	99.1,12.5 97.4,13.6 95.5,14 94.3,15.6 92.4,16.3 90.8,17.2 89.1,18.1 87.7,19.5 86,20.3 84.8,21.9 83.3,23.1 81.7,24.1 80.1,25 
	78.5,26.1 77.3,27.7 75.7,28.7 74.7,30.5 73,31.1 72,33.1 70.4,33.9 69.4,35.9 67.5,36.4 66.6,38.4 65.5,40.1 63.8,40.7 62.8,42.7 
	61.2,43.9 60.4,45.6 59.2,47.1 57.7,48 57,50.1 55.5,51.2 54.7,53.2 53.4,54.6 53.2,56.7 52.3,58.4 51.1,59.9 50.6,61.9 49.2,62.8 
	48.5,65.1 47.6,66.8 47.2,68.7 46.5,70.5 45.3,72 44.9,74 44.3,75.7 43.6,77.5 43.3,79.4 42.3,81.1 41.5,82.9 41.5,84.6 40.8,86.6 
	39.7,88.4 39.7,90.3 39.3,92.2 38.5,94 38.6,95.9 38.5,97.8 38,99.7 37.3,101.5 37,103.4 37.2,105.3 36.3,107.2 36.6,109.1 
	35.7,110.9 36.2,112.8 35.2,114.7 35.5,116.6 35,118.5 35.4,120.3 34.8,122.2 "/>
</svg>
