<?xml version="1.0" ?><svg height="32" id="svg7727" version="1.1" viewBox="0 0 32 32" width="32" xmlns="http://www.w3.org/2000/svg" xmlns:cc="http://creativecommons.org/ns#" xmlns:dc="http://purl.org/dc/elements/1.1/" xmlns:inkscape="http://www.inkscape.org/namespaces/inkscape" xmlns:rdf="http://www.w3.org/1999/02/22-rdf-syntax-ns#" xmlns:sodipodi="http://sodipodi.sourceforge.net/DTD/sodipodi-0.dtd" xmlns:svg="http://www.w3.org/2000/svg"><defs id="defs7729"><pattern height="6" id="EMFhbasepattern" patternUnits="userSpaceOnUse" width="6" x="0" y="0"/><pattern height="6" id="EMFhbasepattern-6" patternUnits="userSpaceOnUse" width="6" x="0" y="0"/><pattern height="6" id="EMFhbasepattern-9" patternUnits="userSpaceOnUse" width="6" x="0" y="0"/><pattern height="6" id="EMFhbasepattern-0" patternUnits="userSpaceOnUse" width="6" x="0" y="0"/><pattern height="6" id="EMFhbasepattern-1" patternUnits="userSpaceOnUse" width="6" x="0" y="0"/><pattern height="6" id="EMFhbasepattern-2" patternUnits="userSpaceOnUse" width="6" x="0" y="0"/><pattern height="6" id="EMFhbasepattern-5" patternUnits="userSpaceOnUse" width="6" x="0" y="0"/><pattern height="6" id="EMFhbasepattern-19" patternUnits="userSpaceOnUse" width="6" x="0" y="0"/><pattern height="6" id="EMFhbasepattern-17" patternUnits="userSpaceOnUse" width="6" x="0" y="0"/><pattern height="6" id="EMFhbasepattern-8" patternUnits="userSpaceOnUse" width="6" x="0" y="0"/><pattern height="6" id="EMFhbasepattern-22" patternUnits="userSpaceOnUse" width="6" x="0" y="0"/><pattern height="6" id="EMFhbasepattern-60" patternUnits="userSpaceOnUse" width="6" x="0" y="0"/><pattern height="6" id="EMFhbasepattern-54" patternUnits="userSpaceOnUse" width="6" x="0" y="0"/><pattern height="6" id="EMFhbasepattern-4" patternUnits="userSpaceOnUse" width="6" x="0" y="0"/><pattern height="6" id="EMFhbasepattern-48" patternUnits="userSpaceOnUse" width="6" x="0" y="0"/><pattern height="6" id="EMFhbasepattern-04" patternUnits="userSpaceOnUse" width="6" x="0" y="0"/><pattern height="6" id="EMFhbasepattern-14" patternUnits="userSpaceOnUse" width="6" x="0" y="0"/><pattern height="6" id="EMFhbasepattern-18" patternUnits="userSpaceOnUse" width="6" x="0" y="0"/><pattern height="6" id="EMFhbasepattern-50" patternUnits="userSpaceOnUse" width="6" x="0" y="0"/><pattern height="6" id="EMFhbasepattern-91" patternUnits="userSpaceOnUse" width="6" x="0" y="0"/><pattern height="6" id="EMFhbasepattern-05" patternUnits="userSpaceOnUse" width="6" x="0" y="0"/><pattern height="6" id="EMFhbasepattern-57" patternUnits="userSpaceOnUse" width="6" x="0" y="0"/><pattern height="6" id="EMFhbasepattern-59" patternUnits="userSpaceOnUse" width="6" x="0" y="0"/><pattern height="6" id="EMFhbasepattern-11" patternUnits="userSpaceOnUse" width="6" x="0" y="0"/><pattern height="6" id="EMFhbasepattern-7" patternUnits="userSpaceOnUse" width="6" x="0" y="0"/><pattern height="6" id="EMFhbasepattern-96" patternUnits="userSpaceOnUse" width="6" x="0" y="0"/><pattern height="6" id="EMFhbasepattern-95" patternUnits="userSpaceOnUse" width="6" x="0" y="0"/></defs><g id="layer1" transform="translate(0,-1020.3622)"><path d="m 31.26815,1020.8308 a 0.50005,0.50005 0 1 1 0,1 l -1,0 0,2.5976 c 0.4789,0.3695 0.8826,0.7737 1.1465,1.1875 0.3053,0.4786 0.5083,1.0205 0.2325,1.5352 -0.01,0.017 -0.02,0.034 -0.031,0.051 l -3.1367,4.4863 c -0.033,0.048 -0.074,0.091 -0.1211,0.125 -0.3777,0.4174 -0.9529,0.576 -1.5313,0.5352 -0.6381,-0.045 -1.3212,-0.2998 -1.9531,-0.7422 -0.6319,-0.4425 -1.1702,-0.9708 -1.3652,-1.5801 -0.271,-0.8465 -0.2304,-1.3699 0.1992,-1.9824 l 1.8105,-2.5821 0,-3.6308 -1,0 a 0.50005,0.50005 0 1 1 0,-1 z m -2,1 -2.75,0 0,2.205 0.2032,-0.289 c 0.016,-0.022 0.034,-0.042 0.053,-0.061 0.2289,-0.2344 0.5109,-0.3311 0.8125,-0.3477 0.1006,-0.01 0.2028,0 0.3066,0.01 0.1382,0.014 0.279,0.039 0.418,0.072 0.3083,0.073 0.6311,0.2037 0.957,0.3672 z m -4.121,6.7539 c -0.4144,-0.029 -0.6554,0.082 -0.7637,0.2363 -0.1084,0.1548 -0.1302,0.4195 0.039,0.7988 0.1692,0.3795 0.5263,0.8185 1.0254,1.168 0.4991,0.3495 1.033,0.5332 1.4473,0.5625 0.4144,0.029 0.6553,-0.08 0.7637,-0.2344 0.1073,-0.1551 0.1274,-0.4211 -0.041,-0.7988 -0.1692,-0.3794 -0.5263,-0.8166 -1.0254,-1.166 -0.4991,-0.3495 -1.0329,-0.5353 -1.4473,-0.5645 z" id="path12387" style="color:#000000;font-style:normal;font-variant:normal;font-weight:normal;font-stretch:normal;font-size:medium;line-height:normal;font-family:sans-serif;text-indent:0;text-align:start;text-decoration:none;text-decoration-line:none;text-decoration-style:solid;text-decoration-color:#000000;letter-spacing:normal;word-spacing:normal;text-transform:none;direction:ltr;writing-mode:lr-tb;baseline-shift:baseline;text-anchor:start;white-space:normal;clip-rule:nonzero;display:inline;overflow:visible;visibility:visible;opacity:1;isolation:auto;mix-blend-mode:normal;color-interpolation:sRGB;color-interpolation-filters:linearRGB;solid-color:#000000;solid-opacity:1;fill:#3b3c3d;fill-opacity:1;fill-rule:evenodd;stroke:none;stroke-width:1px;stroke-linecap:round;stroke-linejoin:round;stroke-miterlimit:4;stroke-dasharray:none;stroke-dashoffset:0;stroke-opacity:1;color-rendering:auto;image-rendering:auto;shape-rendering:auto;text-rendering:auto;enable-background:accumulate"/><path d="m 26.35485,1031.3269 a 0.50005,0.50005 0 0 0 -0.4668,0.3183 l -3.7403,9.2031 0.8008,0.6856 3.8652,-9.5117 a 0.50005,0.50005 0 0 0 -0.4589,-0.6953 z m -5.2969,12.205 -2.3496,5.7832 a 0.50005,0.50005 0 1 0 0.9258,0.377 l 2.2246,-5.4746 z" id="path12389" style="color:#000000;font-style:normal;font-variant:normal;font-weight:normal;font-stretch:normal;font-size:medium;line-height:normal;font-family:sans-serif;text-indent:0;text-align:start;text-decoration:none;text-decoration-line:none;text-decoration-style:solid;text-decoration-color:#000000;letter-spacing:normal;word-spacing:normal;text-transform:none;direction:ltr;writing-mode:lr-tb;baseline-shift:baseline;text-anchor:start;white-space:normal;clip-rule:nonzero;display:inline;overflow:visible;visibility:visible;opacity:1;isolation:auto;mix-blend-mode:normal;color-interpolation:sRGB;color-interpolation-filters:linearRGB;solid-color:#000000;solid-opacity:1;fill:#3b3c3d;fill-opacity:1;fill-rule:evenodd;stroke:none;stroke-width:1px;stroke-linecap:round;stroke-linejoin:round;stroke-miterlimit:4;stroke-dasharray:none;stroke-dashoffset:0;stroke-opacity:1;color-rendering:auto;image-rendering:auto;shape-rendering:auto;text-rendering:auto;enable-background:accumulate"/><path d="m 24.10285,1029.7656 a 0.50005,0.50005 0 0 1 0.3301,0.8848 l -19.0000003,16.25 a 0.50005,0.50005 0 1 1 -0.6484,-0.7598 l 19.0000003,-16.25 a 0.50005,0.50005 0 0 1 0.3183,-0.125 z" id="path12391" style="color:#000000;font-style:normal;font-variant:normal;font-weight:normal;font-stretch:normal;font-size:medium;line-height:normal;font-family:sans-serif;text-indent:0;text-align:start;text-decoration:none;text-decoration-line:none;text-decoration-style:solid;text-decoration-color:#000000;letter-spacing:normal;word-spacing:normal;text-transform:none;direction:ltr;writing-mode:lr-tb;baseline-shift:baseline;text-anchor:start;white-space:normal;clip-rule:nonzero;display:inline;overflow:visible;visibility:visible;opacity:1;isolation:auto;mix-blend-mode:normal;color-interpolation:sRGB;color-interpolation-filters:linearRGB;solid-color:#000000;solid-opacity:1;fill:#3b3c3d;fill-opacity:1;fill-rule:evenodd;stroke:none;stroke-width:1px;stroke-linecap:round;stroke-linejoin:round;stroke-miterlimit:4;stroke-dasharray:none;stroke-dashoffset:0;stroke-opacity:1;color-rendering:auto;image-rendering:auto;shape-rendering:auto;text-rendering:auto;enable-background:accumulate"/><path d="m 7.6243497,1029.7663 a 0.50005,0.50005 0 0 0 -0.2793,0.8848 l 7.1016003,6.0742 0.7695,-0.6582 -7.2227003,-6.1758 a 0.50005,0.50005 0 0 0 -0.3183,-0.125 0.50005,0.50005 0 0 0 -0.051,0 z" id="path12455" style="color:#000000;font-style:normal;font-variant:normal;font-weight:normal;font-stretch:normal;font-size:medium;line-height:normal;font-family:sans-serif;text-indent:0;text-align:start;text-decoration:none;text-decoration-line:none;text-decoration-style:solid;text-decoration-color:#000000;letter-spacing:normal;word-spacing:normal;text-transform:none;direction:ltr;writing-mode:lr-tb;baseline-shift:baseline;text-anchor:start;white-space:normal;clip-rule:nonzero;display:inline;overflow:visible;visibility:visible;opacity:1;isolation:auto;mix-blend-mode:normal;color-interpolation:sRGB;color-interpolation-filters:linearRGB;solid-color:#000000;solid-opacity:1;fill:#3b3c3d;fill-opacity:1;fill-rule:evenodd;stroke:none;stroke-width:1px;stroke-linecap:round;stroke-linejoin:round;stroke-miterlimit:4;stroke-dasharray:none;stroke-dashoffset:0;stroke-opacity:1;color-rendering:auto;image-rendering:auto;shape-rendering:auto;text-rendering:auto;enable-background:accumulate"/><path d="m 17.32945,1037.8757 -0.7676,0.6582 9.7832,8.3672 a 0.50005,0.50005 0 1 0 0.6484,-0.7598 z" id="path10046" style="color:#000000;font-style:normal;font-variant:normal;font-weight:normal;font-stretch:normal;font-size:medium;line-height:normal;font-family:sans-serif;text-indent:0;text-align:start;text-decoration:none;text-decoration-line:none;text-decoration-style:solid;text-decoration-color:#000000;letter-spacing:normal;word-spacing:normal;text-transform:none;direction:ltr;writing-mode:lr-tb;baseline-shift:baseline;text-anchor:start;white-space:normal;clip-rule:nonzero;display:inline;overflow:visible;visibility:visible;opacity:1;isolation:auto;mix-blend-mode:normal;color-interpolation:sRGB;color-interpolation-filters:linearRGB;solid-color:#000000;solid-opacity:1;fill:#3b3c3d;fill-opacity:1;fill-rule:evenodd;stroke:none;stroke-width:1px;stroke-linecap:round;stroke-linejoin:round;stroke-miterlimit:4;stroke-dasharray:none;stroke-dashoffset:0;stroke-opacity:1;color-rendering:auto;image-rendering:auto;shape-rendering:auto;text-rendering:auto;enable-background:accumulate"/><path d="m 0.50914965,1020.8308 a 0.50005,0.50005 0 1 0 0,1 l 1.00000005,0 0,2.5976 c -0.4789,0.3695 -0.88260005,0.7737 -1.14650005,1.1875 -0.3053,0.4786 -0.5083,1.0205 -0.2325,1.5352 0.01,0.017 0.02,0.034 0.031,0.051 l 3.13670005,4.4863 c 0.033,0.048 0.074,0.091 0.1211,0.125 0.3777,0.4174 0.9529,0.576 1.5313,0.5352 0.6381,-0.045 1.3212,-0.2998 1.9531,-0.7422 0.6319,-0.4425 1.1702,-0.9708 1.3652,-1.5801 0.271,-0.8465 0.2304,-1.3699 -0.1992,-1.9824 l -1.8105,-2.5821 0,-3.6308 1,0 a 0.50005,0.50005 0 1 0 0,-1 z m 2.00000005,1 2.75,0 0,2.205 -0.2032,-0.289 c -0.016,-0.022 -0.034,-0.042 -0.053,-0.061 -0.2289,-0.2344 -0.5109,-0.3311 -0.8125,-0.3477 -0.1006,-0.01 -0.2028,0 -0.3066,0.01 -0.1382,0.014 -0.279,0.039 -0.418,0.072 -0.3083,0.073 -0.6311,0.2037 -0.957,0.3672 z m 4.121,6.7539 c 0.4144,-0.029 0.6554,0.082 0.7637,0.2363 0.1084,0.1548 0.1302,0.4195 -0.039,0.7988 -0.1692,0.3795 -0.5263,0.8185 -1.0254,1.168 -0.4991,0.3495 -1.033,0.5332 -1.4473,0.5625 -0.4144,0.029 -0.6553,-0.08 -0.7637,-0.2344 -0.1073,-0.1551 -0.1274,-0.4211 0.041,-0.7988 0.1692,-0.3794 0.5263,-0.8166 1.0254,-1.166 0.4991,-0.3495 1.0329,-0.5353 1.4473,-0.5645 z" id="path10028" style="color:#000000;font-style:normal;font-variant:normal;font-weight:normal;font-stretch:normal;font-size:medium;line-height:normal;font-family:sans-serif;text-indent:0;text-align:start;text-decoration:none;text-decoration-line:none;text-decoration-style:solid;text-decoration-color:#000000;letter-spacing:normal;word-spacing:normal;text-transform:none;direction:ltr;writing-mode:lr-tb;baseline-shift:baseline;text-anchor:start;white-space:normal;clip-rule:nonzero;display:inline;overflow:visible;visibility:visible;opacity:1;isolation:auto;mix-blend-mode:normal;color-interpolation:sRGB;color-interpolation-filters:linearRGB;solid-color:#000000;solid-opacity:1;fill:#3b3c3d;fill-opacity:1;fill-rule:evenodd;stroke:none;stroke-width:1px;stroke-linecap:round;stroke-linejoin:round;stroke-miterlimit:4;stroke-dasharray:none;stroke-dashoffset:0;stroke-opacity:1;color-rendering:auto;image-rendering:auto;shape-rendering:auto;text-rendering:auto;enable-background:accumulate"/><path d="m 5.4231497,1031.3269 a 0.50005,0.50005 0 0 0 -0.459,0.6953 l 3.8633,9.5097 0.8008,-0.6855 -3.7383,-9.2012 a 0.50005,0.50005 0 0 0 -0.4668,-0.3183 z m 5.2949003,12.2031 -0.8007003,0.6855 2.2265003,5.4766 a 0.50005,0.50005 0 1 0 0.9258,-0.377 z" id="path10044" style="color:#000000;font-style:normal;font-variant:normal;font-weight:normal;font-stretch:normal;font-size:medium;line-height:normal;font-family:sans-serif;text-indent:0;text-align:start;text-decoration:none;text-decoration-line:none;text-decoration-style:solid;text-decoration-color:#000000;letter-spacing:normal;word-spacing:normal;text-transform:none;direction:ltr;writing-mode:lr-tb;baseline-shift:baseline;text-anchor:start;white-space:normal;clip-rule:nonzero;display:inline;overflow:visible;visibility:visible;opacity:1;isolation:auto;mix-blend-mode:normal;color-interpolation:sRGB;color-interpolation-filters:linearRGB;solid-color:#000000;solid-opacity:1;fill:#3b3c3d;fill-opacity:1;fill-rule:evenodd;stroke:none;stroke-width:1px;stroke-linecap:round;stroke-linejoin:round;stroke-miterlimit:4;stroke-dasharray:none;stroke-dashoffset:0;stroke-opacity:1;color-rendering:auto;image-rendering:auto;shape-rendering:auto;text-rendering:auto;enable-background:accumulate"/><path d="m 6.2773497,1041.1122 a 1,1 0 0 1 -1,1 1,1 0 0 1 -1,-1 1,1 0 0 1 1,-1 1,1 0 0 1 1,1 z" id="path10080" style="opacity:1;fill:#3b3c3d;fill-opacity:1;stroke:none;stroke-width:1;stroke-linecap:round;stroke-linejoin:round;stroke-miterlimit:4;stroke-dasharray:none;stroke-opacity:1"/><path d="m 24.77735,1047.3622 a 1,1 0 0 1 -1,1 1,1 0 0 1 -1,-1 1,1 0 0 1 1,-1 1,1 0 0 1 1,1 z" id="path10082" style="opacity:1;fill:#3b3c3d;fill-opacity:1;stroke:none;stroke-width:1;stroke-linecap:round;stroke-linejoin:round;stroke-miterlimit:4;stroke-dasharray:none;stroke-opacity:1"/><path d="m 19.02745,1043.6123 -1.6667,-0.7144 -0.8334,-1.7857 -0.8334,1.7857 -1.6667,0.7144 1.6667,0.7143 0.8334,1.7858 0.8334,-1.7858 z" id="path10084" style="fill:#3b3c3d;fill-opacity:1;fill-rule:evenodd;stroke:none;stroke-width:1.00000262;stroke-linecap:round;stroke-linejoin:round;stroke-miterlimit:4;stroke-dasharray:none;stroke-opacity:1"/><path d="m 28.27735,1037.1122 a 1,1 0 0 1 -1,1 1,1 0 0 1 -1,-1 1,1 0 0 1 1,-1 1,1 0 0 1 1,1 z" id="path10086" style="opacity:1;fill:#3b3c3d;fill-opacity:1;stroke:none;stroke-width:1;stroke-linecap:round;stroke-linejoin:round;stroke-miterlimit:4;stroke-dasharray:none;stroke-opacity:1"/><circle cx="9.2772913" cy="1047.1122" id="circle10088" r="0.5" style="opacity:1;fill:#000000;fill-opacity:1;stroke:none;stroke-width:0.5;stroke-linecap:round;stroke-linejoin:round;stroke-miterlimit:4;stroke-dasharray:none;stroke-opacity:1"/><circle cx="18.27729" cy="1050.8622" id="circle10090" r="0.5" style="opacity:1;fill:#000000;fill-opacity:1;stroke:none;stroke-width:0.5;stroke-linecap:round;stroke-linejoin:round;stroke-miterlimit:4;stroke-dasharray:none;stroke-opacity:1"/><circle cx="3.5272913" cy="1047.6122" id="circle10092" r="0.5" style="opacity:1;fill:#000000;fill-opacity:1;stroke:none;stroke-width:0.5;stroke-linecap:round;stroke-linejoin:round;stroke-miterlimit:4;stroke-dasharray:none;stroke-opacity:1"/></g></svg>