<?xml version="1.0" encoding="utf-8"?>
<!-- Generator: Adobe Illustrator 25.4.1, SVG Export Plug-In . SVG Version: 6.00 Build 0)  -->
<svg version="1.1" id="Layer_1" xmlns="http://www.w3.org/2000/svg" xmlns:xlink="http://www.w3.org/1999/xlink" x="0px" y="0px"
	 viewBox="0 0 2477.4 869.3" style="enable-background:new 0 0 2477.4 869.3;" xml:space="preserve">
<style type="text/css">
	.st0{fill:#F8971D;}
	.st1{clip-path:url(#SVGID_00000149367362384130583030000016550328247613923747_);}
	.st2{fill:#C1565A;}
</style>
<g>
	<ellipse class="st0" cx="434.5" cy="434.6" rx="428" ry="428.1"/>
	<path d="M862.5,434.6h6.5c0-120-48.6-228.7-127.3-307.3C663.2,48.7,554.5,0,434.5,0l0,0c-120,0-228.6,48.7-307.3,127.3
		C48.6,205.9,0,314.6,0,434.6l0,0c0,120,48.6,228.7,127.3,307.3c78.6,78.6,187.3,127.3,307.3,127.3c120,0,228.6-48.7,307.3-127.3
		c78.6-78.6,127.3-187.3,127.3-307.3v0H862.5H856c0,116.5-47.2,221.8-123.5,298.1c-76.3,76.3-181.6,123.5-298.1,123.5l0,0
		c-116.4,0-221.8-47.2-298.1-123.5C60.2,656.5,13,551.1,13,434.6v0c0-116.5,47.2-221.8,123.5-298.1C212.8,60.2,318.1,13,434.5,13
		c116.4,0,221.8,47.2,298.1,123.5C808.9,212.8,856,318.2,856,434.6v0H862.5z"/>
	<g>
		<defs>
			<ellipse id="SVGID_1_" cx="434.5" cy="434.6" rx="428" ry="428.1"/>
		</defs>
		<clipPath id="SVGID_00000096760015325318175130000015719593725364309429_">
			<use xlink:href="#SVGID_1_"  style="overflow:visible;"/>
		</clipPath>
		<path style="clip-path:url(#SVGID_00000096760015325318175130000015719593725364309429_);" d="M161.6,870.6
			c-2.8-8.1-4.1-16.5-4.1-25.1c0-7.9-1.1-15.5-2.7-23.3c-1.6-7.8-1.4-16-1.8-24c-0.5-11.5-0.5-23-1-34.4
			c-0.5-10.4-0.4-20.8,1.8-31.5c-2.2,1-4.1,1.9-6.2,2.9c-0.1-0.4-0.2-0.7-0.1-0.9c8.4-16.4,13.7-34,19.8-51.3
			c1.4-3.9,4.3-7.9,3.8-11.6c-0.5-3.6-4.5-6.6-6.7-10c-6.4-9.9-13.1-19.7-16.5-31.1c-5.9-19.8-1.9-38.5,7.4-56.3
			c2.6-4.9,5.5-9.7,8.8-15.4c-14.9,8.3-30.1,11.9-46.6,8.4c0.8-0.4,1.4-0.8,2.2-1c18.6-5.2,30.9-18,40.9-33.7
			c6-9.5,10.8-19.6,14.7-30.1c0.3-0.9,0.6-1.8,1-3.2c-14.5,4.3-27.5,10.9-41.1,18.1c0.7-1.4,1-2.2,1.5-2.9
			c11.8-17.3,23.8-34.5,35.5-51.8c3.3-4.9,7.8-6.8,13.4-6c2.8,0.4,3.9-0.7,4.9-3.2c5.5-13.6,12.9-26.2,21.8-37.9
			c0.5-0.7,1-1.4,1.3-1.9c-14.6,0-29.3,0-44.7,0c3.5-4.1,6.4-7.7,9.4-11.1c9.5-10.9,18.7-22,28.5-32.6c5.8-6.2,13.2-10.5,21.9-10.9
			c4.7-0.2,9.4,0.9,14.1,0.8c4.7-0.1,9.4-0.7,14-1.4c1.5-0.2,3-1.4,4.3-2.4c18.2-13.3,38.5-20.9,61-20.1c17.2,0.6,34.5,2,50.8,8.8
			c6.4,2.7,13.3,4.1,19.9,6.3c2.4,0.8,4,0.2,5.8-1.4c18.8-16.4,38.5-31.6,59.8-44.6c26.5-16.2,54.4-29.4,83.6-39.9
			c10.1-3.7,20.7-5.4,31.5-5c9.3,0.3,15.6,4.5,18.9,13.3c0.6,1.6,1.2,3.1,1.8,4.8c0.7-0.5,1.3-0.9,2-1.4c0.3,0.2,0.6,0.4,0.9,0.7
			c4,4.2,4.3,9.7,5.1,15.1c0.3,2,1,4.2,2.1,5.9c7.3,11.5,14.3,23.2,18.8,36.2c4.9,14.2,3.3,27.7-4.8,40.3c-0.5,0.8-1.6,1.1-2.9,2.1
			c1.3,0.8,2.9,2.4,4.7,2.9c7.4,1.8,9.1,6.8,9.3,13.1c0.3,9.3-1.4,18.4-3.4,27.4c-3.5,15.3-13.4,24.1-28.5,26.5
			c-23.6,3.7-45.2,12.5-65.6,24.3c-22.1,12.8-43.7,26.5-62.9,43.6c-2.3,2-4.4,4.2-6.7,6.2c-2.2,2-2.7,4-1.7,7.1
			c2.9,9,3.3,18.1-0.6,27.1c-0.3,0.6-0.6,1.3-0.9,1.9c-0.2,0.3-0.4,0.6-0.8,1.2c-0.9-3.6-1.8-6.9-2.9-11c-4.1,5.7-8.6,10-9.9,16.3
			c-1.3,6.5-2.4,13.1-3.7,19.7c-0.4,2.3,0,3.7,2.5,4.8c11.9,5.4,24,9.9,38.2,9.9c-12.9,7.3-25.7,12-40.4,12.8
			c1.1,4.4,2.2,8.5,3.1,12.7c0.2,1.1-0.2,2.3-0.8,3.5c2.6,6.9,9.2,9.9,14.9,14c-8.1,0.6-15.4-1.5-23-5.9c1.7,2.9,3,5,4.1,7.2
			c4.5,9.2,5.8,18.9,4.2,29c-0.2,1.1,0.1,2.6,0.8,3.4c19.6,23.2,30.8,50.2,35.1,80.1c1.5,10.4,2.3,20.9,3.8,31.3
			c1.2,8.9,3.2,17.8,4.3,26.7c2,16.2,3.7,32.4,5.4,48.6c0.3,3,0,6.1,0,9.4C383.4,870.6,272.7,870.6,161.6,870.6z"/>
	</g>
	<path class="st2" d="M2298.5,620.2c0.6-5.6,1.3-11.2,2.1-16.9c2.3-18.9,6.1-37.4,11.4-55.7c5.3-18.3,10.5-36.6,15.6-54.9
		c1.7-6.3,5.6-9.4,11.6-9.4c2.9,0.3,4.3,1.6,4.3,4.1c0,2.4,0.1,4.5,0.4,6.2c1.7,14.6,1.1,28.6-1.7,42c-2.9,13.4-6.7,26.9-11.6,40.3
		c-3.7,10.6-7.7,21.2-12,31.7c-4.3,10.6-10.1,20.7-17.6,30.4C2298.8,631.7,2297.9,625.8,2298.5,620.2z M2264.4,581.6
		c-1.3,6.4-2.1,12.9-2.6,19.3s-0.1,12.8,0.9,19.1c1,6.3,3.2,12.6,6.6,18.9c4.3,8.3,9.8,15.1,16.5,20.6c6.7,5.4,14.8,8.1,24.2,8.1
		c6.9,0,13.2-3.2,19.1-9.6c5.9-6.4,11.2-14,16.1-22.7c4.9-8.7,9-17.6,12.4-26.8c3.4-9.1,6.1-16.4,8.1-21.9
		c6.6-18.9,11.6-37.9,15.2-57c3.6-19.1,2.9-38.9-1.9-59.2c-0.6-2.9-0.1-4.6,1.5-5.4c1.6-0.7,3.1-1.4,4.5-1.9
		c12-5.1,24.2-9.1,36.6-12c12.4-2.9,25.1-5,37.9-6.4c3.4-0.6,6.6-1.6,9.4-3c2.9-1.4,3.9-4.4,3-9c-0.9-4.9-3.9-9.4-9-13.5
		c-5.1-4.1-10.4-6.2-15.9-6.2h-2.1c-5.4,0.9-10.8,1.9-16.1,3c-5.3,1.1-10.6,2.4-16.1,3.9c-10.6,2.6-21.1,5.5-31.5,8.8
		c-10.4,3.3-21.4,6.5-32.8,9.6c2.9-6.6,5.6-12.7,8.1-18.4c2.6-5.7,5-11.4,7.3-17.1c6.6-15.1,13.4-30,20.4-44.6
		c7-14.6,12.5-30,16.5-46.3c2.6-10.6,1.4-19.2-3.4-25.9c-4.9-6.7-12.4-10.1-22.7-10.1c-2.9,0-4.9,0.3-6.2,0.9
		c-1.3,0.6-2.1,2.4-2.4,5.6c-0.6,4.6-0.5,8.9,0.2,13.1c0.7,4.1-0.1,8.6-2.4,13.5c-10,21.7-19.7,43.4-28.9,64.9
		c-9.3,21.6-18.4,43.4-27.2,65.4c-2.3,5.4-5.2,9.1-8.8,11.1c-3.6,2-7.1,3.1-10.5,3.4c-6.9,0.6-10.1,2.2-9.9,4.9
		c0.3,2.7,0.7,6.1,1.3,10.1c0.3,2,1,3.9,2.1,5.8c1.1,1.9,2.2,3.7,3.2,5.6c1,1.9,1.9,3.8,2.6,5.8c0.7,2,0.6,4.3-0.2,6.9
		c-3.4,11.7-7,23.3-10.7,34.7c-3.7,11.4-6.7,23.1-9,35.1C2266.9,568.9,2265.7,575.2,2264.4,581.6z M2170.7,568.6
		c2.9,9.7,9.4,17.9,19.7,24.4c8.3,5.1,16.7,7.7,25.3,7.7c10,0,19.1-3.1,27.4-9.4c15.7-10.9,29.4-23.4,41.1-37.5
		c11.7-14.1,20-31.1,24.9-50.8c1.1-4.6,1.9-9.1,2.4-13.5c0.4-4.4-0.2-8.9-1.9-13.5c-1.4-3.7-3.1-5.6-5.1-5.6c-1.7,0-3.4,1.3-5.1,3.9
		c-2.9,4-5.6,7.9-8.1,11.6c-2.6,3.7-5.1,7.6-7.7,11.6c-8.6,13.1-17,26.1-25.3,39c-8.3,12.9-18.9,24.2-31.7,33.9
		c-2.9,2.3-5.8,4.4-8.8,6.4c-3,2-6.2,3-9.6,3c-2,0-3.9-0.4-5.6-1.3c-2.3-0.9-3.8-2.1-4.5-3.9c-0.7-1.7-1.1-3.6-1.1-5.6
		c0-2,0.1-4.1,0.2-6.2c0.1-2.1-0.1-4.1-0.6-5.8c-0.6-1.4-0.6-2.7,0-3.9c1.7-5.4,2.9-11,3.4-16.7c0.6-5.7,1.5-11.4,2.8-16.9
		s3.4-10.9,6.4-15.9c3-5,7.6-9.4,13.9-13.1c8.3-4.9,14.9-11.9,19.9-21.2c5-9.3,10.2-18.1,15.6-26.4c13.7-20.3,24.9-41.5,33.6-63.7
		c8.7-22.1,17.6-44.4,26.8-66.7c2.6-6.6,4.4-11.9,5.4-15.9c1-4,0.9-7.3-0.2-9.9c-1.1-2.6-3.6-4.8-7.3-6.6c-3.7-1.9-8.9-3.8-15.4-5.8
		c-2.3-0.6-4.6-1.3-6.9-2.1c-2.3-0.9-4.6-1.6-6.9-2.1c-1.4-0.6-2.7-1-3.9-1.3c-1.1-0.3-2.3-0.4-3.4-0.4c-1.7,0-3.4,0.5-4.9,1.5
		c-1.6,1-3.2,3.1-4.9,6.2c-18,30.6-33.7,61.9-47.2,93.9c-13.4,32-25.7,64.7-36.9,98.2c-0.9,2.6-1.9,4.9-3,7.1
		c-1.1,2.1-3.3,3.2-6.4,3.2h-1.7c0.3,2.9,1.2,5.2,2.8,7.1c1.6,1.9,2.1,4.4,1.5,7.5c-1.4,7.4-3.1,14.8-4.9,22.1
		c-1.9,7.3-3.5,14.6-4.9,22.1C2167.6,548.4,2167.9,558.9,2170.7,568.6z M2124.9,453.5c-0.9-3-1.1-6.1-0.9-9.2
		c0.6-7.7,1.4-15.4,2.4-23.1c1-7.7,4.1-14.9,9.2-21.4c0.9-1.1,1.8-2.3,2.8-3.4c1-1.1,2.4-1.6,4.1-1.3c1.7,0.3,2.8,1.1,3.2,2.4
		c0.4,1.3,0.9,2.6,1.5,4.1c1.4,3.7,2.6,7.1,3.6,10.3c1,3.1,1.2,5.7,0.6,7.7c-0.6,5.7-1,10.5-1.3,14.4c-0.3,3.9-0.4,7.5-0.4,10.9
		c-0.3,5.7-1.9,9.4-4.9,11.1c-3,1.7-6.8,2.6-11.4,2.6C2128.6,458.1,2125.7,456.5,2124.9,453.5z M2087.6,573.1
		c-0.3-3-0.4-5.8-0.4-8.4c0.3-16.9,2.8-32.9,7.5-48.2c4.7-15.3,9.9-30.6,15.6-46.1c4.9,2.3,9.4,4.5,13.5,6.6
		c4.1,2.1,8.2,4.4,12.2,6.6c2,1.1,3.1,2.4,3.2,3.6c0.1,1.3-0.1,2.8-0.6,4.5c-0.9,3.4-2.9,9.9-6,19.3c-3.1,9.4-6.8,19.2-10.9,29.4
		c-4.1,10.1-8.6,19.1-13.3,27c-4.7,7.9-9.1,11.8-13.1,11.8c-0.9,0-1.6-0.1-2.1-0.4C2089.7,578,2087.9,576.1,2087.6,573.1z
		 M2058,559.4c1.7,10.1,6.6,19.8,14.6,28.9c4.9,5.4,10.2,9.4,16.1,12c5.9,2.6,11.8,3.9,17.8,3.9c8.6,0,15.9-2.2,21.9-6.6
		c6-4.4,11.1-9.9,15.4-16.5c4.3-6.6,7.8-13.7,10.5-21.4c2.7-7.7,5.1-15,7.1-21.9c2.6-8.6,5.4-17.1,8.6-25.5c3.1-8.4,6.1-16.9,9-25.3
		c2.9-8.4,5.2-17,7.1-25.7c1.9-8.7,2.8-17.8,2.8-27.2c0-8.9-1.8-17.1-5.4-24.6c-3.6-7.6-8.4-14.2-14.4-19.9
		c-6-5.7-12.9-10.2-20.8-13.5c-7.9-3.3-16.1-4.9-24.6-4.9c-8,0-15.7,1.4-23.1,4.3c2.3,0.3,4,0.5,5.1,0.6c1.1,0.1,2.3,0.4,3.4,0.6
		c-4,6.9-7.1,13.9-9.4,21.2c-2.3,7.3-4.7,14.5-7.3,21.6c-6.6,18-12.7,35.9-18.4,53.6c-5.7,17.7-10.6,35.9-14.6,54.4
		C2056.7,538.6,2056.3,549.2,2058,559.4z M1816.7,546.1c-0.9,9-0.4,18.1,1.3,27.2c0.6,3.4,2,7,4.3,10.7c2.3,3.7,4.9,7.2,7.9,10.5
		c3,3.3,6.3,5.9,9.9,7.9c3.6,2,6.9,3,10.1,3c7.1,0,12.7-1.8,16.7-5.4c4-3.6,7.9-8.1,11.6-13.5c0.9-1.4,1.6-2.7,2.4-3.9
		c0.7-1.1,1.5-2.3,2.4-3.4c8-13.7,15-27.7,21-42c6-14.3,12.3-28.7,18.9-43.3c4.3-9.1,8.4-18.4,12.4-27.6c4-9.3,8.3-18.9,12.9-28.9
		c0.6,1.4,0.9,2.4,0.9,2.8s0,0.8,0,1.1c-1.4,11.7-3.1,23.6-4.9,35.8c-1.9,12.1-3.1,24.2-3.6,36.2c-0.6,12-0.1,23.7,1.5,35.1
		c1.6,11.4,5.1,22.6,10.5,33.4c0.3,0.6,0.5,1.1,0.6,1.7c0.1,0.6,0.5,1,1.1,1.3c5.4,2.6,10.6,5.6,15.4,9.2c4.9,3.6,10.3,5.8,16.3,6.6
		c1.4,0.3,2.9,0.6,4.5,0.9c1.6,0.3,3.1,0.4,4.5,0.4c6.3,0,11.3-2.4,15-7.3c4.6-5.7,8.3-11.9,11.1-18.4c2.9-6.6,5.7-13.1,8.6-19.7
		c10.3-24.3,19.1-49.1,26.4-74.4c7.3-25.3,14.4-50.6,21.2-76.1c4.3-15.7,9.1-31.1,14.4-46.3c5.3-15.1,9.1-30.9,11.4-47.2
		c1.1-7.4,0.4-13.1-2.1-16.9c-2.6-3.9-7.1-6.9-13.7-9.2c-3.1-1.1-6.2-1.9-9.2-2.1c-3-0.3-6.1-0.4-9.2-0.4h-12.9h-3.4h-2.6
		c-1.4,0-2.6,0.2-3.6,0.6c-1,0.4-1.5,1.6-1.5,3.6c-0.3,2.9,0.5,4.4,2.4,4.5c1.9,0.1,3.5,0.4,4.9,0.6c4.9,0.6,8.1,1.9,9.6,3.9
		c1.6,2,2.1,5.4,1.5,10.3c-2.9,20.6-7.4,40.5-13.5,59.8c-6.1,19.3-11.8,38.8-16.9,58.5c-4.3,16.3-8.7,32.4-13.3,48.4
		c-4.6,16-10.3,31.7-17.1,47.2c-3.1,6.6-6,13.4-8.6,20.6c-2.6,7.1-5.4,15-8.6,23.6c-0.6-3.4-1.1-6.1-1.5-8.1c-0.4-2-0.8-3.7-1.1-5.1
		c-2.3-15.1-3-30.1-2.1-44.8c0.9-14.7,2.3-29.5,4.3-44.4c2.3-18,5.3-35.6,9-52.7c3.7-17.1,7.1-34.6,10.3-52.3
		c2.9-16.3,2.4-27.7-1.5-34.3c-3.9-6.6-12.8-10.6-26.8-12h-3.9c-2.6,0-4,0.9-4.3,2.6c-2,8.3-4.7,16.1-8.1,23.4
		c-3.4,7.3-7.1,14.5-11.1,21.6c-14.6,25.4-28.1,51.4-40.5,77.8c-12.4,26.4-24.1,53.4-34.9,80.8c-2.3,5.4-4.9,10.9-7.7,16.3
		c-2.9,5.4-5.9,11.6-9,18.4c0-3.1-0.1-5.4-0.2-6.6c-0.1-1.3-0.1-2.5,0.2-3.6c4.6-22.9,8.6-45.7,12.2-68.4
		c3.6-22.7,8.2-45.4,13.9-67.9c2.9-11.4,6.2-22.7,10.1-33.9c3.9-11.1,6.6-22.7,8.4-34.7c1.4-10,0-17.9-4.3-23.6
		c-4.3-5.7-10.7-8.6-19.3-8.6c-3.4,0-7.3,0.4-11.6,1.3c-2.3,0.6-4.1,1.7-5.6,3.4c-1.4,1.7-1.1,3.3,0.9,4.7c4.6,3.1,6.4,6.4,5.6,9.6
		c-0.9,3.3-1.9,6.5-3,9.6c-10,30.3-18.9,60.7-26.8,91.3c-7.9,30.6-13.5,61.9-16.9,93.9C1818.5,528.1,1817.5,537.1,1816.7,546.1z
		 M1573.2,483.5c0.3-1.3,0.7-2.6,1.3-4.1c8.6-25.7,16.9-51.4,25.1-76.9c8.1-25.6,16.9-50.9,26.4-76.1c1.1-2.9,3.4-4.6,6.9-5.1
		c4.3-0.9,8.4-1.3,12.4-1.3c7.7,0,15.9,1.6,24.4,4.7c13.4,5.4,18.9,16.6,16.3,33.4c-1.7,10.9-5.6,20.5-11.8,28.9
		c-6.1,8.4-12.5,16.6-19.1,24.6c-11.1,14-23.5,26.6-37.1,37.9c-13.6,11.3-26.6,23.2-39.2,35.8c-0.6,0.6-1.2,1.1-1.9,1.5
		c-0.7,0.4-1.5,0.9-2.4,1.5C1573.4,486.4,1572.9,484.8,1573.2,483.5z M1507.9,544.8c0.4,1.3,1.2,2.4,2.4,3.2
		c4.3,3.4,6.1,6.8,5.4,10.1c-0.7,3.3-2.4,6.5-4.9,9.6c-0.9,1.1-1.6,2.2-2.4,3.2c-0.7,1-0.6,2.2,0.2,3.6c3.7,5.1,8.2,10.8,13.5,16.9
		c5.3,6.1,11.5,9.2,18.6,9.2c4.9,0,7.4-2.7,7.7-8.1c0.3-2.9,0.7-5.6,1.3-8.4c0.6-2.7,1.1-5.5,1.7-8.4c0.6-3.7,2.3-5.6,5.1-5.6h1.3
		c9.1,1.7,18.1,3.4,27,4.9c8.9,1.6,17.9,3.2,27,4.9c14.3,2.9,28.5,5.9,42.7,9.2c14.1,3.3,27.4,9.1,39.6,17.4
		c1.4,0.9,2.7,1.3,3.9,1.3c2.3,0,4.1-1.6,5.6-4.7c0.9-2.6,0.9-5.7,0.2-9.4c-0.7-3.7-1.9-7.4-3.6-11.1c-1.7-3.7-3.7-7.1-6-10.1
		c-2.3-3-4.7-4.9-7.3-5.8c-13.4-4.9-26.8-9.2-40.1-13.1c-13.3-3.9-26.8-7.2-40.5-10.1c-4-0.9-8-1.9-12-3c-4-1.1-8.1-2.3-12.4-3.4
		c2-3.4,4.4-5.8,7.1-7.1c2.7-1.3,5.2-2.9,7.5-4.9c9.7-7.7,20.5-16.8,32.4-27.2c11.9-10.4,23.4-21.5,34.5-33.2
		c11.1-11.7,21.4-23.7,30.6-36c9.3-12.3,16.1-24.1,20.4-35.6c9.4-24.9,5.3-47.3-12.4-67.3c-8.9-9.7-18.8-16.6-29.8-20.6
		c-11-4-22.5-7.1-34.5-9.4c-2.3-0.6-4.5-0.9-6.6-0.9c-2.1,0-3.9-1.1-5.4-3.4c-4-5.4-8.6-9.8-13.7-13.1c-5.1-3.3-11-4.9-17.6-4.9
		c-1.4,0-2.3,0.6-2.6,1.7c-0.6,1.7-0.1,3.6,1.3,5.6c3.1,4,4.3,8,3.4,12c-0.9,4-3.4,7-7.7,9c-8.3,3.7-15.8,8.3-22.5,13.7
		c-6.7,5.4-13.4,11.1-19.9,17.1c-4.9,4.3-8.4,9.3-10.7,15c-2.3,5.7-5,11.1-8.1,16.3c-1.1,2-1.5,3.7-1.1,5.1c0.4,1.4,1.4,2.6,3,3.4
		c1.6,0.9,3.3,1.6,5.1,2.1c1.9,0.6,3.4,1.3,4.5,2.1c4.3,2.6,8,3.9,11.1,3.9c4.9,0,9.3-3.7,13.3-11.1c1.4-2.9,2.7-5.8,3.9-8.8
		c1.1-3,3.6-5.5,7.3-7.5c-0.6,2.6-1.2,4.9-1.9,6.9c-0.7,2-1.4,4.1-1.9,6.4c-7.4,24.3-15.1,48.2-22.9,71.6
		c-7.9,23.4-14.9,47.3-21.2,71.6c-1.4,5.7-2.9,11.6-4.5,17.8c-1.6,6.1-5.6,10.9-12.2,14.4C1508.1,542.6,1507.4,543.5,1507.9,544.8z
		 M1441.6,426.3c12-21.4,26-42.4,42-63c-0.3,8-1.4,15.4-3.2,22.1c-1.9,6.7-3.4,13.4-4.5,19.9c-2,11.4-3.7,22.9-5.1,34.3
		c-1.4,11.4-4,22.6-7.7,33.4c-0.3,0.6-0.5,1.3-0.6,2.1c-0.1,0.9-0.6,1.3-1.5,1.3c-9.1,0.6-17.6,2.8-25.5,6.6
		c-7.9,3.9-16.1,6.9-24.6,9.2c-0.3,0-0.7,0-1.3,0c-0.6,0-1.6,0.1-3,0.4C1417.9,469.8,1429.6,447.7,1441.6,426.3z M1324.2,572.2
		c0.6,1,1.1,1.9,1.7,2.8c3.1,4,7.5,7.9,13.1,11.6c5.6,3.7,11.1,5.6,16.5,5.6c6.3,0,10.7-3.3,13.3-9.9c2.9-6.3,5.6-12.6,8.1-18.9
		c2.6-6.3,5.1-12.7,7.7-19.3c0.6-1.1,1-2.3,1.3-3.4c0.3-1.1,1.1-2,2.6-2.6c10-4.9,19.9-9.8,29.8-14.8c9.9-5,20.2-8.9,31.1-11.8
		c2.3-0.6,3.7-0.9,4.3-0.9c1.7,0,2.4,2,2.1,6c-1.7,12.3-3.3,24.4-4.7,36.4c-1.4,12-2.4,24.2-3,36.4c-0.3,6.3,1.9,11.7,6.4,16.3
		c4.6,4.6,10.1,6.7,16.7,6.4c2.3,0,4.3-0.6,6-1.7c1.7-1.1,2.7-3,3-5.6c1.7-10.6,3-20.7,3.9-30.4c2.3-26.9,5.7-53.4,10.3-79.7
		c4.6-26.3,9.7-52.6,15.4-78.9c2.9-13.7,5.9-27.1,9.2-40.3c3.3-13.1,6.5-26.6,9.6-40.3c0.9-9.7-1.7-17.6-7.7-23.6
		c-0.9-0.9-1.8-1.6-2.8-2.4c-1-0.7-1.8-1.6-2.4-2.8c-2.3-5.7-5.4-9.6-9.4-11.8c-4-2.1-8.3-3.2-12.9-3.2c-4.6,0-9.7,0.7-15.4,2.1
		c-0.9,0.3-1.7,0.7-2.6,1.3c-0.9,0.6-1,1.6-0.4,3c0.6,2.3,0.4,4.2-0.4,5.8c-0.9,1.6-1.7,3.4-2.6,5.4c-6,13.7-13.2,26.6-21.6,38.6
		c-8.4,12-16.5,24.3-24.2,36.9c-9.1,15.1-18.2,30.2-27.2,45c-9,14.9-17.2,30.2-24.6,45.9c-2.9,6-5.9,11.9-9.2,17.8
		c-3.3,5.9-5.9,11.8-7.9,17.8c-3.1,9.1-6.4,18.2-9.6,27.2c-3.3,9-6.8,18.1-10.5,27.2c-0.9,2.3-2.1,3.4-3.9,3.4c-0.9,0-1.9-0.3-3-0.9
		c-0.6-0.3-1.4-0.4-2.6-0.4c-1.1,0-2.1,0.4-3,1.3C1323.8,570.1,1323.6,571.2,1324.2,572.2z M1166.7,531.7c1,12.9,6.4,25.6,16.1,38.1
		c5.7,7.1,12.1,12.7,19.1,16.7c7,4,14.6,6,22.9,6c11.4,0,21.9-2.9,31.5-8.8c9.6-5.9,18.8-12.1,27.6-18.6
		c10.9-8.3,20.4-17.4,28.5-27.4c8.1-10,13.8-21.7,16.9-35.1c3.7-14.6,3.6-27.1-0.4-37.7c-4-10.6-12.3-17.9-24.9-21.9
		c-1.7-0.6-3.1-0.9-4.3-0.9c-1.4,0-2.6,0.4-3.4,1.3c-1.1,1.1-1.2,2.1-0.2,3c1,0.9,1.6,1.9,1.9,3c0.3,1.4,0.6,2.9,1.1,4.5
		c0.4,1.6,0.6,3.1,0.6,4.5c0.3,10.9-1.4,21.8-5.1,32.8c-3.7,11-8.8,21.4-15.2,31.1c-6.4,9.7-14.1,18.4-22.9,25.9
		c-8.9,7.6-18.4,13.2-28.7,16.9c-2.3,0.9-4.8,1.8-7.5,2.8c-2.7,1-5.4,1.5-7.9,1.5c-3.4,0-6.3-1-8.6-3c-4-3.7-6.9-8-8.6-12.9
		c-1.7-4.9-2-10-0.9-15.4c2.3-12.3,6.1-23.9,11.6-34.7c5.4-10.9,11.3-21.7,17.6-32.6c8.9-15.4,19.1-29.4,30.9-41.8
		c11.7-12.4,22.6-25.9,32.6-40.5c2-2.9,4.2-5.7,6.6-8.6c2.4-2.9,6.1-4.3,10.9-4.3h2.1c1.4,0,2.3-0.9,2.6-2.8
		c0.3-1.9-0.3-3.4-1.7-4.5c-2-1.7-3.2-3.6-3.6-5.8c-0.4-2.1-0.8-4.4-1.1-6.6c-0.6-6-3.3-9-8.1-9c-2,0-3.7,0.6-5.1,1.7
		c-3.4,2.3-6,3.6-7.7,4.1s-4.6,0.6-8.6,0.6c-0.3,1.7-2,4-5.1,6.9c-3.1,2.9-6.9,5.7-11.1,8.6c-4.3,2.9-8.7,5.4-13.3,7.5
		c-4.6,2.1-8.6,3.5-12,4.1c2.6-3.4,4.9-6.1,6.9-8.1c9.7-9.7,19.2-19.4,28.5-28.9c9.3-9.6,18.6-19.1,28.1-28.5c1.4-1.4,2.6-3,3.4-4.7
		c0.9-1.7,2.4-2.9,4.7-3.4c4.9-0.9,6.9-2.3,6-4.3c-0.9-2-2.3-3.9-4.3-5.6c-4.3-3.7-8.6-6.2-13.1-7.5c-4.4-1.3-9.4-1.9-14.8-1.9
		c0.6,1.1,1.1,2.1,1.5,3s-0.1,2-1.5,3.4l-38.6,33.4c-11.4,10-22.4,20.2-33,30.6c-10.6,10.4-20.7,21.5-30.4,33.2
		c-3.4,4.9-3.9,9.9-1.3,15c2.6,6.6,6,11.9,10.3,16.1c4.3,4.1,10,6.2,17.1,6.2c3.1,0,6.6-0.4,10.3-1.3c-1.4,2.3-2.4,4-3,5.1
		c-0.6,1.1-1.1,2.1-1.7,3c-6.6,8.9-12.3,18-17.1,27.4c-4.9,9.4-9.7,19-14.6,28.7C1168.4,505.4,1165.7,518.8,1166.7,531.7z M983,515
		c2,4,4.2,7.9,6.6,11.6c2.4,3.7,5.2,6.9,8.4,9.4c3.7,2.9,4.9,6.9,3.4,12c-2.3,8-3.8,16.1-4.5,24.2c-0.7,8.1-1.5,16.4-2.4,24.6
		c-1.1,12,4,18,15.4,18c5.4,0,9.9-1,13.3-3c3.4-2,5.4-6,6-12c0.9-10,2.5-19.8,4.9-29.4c2.4-9.6,4.5-19.4,6.2-29.4
		c1.4-8.3,4.4-14.7,9-19.3c4.6-4.6,10.4-8.4,17.6-11.6c15.1-6.6,30.4-12.7,45.7-18.4c15.3-5.7,30.9-11,46.9-15.9
		c3.4-1.1,6.5-2.8,9.2-4.9c2.7-2.1,3.9-5.2,3.6-9.2c-0.3-4-1.4-8.4-3.2-13.1c-1.9-4.7-4.9-7.1-9.2-7.1c-2.3,0-3.9,0.3-4.7,0.9
		c-8.3,3.1-16.5,6.2-24.6,9.2s-16.4,6.1-24.6,9.2c-7.4,2.9-15,5.6-22.7,8.1c-7.7,2.6-15.7,5.4-24,8.6c1.4-4.3,2.5-8.1,3.2-11.6
		c0.7-3.4,1.6-6.9,2.8-10.3c5.1-16.3,10.3-32.3,15.4-48c5.1-15.7,10.4-31.7,15.9-48c1.4-4,3.7-6.9,6.9-8.6c6.9-3.4,13.7-6.4,20.6-9
		c10.9-3.4,21.6-6.9,32.4-10.3s21.6-6.7,32.8-9.9c2.3-0.6,4.6-1.3,6.9-2.1c2.3-0.9,3.6-2.9,3.9-6c0.3-2.9-0.4-5.4-1.9-7.5
		c-1.6-2.1-3.5-4.2-5.8-6.2c-6.3-5.4-12.9-8.1-19.7-8.1c-4.6,0-12.3,1.6-23.1,4.7c-10.9,3.1-22.2,6.9-34.1,11.1
		c-11.9,4.3-23.1,8.6-33.6,12.9c-10.6,4.3-17.9,7.4-21.9,9.4c-1.7,0.9-3.1,1.3-4.3,1.3c-1.7,0-3.4-1-5.1-3c-1.1-1.7-2.3-2.6-3.4-2.6
		c-0.9,0-1.4,0.1-1.7,0.4c-1.4,0.9-1.9,2.6-1.3,5.1c0,10.9,3.1,19.9,9.4,27c2.9,3.1,3.6,6.7,2.1,10.7c-1.1,3.1-2.2,6.1-3.2,8.8
		c-1,2.7-1.9,5.6-2.8,8.8c-4.9,17.7-10.1,35.1-15.9,52.3c-5.7,17.1-11.1,34.4-16.3,51.9c-1.4,4.6-4.9,8.8-10.3,12.6
		c-5.4,3.9-10.6,5.8-15.4,5.8c-1.7,0-3-0.1-3.9-0.4c-0.6-0.3-1.4-0.4-2.6-0.4c-1.1,0-1.9,0.3-2.1,0.9
		C981.8,510.6,981.8,512.4,983,515z"/>
	<path d="M2298.5,620.2l5,0.5c0.6-5.5,1.3-11.1,2.1-16.7l0-0.1l0-0.1c2.3-18.6,6-36.9,11.2-54.9c5.3-18.3,10.5-36.6,15.7-54.9l0-0.1
		l0,0.1c0.7-2.5,1.6-3.8,2.5-4.5c0.9-0.7,2.1-1.2,4.2-1.2v-5l-0.5,5c0.4,0,0.6,0.1,0.6,0.1l0.3-0.7l-0.5,0.6
		c0.1,0.1,0.2,0.1,0.2,0.1l0.3-0.7l-0.5,0.6l1-1.4l-1.6,0.7c0.1,0.2,0.3,0.5,0.5,0.7l1-1.4l-1.6,0.7l1.1-0.5l-1.2,0.2
		c0,0,0,0.1,0.1,0.3l1.1-0.5l-1.2,0.2l0.3-0.1l-0.3,0l0,0l0.3-0.1l-0.3,0l0,0.1c0,2.6,0.1,4.9,0.5,7l4.9-0.8l-5,0.6
		c0.6,5.3,0.9,10.5,0.9,15.6c0,8.5-0.9,16.8-2.6,24.8c-2.8,13.2-6.6,26.4-11.4,39.6l0,0c-3.7,10.5-7.7,21-11.9,31.5
		c-4.1,10.1-9.7,19.9-16.9,29.3l4,3l4.7-1.7c-1.7-4.6-2.4-8.8-2.4-12.7c0-1,0-1.9,0.1-2.9L2298.5,620.2l-5-0.5
		c-0.1,1.3-0.2,2.6-0.2,3.9c0,5.2,1.1,10.6,3,16.1l3.1,8.6l5.5-7.3c7.7-10,13.8-20.6,18.2-31.6c4.3-10.6,8.3-21.3,12.1-31.9l0,0
		c4.9-13.6,8.9-27.3,11.8-41c1.9-8.8,2.8-17.7,2.8-26.9c0-5.5-0.3-11.1-1-16.7l0-0.1l0-0.1c-0.2-1.3-0.4-3.1-0.4-5.4
		c0-2.2-0.8-4.7-2.6-6.5c-1.8-1.7-4.1-2.4-6.2-2.6l-0.2,0h-0.3c-3.8,0-7.6,1.1-10.6,3.5c-2.9,2.4-4.8,5.8-5.8,9.6l0,0.1l0-0.1
		c-5.1,18.3-10.4,36.6-15.6,54.8c-5.4,18.5-9.2,37.4-11.5,56.5l5,0.6l-4.9-0.7c-0.9,5.8-1.6,11.5-2.2,17.2L2298.5,620.2z
		 M2264.4,581.6l-4.9-1c-1.3,6.6-2.2,13.3-2.7,19.9c-0.1,2-0.2,4.1-0.2,6.1c0,4.7,0.4,9.4,1.1,14.1c1.1,6.9,3.5,13.7,7.2,20.5
		l4.4-2.4l-4.4,2.3c4.6,8.8,10.5,16.3,17.8,22.2c7.6,6.2,17,9.3,27.4,9.3c8.5,0,16.3-4.1,22.8-11.3c6.1-6.8,11.7-14.6,16.7-23.6
		c5-8.9,9.2-18.1,12.7-27.5c3.4-9.1,6.1-16.4,8.2-21.9l0-0.1l0,0c6.7-19.1,11.8-38.3,15.4-57.7c1.6-8.4,2.4-16.9,2.4-25.5
		c0-11.7-1.4-23.6-4.3-35.7l-4.9,1.2l4.9-1c-0.1-0.5-0.1-0.9-0.1-1.1c0-0.1,0-0.1,0-0.1l-1.7-0.4l1.4,1c0.2-0.3,0.3-0.6,0.3-0.7
		l-1.7-0.4l1.4,1l-1.8-1.4l0.9,2.1c0.3-0.1,0.6-0.4,0.9-0.7l-1.8-1.4l0.9,2.1c1.5-0.7,2.9-1.3,4.3-1.8l0,0l0.1,0
		c11.7-5,23.7-8.9,35.8-11.7c12.2-2.8,24.7-4.9,37.4-6.3l0.1,0l0.1,0c3.9-0.6,7.5-1.8,10.9-3.5c1.9-0.9,3.6-2.5,4.6-4.4
		c1-1.9,1.4-4,1.4-6.1c0-1.3-0.1-2.5-0.4-3.8l0,0c-1.1-6.4-5-11.9-10.8-16.5c-5.8-4.7-12.3-7.3-19-7.3h-2.5l-0.4,0.1
		c-5.5,0.9-11,1.9-16.3,3.1c-5.4,1.2-10.8,2.5-16.3,3.9l1.3,4.8l-1.2-4.9c-10.7,2.6-21.3,5.6-31.8,8.9c-10.4,3.3-21.2,6.5-32.6,9.6
		l1.3,4.8l4.6,2c2.8-6.5,5.6-12.7,8.1-18.4c2.6-5.8,5.1-11.6,7.4-17.3l-4.6-1.9l4.6,2c6.5-15.1,13.3-29.9,20.3-44.4
		c7.2-14.9,12.8-30.7,16.9-47.3c1-4,1.5-7.8,1.5-11.5c0-6.9-1.9-13.3-5.7-18.6c-2.9-4-6.8-7.2-11.4-9.2c-4.6-2-9.7-2.9-15.4-2.9
		c-3.2,0-5.7,0.2-8.2,1.3l0,0c-2.2,1-3.4,2.8-4.1,4.4c-0.7,1.7-1,3.4-1.2,5.3l5,0.4l-5-0.6c-0.3,2.2-0.4,4.4-0.4,6.6
		c0,2.7,0.2,5.4,0.7,8c0.1,0.7,0.2,1.4,0.2,2.2c0,2.4-0.6,5.2-2.1,8.4l0,0c-10,21.8-19.7,43.4-29,65.1
		c-9.3,21.6-18.4,43.4-27.3,65.5l4.6,1.9l-4.6-1.9c-2,4.8-4.4,7.5-6.6,8.7c-3.1,1.7-5.9,2.6-8.5,2.8c-3.6,0.3-6.5,0.8-9.1,2
		c-1.3,0.6-2.6,1.4-3.6,2.7c-1.1,1.3-1.8,3.1-1.7,4.9c0,0.3,0,0.6,0.1,0.9l5-0.6l-5,0.5c0.3,2.8,0.7,6.2,1.3,10.3
		c0.4,2.7,1.4,5.3,2.8,7.7c1.1,1.8,2.1,3.6,3.1,5.3c0.9,1.6,1.6,3.3,2.3,5.1c0.1,0.3,0.2,0.7,0.2,1.2c0,0.6-0.1,1.4-0.4,2.4l0,0.1
		l0,0.1c-3.4,11.7-7,23.2-10.7,34.6c-3.8,11.6-6.8,23.6-9.2,35.8l0,0c-1.1,6.3-2.3,12.6-3.6,19L2264.4,581.6l4.9,1
		c1.3-6.5,2.5-12.8,3.7-19.2l0,0c2.3-11.8,5.2-23.3,8.8-34.5c3.7-11.5,7.3-23.1,10.8-34.9l-4.8-1.4l4.7,1.6c0.6-1.8,1-3.6,1-5.5
		c0-1.5-0.2-3.1-0.8-4.6c-0.8-2.2-1.8-4.4-2.9-6.5c-1-1.9-2.2-3.9-3.4-5.8c-0.8-1.3-1.3-2.6-1.5-3.9c-0.6-4-1-7.3-1.3-9.9l0-0.1
		l-2.3,0.3l2.3,0c0-0.1,0-0.1,0-0.3l-2.3,0.3l2.3,0h-2.3l1.8,1.4c0.2-0.3,0.5-1,0.5-1.4h-2.3l1.8,1.4l-1-0.8l0.8,1
		c0,0,0.1-0.1,0.2-0.2l-1-0.8l0.8,1l0,0c0.3-0.3,2.5-1,5.9-1.2c4.3-0.3,8.5-1.8,12.5-4.1c4.9-2.8,8.4-7.5,10.9-13.6l0,0l0,0
		c8.8-22,17.9-43.7,27.2-65.3c9.3-21.5,18.9-43.1,28.9-64.8l0,0c2-4.2,3.1-8.4,3.1-12.6c0-1.3-0.1-2.6-0.3-3.9
		c-0.4-2-0.5-4.1-0.5-6.3c0-1.7,0.1-3.5,0.3-5.3l0-0.1l0-0.1c0.1-1.2,0.3-2,0.4-2.2l0,0l-1-0.5l0.8,0.8c0.2-0.2,0.2-0.3,0.2-0.3
		l-1-0.5l0.8,0.8l-1.9-1.8l1,2.3c0.4-0.2,0.7-0.4,0.8-0.6l-1.9-1.8l1,2.3l0,0c0.1-0.1,1.7-0.5,4.2-0.4c4.6,0,8.4,0.8,11.4,2.1
		c3,1.3,5.4,3.2,7.3,5.9c2.5,3.5,3.8,7.5,3.8,12.7c0,2.7-0.4,5.8-1.2,9.1c-3.9,16-9.3,31.1-16.2,45.3c-7,14.6-13.8,29.6-20.4,44.8
		l0,0.1l0,0.1c-2.3,5.7-4.7,11.3-7.2,17c-2.6,5.7-5.3,11.9-8.2,18.5l-4.2,9.6l10.1-2.8c11.5-3.2,22.5-6.4,33-9.7
		c10.3-3.2,20.7-6.2,31.2-8.7l0.1,0l0,0c5.4-1.4,10.6-2.7,15.9-3.8c5.2-1.1,10.5-2.1,15.8-2.9l-0.8-4.9v5h2.1
		c4.1,0,8.2,1.5,12.7,5.1c4.5,3.7,6.6,7.1,7.2,10.5l0,0c0.2,0.8,0.2,1.5,0.2,2c0,0.9-0.2,1.3-0.2,1.4c-0.1,0.1,0,0.1-0.3,0.3
		c-2.4,1.2-5,2-8,2.5l0.8,4.9l-0.6-5c-13,1.5-25.9,3.6-38.5,6.5c-12.7,2.9-25.2,7-37.5,12.3l2,4.6l-1.9-4.6c-1.5,0.6-3.1,1.3-4.7,2
		c-1.5,0.7-2.9,2-3.7,3.4c-0.8,1.5-1,3-1,4.4c0,1,0.1,2,0.3,3.1l0,0.1l0,0.1c2.7,11.3,4.1,22.5,4.1,33.4c0,8-0.7,15.9-2.2,23.7
		c-3.5,18.9-8.5,37.7-15,56.3l4.7,1.6l-4.7-1.7c-2,5.4-4.7,12.7-8.1,21.8c-3.3,8.9-7.4,17.6-12.1,26.1c-4.7,8.4-9.8,15.7-15.4,21.8
		c-5.3,5.7-10.2,8-15.4,8c-8.5,0-15.2-2.4-21.1-7c-6.1-5-11.2-11.2-15.2-19l0,0l0,0c-3.2-5.9-5.2-11.6-6.1-17.3
		c-0.7-4.1-1-8.3-1-12.5c0-1.8,0.1-3.6,0.2-5.4c0.4-6.2,1.2-12.4,2.5-18.6L2264.4,581.6z M2170.7,568.6l-4.8,1.4
		c3.2,11,10.8,20.2,21.8,27.2l0,0l0,0c8.9,5.6,18.3,8.5,27.9,8.5c11.1,0,21.4-3.6,30.5-10.4l-3-4l2.8,4.1
		c16.1-11.1,30.1-23.9,42.2-38.4c12.2-14.8,20.9-32.4,25.9-52.8c1.2-4.8,2-9.5,2.5-14.2c0.1-1,0.2-2.1,0.1-3.1
		c0-4.2-0.8-8.4-2.4-12.6l0,0c-0.9-2.2-1.8-4.1-3.3-5.8c-1.4-1.6-3.8-3-6.5-3c-2.1,0-4.1,0.8-5.6,2c-1.5,1.1-2.7,2.5-3.7,4.1
		l4.2,2.8l-4.1-2.9c-2.9,4-5.6,7.9-8.2,11.6c-2.6,3.8-5.2,7.7-7.8,11.7l0,0c-8.6,13.2-17,26.2-25.3,39c-8,12.4-18.1,23.2-30.5,32.6
		l0,0l-0.1,0.1c-2.7,2.2-5.6,4.3-8.4,6.2c-2.3,1.5-4.4,2.1-6.9,2.2c-1.3,0-2.3-0.3-3.3-0.8l-0.2-0.1l-0.3-0.1
		c-1.5-0.6-1.6-0.9-1.6-1.1c-0.4-1.1-0.7-2.3-0.7-3.7c0-1.9,0.1-3.8,0.2-5.9c0-0.5,0.1-1.1,0.1-1.6c0-2.1-0.3-4.2-0.9-6.1l0-0.1
		l-0.1-0.1c0-0.1-0.1-0.2-0.1-0.2l-0.2,0l0.2,0l0,0l-0.2,0l0.2,0h-0.9l0.8,0.4c0.1-0.1,0.1-0.3,0.1-0.4h-0.9l0.8,0.4l0.2-0.4
		l0.1-0.4c1.8-5.8,3-11.7,3.6-17.7c0.5-5.5,1.4-10.9,2.7-16.3c1.2-5.1,3.1-9.8,5.8-14.4c2.5-4.1,6.4-7.9,12.2-11.3l0,0
		c9.1-5.3,16.4-13.2,21.8-23.2c4.9-9.2,10.1-17.8,15.4-26l-4.2-2.7l4.1,2.8c13.9-20.6,25.3-42.1,34.2-64.6
		c8.7-22.1,17.6-44.3,26.8-66.6l0-0.1c2.6-6.7,4.5-12.1,5.6-16.5c0.5-2.2,0.8-4.3,0.8-6.3c0-2.3-0.4-4.6-1.3-6.7
		c-1.8-4.1-5.3-6.9-9.6-9.1c-4.1-2.1-9.5-4-16.2-6.1l-0.1,0l-0.1,0c-2.1-0.5-4.2-1.2-6.3-2c-2.5-0.9-4.9-1.7-7.4-2.3l-1.2,4.8
		l1.8-4.6c-1.6-0.6-3.1-1.1-4.5-1.5l0,0c-1.5-0.4-3-0.6-4.6-0.6c-2.7,0-5.4,0.8-7.6,2.3c-2.8,1.9-4.7,4.5-6.6,8l4.4,2.4l-4.3-2.5
		c-18.1,30.8-33.9,62.3-47.5,94.5c-13.5,32.1-25.8,65-37,98.5c-0.8,2.3-1.7,4.4-2.7,6.3c-0.1,0.2-0.1,0.2-0.3,0.3
		c-0.2,0.1-0.7,0.3-1.7,0.3h-7.2l0.6,5.5c0.4,3.6,1.6,7.1,3.9,9.8c0.3,0.4,0.5,0.8,0.5,1.9c0,0.4,0,0.9-0.2,1.5l4.9,0.9l-4.9-0.9
		c-1.4,7.3-3,14.6-4.9,21.8c-1.9,7.4-3.5,14.8-5,22.4l4.9,0.9l-4.9-1c-1.1,5.3-1.6,10.4-1.6,15.4c0,6.3,0.9,12.4,2.6,18.3
		L2170.7,568.6l4.8-1.4c-1.4-4.9-2.2-10.1-2.2-15.4c0-4.3,0.5-8.8,1.4-13.4l0-0.1c1.4-7.3,3-14.6,4.9-21.8c1.9-7.4,3.5-14.8,5-22.4
		l0-0.1c0.2-1.1,0.3-2.2,0.3-3.3c0-3-0.9-6-2.9-8.3c-0.8-1-1.4-2.3-1.6-4.3l-5,0.5v5h1.7c2.1,0,4.2-0.4,6.2-1.3c2-1,3.6-2.6,4.6-4.5
		c1.3-2.4,2.4-5,3.3-7.8c11.1-33.3,23.3-65.9,36.7-97.8c13.3-31.8,29-62.9,46.8-93.3l0-0.1l0-0.1c1.5-2.8,2.9-4.3,3.2-4.4
		c0.9-0.5,1.5-0.7,2.2-0.7c0.7,0,1.4,0.1,2.2,0.3l0,0c0.9,0.2,2,0.6,3.2,1.1l0.3,0.1l0.3,0.1c2.1,0.5,4.2,1.2,6.3,2
		c2.4,0.9,4.9,1.7,7.4,2.3l1.2-4.9l-1.5,4.8c6.4,1.9,11.3,3.8,14.7,5.5c3.1,1.6,4.5,3.1,5,4.2c0.3,0.6,0.5,1.5,0.5,2.7
		c0,1.1-0.2,2.4-0.5,3.9c-0.9,3.7-2.6,8.8-5.2,15.2l4.7,1.8l-4.6-1.9c-9.2,22.3-18.1,44.6-26.8,66.7c-8.6,21.8-19.6,42.7-33.1,62.7
		l0,0l0,0c-5.5,8.4-10.8,17.3-15.9,26.7c-4.6,8.6-10.6,14.9-18.1,19.3l0,0c-6.8,4-12.2,8.9-15.7,14.8c-3.3,5.4-5.6,11.2-7,17.3
		c-1.3,5.8-2.3,11.6-2.9,17.6c-0.5,5.4-1.6,10.6-3.2,15.7l4.8,1.5l-4.5-2.2c-0.6,1.3-1,2.7-1,4.1c0,1.4,0.3,2.7,0.8,3.9l4.6-1.9
		l-4.7,1.6c0.3,0.8,0.4,1.7,0.4,2.9c0,0.3,0,0.6,0,0.9c-0.1,2.2-0.2,4.4-0.2,6.5c0,2.6,0.5,5.1,1.5,7.5c1.3,3.3,4.3,5.5,7.4,6.6
		l1.8-4.7l-2.2,4.5c2.4,1.2,5.1,1.8,7.8,1.8c4.4,0,8.7-1.3,12.4-3.8c3.1-2.1,6.2-4.3,9.1-6.7l-3.1-3.9l3,4
		c13.3-10,24.3-21.8,32.9-35.1c8.3-12.9,16.7-25.8,25.3-39l0,0c2.5-4,5.1-7.8,7.6-11.4c2.6-3.7,5.3-7.5,8.1-11.5l0-0.1l0-0.1
		c0.6-1,1.2-1.5,1.4-1.7l0.1-0.1l-0.5-0.9l0,1c0.3,0,0.5-0.1,0.5-0.1l-0.5-0.9l0,1v-1.8l-0.8,1.6c0.2,0.1,0.5,0.2,0.8,0.2v-1.8
		l-0.8,1.6l0.5-0.9l-0.6,0.9l0.1,0.1l0.5-0.9l-0.6,0.9l0.1-0.1l-0.1,0.1l0,0l0.1-0.1l-0.1,0.1c0.1,0,0.8,0.9,1.4,2.6l4.7-1.8
		l-4.7,1.8c1.2,3.2,1.7,6.2,1.7,9.1c0,0.7,0,1.5-0.1,2.2c-0.4,4.2-1.1,8.4-2.2,12.8c-4.7,19.1-12.7,35.3-23.9,48.8
		c-11.4,13.8-24.8,26-40.1,36.6l-0.1,0.1l-0.1,0.1c-7.5,5.7-15.5,8.4-24.4,8.4c-7.6,0-15-2.2-22.7-7l-2.6,4.2l2.7-4.2
		c-9.5-6.1-15.1-13.2-17.6-21.6L2170.7,568.6z M2124.9,453.5l4.8-1.4c-0.5-1.8-0.8-3.6-0.8-5.5c0-0.6,0-1.3,0.1-1.9l0-0.1l0,0
		c0.6-7.6,1.3-15.2,2.3-22.9c0.9-6.8,3.5-13,8.2-19l0,0l0,0c0.8-1,1.6-2.1,2.6-3.1l-0.8-0.7l0.4,0.9c0.2-0.1,0.3-0.2,0.4-0.3
		l-0.8-0.7l0.4,0.9l-0.3-0.7l0,0.8c0,0,0.1,0,0.3-0.1l-0.3-0.7l0,0.8c0,0,0.1,0,0.2,0c0.1,0,0.2,0,0.2,0l0.5-1.2l-0.9,0.9
		c0.2,0.2,0.4,0.3,0.4,0.3l0.5-1.2l-0.9,0.9l1.3-1.3l-1.8,0.6c0.1,0.2,0.2,0.5,0.5,0.7l1.3-1.3l-1.8,0.6c0.5,1.4,1,2.8,1.6,4.4
		l4.6-1.9l-4.7,1.8c1.4,3.6,2.6,7,3.5,10c0.5,1.6,0.7,2.9,0.7,3.8c0,0.5-0.1,0.8-0.1,1l-0.1,0.4l0,0.4c-0.6,5.8-1,10.6-1.3,14.5
		c-0.3,4-0.4,7.7-0.4,11.3h5l-5-0.3c-0.1,2.4-0.5,4.2-1,5.3c-0.5,1.1-0.9,1.5-1.4,1.8c-2,1.2-4.9,1.9-8.9,1.9v5l0.3-5
		c-1.9-0.1-3.1-0.5-3.6-0.8c-0.5-0.3-0.3-0.2-0.5-0.5L2124.9,453.5l-4.8,1.4c0.7,2.7,2.7,5.1,5.1,6.4c2.4,1.4,5.1,1.9,8,2.1l0.1,0
		h0.1c5.2,0,9.9-1,13.8-3.2c2.5-1.4,4.4-3.8,5.6-6.4c1.2-2.6,1.7-5.6,1.9-8.8l0-0.1v-0.1c0-3.3,0.1-6.8,0.4-10.6
		c0.3-3.8,0.7-8.5,1.3-14.2l-5-0.5l4.8,1.4c0.3-1.2,0.5-2.5,0.5-3.8c0-2.2-0.4-4.5-1.2-6.8c-1-3.3-2.3-6.8-3.7-10.6l0-0.1l0,0
		c-0.5-1.3-1-2.6-1.4-3.8c-0.5-1.5-1.6-3-2.9-4c-1.3-1-2.8-1.5-4.2-1.7c-0.6-0.1-1.2-0.2-1.8-0.2c-2.5-0.1-5.2,1.1-6.9,3.1
		c-1.1,1.2-2.1,2.5-3,3.7l4,3l-3.9-3.1c-5.6,7.2-9.1,15.2-10.2,23.9c-1,7.8-1.8,15.6-2.4,23.4l5,0.4l-5-0.5c-0.1,1-0.1,1.9-0.1,2.8
		c0,2.8,0.4,5.6,1.2,8.2L2124.9,453.5z M2087.6,573.1l5-0.5c-0.3-2.9-0.4-5.5-0.4-7.9h-5l5,0.1c0.3-16.4,2.7-32,7.3-46.8
		c4.7-15.2,9.9-30.5,15.6-45.8l-4.7-1.7l-2.1,4.5c4.8,2.3,9.3,4.5,13.3,6.6c4.1,2.1,8.1,4.3,12,6.5c0.7,0.4,1,0.7,1,0.7l0.6-0.6
		l-0.7,0.4c0.1,0.2,0.1,0.2,0.1,0.2l0.6-0.6l-0.7,0.4l1.9-0.9l-2,0.2c0,0.3,0.1,0.5,0.2,0.7l1.9-0.9l-2,0.2l0,0c0,0.1,0,0.1,0,0.3
		c0,0.4-0.1,1.1-0.4,2.1l-0.1,0.2l0,0.2c-0.8,3.1-2.8,9.6-5.9,18.9c-3.1,9.3-6.7,19-10.8,29.1c-4.1,10-8.4,18.7-12.9,26.3
		c-2.2,3.7-4.2,6.3-5.9,7.7c-1.7,1.5-2.6,1.7-2.9,1.7c-0.2,0-0.2,0-0.2,0l-0.2,1.2l0.6-1.1c-0.2-0.1-0.3-0.1-0.3-0.1l-0.2,1.2
		l0.6-1.1l-0.5-0.3l-0.5-0.1c-1.1-0.3-1.5-0.6-1.6-0.7c-0.1-0.1-0.1-0.1-0.2-0.7L2087.6,573.1l-5,0.5c0.2,2.4,1.2,4.9,3,6.7
		c1.8,1.8,4,2.9,6.4,3.5l1.2-4.9l-2.3,4.5c1.5,0.8,3,1,4.4,1c3.7,0,6.9-1.8,9.6-4.2c2.7-2.5,5.2-5.8,7.7-10
		c4.9-8.1,9.4-17.3,13.6-27.7c4.2-10.2,7.9-20.1,11-29.7c3.2-9.5,5.2-15.9,6.1-19.7l-4.9-1.2l4.7,1.6c0.6-1.7,0.9-3.5,0.9-5.3
		c0-0.4,0-0.9-0.1-1.3l0,0c-0.2-1.9-1.1-3.5-2.1-4.6c-1-1.2-2.2-2-3.6-2.8c-4.1-2.3-8.2-4.6-12.4-6.7c-4.2-2.2-8.8-4.4-13.7-6.7
		l-4.9-2.3l-1.9,5.1c-5.8,15.5-11,31-15.7,46.3c-4.9,15.8-7.4,32.3-7.7,49.6v0.1c0,2.8,0.1,5.7,0.5,8.8L2087.6,573.1z M2058,559.4
		l-4.9,0.8c1.9,11.2,7.3,21.7,15.7,31.4l0,0.1l0,0c5.3,5.9,11.2,10.4,17.8,13.2c6.4,2.8,13.1,4.3,19.8,4.3c9.4,0,17.9-2.5,24.8-7.6
		c6.5-4.8,12.1-10.8,16.6-17.8c4.5-6.9,8.2-14.4,11-22.5c2.7-7.8,5.1-15.2,7.2-22.1l0,0c2.5-8.5,5.4-16.9,8.5-25.2
		c3.2-8.5,6.2-17,9.1-25.4c2.9-8.6,5.3-17.4,7.2-26.3c1.9-9.1,2.9-18.5,2.9-28.3c0-9.5-1.9-18.5-5.8-26.8c-3.8-8.1-9-15.3-15.4-21.4
		c-6.4-6.1-13.9-11-22.3-14.5c-8.5-3.5-17.4-5.3-26.6-5.3c-8.6,0-17,1.5-24.9,4.6l-18.6,7.1l19.7,2.5c2.3,0.3,4,0.5,5.2,0.6l0,0
		c0.9,0.1,1.9,0.3,2.9,0.5l1.2-4.9l-4.3-2.5c-4.2,7.2-7.5,14.6-9.9,22.2c-2.3,7.2-4.7,14.4-7.2,21.4l0,0
		c-6.6,18.1-12.8,36-18.5,53.8c-5.8,17.9-10.7,36.2-14.7,54.9l4.9,1.1l-4.9-1.1c-1.6,7-2.4,13.9-2.4,20.6c0,4.5,0.4,8.9,1.1,13.2
		L2058,559.4l4.9-0.8c-0.6-3.8-1-7.6-1-11.6c0-5.9,0.7-12,2.2-18.4l0-0.1l0,0c4-18.4,8.8-36.4,14.4-54c5.7-17.7,11.8-35.5,18.4-53.4
		l0,0c2.6-7.2,5-14.5,7.4-21.8c2.2-6.9,5.2-13.6,9-20.2l3.4-5.8l-6.5-1.6c-1.3-0.3-2.7-0.6-4-0.7l0,0c-1.1-0.1-2.8-0.4-5.1-0.6
		l-0.6,5l1.8,4.7c6.9-2.6,13.9-4,21.4-4c7.9,0,15.4,1.5,22.7,4.5c7.3,3.1,13.7,7.2,19.3,12.5c5.6,5.3,10,11.4,13.3,18.4
		c3.2,6.9,4.9,14.3,4.9,22.5c0,9.1-0.9,17.8-2.7,26.2c-1.8,8.5-4.1,16.9-6.9,25.2c-2.8,8.4-5.8,16.8-9,25.1
		c-3.2,8.5-6.1,17.1-8.7,25.8l0,0c-2,6.8-4.3,14-7,21.6c-2.6,7.4-5.9,14.1-10,20.4c-4,6.1-8.7,11.1-14.2,15.2
		c-5.1,3.7-11.2,5.6-18.9,5.7c-5.3,0-10.5-1.1-15.8-3.4c-5.1-2.3-9.9-5.8-14.4-10.8l-3.7,3.3l3.8-3.3c-7.5-8.6-11.9-17.4-13.4-26.5
		L2058,559.4z M1816.7,546.1l-5-0.5c-0.3,3.2-0.5,6.3-0.5,9.5c0,6.3,0.6,12.7,1.8,19.1l4.9-0.9l-4.9,0.8c0.7,4.2,2.4,8.4,5,12.5
		c2.4,4,5.3,7.7,8.5,11.2c3.3,3.6,7,6.6,11.1,8.9c4.1,2.3,8.3,3.6,12.5,3.6c7.9,0,14.9-2,20-6.6c4.4-3.9,8.5-8.7,12.4-14.4l0.1-0.1
		l0.1-0.1c0.8-1.4,1.6-2.7,2.3-3.8c0.6-1,1.3-2,2.1-3.1l0.2-0.2l0.1-0.2c8.1-13.9,15.2-28.1,21.3-42.6c6-14.2,12.2-28.6,18.8-43.2
		l-4.6-2.1l4.5,2.1c4.3-9.2,8.5-18.5,12.5-27.8c4-9.2,8.3-18.9,12.8-28.8l-4.5-2.1l-4.6,1.8c0.3,0.6,0.4,1.1,0.5,1.4
		c0,0.1,0,0.2,0,0.2l2.9-0.6l-3,0c0,0.4,0,0.6,0.1,0.6l2.9-0.6l-3,0c0,0.4,0,0.8,0,1.1h5l-5-0.6c-1.4,11.7-3.1,23.5-4.9,35.6
		c-1.9,12.3-3.1,24.6-3.7,36.7c-0.2,3.3-0.2,6.6-0.2,9.8c0,8.9,0.6,17.7,1.8,26.3c1.6,12,5.3,23.7,11,35l0,0
		c0.2,0.3,0.2,0.6,0.3,0.8l4.8-1.3l-4.9,1.2c0.4,2,2.1,3.9,3.7,4.6l0,0l0,0c5.1,2.4,10,5.3,14.6,8.7c5.5,4.1,11.8,6.6,18.5,7.6
		l0.7-4.9l-1,4.9c1.5,0.3,3,0.6,4.6,0.9l0,0c1.8,0.3,3.6,0.5,5.4,0.5c7.6,0.1,14.5-3.2,19-9.2l-4-3l3.9,3.1
		c4.8-6,8.8-12.6,11.8-19.6c2.9-6.6,5.7-13.1,8.6-19.7l0,0c10.4-24.5,19.2-49.5,26.6-74.9c7.3-25.3,14.4-50.7,21.2-76.2
		c4.3-15.6,9-30.9,14.3-45.9c5.4-15.5,9.3-31.5,11.6-48.1l-5-0.7l4.9,0.8c0.4-2.5,0.6-4.9,0.6-7.1c0-5-1-9.6-3.5-13.4
		c-3.5-5.1-9.1-8.7-16.2-11.2l-1.6,4.7l1.7-4.7c-3.5-1.3-7-2.1-10.4-2.4c-3.2-0.3-6.4-0.5-9.7-0.5h-12.9h-3.4h-2.6
		c-1.9,0-3.8,0.3-5.6,1c-1.9,0.8-3.2,2.4-3.8,3.9c-0.6,1.5-0.7,2.9-0.7,4.3h5l-5-0.5c-0.1,0.5-0.1,1.1-0.1,1.6
		c0,1.7,0.3,3.5,1.5,5.4c1.2,1.9,3.6,3,5.5,3.1c1.7,0.1,3.1,0.3,4.3,0.6l0.2,0l0.2,0c2.1,0.2,3.7,0.7,4.8,1.1
		c1.1,0.4,1.5,0.8,1.5,0.9l0,0c0.1,0.1,0.7,1.2,0.7,3.6c0,0.9-0.1,1.9-0.2,3l5,0.6l-5-0.7c-2.8,20.3-7.3,40-13.3,59
		c-6.2,19.4-11.8,39-17,58.8c-4.3,16.2-8.7,32.4-13.3,48.3c-4.5,15.8-10.1,31.3-16.9,46.5l4.6,2l-4.5-2.2c-3.2,6.7-6.1,13.8-8.8,21
		c-2.6,7.1-5.4,15-8.6,23.5l4.7,1.7l4.9-0.8c-0.6-3.5-1.1-6.2-1.5-8.4c-0.4-2-0.8-3.7-1.1-5.1l-4.9,1l4.9-0.7
		c-1.6-10.8-2.4-21.4-2.4-31.9c0-4,0.1-7.9,0.3-11.8c0.8-14.6,2.3-29.3,4.3-44l0,0c2.3-17.9,5.2-35.3,8.9-52.3
		c3.7-17.2,7.2-34.7,10.3-52.5c1.3-7.2,1.9-13.5,1.9-19c0-7.5-1.1-13.7-4-18.7c-2.6-4.4-6.7-7.7-11.9-10c-5.2-2.3-11.4-3.7-18.7-4.5
		l-0.3,0h-4.1c-1.8,0-3.7,0.3-5.6,1.4c-1.9,1.1-3.4,3.3-3.6,5.4l4.9,0.8l-4.9-1.2c-1.9,8-4.5,15.4-7.8,22.4c-3.4,7.2-7,14.3-11,21.3
		l0,0c-14.6,25.6-28.2,51.6-40.7,78.2c-12.5,26.5-24.2,53.6-35.1,81.1l4.6,1.8l-4.6-1.9c-2.2,5.3-4.7,10.6-7.5,15.9
		c-2.9,5.5-5.9,11.7-9.1,18.7l4.5,2.1h5c0-3.2-0.1-5.5-0.2-7.2l0,0c0-0.3,0-0.5,0-0.7c0-0.4,0-0.8,0.1-1.1l0-0.1l0-0.1
		c4.6-22.9,8.7-45.8,12.3-68.6c3.5-22.6,8.2-45.1,13.8-67.5c2.8-11.3,6.1-22.4,10-33.5c4-11.5,6.8-23.3,8.6-35.6
		c0.4-2.7,0.6-5.3,0.6-7.8c0-7.5-1.8-14.2-5.8-19.5c-2.6-3.5-6-6.2-10-8c-4-1.8-8.4-2.6-13.3-2.6c-3.8,0-8,0.5-12.6,1.4l-0.1,0
		l-0.1,0c-3.2,0.8-6.1,2.5-8.2,5.1c-1.1,1.2-2,3-2.1,5.3c0,1.5,0.5,3,1.3,4.1c0.7,1.1,1.6,1.9,2.6,2.6l0,0l0,0
		c1.6,1.1,2.6,2.1,3.1,2.8c0.5,0.7,0.5,1,0.5,1.2c0,0.1,0,0.2,0,0.3l0,0c-0.8,3.1-1.8,6.2-2.9,9.2l0,0.1l0,0.1
		c-10,30.4-19,60.9-26.9,91.6c-7.9,30.8-13.6,62.3-17.1,94.6l5,0.5l-5-0.6c-1.2,8.9-2.2,17.9-3,27L1816.7,546.1l5,0.5
		c0.9-8.9,1.8-17.8,3-26.6l0,0l0-0.1c3.4-31.8,9-62.8,16.8-93.2c7.8-30.5,16.7-60.8,26.7-91l-4.7-1.6l4.7,1.7
		c1.2-3.3,2.2-6.6,3.1-10.1l0,0c0.2-0.9,0.4-1.8,0.4-2.8c0-2.6-0.9-5-2.4-7c-1.4-2-3.3-3.7-5.6-5.2l-2.8,4.1l2.9-4.1
		c-0.1-0.1-0.2-0.1-0.2-0.1l-1,1l1.2-0.6c-0.1-0.3-0.3-0.4-0.3-0.4l-1,1l1.2-0.6l-2.4,1.2l2.7,0c0-0.4-0.1-0.9-0.3-1.2l-2.4,1.2
		l2.7,0h-2.4l2.2,1c0.1-0.2,0.2-0.6,0.2-1h-2.4l2.2,1l-1.2-0.5l1.1,0.7c0,0,0.1-0.1,0.1-0.2l-1.2-0.5l1.1,0.7l-0.2-0.1l0.2,0.1l0,0
		l-0.2-0.1l0.2,0.1l0,0c0.8-0.9,1.6-1.4,3-1.8l-1.2-4.8l1,4.9c4-0.8,7.6-1.2,10.6-1.2c3.7,0,6.8,0.6,9.2,1.7
		c2.5,1.1,4.4,2.6,6.1,4.9c2.4,3.3,3.8,7.6,3.8,13.5c0,2-0.2,4.1-0.5,6.4c-1.7,11.7-4.4,23-8.1,33.8c-3.9,11.3-7.3,22.7-10.2,34.3
		c-5.8,22.7-10.4,45.5-14,68.4c-3.6,22.6-7.6,45.4-12.2,68.2l4.9,1l-4.8-1.2c-0.3,1.2-0.4,2.4-0.4,3.6c0,0.6,0,1.2,0.1,1.8l0,0
		c0.1,0.9,0.2,3.1,0.2,6.1v22.9l9.5-20.8c3.1-6.8,6.1-12.9,8.9-18.2c2.9-5.5,5.6-11.1,7.9-16.7l0,0l0-0.1
		c10.8-27.3,22.4-54.2,34.8-80.5c12.4-26.3,25.8-52.1,40.3-77.4l0,0c4.1-7.2,7.8-14.6,11.3-22c3.6-7.6,6.4-15.7,8.5-24.3l0-0.2
		l0-0.2l-2.2-0.4l1.1,1.9c0.5-0.2,1.1-1.2,1.1-1.6l-2.2-0.4l1.1,1.9l-0.7-1.2l0.5,1.3c0,0,0.1,0,0.2-0.1l-0.7-1.2l0.5,1.3l-0.1-0.3
		l0.1,0.3l0,0l-0.1-0.3l0.1,0.3c0,0,0.3-0.1,0.7-0.1h3.9v-5l-0.5,5c6.6,0.7,11.9,2,15.7,3.7c3.8,1.7,6,3.7,7.3,5.9
		c1.5,2.6,2.7,7.1,2.6,13.6c0,4.8-0.6,10.6-1.7,17.3c-3.1,17.6-6.6,35-10.2,52.1c-3.7,17.3-6.8,35-9.1,53.2l0,0
		c-2,15-3.5,29.9-4.3,44.7c-0.2,4.1-0.4,8.3-0.4,12.4c0,11,0.9,22.2,2.6,33.4l0,0.1l0,0.1c0.3,1.5,0.7,3.2,1.1,5.2
		c0.4,1.9,0.9,4.5,1.5,7.9l3.1,18.6l6.5-17.7c3.1-8.6,6-16.4,8.6-23.6c2.5-7,5.3-13.7,8.4-20.1l0,0l0-0.1
		c7-15.6,12.7-31.6,17.4-47.8c4.6-16,9-32.2,13.3-48.5c5.1-19.6,10.7-39.1,16.9-58.3c6.2-19.6,10.8-39.8,13.7-60.6l0-0.1l0,0
		c0.2-1.4,0.3-2.8,0.3-4.1c0-3.6-0.6-7-2.8-9.8l0,0c-1.5-1.9-3.5-3.1-5.7-4c-2.2-0.9-4.6-1.4-7.3-1.7l-0.6,5l1-4.9
		c-1.7-0.3-3.5-0.6-5.5-0.7l-0.2,2.6l2.1-1.5c-0.4-0.7-1.6-1.2-1.9-1.2l-0.2,2.6l2.1-1.5l-1.6,1.1l1.9-0.5c0-0.1-0.1-0.3-0.3-0.7
		l-1.6,1.1l1.9-0.5l0,0c0,0,0-0.1,0-0.2c0-0.1,0-0.3,0-0.6l0-0.2v-0.3c0-0.3,0-0.5,0-0.6l0,0l-2.6-0.9l1,2.4c1-0.4,1.6-1.4,1.6-1.6
		l-2.6-0.9l1,2.4c0.2-0.1,0.7-0.2,1.7-0.2h2.6h3.4h12.9c3,0,5.9,0.1,8.7,0.4c2.5,0.2,5.2,0.9,8,1.9l0.1,0c6,2.1,9.5,4.7,11.2,7.3
		c1.1,1.6,1.8,4.1,1.8,7.8c0,1.6-0.1,3.5-0.5,5.6l0,0.1c-2.2,16-6,31.4-11.1,46.2c-5.3,15.3-10.1,30.8-14.5,46.6
		c-6.9,25.4-13.9,50.8-21.2,76c-7.2,25.1-16,49.7-26.2,73.8l0,0c-2.9,6.6-5.7,13.1-8.6,19.7c-2.7,6.2-6.2,11.9-10.5,17.3l0,0l0,0.1
		c-2.9,3.7-6,5.2-11,5.3c-1.1,0-2.3-0.1-3.6-0.3l0,0c-1.5-0.3-3-0.6-4.4-0.8l-0.1,0l-0.1,0c-5.2-0.8-9.8-2.6-14-5.7
		c-5.1-3.8-10.5-7-16.3-9.7l-2.1,4.5l2.2-4.5l-1.3,2.7l2.9-0.7c-0.1-0.8-1.1-1.9-1.6-2l-1.3,2.7l2.9-0.7l0-0.1l0,0
		c-0.2-0.9-0.6-1.8-1-2.7l0,0c-5.2-10.4-8.5-21-10-31.9c-1.1-8.1-1.7-16.4-1.7-24.9c0-3.1,0.1-6.2,0.2-9.3
		c0.6-11.8,1.8-23.7,3.6-35.7c1.9-12.2,3.5-24.2,5-35.9l0-0.3v-0.3c0-0.3,0-0.6,0-1.1c0-1.3-0.2-1.8-0.4-2.5
		c-0.2-0.7-0.5-1.3-0.8-2.1l-4.3-10.9l-4.9,10.7c-4.6,10-8.9,19.7-12.9,29c-4,9.2-8.1,18.4-12.4,27.5l0,0.1
		c-6.6,14.6-12.9,29.1-18.9,43.4c-5.9,14.1-12.8,27.9-20.7,41.4l4.3,2.5l-4-3c-0.9,1.2-1.8,2.5-2.6,3.8c-0.7,1.2-1.5,2.5-2.4,3.9
		l4.3,2.6l-4.1-2.8c-3.5,5.2-7.1,9.4-10.8,12.6c-2.9,2.5-7,4.1-13.4,4.1c-2.1,0-4.6-0.7-7.6-2.4c-3.1-1.7-5.9-4-8.6-6.9
		c-2.8-3.1-5.2-6.3-7.4-9.7c-2-3.3-3.2-6.3-3.6-8.9l0-0.1l0,0c-1.1-5.8-1.6-11.6-1.6-17.3c0-2.9,0.1-5.7,0.4-8.6L1816.7,546.1z
		 M1573.2,483.5l4.9,1.1c0.2-1,0.6-2.1,1-3.3l0.1-0.2l0-0.1c8.6-25.7,16.9-51.4,25.1-77c8.1-25.5,16.9-50.8,26.3-75.8l-4.7-1.8
		l4.6,1.9c0.3-0.7,0.5-1,0.9-1.3c0.4-0.3,1-0.6,2.1-0.8l0.1,0l0.1,0c4-0.8,7.8-1.2,11.5-1.2c7,0,14.6,1.4,22.7,4.4l1.7-4.7l-1.9,4.6
		c4.9,2,8.2,4.6,10.4,8c2.2,3.3,3.4,7.6,3.4,13.1c0,2.1-0.2,4.4-0.6,6.9l0,0c-1.6,10.2-5.2,19-10.9,26.8
		c-6.1,8.4-12.4,16.5-18.9,24.4l0,0l0,0c-10.9,13.7-23.1,26.1-36.4,37.2c-13.7,11.4-26.9,23.4-39.6,36.1c-0.3,0.3-0.6,0.5-1,0.8l0,0
		c-0.8,0.5-1.7,1-2.6,1.6l2.8,4.2l4.3-2.5c-0.3-0.6-0.5-1-0.6-1.3c0-0.1-0.1-0.2-0.1-0.3l0,0h-1.4l1.4,0.3c0-0.2,0-0.3,0-0.3h-1.4
		l1.4,0.3l0-0.1l0,0L1573.2,483.5l-4.9-1.1c-0.2,0.7-0.2,1.3-0.2,2c0,2.5,0.9,4.6,2,6.6l2.7,4.6l4.4-3c0.8-0.5,1.5-1,2.2-1.4l0,0
		c1-0.6,2-1.4,2.9-2.2c12.5-12.5,25.4-24.3,38.9-35.5c13.8-11.5,26.4-24.4,37.8-38.7l-3.9-3.1l3.9,3.2c6.6-8.1,13-16.4,19.3-24.9
		c6.6-9.1,10.9-19.5,12.7-31.1l0,0c0.4-2.9,0.7-5.7,0.7-8.4c0-7-1.6-13.4-5-18.6c-3.4-5.3-8.6-9.2-15-11.7l-0.1,0l-0.1,0
		c-9-3.3-17.8-5-26.2-5c-4.4,0-8.8,0.5-13.4,1.4l1,4.9l-0.8-4.9c-2.3,0.4-4.6,1.2-6.5,2.6c-1.9,1.4-3.4,3.4-4.2,5.6l0,0.1l0,0
		c-9.5,25.2-18.3,50.7-26.4,76.3c-8.1,25.6-16.5,51.2-25.1,76.9l4.7,1.6l-4.6-1.9c-0.7,1.6-1.2,3.3-1.5,4.9L1573.2,483.5l-4.9-1.1
		L1573.2,483.5z M1507.9,544.8l-4.7,1.6c0.7,2.3,2.2,4.2,4.1,5.6l3-4l-3.1,3.9c1.5,1.2,2.5,2.3,3,3.1c0.5,0.8,0.6,1.3,0.6,1.6
		c0,0.1,0,0.2,0,0.4l0,0c-0.5,2.4-1.7,4.9-3.9,7.5l-0.1,0.1l-0.1,0.1c-0.9,1.2-1.7,2.3-2.4,3.3l0,0c-0.9,1.2-1.4,2.8-1.4,4.4
		c0,1.9,0.6,3.4,1.4,4.7l0.1,0.2l0.1,0.2c3.8,5.3,8.4,11,13.8,17.3c5.9,7,13.8,11,22.4,11c3.3,0,6.8-1,9.2-3.6
		c2.4-2.6,3.3-5.9,3.5-9.3l-5-0.3l5,0.5c0.3-2.7,0.7-5.3,1.2-7.8c0.6-2.7,1.1-5.5,1.7-8.4l0-0.1l0-0.1c0.1-0.6,0.2-1.1,0.3-1.3
		c0.1-0.2,0.1-0.3,0.1-0.3l-0.6-0.4l0.3,0.6c0.1-0.1,0.3-0.2,0.3-0.2l-0.6-0.4l0.3,0.6l-0.2-0.5l0.1,0.5l0.1,0l-0.2-0.5l0.1,0.5
		c0,0,0,0,0.1,0h1.3v-5l-0.9,4.9c9.2,1.7,18.2,3.4,27.1,4.9c8.8,1.6,17.8,3.2,27,4.9l0.9-4.9l-1,4.9c14.2,2.9,28.4,5.9,42.5,9.2
		c13.5,3.2,26.2,8.7,38,16.6l0.1,0.1l0.1,0.1c1.9,1.1,4,2,6.4,2c2.3,0,4.7-0.9,6.3-2.4c1.7-1.5,2.9-3.3,3.8-5.3l0.1-0.2l0.1-0.2
		c0.7-2,1-4.1,1-6.3c0-1.8-0.2-3.7-0.6-5.7c-0.8-4.1-2.1-8.3-4-12.3c-1.9-4-4-7.7-6.6-11c-2.7-3.5-5.8-6.2-9.7-7.5l-1.6,4.7l1.7-4.7
		c-13.5-4.9-27-9.3-40.4-13.2c-13.4-3.9-27-7.3-40.9-10.2l0,0c-3.9-0.8-7.8-1.8-11.7-2.9c-4-1.1-8.2-2.3-12.5-3.5l-1.3,4.8l4.3,2.5
		c1.7-2.8,3.3-4.3,4.9-5.1c3.1-1.5,6-3.4,8.7-5.7l-3.3-3.8l3.1,3.9c9.8-7.8,20.6-16.9,32.6-27.4c12-10.5,23.6-21.7,34.8-33.5
		c11.3-11.8,21.6-24,31-36.4c9.5-12.6,16.6-24.8,21.1-36.8l0,0c3.5-9.1,5.2-18.1,5.2-26.8c0-16.4-6.4-31.8-18.6-45.6l0,0l0,0
		c-9.3-10.2-20-17.6-31.8-21.9c-11.3-4.1-23-7.3-35.3-9.6l-0.9,4.9l1.2-4.9c-2.6-0.7-5.3-1-7.8-1c-0.2,0-0.1,0-0.3-0.1
		c-0.1-0.1-0.4-0.3-0.9-1l-0.1-0.2l-0.1-0.2c-4.3-5.9-9.3-10.7-15-14.3c-6-3.8-12.9-5.7-20.3-5.7c-1.4,0-3,0.3-4.5,1.3
		c-1.5,1-2.6,2.7-2.9,4.2l4.9,1.2l-4.7-1.6c-0.3,1-0.5,2.1-0.5,3.1c0,2.6,1,5,2.5,7l0.1,0.1l0.1,0.1c2,2.5,2.6,4.6,2.6,6.3
		c0,0.5-0.1,1-0.2,1.5c-0.3,1.2-0.7,2.2-1.5,3c-0.7,0.9-1.8,1.7-3.5,2.5l2.1,4.5l-2-4.6c-8.7,3.9-16.5,8.7-23.6,14.4
		c-6.8,5.5-13.5,11.3-20.2,17.3l3.4,3.7l-3.3-3.8c-5.4,4.8-9.5,10.4-12.1,16.9c-2.2,5.5-4.8,10.6-7.8,15.5l0,0l0,0.1
		c-1.1,1.9-1.9,4-1.9,6.4c0,0.9,0.1,1.8,0.4,2.7l0,0c0.8,2.8,3,5.1,5.4,6.4c1.9,1,3.9,1.9,6.1,2.5l0,0c1.5,0.5,2.5,1,3,1.4l0.2,0.2
		l0.2,0.1c4.7,2.8,9.2,4.5,13.7,4.6c3.7,0,7.3-1.5,10.2-4c2.9-2.4,5.3-5.7,7.5-9.8l0-0.1l0,0c1.5-3,2.9-6.1,4.1-9.2
		c0.6-1.6,2-3.2,5-4.9l-2.4-4.4l-4.9-1.1c-0.5,2.4-1.1,4.5-1.8,6.3c-0.8,2.2-1.5,4.5-2.1,6.9l4.9,1.2l-4.8-1.5
		c-7.4,24.3-15.1,48.1-22.9,71.5c-7.9,23.5-15,47.5-21.3,71.9l0,0.1l0-0.1c-1.4,5.7-2.9,11.6-4.5,17.8c-1.2,4.7-4,8.2-9.7,11.2
		l2.3,4.4l-1.6-4.7c-1.1,0.4-2.3,0.9-3.5,2.1c-1.2,1.1-2,3-2,4.7c0,0.8,0.2,1.6,0.4,2.3l0,0L1507.9,544.8l4.7-1.6l-2.6,0.9l2.7,0
		c0-0.4-0.1-0.7-0.1-0.9l-2.6,0.9l2.7,0h-3.3l2.3,2.3c0.5-0.4,1-1.5,1-2.3h-3.3l2.3,2.3l-1.5-1.5l1,1.9c0.1,0,0.2-0.1,0.5-0.4
		l-1.5-1.5l1,1.9l-0.2-0.4l0.2,0.4l0,0l-0.2-0.4l0.2,0.4l0.1,0l0.4-0.1l0.3-0.2c7.5-3.8,12.8-9.9,14.7-17.6
		c1.6-6.2,3.1-12.1,4.5-17.8l0,0c6.3-24.2,13.3-47.9,21.1-71.2c7.9-23.5,15.5-47.4,23-71.7l0-0.1l0-0.1c0.5-2.1,1.1-4.1,1.8-6
		c0.8-2.2,1.5-4.7,2.1-7.5l2.4-10.7l-9.6,5.2c-4.4,2.4-7.9,5.7-9.6,10.1c-1.1,2.8-2.3,5.6-3.7,8.3l4.5,2.2l-4.4-2.4
		c-1.8,3.4-3.6,5.6-5.1,6.9c-1.6,1.3-2.6,1.6-3.7,1.6c-1.8,0-4.7-0.8-8.6-3.1l-2.6,4.3l3-4c-1.8-1.3-3.8-2.2-6-2.9l0,0
		c-1.6-0.5-3-1.1-4.2-1.7c-0.7-0.5-0.6-0.4-0.6-0.5l0,0l-0.7,0.2l0.8,0c0,0,0-0.1,0-0.2l-0.7,0.2l0.8,0c0,0,0-0.1,0.1-0.3
		c0.1-0.2,0.2-0.6,0.5-1.1l-4.3-2.5l4.3,2.6c3.3-5.4,6.1-11.1,8.5-17c2-5,5.1-9.3,9.4-13.1l0,0l0,0c6.5-5.9,13.1-11.6,19.7-16.9
		c6.4-5.1,13.5-9.5,21.4-13l0,0l0,0c2.7-1.2,5-2.9,6.8-5c1.8-2.1,3.1-4.7,3.7-7.5c0.3-1.2,0.4-2.4,0.4-3.6c0-4.5-1.8-8.8-4.8-12.5
		l-3.9,3.1l4.1-2.9c-0.3-0.4-0.5-0.7-0.5-0.9c-0.1-0.2-0.1-0.2-0.1-0.2h-0.3l0.3,0.1l0-0.1h-0.3l0.3,0.1l0.1-0.2l0.1-0.2l-2.8-0.7
		l1.6,2.4c0.7-0.4,1.2-1.3,1.2-1.7l-2.8-0.7l1.6,2.4l-1.4-2.2l0.6,2.5c0.2,0,0.5-0.2,0.8-0.4l-1.4-2.2l0.6,2.5l-0.2-1v1
		c0,0,0.1,0,0.2,0l-0.2-1v1c5.7,0,10.6,1.4,14.9,4.1c4.6,2.9,8.7,6.8,12.4,11.8l4-3l-4.2,2.6c1,1.6,2.3,3.1,4,4.1
		c1.7,1.1,3.7,1.7,5.6,1.6c1.7,0,3.5,0.2,5.4,0.7l0.1,0l0.1,0c11.8,2.2,23,5.3,33.7,9.2c10.2,3.7,19.4,10,27.8,19.2l3.7-3.4
		l-3.7,3.3c10.9,12.4,16.1,25.1,16.1,38.9c0,7.4-1.5,15.1-4.6,23.3l0,0c-4.1,10.9-10.6,22.3-19.7,34.3c-9.2,12.1-19.3,24-30.3,35.6
		c-11,11.6-22.4,22.6-34.2,32.9c-11.8,10.4-22.5,19.4-32.2,27.1l-0.1,0.1l-0.1,0.1c-2,1.7-4.1,3.1-6.4,4.2c-3.9,1.8-6.9,5-9.3,9.1
		l-3.3,5.7l6.3,1.7c4.3,1.1,8.4,2.3,12.4,3.4c4.1,1.2,8.2,2.2,12.3,3.1l0,0c13.6,2.8,27,6.2,40.1,10c13.2,3.8,26.4,8.2,39.8,13l0,0
		l0.1,0c1.3,0.4,3,1.6,4.9,4.1c2,2.7,3.9,5.7,5.4,9.1c1.6,3.4,2.6,6.7,3.3,10c0.3,1.4,0.4,2.7,0.4,3.8c0,1.3-0.2,2.3-0.4,3.1
		l4.7,1.6l-4.6-2.1c-0.5,1.1-1,1.7-1.1,1.8l-0.1,0l0.2,0.3l0-0.4l-0.2,0l0.2,0.3l0-0.4l0,0c-0.1,0-0.6-0.1-1.3-0.6l-2.6,4.3l2.8-4.1
		c-12.8-8.6-26.6-14.7-41.3-18.1c-14.2-3.3-28.5-6.4-42.8-9.2l0,0l0,0c-9.2-1.7-18.2-3.4-27.1-4.9c-8.8-1.6-17.8-3.2-27-4.9
		l-0.5-0.1h-1.8c-2.5-0.1-5.3,1-7.1,3c-1.8,2-2.6,4.4-3,6.8l4.9,0.8l-4.9-1c-0.6,2.9-1.1,5.6-1.7,8.3c-0.6,2.9-1.1,5.9-1.4,8.9
		l0,0.1l0,0.1c-0.1,2-0.6,2.8-0.8,2.9c-0.2,0.1-0.4,0.4-1.9,0.5c-5.7-0.1-10.2-2.2-14.9-7.5c-5.2-6.1-9.6-11.6-13.2-16.6l-4.1,2.9
		l4.3-2.6l-0.1-0.1l-0.5,0.2l0.5-0.1c0-0.1,0-0.1,0-0.1l-0.5,0.2l0.5-0.1l-1.8,0.5l1.9,0c0-0.2,0-0.4-0.1-0.5l-1.8,0.5l1.9,0h-2.4
		l2,1.4c0.2-0.3,0.4-0.9,0.4-1.4h-2.4l2,1.4l0,0c0.7-1,1.5-2,2.3-3.1l-4-3l3.9,3.2c3-3.6,5-7.6,5.9-11.7l0,0
		c0.2-0.8,0.3-1.6,0.3-2.4c0-2.5-0.8-4.9-2.2-7c-1.3-2.1-3.1-3.9-5.2-5.6l-0.1-0.1l0,0c-0.4-0.3-0.5-0.5-0.6-0.8l0,0L1507.9,544.8z
		 M1441.6,426.3l4.4,2.4c11.9-21.2,25.7-42,41.6-62.4l-3.9-3.1l-5-0.2c-0.3,7.7-1.3,14.6-3,20.9c-1.9,6.9-3.4,13.7-4.6,20.4
		c-2,11.5-3.7,23-5.2,34.5c-1.4,11.1-3.9,21.9-7.5,32.4l4.7,1.6l-4.5-2.2c-0.6,1.2-0.9,2.4-1.1,3.6l0,0l3.4,0.6l-2.2-2.6
		c-0.9,0.7-1.1,1.7-1.2,2l3.4,0.6l-2.2-2.6l2.2,2.6v-3.5c-0.4,0-1.4,0.1-2.2,0.9l2.2,2.6v-3.5h-0.1l-0.2,0c-9.8,0.6-18.9,3-27.4,7.1
		c-7.6,3.7-15.5,6.7-23.7,8.9l1.3,4.8v-5c-0.3,0-0.7,0-1.3,0c-1.3,0-2.4,0.2-4,0.5l1,4.9l4.5,2.2c11.4-22.8,23.1-44.9,35-66.2
		L1441.6,426.3l-4.4-2.4c-12,21.5-23.8,43.7-35.3,66.6l-4.6,9.1l10-2c0.7-0.1,1.2-0.2,1.6-0.3c0.2,0,0.3,0,0.4-0.1l0.1,0l0-0.6v0.6
		h0l0-0.6v0.6c0.6,0,1,0,1.3,0h0.7l0.6-0.2c8.9-2.4,17.4-5.6,25.6-9.6c7.3-3.6,15.1-5.6,23.6-6.1l-0.3-5v5c1.2,0,2.9-0.4,4.3-1.5
		c1.4-1.2,2-2.7,2.2-3.9l0-0.1l0,0.1c0.1-0.5,0.2-0.7,0.2-0.7l0.1-0.3l0.1-0.3c3.8-11.2,6.5-22.7,7.9-34.4
		c1.4-11.3,3.1-22.7,5.1-34.1c1.1-6.4,2.6-12.9,4.4-19.5c2-7.1,3.1-14.9,3.4-23.2l0.6-15.5l-9.5,12.2c-16.2,20.8-30.3,42-42.4,63.6
		L1441.6,426.3z M1324.2,572.2l-4.3,2.5c0.6,1.1,1.2,2.1,1.9,3.1l0.1,0.2l0.1,0.2c3.6,4.5,8.3,8.7,14.2,12.6
		c6.2,4.1,12.7,6.4,19.3,6.4c4,0,7.9-1.1,11-3.4c3.1-2.3,5.4-5.7,6.9-9.6l-4.7-1.8l4.6,2.1c2.9-6.3,5.6-12.7,8.2-19
		c2.6-6.3,5.2-12.8,7.7-19.4l-4.7-1.8l4.5,2.2c0.7-1.4,1.3-2.9,1.7-4.4l0,0l-1.7-0.4l1.3,1.3c0.2-0.2,0.4-0.5,0.5-0.8l-1.7-0.4
		l1.3,1.3l-0.5-0.5l0.4,0.7l0.1-0.1l-0.5-0.5l0.4,0.7c0,0,0.1,0,0.2-0.1l0.2-0.1l0.2-0.1c10-4.9,20-9.8,29.9-14.8
		c9.5-4.8,19.6-8.6,30.1-11.4l-1.3-4.8l1.2,4.9c1.1-0.3,2-0.5,2.6-0.6c0.3-0.1,0.5-0.1,0.6-0.1l0.1,0l-0.2-2.2l0,2.2
		c0.1,0,0.2,0,0.2,0l-0.2-2.2l0,2.2v-3.3l-1.8,2.7c0.6,0.4,1.4,0.6,1.8,0.6v-3.3l-1.8,2.7l1.7-2.6l-2.6,1.7c0.2,0.2,0.4,0.6,0.9,0.9
		l1.7-2.6l-2.6,1.7l1.5-1l-1.7,0.6c0,0,0.1,0.2,0.2,0.4l1.5-1l-1.7,0.6l0,0c0,0.1,0.1,0.6,0.1,1.2c0,0.3,0,0.8,0,1.3l5,0.3l-5-0.7
		c-1.7,12.3-3.3,24.5-4.7,36.5c-1.4,12.1-2.5,24.4-3,36.8c0,0.4,0,0.9,0,1.3c0,7.1,2.8,13.7,7.9,18.7c5.1,5.2,11.8,8,19.1,7.9
		c0.5,0,0.9,0,1.3,0l-0.2-5v5c3.1,0,6.2-0.8,8.8-2.5c3.2-2.1,4.9-5.7,5.2-9.2l-5-0.6l4.9,0.8c1.7-10.7,3-20.9,3.9-30.8
		c2.3-26.7,5.7-53.2,10.2-79.3c4.6-26.2,9.7-52.4,15.4-78.7l0,0c2.8-13.7,5.9-27,9.2-40.1c3.3-13.2,6.5-26.6,9.7-40.4l0.1-0.3l0-0.3
		c0.1-1.4,0.2-2.7,0.2-4c0-9.2-3.1-17.4-9.3-23.5c-1.1-1.1-2.2-2-3.4-2.9l0,0c-0.3-0.2-0.5-0.5-0.8-0.9l-4.5,2.2l4.6-1.9
		c-2.6-6.4-6.4-11.5-11.7-14.3c-4.7-2.5-9.9-3.8-15.2-3.8c-5.1,0-10.6,0.8-16.6,2.3l-0.2,0l-0.2,0.1c-1.3,0.4-2.6,1.1-3.7,1.9l0,0
		c-0.9,0.6-1.7,1.4-2.2,2.5c-0.5,1-0.8,2.2-0.8,3.2c0,1.3,0.3,2.4,0.7,3.4l4.6-1.9l-4.9,1.2c0.1,0.6,0.2,1,0.2,1.4
		c0,0.5-0.1,0.7-0.2,0.8c-0.9,1.7-1.9,3.7-2.8,5.8l0,0c-5.9,13.4-12.9,26-21.2,37.7c-8.5,12.1-16.6,24.5-24.4,37.1l0,0
		c-9.1,15.1-18.2,30.1-27.2,45c-9.1,15-17.4,30.5-24.9,46.3c-2.8,5.9-5.8,11.7-9.1,17.5c-3.4,6.1-6.2,12.3-8.3,18.7l4.7,1.6
		l-4.7-1.6c-3.1,9.1-6.3,18.2-9.6,27.1c-3.3,8.9-6.7,18-10.4,27l0,0.1l0,0.1c-0.1,0.3-0.2,0.5-0.3,0.6l0,0.1l0.9,0.7l-0.5-1
		c-0.3,0.1-0.4,0.3-0.4,0.3l0.9,0.7l-0.5-1l0.8,1.5l0-1.7c-0.2,0-0.5,0.1-0.8,0.2l0.8,1.5l0-1.7v0.5l0.1-0.5l-0.1,0v0.5l0.1-0.5
		c0,0-0.3-0.1-0.8-0.3l0,0c-1.7-0.8-3.2-0.9-4.8-0.9c-2.4,0-4.9,1.1-6.5,2.8l-0.2,0.2l-0.2,0.3c-0.9,1.3-1.8,3-1.8,5
		c0,1.3,0.4,2.7,1,3.7L1324.2,572.2l4.3-2.5l-2.2,1.2h2.5c0-0.5-0.2-1-0.3-1.2l-2.2,1.2h2.5h-2.3l2.2,0.8c0.1-0.2,0.1-0.5,0.1-0.8
		h-2.3l2.2,0.8l-1.2-0.5l1.1,0.6l0.1-0.2l-1.2-0.5l1.1,0.6l0,0l0,0v0l0,0l0,0l-4-3l3.5,3.5l-0.1-0.1l0.1,0.1l0,0l-0.1-0.1l0.1,0.1
		l-0.5-0.7l0,0.9l0.5-0.2l-0.5-0.7l0,0.9c0.4,0,0.6,0,0.7,0l0,0l0.3-1.5l-0.7,1.4c0.2,0.1,0.3,0.1,0.3,0.1l0.3-1.5l-0.7,1.4l0,0
		c1.6,0.8,3.3,1.4,5.2,1.4c2,0,4.1-0.8,5.6-2.1c1.5-1.3,2.3-2.9,3-4.6l-4.7-1.8l4.6,1.9c3.7-9.2,7.3-18.3,10.6-27.4
		c3.3-9,6.5-18.1,9.7-27.3l0,0c1.9-5.7,4.4-11.3,7.5-16.9c3.3-6,6.5-12,9.4-18.1c7.4-15.6,15.5-30.7,24.4-45.4
		c9-14.9,18.1-29.9,27.2-45l0,0c7.7-12.5,15.7-24.7,24-36.6c8.6-12.3,16-25.4,22.1-39.4l0-0.1l0,0.1c0.8-1.9,1.6-3.5,2.4-4.9
		c0.9-1.7,1.4-3.7,1.4-5.6c0-1.3-0.2-2.5-0.5-3.8l-0.1-0.3l-0.1-0.3l0-0.1l-1.4,0.4h1.4c0-0.3,0-0.4,0-0.4l-1.4,0.4h1.4h-3.1
		l2.8,1.4c0.3-0.5,0.4-1.1,0.4-1.4h-3.1l2.8,1.4l-2.9-1.5l1.8,2.7c0.3-0.2,0.8-0.7,1.1-1.2l-2.9-1.5l1.8,2.7l0,0
		c0.5-0.4,1-0.6,1.4-0.7l-1.6-4.7l1.2,4.9c5.4-1.4,10.2-2,14.2-2c3.8,0,7.2,0.9,10.5,2.6c2.7,1.4,5.1,4.2,7.1,9.2l0.1,0.2l0.1,0.2
		c0.9,1.8,2.3,3.5,3.9,4.6l0,0c0.8,0.6,1.5,1.2,2.2,1.8c4.3,4.4,6.4,9.5,6.4,16.5c0,1,0,2-0.1,3.1l5,0.4l-4.9-1.1
		c-3.1,13.7-6.3,27.1-9.6,40.2c-3.3,13.2-6.4,26.7-9.3,40.5l0,0c-5.7,26.4-10.9,52.7-15.5,79.1c-4.6,26.4-8,53.2-10.3,80.2
		c-0.8,9.6-2.1,19.6-3.8,30.1l0,0.1l0,0.1c-0.2,1.6-0.5,1.7-0.8,2c-0.9,0.6-1.8,0.9-3.2,0.9h-0.1l0,0c-0.4,0-0.7,0-1,0
		c-4.9-0.1-8.5-1.6-12-5c-3.5-3.5-4.9-7.1-5-11.6c0-0.3,0-0.6,0-0.9c0.6-12.2,1.6-24.2,3-36.1c1.4-12,3-24.1,4.7-36.3l0-0.2l0-0.2
		c0-0.6,0.1-1.3,0.1-1.9c0-1.9-0.1-3.6-1.1-5.5c-0.5-1-1.2-2-2.4-2.8c-1.1-0.8-2.6-1.1-3.7-1.1c-1,0-1.6,0.2-2.5,0.3
		c-0.8,0.2-1.8,0.4-3,0.7l-0.1,0l0,0c-11.2,2.9-21.9,7-32.1,12.2c-9.8,5-19.7,9.9-29.7,14.8l2.2,4.5l-1.9-4.6
		c-1.2,0.5-2.4,1.2-3.4,2.2c-1,1-1.8,2.4-2.2,3.8l0,0c-0.2,0.8-0.5,1.6-0.9,2.4l-0.1,0.2l-0.1,0.2c-2.6,6.6-5.1,13-7.7,19.2
		c-2.5,6.2-5.2,12.5-8.1,18.7l-0.1,0.1l0,0.1c-1,2.7-2.3,4.2-3.6,5.2c-1.3,0.9-2.8,1.5-5.1,1.5c-4.3,0-8.8-1.4-13.7-4.7
		c-5.2-3.5-9.2-7-11.9-10.5l-3.9,3.1l4.2-2.8c-0.5-0.8-1-1.6-1.5-2.5L1324.2,572.2z M1166.7,531.7l-5,0.4c1.1,14,6.9,27.7,17.1,40.8
		l0.1,0.1l0,0c6,7.6,12.9,13.6,20.5,17.9c7.7,4.4,16.3,6.7,25.4,6.7c12.3,0,23.8-3.2,34.1-9.5c9.7-5.9,19-12.2,28-18.9l0.1-0.1l0,0
		c11.1-8.5,20.9-17.9,29.3-28.3c8.6-10.6,14.6-23.1,17.9-37.2l-4.9-1.1l4.8,1.2c1.9-7.4,2.8-14.3,2.8-20.9c0-7.1-1.1-13.7-3.4-19.8
		c-4.5-12.1-14.4-20.6-28-24.9l-1.5,4.8l1.6-4.7c-2-0.7-3.9-1.1-5.9-1.1c-2.4,0-5.1,0.9-7,2.8c-0.6,0.6-1.1,1.2-1.6,2.1
		c-0.5,0.8-0.8,1.9-0.8,3.2c0,2.2,1.3,4.2,2.5,5.1c0.3,0.3,0.3,0.3,0.3,0.4l4.8-1.2l-4.9,1c0.3,1.6,0.7,3.2,1.2,4.9
		c0.3,1.2,0.5,2.3,0.5,3.2v0.1l0,0.1c0,0.7,0,1.4,0,2.2c0,9.5-1.6,19.1-4.9,28.9c-3.6,10.6-8.5,20.6-14.6,29.9
		c-6.2,9.3-13.5,17.6-22,24.9c-8.4,7.2-17.5,12.5-27.2,16l-0.1,0l0,0c-2.3,0.9-4.8,1.8-7.5,2.8c-2.2,0.8-4.3,1.2-6.2,1.2
		c-2.5,0-3.9-0.6-5.3-1.8l-3.3,3.8l3.4-3.7c-3.5-3.2-5.8-6.8-7.3-10.9c-0.8-2.4-1.3-4.8-1.3-7.4c0-1.7,0.2-3.5,0.6-5.3l0-0.1l0-0.1
		c2.2-11.8,5.9-23,11.1-33.4c5.4-10.8,11.2-21.5,17.4-32.3l0,0c8.7-15.1,18.7-28.7,30.2-40.9c11.9-12.6,22.9-26.3,33.1-41.1l0,0
		c1.9-2.7,4-5.5,6.4-8.2c1.3-1.5,3.2-2.5,7.1-2.5h2.1c1.8,0.1,4-0.8,5.4-2.3c1.4-1.5,1.9-3.2,2.1-4.7l0,0c0.1-0.5,0.1-1.1,0.1-1.6
		c0.1-2.8-1.5-5.8-3.6-7.5l-3.1,3.9l3.3-3.8c-1.4-1.2-1.8-2.1-2-3c-0.4-2-0.7-4.1-1-6.3l-5,0.6l5-0.5c-0.4-3.6-1.4-7-3.7-9.6
		c-2.4-2.7-6-4-9.4-3.9c-3,0-6,0.9-8.3,2.8l3.1,3.9l-2.8-4.2c-3.2,2.2-5.6,3.3-6.2,3.4c-0.9,0.2-3.6,0.5-7.4,0.5h-4.2l-0.7,4.2
		l0.8,0.1l-0.8-0.3c0,0,0,0,0,0.1l0.8,0.1l-0.8-0.3c0.1,0.1-1.1,1.9-3.6,4.1c-2.9,2.7-6.4,5.4-10.6,8.1c-4.1,2.7-8.3,5.1-12.6,7.1
		c-4.3,2-7.9,3.2-10.7,3.7l0.8,4.9l4,3c2.5-3.3,4.6-5.9,6.4-7.6c9.7-9.7,19.3-19.4,28.6-29c9.3-9.6,18.6-19,28-28.5
		c1.8-1.8,3.3-3.8,4.4-6c0.2-0.2,0.1-0.4,1.5-0.8l-1.2-4.8l0.9,4.9c2.4-0.4,4.3-0.9,6.2-2c0.9-0.5,1.9-1.2,2.7-2.3
		c0.8-1.1,1.4-2.6,1.4-4.1c0-1.1-0.2-2-0.6-2.8l0,0c-1.2-2.8-3.2-5.3-5.6-7.4l0,0c-4.7-4.1-9.7-7-15-8.5c-5-1.4-10.4-2.1-16.2-2.1
		h-8.1l3.6,7.2c0.6,1.2,1.1,2.2,1.5,3l3.2-1.6l-3.6,0c0,0.5,0.1,1.1,0.4,1.6l3.2-1.6l-3.6,0h2.4l-2.2-1.3c0,0-0.3,0.4-0.3,1.3h2.4
		l-2.2-1.3c0,0,0,0-0.1,0.1c-0.1,0.1-0.2,0.2-0.4,0.4l3.5,3.5l-3.3-3.8l-38.6,33.4l0,0c-11.5,10.1-22.6,20.4-33.2,30.9
		c-10.7,10.6-21,21.7-30.8,33.6l-0.1,0.1l-0.1,0.2c-2.4,3.4-3.9,7.3-3.9,11.4c0,3,0.8,6,2.2,8.8l4.5-2.2l-4.7,1.8
		c2.8,7.1,6.6,13.1,11.5,17.9c5.3,5.2,12.5,7.7,20.6,7.6c3.6,0,7.4-0.5,11.4-1.4l-1.1-4.9l-4.2-2.7c-1.5,2.4-2.5,4.1-3.2,5.6
		c-0.5,1-1,1.8-1.4,2.5l4.2,2.8l-4-3c-6.7,9.1-12.6,18.4-17.6,28.1c-4.9,9.4-9.7,19-14.6,28.8l0,0.1l0,0.1c-6,12.7-9,25.1-9,37.3
		c0,1.9,0.1,3.7,0.2,5.5L1166.7,531.7l5-0.4c-0.1-1.6-0.2-3.2-0.2-4.8c0-10.4,2.6-21.4,8.1-33l-4.5-2.1l4.5,2.2
		c4.8-9.7,9.7-19.3,14.5-28.7c4.7-9.2,10.3-18.1,16.7-26.7l0.1-0.1l0.1-0.1c0.7-1.1,1.4-2.2,2-3.5c0.4-0.9,1.4-2.5,2.8-4.7l6.4-10.2
		l-11.8,2.7c-3.4,0.8-6.5,1.2-9.2,1.2c-6.2,0-10.4-1.7-13.7-4.8c-3.7-3.6-6.7-8.3-9.1-14.3l-0.1-0.2l-0.1-0.2
		c-0.8-1.6-1.1-3-1.1-4.3c0-1.7,0.5-3.4,2-5.6l-4.1-2.9l3.8,3.2c9.6-11.6,19.6-22.5,30.1-32.9c10.5-10.4,21.4-20.5,32.8-30.4l0,0
		l38.7-33.5l0.1-0.1c0.7-0.8,1.4-1.5,2-2.5c0.6-1,1.1-2.2,1.1-3.8c0-0.9-0.2-2-0.7-2.9c-0.4-0.9-0.9-1.9-1.5-3l-4.5,2.2v5
		c5,0,9.5,0.6,13.4,1.7c3.6,1,7.3,3.1,11.2,6.5l0,0c1.5,1.3,2.4,2.6,3,3.8l0,0l2.6-1.1h-2.8c0,0.5,0.1,0.9,0.2,1.1l2.6-1.1h-2.8h3.2
		l-2.5-1.9c-0.3,0.4-0.7,1.2-0.6,1.9h3.2l-2.5-1.9l1.4,1.1l-1-1.5c0,0-0.2,0.1-0.4,0.4l1.4,1.1l-1-1.5c0,0-0.3,0.2-0.8,0.3
		c-0.5,0.2-1.3,0.4-2.3,0.5l-0.2,0l-0.2,0c-3.2,0.7-6.4,2.8-8,6c-0.6,1.2-1.4,2.3-2.5,3.4c-9.4,9.4-18.8,19-28.1,28.6
		c-9.3,9.6-18.8,19.2-28.5,28.9c-2.3,2.3-4.7,5.1-7.3,8.7l-7.5,10l12.3-2c4.1-0.7,8.5-2.2,13.3-4.5c4.8-2.2,9.4-4.9,13.9-7.9
		c4.5-3,8.4-6,11.7-9c1.7-1.6,3.1-3,4.3-4.6c1.1-1.5,2.1-3.1,2.4-5.2l-4.9-0.8v5c4.2,0,7.2-0.2,9.8-0.8c2.9-0.8,5.6-2.3,9.3-4.8
		l0.2-0.1l0.2-0.1c0.5-0.4,1-0.6,2-0.6c1.4,0.1,1.6,0.3,2,0.6c0.3,0.4,1,1.5,1.2,3.9l0,0.1l0,0.1c0.3,2.4,0.7,4.8,1.1,7
		c0.7,3.4,2.6,6.4,5.3,8.6l0.1,0.1l0,0l0.1,0l0.5-0.4l-0.6,0.2c0,0.1,0.1,0.2,0.1,0.2l0.5-0.4l-0.6,0.2l0.4-0.1l-0.4,0
		c0,0,0,0,0,0.1l0.4-0.1l-0.4,0l0,0.2l0,0l0,0.1l1,0.3l-0.9-0.5c-0.1,0.2-0.1,0.2-0.1,0.2l1,0.3l-0.9-0.5l2.3,1.3l-1.3-2.3
		c-0.5,0.3-0.9,0.7-1,1l2.3,1.3l-1.3-2.3l1.3,2.2l0-2.6c-0.2,0-0.8,0.1-1.3,0.4l1.3,2.2l0-2.6h-2.1c-5.8-0.1-11.2,1.8-14.7,6
		c-2.5,3-4.8,6-6.9,8.9l0,0c-9.9,14.4-20.6,27.7-32.1,39.9c-12,12.7-22.5,27-31.6,42.7l0,0c-6.3,10.9-12.2,21.9-17.7,32.8
		c-5.6,11.3-9.7,23.3-12,36l4.9,0.9l-4.9-1c-0.5,2.5-0.8,5-0.8,7.4c0,3.7,0.6,7.3,1.8,10.7c2,5.6,5.3,10.7,9.9,14.9l0,0l0.1,0.1
		c3.2,2.9,7.5,4.3,11.9,4.2c3.2,0,6.5-0.6,9.7-1.8c2.7-1,5.2-1.9,7.5-2.8l-1.8-4.7l1.7,4.7c10.9-3.9,21-9.9,30.3-17.8
		c9.2-7.9,17.2-16.9,23.9-27c6.7-10.1,11.9-20.8,15.8-32.2c3.6-10.7,5.4-21.4,5.4-32.1c0-0.8,0-1.6,0-2.4l-5,0.1h5
		c0-1.9-0.3-3.9-0.8-5.8c-0.4-1.5-0.7-2.9-1-4.1l0-0.1l0-0.1c-0.5-2.2-1.9-4.2-3.5-5.6l-2.2,2.5h3.2c0-1.3-0.8-2.4-1-2.5l-2.1,2.5
		h3.2h-3.2l2.9,1.5c0.2-0.3,0.4-0.8,0.4-1.5h-3.2l2.9,1.5l-1.7-0.9l1.5,1.2c0,0,0.1-0.1,0.2-0.3l-1.7-0.9l1.5,1.2l-0.5-0.4l0.5,0.4
		l0,0l-0.5-0.4l0.5,0.4l0,0l-0.6-0.6l0.3,0.7l0.3-0.2l-0.6-0.6l0.3,0.7l0-0.1l0,0.1l0,0l0-0.1l0,0.1c0,0,0.1,0,0.2,0
		c0.3,0,1.3,0.1,2.7,0.6l0.1,0l0,0c11.5,3.8,18.2,9.8,21.7,18.9c1.8,4.9,2.8,10.3,2.8,16.3c0,5.6-0.8,11.7-2.5,18.4l0,0.1l0,0
		c-3,12.8-8.3,23.7-15.9,33.1c-7.9,9.7-17.1,18.6-27.7,26.6l3,4l-3-4c-8.7,6.5-17.8,12.6-27.3,18.4c-8.8,5.4-18.3,8-28.9,8.1
		c-7.5,0-14.2-1.8-20.4-5.3c-6.4-3.7-12.3-8.8-17.7-15.5l-3.9,3.1l4-3.1c-9.3-12-14.1-23.8-15-35.5L1166.7,531.7z M983,515l-4.5,2.2
		c2.1,4.2,4.4,8.2,6.9,12.1c2.7,4.1,5.8,7.6,9.4,10.6l0,0l0.1,0.1c1.6,1.4,2,2.2,2.1,4c0,0.7-0.1,1.6-0.4,2.7l0,0
		c-2.4,8.3-3.9,16.7-4.7,25.2c-0.7,8.1-1.5,16.3-2.3,24.6l0,0.1l0-0.1c-0.1,1.2-0.2,2.4-0.2,3.6c0,5.8,1.6,11.1,5.4,14.8
		c3.9,3.7,9.2,5.1,15.1,5.1c6,0,11.4-1.1,15.8-3.7c2.6-1.5,4.7-3.9,6-6.6c1.4-2.7,2.1-5.8,2.4-9.3l0-0.1c0.8-9.7,2.4-19.2,4.8-28.6
		c2.5-9.7,4.6-19.6,6.3-29.7c1.3-7.6,3.9-12.9,7.6-16.6c4-4,9.4-7.6,16.1-10.5l0,0c15.1-6.5,30.2-12.6,45.4-18.3
		c15.2-5.7,30.7-10.9,46.6-15.8l0.1,0l0,0c4-1.3,7.6-3.2,10.7-5.7c3.7-2.8,5.7-7.4,5.6-12c0-0.5,0-1,0-1.4l0,0
		c-0.3-4.6-1.6-9.5-3.5-14.5c-1.2-3-2.9-5.6-5.3-7.4c-2.4-1.9-5.5-2.8-8.6-2.8c-2.7,0.1-4.9,0.1-7.5,1.7l2.8,4.2l-1.8-4.7
		c-8.3,3.1-16.5,6.2-24.6,9.2c-8.2,3-16.4,6.1-24.7,9.2l0,0c-7.4,2.8-14.9,5.5-22.5,8.1c-7.8,2.6-15.9,5.5-24.2,8.6l1.8,4.7l4.7,1.6
		c1.5-4.4,2.6-8.5,3.4-12.1c0.7-3.2,1.5-6.5,2.6-9.7l0,0l0,0c5.1-16.3,10.3-32.3,15.4-48c5.1-15.7,10.4-31.7,15.9-48l-4.7-1.6
		l4.7,1.7c1.2-3.1,2.6-4.8,4.5-5.9l-2.4-4.4l2.2,4.5c6.7-3.4,13.4-6.3,20.1-8.8l-1.8-4.7l1.5,4.8c10.9-3.4,21.7-6.9,32.4-10.3
		c10.7-3.4,21.5-6.7,32.6-9.8l-1.4-4.8l1.2,4.9c2.5-0.6,4.9-1.4,7.4-2.3c2.1-0.7,3.9-2.2,5.1-4.1c1.2-1.9,1.8-4,2-6.1l0,0
		c0.1-0.6,0.1-1.2,0.1-1.8c0-3.3-1-6.5-3-9.2c-1.8-2.5-4-4.8-6.5-7l0,0c-6.9-6-14.8-9.4-23-9.4c-5.6,0-13.5,1.7-24.5,4.9
		c-11,3.2-22.4,6.9-34.4,11.2c-11.9,4.3-23.2,8.6-33.8,12.9c-10.6,4.3-18,7.5-22.2,9.6c-0.7,0.3-1.2,0.5-1.6,0.6
		c-0.2,0.1-0.3,0.1-0.4,0.1l-0.1,0v0.4l0.1-0.4l-0.1,0v0.4l0.1-0.4c0,0-0.1,0-0.4-0.2c-0.3-0.2-0.6-0.5-1.1-1l-3.8,3.3l4.2-2.8
		c-0.8-1.2-1.7-2.2-2.9-3.2c-1.2-0.9-2.9-1.6-4.7-1.6c-0.7,0-1.4,0-2.3,0.3c-0.8,0.2-1.9,0.6-3,1.6l3.5,3.5l-2.6-4.3
		c-1.3,0.7-2.4,2-3.1,3.3c-0.7,1.4-0.9,2.8-0.9,4.1c0,1,0.1,2.1,0.4,3.1l4.9-1.1h-5c0,11.8,3.5,22.2,10.7,30.3l0,0l0,0
		c1.2,1.4,1.5,2.3,1.6,3.5c0,0.6-0.1,1.3-0.4,2.2l0,0c-1.1,3.1-2.2,6.1-3.2,8.8c-1.1,2.9-2,5.9-2.9,9.2c-4.8,17.6-10.1,35-15.8,52
		c-5.7,17.2-11.2,34.6-16.3,52l4.8,1.4l-4.8-1.5c-1,3.2-3.6,6.6-8.4,10.1c-4.9,3.5-9,4.9-12.5,4.9c-0.7,0-1.3,0-1.7-0.1
		c-0.2,0-0.4,0-0.5-0.1c-0.1,0-0.1,0-0.1,0l-1.6,4.7l2.2-4.5c-1.7-0.8-3.2-0.9-4.8-0.9c-1,0-2,0.1-3.3,0.6c-1.2,0.4-2.6,1.5-3.4,3.1
		l4.5,2.2l-3.5-3.5c-1.6,1.5-2.4,3.9-2.3,5.8c0,2,0.5,3.7,1.3,5.4l0,0.1l0,0.1L983,515l4.6-2c-0.2-0.4-0.3-0.8-0.4-1
		c0-0.1,0-0.2,0-0.2l0,0h-1.9l1.3,1.3c0.4-0.4,0.7-1.2,0.6-1.3h-1.9l1.3,1.3l0.6-0.6l0.4-0.7l-3.2-1.6l1.4,3.4
		c0.5-0.2,1.4-0.8,1.9-1.8l-3.2-1.6l1.4,3.4l-0.8-2l0.3,2.2c0.1,0,0.2,0,0.5-0.1l-0.8-2l0.3,2.2l0,0c0.4,0,0.6,0,0.7,0l0-0.1l0,0.1
		l0,0l0-0.1l0,0.1l0.5-1.8l-0.8,1.6c0.1,0.1,0.2,0.1,0.3,0.1l0.5-1.8l-0.8,1.6l0.3,0.1l0.3,0.1c1.8,0.6,3.4,0.7,5.5,0.7
		c6.2,0,12.3-2.5,18.3-6.7c6-4.3,10.3-9.3,12.2-15.2l0,0l0,0c5.1-17.4,10.5-34.6,16.2-51.7c5.7-17.2,11.1-34.7,15.9-52.6
		c0.8-3,1.7-5.8,2.7-8.4c1-2.7,2.1-5.7,3.2-8.8l0,0c0.6-1.8,1-3.6,1-5.5c0-3.8-1.6-7.4-4.1-10.2l-3.7,3.4l3.8-3.3
		c-5.4-6.2-8.1-13.8-8.2-23.7V331l-0.1-0.5c-0.1-0.4-0.1-0.8-0.1-0.9l0-0.1l-1.2-0.1l1,0.6c0.2-0.3,0.2-0.5,0.2-0.5l-1.2-0.1l1,0.6
		l-1.8-1l1,1.8c0.2-0.1,0.5-0.4,0.7-0.7l-1.8-1l1,1.8l0.5-0.3l0.4-0.4l-2.6-2.6l0.9,3.6c0.3-0.1,0.9-0.2,1.7-1l-2.6-2.6l0.9,3.6
		l-0.4-1.6l0.2,1.6c0,0,0.1,0,0.2,0l-0.4-1.6l0.2,1.6l0.1,0v-2.1l-1.3,1.7c0,0,0.6,0.4,1.3,0.4v-2.1l-1.3,1.7l0,0
		c0.1,0.1,0.3,0.3,0.5,0.7l0.2,0.2l0.2,0.2c1.1,1.3,2.4,2.4,3.9,3.3c1.5,0.9,3.3,1.4,5.1,1.4c2.4,0,4.4-0.8,6.5-1.8
		c3.7-1.9,11-5,21.5-9.3c10.5-4.3,21.7-8.5,33.5-12.8c11.8-4.3,23-7.9,33.8-11c10.6-3.1,18.2-4.6,21.8-4.5c5.5,0,10.8,2.1,16.5,6.9
		l0,0c2,1.8,3.7,3.6,5.1,5.4c0.7,1,1,1.9,1,3.3c0,0.2,0,0.5,0,0.8l0,0c-0.1,1-0.3,1.5-0.4,1.6c-0.1,0.1,0,0.1-0.2,0.2
		c-2.1,0.8-4.2,1.5-6.3,2l-0.1,0l-0.1,0c-11.2,3.2-22.2,6.5-33,9.9c-10.7,3.4-21.5,6.9-32.3,10.3l-0.1,0l-0.1,0
		c-7,2.6-14,5.7-21.1,9.2l-0.1,0l-0.1,0.1c-4.4,2.3-7.5,6.4-9.2,11.3l0,0.1l0,0c-5.4,16.3-10.7,32.3-15.9,48
		c-5.1,15.7-10.3,31.8-15.4,48.1l4.8,1.5l-4.7-1.6c-1.2,3.6-2.2,7.2-2.9,10.9c-0.7,3.2-1.7,6.9-3.1,11l-3.3,10l9.8-3.7
		c8.2-3.1,16.2-6,23.8-8.5c7.8-2.6,15.4-5.3,22.9-8.2l0,0c8.3-3.1,16.5-6.2,24.6-9.2c8.2-3,16.4-6.1,24.7-9.2l0.5-0.2l0.5-0.3
		l-0.8-1.2l0.5,1.4c0,0,0.1,0,0.3-0.2l-0.8-1.2l0.5,1.4c0,0,0.9-0.2,2.3-0.2c1.2,0,1.8,0.3,2.5,0.7c0.6,0.5,1.4,1.4,2.1,3.2
		c1.7,4.3,2.6,8.2,2.9,11.6l0,0c0,0.3,0,0.6,0,0.8c-0.1,2.3-0.5,3.1-1.8,4.2c-2.3,1.8-4.8,3.1-7.7,4.1l1.6,4.7l-1.5-4.8
		c-16.1,4.9-31.8,10.2-47.2,16c-15.4,5.8-30.7,11.9-45.9,18.5l0,0c-7.6,3.3-14,7.5-19.1,12.6c-5.5,5.5-8.9,13-10.4,22
		c-1.7,9.9-3.7,19.5-6.1,29c-2.5,9.8-4.2,19.9-5.1,30.2l5,0.4l-5-0.5c-0.2,2.6-0.8,4.5-1.4,5.7c-0.7,1.3-1.3,1.9-2.1,2.4
		c-2.4,1.4-5.9,2.3-10.8,2.3c-4.5,0-6.9-1.1-8.2-2.3c-1.3-1.3-2.3-3.4-2.3-7.5c0-0.8,0-1.7,0.1-2.7l0,0c0.9-8.3,1.6-16.6,2.4-24.7
		c0.7-7.8,2.1-15.6,4.3-23.3l0,0c0.5-1.8,0.8-3.6,0.8-5.3c0.1-4.7-2.2-9.2-6-11.9l-3.1,4l3.2-3.9c-2.7-2.2-5.2-5-7.3-8.3
		c-2.3-3.6-4.4-7.2-6.4-11.1L983,515l4.6-2L983,515z"/>
</g>
</svg>
