<?xml version="1.0" ?><svg enable-background="new 0 0 282.7779 163.6875" id="Layer_1" version="1.1" viewBox="0 0 282.7779 163.6875" xml:space="preserve" xmlns="http://www.w3.org/2000/svg" xmlns:xlink="http://www.w3.org/1999/xlink"><g><path d="M254.2042,145.67c-7.4277-1.811-17.0527-4.3179-25.8594-4.4716c0.5547-23.6063-22.8572-56.3276-49.4575-79.3269   c-2.098,10.1744-8.3284,28.8585-26.5557,40.6483l-1.9773,39.392c-1.399,3.5898-3.1992,6.8447-5.5308,9.4467   c-3.7578,4.1934-8.6025,6.3193-14.4004,6.3193c-7.8984,0-14.3164-2.5186-19.0762-7.4844   c-2.2115-2.3076-3.9176-4.9902-5.2393-7.7839c0.2139,0.0577,0.4363,0.0974,0.6758,0.0974c0.1777,0,0.3623-0.0176,0.5537-0.0537   c1.3994-0.2627,3.1123-0.8428,3.9473-3.0068c0.7168-1.8535,0.6729-4.7168-0.1367-9.0117   c-0.4203-2.2324-1.0974-4.9818-1.9993-7.5699c-0.126,0.4498-0.2717,0.8975-0.4619,1.338c-0.387,0.8961-0.8931,1.7146-1.4883,2.449   c0.3604,1.303,0.7014,2.7411,1.0022,4.3376c0.6816,3.6211,0.7783,6.1025,0.2861,7.376c-0.2568,0.665-0.624,0.9248-1.6113,1.1221   c-0.9991-0.7311-2.0342-5.5001-2.9336-10.1625c-1.4806,0.7809-3.1526,1.2172-4.8987,1.2172c-1.4346,0-2.834-0.29-4.1592-0.8628   l-18.9292-8.1754l0.9406,10.1788L54.16,117.9606l8.0005-2.4144l-16.9827-7.3347c-3.0752-1.3276-5.3486-4.0718-6.082-7.3398   l-9.4131-41.9448c-0.6143-2.7363-0.126-5.5483,1.375-7.918c1.501-2.3691,3.834-4.0122,6.5703-4.6265   c0.7598-0.1699,1.5352-0.2559,2.3066-0.2559c4.9443,0,9.1543,3.3726,10.2383,8.2017l2.8215,12.5738   c0.3103-0.8685,0.613-1.7205,0.9034-2.5476c0.8329-1.8409,1.4193-3.7924,1.7759-5.7651l33.14,10.7662   c0.8037,0.2617,1.6377,0.3916,2.4717,0.3916c0.9443,0,1.8877-0.167,2.7852-0.501l16.8374-6.2541   c-0.736-0.5906-1.259-1.4229-1.4509-2.375c-0.4292-2.1121,0.8611-4.2126,2.9387-4.7822c0.0894-0.0245,0.1798-0.0458,0.2699-0.0644   c0.5612-0.1139,1.1395-0.1059,1.697,0.0182l14.2382-3.184l4.0986-5.7037l1.0153-0.1711c0.1868-0.0315,4.6625-0.7776,11.012-1.2007   c0.2333-0.0155,0.4879,0.0012,0.7343,0.0055c0.1499-1.2279,0.0225-2.5079-0.4382-3.7475   c-1.5381-4.1416-6.1416-6.2559-10.2842-4.7139L91.1097,53.2784l-20.0588-6.5164c-1.9491,0.4818-3.9717,0.7472-6.041,0.7472   c-3.9805,0-7.9639-0.9771-11.5176-2.8262c-2.9792-1.5496-5.563-3.6374-7.6536-6.1383   c-8.1216-2.0579-19.4751,1.3641-25.9576,13.9557C10.2475,71.4868,6.9125,84.271,6.2788,106.627   c0.5254,11.0044,5.5188,16.0667,11.4932,18.5713l16.3662,9.8784l-22.5464,1.6431c-6.8853,0.5015-12.0601,6.4902-11.5581,13.3755   c0.479,6.5762,5.9629,11.5923,12.4536,11.5918c0.3052,0,0.6128-0.0112,0.9219-0.0337l61.75-4.5   c1.6097-0.1172,3.1385-0.5459,4.5309-1.2198c1.8887,4.6037,6.4119,7.754,11.5458,7.754c0.3853,0,0.7734-0.0181,1.1646-0.0542   c6.8745-0.6348,11.9321-6.7227,11.2969-13.5967l-0.6523-7.0605c1.4901,3.3003,3.4725,6.5117,6.1254,9.2828   c5.3486,5.5859,12.499,8.4189,21.2529,8.4189c6.6885,0,12.2852-2.4629,16.6367-7.3203c1.0762-1.2013,2.0378-2.5299,2.9176-3.9393   l-0.3102,6.1796c-0.1494,2.9746,2.0977,5.5283,5.0674,5.7588c0.1445,0.0117,0.2881,0.0166,0.4316,0.0166   c2.7871,0,5.167-2.1064,5.4639-4.9238l4.0188-38.1658c4.8987,3.5093,10.9292,6.5231,16.7881,10.7039   c0.4126-0.9798,0.998-1.9722,1.7878-2.9719c2.3843-3.0177,5.4614-3.6263,8.6553-2.9415c-2.0325,0.3336-3.8008,1.2307-5.1349,2.8929   c-8.5016,10.5902,6.4996,20.3676,9.4984,22.4056c1.924,1.3053-9.9546,1.4751-16.6119,3.8188   c-3.7314,1.3126-4.4302,4.4642-3.5325,6.0727c1.9882,3.5618,30.5607,4.49,42.7921,3.0349   c3.1571-0.3756,5.2275-0.9097,5.4688-1.5985c0.3397-0.9683,0.2317-3.3719-0.092-6.2972c8.5122,2.8237,22.192,5.0424,27.4951,5.7314   c6.7977,0.8832,31.0146-4.1614,31.0146-4.1614S268.2392,149.092,254.2042,145.67z"/><path d="M151.7312,49.8362c-2.5348-1.1566-4.9862-1.9355-6.8387-1.8123c-6.2969,0.4193-10.7629,1.1714-10.7629,1.1714   l-4.054,5.6414l-15.8447,3.5435c-0.3171-0.1672-0.6876-0.2368-1.0664-0.1597c-0.8721,0.1768-1.4349,1.0268-1.2576,1.8987   c0.1213,0.6016,0.5669,1.0485,1.1157,1.215l0.5903,1.876c0,0,5.5793,4.5124,7.6316,4.3412   c2.0513-0.1706,10.355,0.2295,11.1831,1.2889c0.1028,0.1308,0.1985,0.2509,0.2844,0.3615   c-4.0011,0.1685-14.9098,0.9703-18.1607,4.7359c-0.541,0.6268-0.4717,1.5743,0.1558,2.1157   c0.6276,0.5418,1.5743,0.4716,2.1154-0.1552c0.2136-0.2474,0.516-0.4777,0.8595-0.6984c0.5852,0.9524,1.3236,2.0056,1.3236,2.0056   s9.0149,1.4835,11.3243,0.7693c2.3091-0.7147,8.4397-1.3455,8.9368-0.7102c0.436,0.5573,5.0857,10.1631,7.7573,14.364   c0.3762,0.5914,0.7134,1.0766,0.9938,1.4134c0.0936,0.1125,0.2153,0.224,0.3481,0.3354c0.599,1.649,1.1647,3.3106,1.576,4.7275   c17.8191-11.7621,23.0198-31.3056,24.4655-39.668l-8.4869-0.7354c-0.5547,1.8517-2.0203,3.8332-3.0161,5.0945   c-1.5791,2-8.5271,2.098-8.1813-0.8138c1.973,0.9546,5.9078,0.5035,7.0472-0.9399c1.356-1.717,3.5881-4.7664,3.1941-7.0086   c-0.0981-0.5569-0.3519-1.0654-0.8286-1.4891c-1.8435-1.6401-5.1072-4.0476-9.0741-4.1085   c-1.1891-0.0182-2.4386,0.1652-3.7355,0.6549C151.3262,49.0906,151.4893,49.3715,151.7312,49.8362z M136.1973,58.9934   c-0.9766,0.1984-1.9292-0.4326-2.1271-1.4091c-0.1989-0.9763,0.4323-1.9285,1.4086-2.1269   c0.9766-0.1979,1.9292,0.4325,2.1271,1.4091C137.8038,57.8431,137.1728,58.7953,136.1973,58.9934z"/><path d="M99.903,108.9727l-1.3723-14.8526c-0.3452-3.7368-2.3511-7.1211-5.4634-9.2173c-3.1123-2.0967-7.002-2.6826-10.5947-1.5996   l-24.1615,7.2913l0.103,0.4593L99.903,108.9727z"/><path d="M54.6453,42.4655c11.0254,5.7349,24.6082,1.4469,30.3433-9.5786c5.734-11.0236,1.4481-24.6086-9.5771-30.3436   c-11.0237-5.7341-24.6101-1.4455-30.3441,9.5781C39.3323,23.1468,43.6217,36.7313,54.6453,42.4655z"/><path d="M102.2186,112.696L56.2537,92.8439l-8.5205-37.9683c-0.9678-4.311-5.2441-7.0195-9.5576-6.0537   c-4.3105,0.9673-7.0215,5.2466-6.0537,9.5576l9.4131,41.9448c0.5605,2.498,2.2832,4.5771,4.6338,5.5923l49.7061,21.4678   c1.0332,0.4463,2.1094,0.6577,3.168,0.6577c3.0957,0,6.043-1.8076,7.3486-4.8301   C108.1424,119.1559,106.2752,114.4479,102.2186,112.696z"/></g></svg>