<?xml version="1.0" encoding="utf-8"?>
<!-- Generator: Adobe Illustrator 25.4.1, SVG Export Plug-In . SVG Version: 6.00 Build 0)  -->
<svg version="1.1" id="Layer_1" xmlns="http://www.w3.org/2000/svg" xmlns:xlink="http://www.w3.org/1999/xlink" x="0px" y="0px"
	 viewBox="0 0 32 32" style="enable-background:new 0 0 32 32;" xml:space="preserve">
<style type="text/css">
	.st0{fill:#FBA919;}
</style>
<g>
	<rect class="st0" width="32" height="32"/>
	<path d="M4.8,32.1C4.7,31.7,5.2,31.6,4.8,32.1c-0.1,0.2,0.4-2,0.6-2.7c-0.1,0-0.2,0.1-0.3,0.1l0,0c0.4-0.8,0.6-1.6,0.9-2.4
		c0.1-0.2,0.2-0.4,0.2-0.5c0-0.2-0.2-0.3-0.3-0.5c-0.3-0.5-0.6-0.9-0.8-1.5c-0.3-0.9-0.1-1.8,0.4-2.7c0.1-0.2,0.3-0.5,0.4-0.7
		c-0.7,0.4-1.4,0.6-2.2,0.4h0.1c0.9-0.2,1.5-0.8,1.9-1.6c0.3-0.4,0.5-0.9,0.7-1.4c0,0,0-0.1,0-0.2c-0.7,0.2-1.3,0.5-1.9,0.9
		c0-0.1,0-0.1,0.1-0.1c0.6-0.8,1.1-1.6,1.7-2.4c0.2-0.2,0.4-0.3,0.6-0.3c0.1,0,0.2,0,0.2-0.1c0.3-0.6,0.6-1.2,1-1.8
		c0,0,0-0.1,0.1-0.1c-0.7,0-1.4,0-2.1,0c0.2-0.2,0.3-0.4,0.4-0.5c0.4-0.5,0.9-1,1.3-1.5c0.3-0.3,0.6-0.5,1-0.5c0.2,0,0.4,0,0.7,0
		c0.2,0,0.4,0,0.7-0.1c0.1,0,0.1-0.1,0.2-0.1c0.9-0.6,1.8-1,2.9-0.9c0.8,0,1.6,0.1,2.4,0.4c0.3,0.1,0.6,0.2,0.9,0.3
		c0.1,0,0.2,0,0.3-0.1c0.9-0.8,1.8-1.5,2.8-2.1c1.2-0.8,2.6-1.4,3.9-1.9c0.5-0.2,1-0.3,1.5-0.2c0.4,0,0.7,0.2,0.9,0.6
		C26,8,26.1,8,26.1,8.1c0,0,0.1,0,0.1-0.1l0,0c0.2,0.2,0.2,0.5,0.2,0.7c0,0.1,0,0.2,0.1,0.3c0.3,0.5,0.7,1.1,0.9,1.7
		c0.2,0.7,0.2,1.3-0.2,1.9l-0.1,0.1c0.1,0,0.1,0.1,0.2,0.1c0.3,0.1,0.4,0.3,0.4,0.6c0,0.4-0.1,0.9-0.2,1.3c-0.2,0.7-0.6,1.1-1.3,1.3
		c-1.1,0.2-2.1,0.6-3.1,1.1c-1,0.6-2.1,1.3-3,2.1c-0.1,0.1-0.2,0.2-0.3,0.3c-0.1,0.1-0.1,0.2-0.1,0.3c0.1,0.4,0.2,0.9,0,1.3v0.1
		c0,0,0,0,0,0.1c0-0.2-0.1-0.3-0.1-0.5c-0.2,0.3-0.4,0.5-0.5,0.8s-0.1,0.6-0.2,0.9c0,0.1,0,0.2,0.1,0.2c0.6,0.3,1.1,0.5,1.8,0.5
		c-0.6,0.3-1.2,0.6-1.9,0.6C19,24,19,24.2,19,24.4c0,0.1,0,0.1,0,0.2c0.1,0.3,0.4,0.5,0.7,0.7c-0.4,0-0.7-0.1-1.1-0.3
		c0.1,0.1,0.1,0.2,0.2,0.3c0.2,0.4,0.3,0.9,0.2,1.4c0,0.1,0,0.1,0,0.2c0.9,1.1,1.5,3.6,1.7,5C20.8,32.4,10,32.1,4.8,32.1z"/>
</g>
</svg>
