<?xml version="1.0" encoding="utf-8"?>
<!-- Generator: Adobe Illustrator 25.4.1, SVG Export Plug-In . SVG Version: 6.00 Build 0)  -->
<svg version="1.1" id="Layer_1" xmlns="http://www.w3.org/2000/svg" xmlns:xlink="http://www.w3.org/1999/xlink" x="0px" y="0px"
	 viewBox="0 0 464.2 299.5" style="enable-background:new 0 0 464.2 299.5;" xml:space="preserve">
<style type="text/css">
	.st0{fill:none;stroke:#F99E1D;stroke-width:12;stroke-miterlimit:10;}
</style>
<path id="XMLID_311_" class="st0" d="M452.8,206.4c-4.8-8.3-11.8-15.4-20.2-20.1c-6.6-3.7-13.8-6-20.6-9.4c-8-4-15.3-9.4-22.5-14.7
	c-9.9-7.4-15.5-15.8-16.9-28.3c-0.1-1.1-0.4-2.2-0.7-3.2c-1.8-6.6-3.5-9.6-5.3-14.5c-2.4-6.5-5.7-12.3-9.9-17.9
	c-4.3-5.8-8.6-11.6-13.5-16.9c-5.4-5.8-11.9-9.5-19.2-12.1c-8.8-3.2-17.6-6.3-26.6-8.9c-6.8-1.9-13.8-3.3-21-3
	c-2.6,0.1-5.3,0.1-7.9-0.3c-7.6-1.1-15.3-1-23-0.8c-7.2,0.1-14.5-0.7-21.7,0.2c-2.6,0.3-5.3,0.2-7.8,1.4c-1.7,0.8-3.5,0.8-5.3,0.9
	c-5.4,0.4-11,1.4-16.2,0.9c-7.3-0.7-15.1,0.3-21.9-4.1c-2.4-1.6-5.2-2.6-7.8-4c-1.3-0.7-2.9-1.4-3.8-2.6
	c-4.2-5.6-10.4-8.3-16.1-11.7c-3.4-2-5.5-2.1-8.2-4.8c-1.2-1.2-7.5-3.9-9.9-5.1c5.2-2.9,14.3-6.9,15.6-10c0.8-1.8-3-2.4-7.6-3.8
	c-7.9-2.4-20.5-8.2-27-0.2c-0.3,0.4-0.7,0.8-1.1,1.3c-2.2-1.6-4.7-2.6-7.2-4.3c-1.8-1.2-5.2-2-7.6-3c-3.8-1.5-7.8-1.5-11.5-1.2
	c-10.1,0.8-20.2,2-28.9,8.3c-1.7,1.2-3.5,2.4-4.7,4.1c-4.1,6-10.2,9-16.7,11.2c-5.4,1.8-10.8,3.7-16.7,3.2c-2.6-0.2-4.7,1.6-6.7,3
	c-1.2,0.8-1,2.2-0.4,3.4c1.4,2.6,2.8,5.1,3.3,8.1c0.2,1.6,1.5,2.7,3,3.2c0.8,0.3,2.7,0.3,2.7,0.3s0.7,1,1,1.4
	c0.1,0.2,0.9,0.8,0.9,0.8s0.6-1.6,1.1-1.9c2.7-1.9,6.3,0.8,9.4-0.9c4.1-2.3,9.4-1.5,14.3-0.1c-5.2,1.8-8.9,7.2-15.2,6.1
	c-0.6-0.1-1.1,0.2-1.4,0.7c-1.3,1.9-2.7,1.4-4,0.3c-1-0.8-1.9-2-1.9-2s-0.7,1.5-0.9,2.8c-0.1,0.6-0.2,2.1-0.2,2.1s-0.4,0.5-0.5,0.8
	c-2.3,4.4,0.4,8.9,5.3,9c2.5,0.1,5.1-0.2,7.4-1.3c3.9-2,8.6-2.5,12.7-2.1c2.1,0.2,4.3,0,6.4-0.5c0.2,0.1,0.3,0.1,0.4,0.2l0,0
	c0.9,0.6,1.3,1.3,2.1,2.2c3.6,3.9,6.4,8.3,8.1,13.5c3.2,10,7.8,19.3,13.9,27.9c2.9,4.1,5.1,8.6,9.2,11.7c3.1,2.3,6.2,4.7,9.2,7.1
	c6.1,4.9,11.4,10.7,15.2,17.5c2.3,4.2,5.1,8,8.3,11.4c1.9,2,4.1,3.8,5.9,5.9c5.5,6.9,13.5,8.9,21.2,11.6c5.1,1.8,10.6,2.3,15.4,4.9
	c1.9,1.1,4,1.1,6.1,0.8c2.7-0.4,11.2,0.1,15.5,0.8c4.4,4.8,6.2,11.4,7.6,17.8c1.4,6.7,2.3,13.5,3,20.3c0.5,5.5-0.5,12.4,1.4,17.7
	c0.1,0.3,0.3,0.7,0.4,1c-1.6,0.5-3.3,0.5-4.4,0.6c-3.4,0.2-7.8,0.5-10.3,0.6c-2.6,0.1-4.5,1-5.9,3.2c-0.6,1-1.6,1.9-2.5,2.8
	c-2.9,3.2-3.1,4.7-0.2,7.9c2.2,2.3,4.6,4.5,7.2,6.4c2.8,2.1,6.3,1.9,9.3,0.8c4.4-1.7,9-1.9,13.6-2.1c3.1-0.1,6-0.7,8.7-2.4
	c1.4-0.9,3.9-1.9,5.3-2.6c3.8-1.7,7.1-2.9,9.8-5.5c4.6,0.7,9.3,1.2,14,1.3l0.6,0.9c6.5,9.5,13.9,20.7,14.7,32.4
	c0.3,4.9,4.7,7.3,8,10.2c0.8,0.7,1.9,0.4,2.8,0.1c4.8-1.2,7.4-6.3,7.7-11.2c0.3-4.9-1.8-9.5-0.5-14.3c0.4-1.6-0.1-3.2-1.1-4.8
	c-1.1-1.8-2.3-5.9-2-7.3c1.5-0.4,3.1-0.9,4-1.3c0.9-0.4,1.7-1,2.6-1.4c2.8-1.2,4.8-3.3,6.3-5.9c2.1-3.6,4.6-6.8,8.2-9.2
	c3.6-2.3,6.1-6,9.5-8.7c3.3-2.5,6.6-5.2,9.6-8c4.5-4.2,9.6-7.4,14.7-10.8c2.4-1.6,3.2-7.4,1.4-9.8c-3-4.1-5.7-8.5-9.1-12.4
	c-1.8-2-2.4-3.4-2.1-4.9c0.2-0.8,0.3-2.4,0.5-3.2c1.3-4.4,6.1-6.8,10-9.3c10.4-6.6,18.8-15.3,24.1-25.6c0.1,6-0.8,13.5-0.5,17.6
	c0.4,7.2-0.3,14.6,3.3,21.2c6.5,11.7,20.7,21.4,31.9,28.1c9.7,5.8,20.5,9.8,31.6,12c8.3,1.6,16.8,2.2,25.2,1.6
	c4.8-0.3,17.7,0.3,19.3-5.7C459,216.1,454.6,209.4,452.8,206.4z M231.9,201.5c-3.1-3.4-5.1-7.7-5.9-12.3l-0.3-0.2c0.1,0,0.2,0,0.3,0
	c2.8-0.2,5.6-0.4,8.4-0.9c-0.6,4.5-1.1,9.5-1.9,14.4L231.9,201.5z M63.1,33.6c2.5-1.3,4-2,5.9-3.8c1.2-1.2,2.3,0.6,2.7,1.8
	c0.5,1.5-0.6,2-1.8,2.1C67.9,33.7,65.9,34.2,63.1,33.6z M211.9,211.7c3,4.9,6.4,9.5,9.8,14c-1.4,0.9-2.9,1.6-4.2,2.3
	C212.9,224.6,211.8,217.5,211.9,211.7z M290.1,207.9c-6,7.2-12.8,14-20.3,19.7c-5.9,4.5-11.6,6.4-12.9,13.8c-0.7-1.6-2.1-3-2.9-3.9
	c-1.3-1.4-3.3-3.8-4.7-5.7l0,0c3.8-4.2,4.5-8.4,5.8-15.1c1.5-7.6,3.7-15.2,8-21.7c2.1-3.1,6.8-7.4,9.3-10.2
	c5.9,5.9,11.2,12.1,17.6,17.6C292.2,204.4,291.8,205.8,290.1,207.9z"/>
</svg>
