<?xml version="1.0" encoding="utf-8"?>
<!-- Generator: Adobe Illustrator 25.4.1, SVG Export Plug-In . SVG Version: 6.00 Build 0)  -->
<svg version="1.1" id="Layer_1" xmlns="http://www.w3.org/2000/svg" xmlns:xlink="http://www.w3.org/1999/xlink" x="0px" y="0px"
	 viewBox="0 0 142.6 111.6" style="enable-background:new 0 0 142.6 111.6;" xml:space="preserve">
<style type="text/css">
	
		.st0{clip-path:url(#SVGID_00000143613684164468019460000011562261367704820378_);fill:none;stroke:#FFA300;stroke-width:3;stroke-linecap:round;stroke-linejoin:round;}
	
		.st1{clip-path:url(#SVGID_00000143613684164468019460000011562261367704820378_);fill:none;stroke:#FFA300;stroke-width:2;stroke-linecap:round;stroke-linejoin:round;}
</style>
<g>
	<defs>
		<polygon id="SVGID_1_" points="157.1,101.6 105.3,111.6 91.2,111.1 39.3,111.1 21.5,111.6 -20.4,111.6 -20.4,0 167.1,0 		"/>
	</defs>
	<clipPath id="SVGID_00000114788728264181760390000009208921986609226675_">
		<use xlink:href="#SVGID_1_"  style="overflow:visible;"/>
	</clipPath>
	
		<path style="clip-path:url(#SVGID_00000114788728264181760390000009208921986609226675_);fill:none;stroke:#FFA300;stroke-width:3;stroke-linecap:round;stroke-linejoin:round;" d="
		M47,24.8c0,0-2.6,8.2,4.1,11.7c6.6,3.6-0.5,21.5,3.6,29.2"/>
	
		<path style="clip-path:url(#SVGID_00000114788728264181760390000009208921986609226675_);fill:none;stroke:#FFA300;stroke-width:3;stroke-linecap:round;stroke-linejoin:round;" d="
		M94.5,52.8l-5.1-7.7h5.1l-8.3-6.8c3.7-2.9,7.2-6,10.5-9.2l-13.3-4.3c0,0-0.7-14.3-18-11.7c-3.9-2.9-7.4-6.2-10.6-9.8
		c-0.6-0.8-1.8-1-2.7-0.4c-0.2,0.2-0.4,0.3-0.5,0.6c-2.6,4.3-6.3,13,3.1,15.7c10.5,3.1,7.7,14.3,0,10L47,24.8"/>
	
		<line style="clip-path:url(#SVGID_00000114788728264181760390000009208921986609226675_);fill:none;stroke:#FFA300;stroke-width:3;stroke-linecap:round;stroke-linejoin:round;" x1="66.9" y1="18.1" x2="70.7" y2="20.7"/>
	
		<line style="clip-path:url(#SVGID_00000114788728264181760390000009208921986609226675_);fill:none;stroke:#FFA300;stroke-width:2;stroke-linecap:round;stroke-linejoin:round;" x1="51.3" y1="8.7" x2="53.7" y2="10.1"/>
	
		<path style="clip-path:url(#SVGID_00000114788728264181760390000009208921986609226675_);fill:none;stroke:#FFA300;stroke-width:2;stroke-linecap:round;stroke-linejoin:round;" d="
		M78.5,30.6l3.1,0.6c0.8,0.1,1.5,0.9,1.4,1.7c0,0.3-0.2,0.6-0.4,0.9l-1.7,2"/>
	
		<path style="clip-path:url(#SVGID_00000114788728264181760390000009208921986609226675_);fill:none;stroke:#FFA300;stroke-width:3;stroke-linecap:round;stroke-linejoin:round;" d="
		M59.3,53.7c0,0,1.4,12.9,3.7,17l4.1-10.9c0,0,1.5,6.8,5.7,10.9c0,0,3.1-16.3,4.8-18.9c2.9,3.1,6.4,5.5,10.4,7"/>
	
		<polyline style="clip-path:url(#SVGID_00000114788728264181760390000009208921986609226675_);fill:none;stroke:#FFA300;stroke-width:3;stroke-linecap:round;stroke-linejoin:round;" points="
		60.6,40.1 64.7,45.5 66.9,42.1 70.8,48.7 	"/>
	
		<path style="clip-path:url(#SVGID_00000114788728264181760390000009208921986609226675_);fill:none;stroke:#FFA300;stroke-width:3;stroke-linecap:round;stroke-linejoin:round;" d="
		M53.1,45.2c0,0-17.7,2-15,16.3c-3.8,1.2-4.1,12.1,1.2,19.1c0,0-0.2-9.8-11.4-7.1S14.6,63.4,24.1,59c0,0-4.1-6.2-10.6,1.4
		c0,0,0-7.5,6.4-10.5c0,0-8.6-2-10.8,5.6l-3.4-7.7c0,0-9.2,15.3,7.8,28.3S41,93.9,41,93.9l5.1-5.1c2,6.5,0.5,24.7-4.1,29.7
		c-7.7,8.5-26.2,9.4-32.6,26.4c0,0,2.4,10.9,27.9,10.5c0,0,1.4,17-16.9,24.5c0,0-8.2,0.7-11.6,2c-3.4,1.4-1,9.9-1,9.9h5l10.5,0.6
		c0,0,2.4,1.1,7.2-5c4.8-6.1,21.4-34.7,21.4-41.6l-16-0.7c0,0,14.6-11.2,19.4-16s6.2,13.3,19.7,19.1s12.6,9.9,19.1,8.8
		c6.5-1,7.5-3.1,9.2-6.8c1.8-3.7,9.2,20.4,2.7,31"/>
	
		<path style="clip-path:url(#SVGID_00000114788728264181760390000009208921986609226675_);fill:none;stroke:#FFA300;stroke-width:3;stroke-linecap:round;stroke-linejoin:round;" d="
		M106,181.3l-5.1,1.7v9.5h4.8c0,0,6.2,2,10.2,0c0,0,10.6,1.3,9.5-4.3c-1-5.6-7.4-17.1-12.2-38.2s-9.2-11.6-13.7-10.9
		c-4.4,0.7-8.2-11.6-11.2-16.8c4.6,8-16-4.5-3.2-31.2c5.1-10.6,7-11.6,7-11.6s8.2,21.5,16.5,25.9s13.6-20.2,16-24.3
		c0,0,9.2-2.4,11.9-14.6c0,0,6.2-9.5-3.4-15c0,0,1.4,8.8-1.4,11.2c0,0-0.3-10.2-9.2-11.2c0,0,5.8,6.8,4.1,12.6
		c0,0-5.8-12.9-12.6-1.4c0,0,7.8-1,6.5,5.1c0,0-2.7,4.8-2.4,8.2c0.3,3.4,1,6.7-2,6.7s-1.3,8.4-2.8,10.5c0,0,4.6-10.9-2.9-17.4
		c0,0,5.3-23-16-23"/>
	
		<line style="clip-path:url(#SVGID_00000114788728264181760390000009208921986609226675_);fill:none;stroke:#FFA300;stroke-width:2;stroke-linecap:round;stroke-linejoin:round;" x1="12" y1="185.7" x2="12" y2="191.9"/>
	
		<path style="clip-path:url(#SVGID_00000114788728264181760390000009208921986609226675_);fill:none;stroke:#FFA300;stroke-width:2;stroke-linecap:round;stroke-linejoin:round;" d="
		M21.2,185.7c0,0-2.5,5,2.2,6.7"/>
	
		<path style="clip-path:url(#SVGID_00000114788728264181760390000009208921986609226675_);fill:none;stroke:#FFA300;stroke-width:2;stroke-linecap:round;stroke-linejoin:round;" d="
		M106.6,187.2c0,0,0.9,5.3,0,5.3"/>
	
		<line style="clip-path:url(#SVGID_00000114788728264181760390000009208921986609226675_);fill:none;stroke:#FFA300;stroke-width:2;stroke-linecap:round;stroke-linejoin:round;" x1="115.4" y1="187.3" x2="115.4" y2="192.5"/>
	
		<path style="clip-path:url(#SVGID_00000114788728264181760390000009208921986609226675_);fill:none;stroke:#FFA300;stroke-width:2;stroke-linecap:round;stroke-linejoin:round;" d="
		M17.5,131.3c0,0,8.4,0.4,7.4,0c-1-0.4-1.5,4.8-1.5,4.8h8v6.5l6.8-4.1l-2.2,6.8"/>
	
		<polyline style="clip-path:url(#SVGID_00000114788728264181760390000009208921986609226675_);fill:none;stroke:#FFA300;stroke-width:2;stroke-linecap:round;stroke-linejoin:round;" points="
		69.8,145 79.7,145 78.1,141.5 87.2,145 87.2,138.3 96.4,138.3 	"/>
	
		<line style="clip-path:url(#SVGID_00000114788728264181760390000009208921986609226675_);fill:none;stroke:#FFA300;stroke-width:3;stroke-linecap:round;stroke-linejoin:round;" x1="46.4" y1="110.5" x2="81" y2="110.5"/>
	
		<path style="clip-path:url(#SVGID_00000114788728264181760390000009208921986609226675_);fill:none;stroke:#FFA300;stroke-width:2;stroke-linecap:round;stroke-linejoin:round;" d="
		M42,118.5c1.7-2,4.6-2.3,6.7-0.7c0.2,0.2,0.5,0.4,0.7,0.7c0,0,6.2-4.3,9.4-1.8c3.2,2.5,4.6-0.7,4.6-0.7s0.3-2.7,3.7-0.1
		c3.4,2.6,7.7,6.4,7.7,6.4s0.2-2.5,4.6-6.7"/>
	
		<path style="clip-path:url(#SVGID_00000114788728264181760390000009208921986609226675_);fill:none;stroke:#FFA300;stroke-width:3;stroke-linecap:round;stroke-linejoin:round;" d="
		M43.1,64.4c0,0-3.1,11,7.2,13.7c2.8,0.7,5.7,0.5,8.3-0.8c2.7-1.3,5.9-1.3,8.6,0.1c2.9,1.7,6.2,2.4,9.6,2.1c5.8-0.8,11.2-3.6,15.2-8
		"/>
	
		<path style="clip-path:url(#SVGID_00000114788728264181760390000009208921986609226675_);fill:none;stroke:#FFA300;stroke-width:3;stroke-linecap:round;stroke-linejoin:round;" d="
		M96.7,57.8c2.4,0.7,9.5,4.1,9.9,14.3"/>
	
		<line style="clip-path:url(#SVGID_00000114788728264181760390000009208921986609226675_);fill:none;stroke:#FFA300;stroke-width:2;stroke-linecap:round;stroke-linejoin:round;" x1="45.3" y1="82.4" x2="46.1" y2="88.7"/>
</g>
</svg>
