<?xml version="1.0" encoding="utf-8"?>
<!-- Generator: Adobe Illustrator 25.4.1, SVG Export Plug-In . SVG Version: 6.00 Build 0)  -->
<svg version="1.1" id="Layer_1" xmlns="http://www.w3.org/2000/svg" xmlns:xlink="http://www.w3.org/1999/xlink" x="0px" y="0px"
	 viewBox="0 0 64 64" style="enable-background:new 0 0 64 64;" xml:space="preserve">
<style type="text/css">
	.st0{fill:#FFFFFF;}
</style>
<g>
	<path class="st0" d="M57.2,40.9c0.3,0.1,0.6,0.1,0.8,0c0.3-0.1,0.5-0.3,0.5-0.6c1.5-4.7,1.7-9.7,0.6-14.6
		C57.4,18.5,53,12.4,46.7,8.4c-6.3-3.9-13.7-5.2-21-3.5C18.5,6.6,12.4,11,8.4,17.3c-3.9,6.3-5.2,13.7-3.5,21C7.9,51,19,59.8,32,59.8
		c0,0,0.1,0,0.1,0c0.4,0,0.7-0.2,0.9-0.5c0.2-0.3,0.1-0.7-0.1-1c-3.7-5.2-4.8-12.3-4.8-12.4c0-0.3-0.2-0.5-0.4-0.7
		c-0.2-0.2-0.5-0.2-0.8-0.1L26,45.2c1.6-3.7,1.2-8.9,0.6-11.2c-0.1-0.4-0.4-0.7-0.8-0.7c-0.4-0.1-0.8,0.1-1,0.5l-0.5,0.8
		c-0.2-2.7-1.2-5.1-1.7-6.3c-0.3-0.6-0.5-1-0.7-1.4c-0.4-0.9-0.7-1.4-1-3c-0.2-1,0-2,0.2-2.6l3.2,2.5c0.4,0.3,0.9,0.3,1.2,0
		c0.4-0.3,0.5-0.8,0.3-1.2c-0.5-0.9-1.7-3.7-1.8-5.5c-0.1-1.2,1.1-2.7,1.9-3.6c3.2,2.6,6.4,5.3,6.8,5.8c0.5,0.8,2.7,4,2.8,4.1
		c0.2,0.2,0.4,0.4,0.7,0.4c1.1,0.1,4.4,0.8,5.5,1.9c0.8,0.7,1.6,2.5,2.2,3.8c0.7,1.5,1.2,2.5,1.8,3c1.2,1.2,5.4,3,7.5,3.9
		c-0.6,0.6-1.5,1.4-3,1.8c-0.5,0.1-0.8,0.6-0.8,1.1c0.1,0.5,0.6,0.9,1.1,0.8C50.8,40.2,54.6,39.8,57.2,40.9z M47.2,31.1
		c-0.3-0.3-0.9-1.5-1.3-2.5c-0.8-1.6-1.6-3.4-2.6-4.4c-1.5-1.5-5-2.2-6.2-2.4c-0.6-0.9-2.2-3.1-2.5-3.7c-0.5-0.8-5.2-4.6-7.9-6.8
		c-0.4-0.3-0.9-0.3-1.3,0c-0.3,0.3-3.4,3-3.2,5.8c0.1,0.9,0.3,1.8,0.6,2.8l-1.3-1c-0.2-0.2-0.5-0.2-0.8-0.2c-0.3,0-0.5,0.2-0.7,0.4
		c-0.1,0.1-1.5,2.2-1,5.1c0.4,1.9,0.7,2.6,1.2,3.5c0.2,0.4,0.4,0.8,0.6,1.3c0.7,1.7,2.3,5.9,1.2,9.4c-0.1,0.5,0.1,1,0.6,1.2
		c0.5,0.2,1,0,1.3-0.4l1.2-2.1c0.2,3-0.1,7-2,9c-0.3,0.3-0.4,0.8-0.1,1.2c0.2,0.4,0.7,0.6,1.1,0.5l2.3-0.6c0.4,2,1.5,6.5,3.9,10.5
		C18.9,57,9.5,49,6.9,37.8c-1.6-6.7-0.4-13.6,3.2-19.5c3.6-5.8,9.4-9.9,16.1-11.5c1.9-0.5,3.9-0.7,5.9-0.7c4.8,0,9.5,1.3,13.6,3.9
		c5.8,3.6,9.9,9.4,11.5,16.1c1,4.1,0.9,8.5-0.2,12.5c-0.8-0.2-1.7-0.4-2.5-0.5c0.9-0.9,1.4-1.8,1.4-1.8c0.1-0.2,0.1-0.5,0-0.8
		c-0.1-0.3-0.3-0.5-0.6-0.6C52.7,34,48.2,32,47.2,31.1z"/>
</g>
</svg>
