<?xml version="1.0" encoding="utf-8"?>
<!-- Generator: Adobe Illustrator 25.4.1, SVG Export Plug-In . SVG Version: 6.00 Build 0)  -->
<svg version="1.1" id="Layer_1" xmlns="http://www.w3.org/2000/svg" xmlns:xlink="http://www.w3.org/1999/xlink" x="0px" y="0px"
	 viewBox="0 0 108 132.2" style="enable-background:new 0 0 108 132.2;" xml:space="preserve">
<style type="text/css">
	.st0{fill:none;stroke:#FF9D00;stroke-width:4;stroke-miterlimit:10;}
</style>
<path class="st0" d="M7.9,64.9l-0.8,4.8c-0.2,1.1,0.6,2.1,1.7,2.3c0.4,0.1,0.9,0,1.3-0.2l4-2.2l4,2.2c1,0.5,2.2,0.2,2.7-0.8
	c0.2-0.4,0.3-0.8,0.2-1.3l-0.8-4.8l3.3-3.4c0.8-0.8,0.8-2.1,0-2.8c-0.3-0.3-0.7-0.5-1.1-0.5l-4.5-0.7l-2-4.3c-0.5-1-1.7-1.4-2.7-1
	c-0.4,0.2-0.8,0.5-1,1l-2,4.3l-4.5,0.7c-1.1,0.2-1.8,1.2-1.7,2.3c0.1,0.4,0.3,0.8,0.5,1.1L7.9,64.9z"/>
<path class="st0" d="M30.4,30.6l-0.7,4.1c-0.2,1.1,0.6,2.1,1.7,2.3c0.4,0.1,0.9,0,1.3-0.2l3.4-1.9l3.4,1.9c0.7,0.4,1.5,0.3,2.1-0.1
	c0.6-0.4,0.9-1.2,0.8-2l-0.7-4.1l2.8-2.9c0.8-0.8,0.8-2.1,0-2.8c-0.3-0.3-0.7-0.5-1.1-0.5l-3.8-0.6l-1.7-3.6c-0.5-1-1.7-1.4-2.7-1
	c-0.4,0.2-0.8,0.5-1,1l-1.7,3.6l-3.8,0.6c-1.1,0.2-1.8,1.2-1.7,2.3c0.1,0.4,0.3,0.8,0.5,1.1L30.4,30.6z"/>
<path class="st0" d="M2.8,130c0.7,0.5,41.7,0,69.1,0c-0.6,0-1.1-0.2-1.5-0.7c-2.3-2.7-3.1-6.4-2.2-9.9c0.3-1.1,1.4-1.7,2.5-1.4
	c1.1,0.3,1.7,1.4,1.4,2.5c-0.5,2.1,0,4.4,1.4,6.1c0.7,0.8,0.6,2.1-0.2,2.8c-0.4,0.3-0.8,0.5-1.3,0.5h2.6c9.2,0,14.8,0.7,17.9-4.9
	c4.2-7.6,6.7-17.3,7.2-26.5c0.4,0.5,0.8,0.9,1.3,1.3c0.8,0.7,2.1,0.7,2.8-0.1c0.7-0.8,0.7-2.1-0.1-2.8c0,0,0,0,0,0
	c-1.9-1.8-2.9-4.4-3.8-6.8c0-1.2,0-2.3-0.1-3.4c0.4,0.4,0.8,0.8,1.2,1.2c0.8,0.7,2.1,0.7,2.8-0.1s0.7-2.1-0.1-2.8
	c-2.3-2.3-4-5.1-4.8-8.2c-0.2-1.4-0.5-2.8-0.8-4.5c-3.8-18.3,4.1-36.8,5.4-39.6c4.5-4.9,1.9-13.3,1.8-13.7c-0.4-1.1-1.5-1.6-2.6-1.3
	c-0.2,0.1-0.4,0.2-0.6,0.3l-1.3,1c1.2-5.4,0.9-9.8-0.9-12.9c-1.1-2-3-3.5-5.2-4.1c-0.8-0.1-1.5,0.2-2,0.8
	c-4.8,6.6-18.4,17.4-21.1,19.4c-0.2,0.1-0.3,0.2-0.5,0.2c-12.6,1.7-16.9,13-18,16.9c-4.6,1.7-8.3,8-9,9.4c-3,3.8-6.2,4.2-6.3,4.2
	c-1.1,0.1-1.9,1-1.9,2.1c0,0.6,0.3,1.1,0.8,1.5c2.9,2.2,6.5,3.3,10.1,3.3c2.7-0.1,5.3-0.8,7.6-2.2c1-0.5,2.2-0.2,2.7,0.8
	s0.2,2.2-0.8,2.7c-3,1.7-6.5,2.7-10,2.7c-0.7,0-1.4,0-2.1-0.1c-2,8.2-7.6,24.1-21.1,29.3c-1,0.4-1.6,1.5-1.2,2.6
	c0.1,0.4,0.4,0.7,0.8,1c2.6,1.7,5.7,2.5,8.8,2.5c2.3-0.1,4.6-0.6,6.7-1.4c1-0.4,2.2,0.1,2.6,1.1c0.1,0.3,0.2,0.6,0.1,0.9
	c-0.3,3.2-1.5,6.2-3.4,8.7c5.7-0.4,11.3-1.7,16.5-3.9c1-0.4,2.2,0,2.6,1c0.1,0.3,0.2,0.5,0.2,0.8c-0.1,3.2-1.1,6.3-3,8.9
	c4.2-0.1,8.3-1.3,11.8-3.7c0.9-0.6,2.2-0.4,2.8,0.5s0.4,2.2-0.5,2.8l0,0c-4.4,3-9.6,4.5-14.8,4.4c-1.8,0-3.6-0.2-5.4-0.5
	c-1.1-0.3-1.7-1.3-1.5-2.4c0.2-0.7,0.7-1.2,1.3-1.4c2.4-0.9,4.2-2.9,4.8-5.4c-6.4,2.3-13.3,3.3-20.1,3c-1.1-0.1-1.9-1.1-1.8-2.2
	c0.1-0.6,0.4-1.2,0.9-1.5c2.3-1.5,4-3.6,4.9-6.2c-4.3,1.1-8.8,0.7-12.9-1c-7.6,7.9-14.7,16.4-21.2,25.2C1.7,127.7,1.9,129.1,2.8,130
	z M81.9,58.6c0.2-1.1,1.3-1.8,2.4-1.5c1.1,0.2,1.8,1.3,1.5,2.4c-0.5,3-0.3,6.1,0.6,9c0.3,1.1-0.3,2.2-1.4,2.5
	c-0.2,0-0.4,0.1-0.6,0.1c-0.9,0-1.7-0.6-1.9-1.4C81.5,66,81.3,62.2,81.9,58.6z M68.5,38c-0.2,0.2-0.6-0.2-0.6-0.5
	c0.1-2-0.4-6.5,7.6-7.5c0.3,0,0.6,0.6,0.4,0.8L68.5,38z"/>
</svg>
