<?xml version="1.0" encoding="utf-8"?>
<!-- Generator: Adobe Illustrator 25.4.1, SVG Export Plug-In . SVG Version: 6.00 Build 0)  -->
<svg version="1.1" id="Layer_1" xmlns="http://www.w3.org/2000/svg" xmlns:xlink="http://www.w3.org/1999/xlink" x="0px" y="0px"
	 viewBox="0 0 545 128" style="enable-background:new 0 0 545 128;" xml:space="preserve">
<style type="text/css">
	.st0{fill:#F0B90B;}
</style>
<path class="st0" d="M28.9,64L14.5,78.5L0,64l14.5-14.5L28.9,64z M64,28.9l24.8,24.8l14.5-14.5L64,0L24.8,39.2l14.5,14.5L64,28.9z
	 M113.5,49.5L99.1,64l14.5,14.5L128,64L113.5,49.5z M64,99.1L39.2,74.3L24.8,88.8L64,128l39.2-39.2L88.8,74.3L64,99.1z M64,78.5
	L78.5,64L64,49.5L49.5,64L64,78.5z M208.7,50.7v-0.2c0-7.5-4-11.3-10.5-13.8c4-2.2,7.4-5.8,7.4-12.1v-0.2c0-8.8-7.1-14.5-18.5-14.5
	H161v56.2h26.7C200.4,66.1,208.7,61,208.7,50.7z M193.3,26.7c0,4.2-3.5,5.9-8.9,5.9H173V20.8h12.2c5.2,0,8.1,2.1,8.1,5.8V26.7z
	 M196.5,49.2c0,4.2-3.3,6.1-8.7,6.1H173V42.9h14.3c6.3,0,9.1,2.3,9.1,6.1V49.2z M234.7,66.1V9.9h-12.4v56.2H234.7z M301.1,66.1V9.9
	h-12.2v34.6L262.6,9.9h-11.4v56.2h12.2V30.4l27.2,35.7H301.1z M369.6,66.1L345.5,9.5h-11.4L310,66.1h12.6l5.1-12.6h23.8l5.1,12.6
	H369.6z M347.1,42.6h-14.9l7.5-18.2L347.1,42.6z M428.5,66.1V9.9h-12.2v34.6L389.9,9.9h-11.4v56.2h12.2V30.4L418,66.1H428.5z
	 M492.3,57l-7.9-7.9c-4.4,4-8.3,6.6-14.8,6.6c-9.6,0-16.3-8-16.3-17.7v-0.2c0-9.6,6.8-17.5,16.3-17.5c5.6,0,10,2.4,14.4,6.3l7.9-9.1
	c-5.2-5.1-11.6-8.7-22.1-8.7c-17.3,0-29.3,13.1-29.3,29.1v0.2c0,16.1,12.3,28.9,28.8,28.9C480.1,67.1,486.5,63.2,492.3,57z
	 M545,66.1v-11h-30.5V43.3H541v-11h-26.5V20.9h30.1v-11h-42.4v56.2H545z M166.6,93.2c0-2.5,2.2-4.5,6.1-4.5c3.4,0,6.8,1.3,10.2,3.8
	l3.5-5c-3.8-3-8.1-4.7-13.6-4.7c-7.4,0-12.8,4.4-12.8,10.9c0,6.9,4.5,9.3,12.5,11.2c6.9,1.6,8.4,3,8.4,5.8c0,2.9-2.6,4.8-6.6,4.8
	c-4.6,0-8.2-1.8-11.8-4.9l-4,4.7c4.5,4,9.9,6,15.6,6c7.9,0,13.4-4.2,13.4-11.2c0-6.3-4.1-9.1-12-11
	C168.3,97.5,166.6,96.2,166.6,93.2z M225.4,94v26.8h6.6V83.5h-7l-11.4,17.7l-11.4-17.7h-7v37.4h6.5V94.1l11.7,17.5h0.2L225.4,94z
	 M260.9,83.2h-6.1l-16.5,37.7h6.7l3.8-9h17.7l3.8,9h6.9L260.9,83.2z M264.3,106h-12.9l6.4-15L264.3,106z M315.6,120.9l-10.1-14.2
	c5.2-1.4,8.9-5.2,8.9-11.4c0-7.3-5.3-11.9-13.9-11.9h-16.7v37.4h6.6v-13h8.2l9.2,13H315.6z M307.7,95.7c0,3.8-3,6.3-7.7,6.3h-9.6
	V89.4h9.6C304.8,89.4,307.7,91.6,307.7,95.7z M338.1,89.6H350v-6.1h-30.4v6.1h11.9v31.3h6.6V89.6z M405.5,114.9l-4.2-4.3
	c-3.2,3-6.1,4.9-10.7,4.9c-7.2,0-12.3-6-12.3-13.4c0-7.4,5.2-13.3,12.3-13.3c4.3,0,7.5,1.9,10.5,4.6l4.2-4.9
	c-3.6-3.4-7.7-5.8-14.6-5.8c-11.3,0-19.3,8.7-19.3,19.4c0,10.8,8.1,19.3,19,19.3C397.3,121.5,401.6,118.9,405.5,114.9z M436.8,105.1
	v15.8h6.6V83.5h-6.6V99H419V83.5h-6.6v37.4h6.6v-15.8H436.8z M472.4,83.2h-6.1l-16.5,37.7h6.7l3.8-9h17.7l3.8,9h6.9L472.4,83.2z
	 M475.7,106h-12.9l6.4-15L475.7,106z M495.6,83.5v37.4h6.6V83.5H495.6z M538.3,109.3l-20-25.9h-6.1v37.4h6.5V94.3l20.6,26.6h5.5
	V83.5h-6.5V109.3z"/>
</svg>
