<?xml version="1.0" encoding="utf-8"?>
<!-- Generator: Adobe Illustrator 25.4.1, SVG Export Plug-In . SVG Version: 6.00 Build 0)  -->
<svg version="1.1" id="Layer_1" xmlns="http://www.w3.org/2000/svg" xmlns:xlink="http://www.w3.org/1999/xlink" x="0px" y="0px"
	 viewBox="0 0 30 20" style="enable-background:new 0 0 30 20;" xml:space="preserve">
<style type="text/css">
	.st0{fill:#FFFFFF;}
</style>
<g id="blockchain">
	<g>
		<path class="st0" d="M5.6,20H0.5C0.2,20,0,19.8,0,19.5S0.2,19,0.5,19h4.8l5.2-9l-1-1.7c-0.1-0.2,0-0.5,0.3-0.7
			c0.2-0.1,0.5-0.1,0.7,0.2l1.1,1.9c0.1,0.2,0.1,0.3,0,0.5l-5.5,9.5C6,19.9,5.8,20,5.6,20z M4.4,18H0.5C0.2,18,0,17.8,0,17.5
			S0.2,17,0.5,17h3.7l4.1-7.2C8.4,9.5,8.7,9.4,9,9.6c0.2,0.1,0.3,0.4,0.2,0.7l-4.3,7.5C4.8,17.9,4.6,18,4.4,18z M5.3,4.5
			c-0.2,0-0.3,0-0.4-0.2L4.2,3H0.5C0.2,3,0,2.8,0,2.5S0.2,2,0.5,2h3.9c0.2,0,0.3,0.1,0.4,0.3l0.9,1.5C5.9,4,5.8,4.3,5.6,4.5
			C5.5,4.5,5.4,4.5,5.3,4.5z M6.5,2.5c-0.2,0-0.3-0.1-0.4-0.2L5.3,1H0.5C0.2,1,0,0.8,0,0.5S0.2,0,0.5,0h5.1C5.8,0,6,0.1,6.1,0.2
			L7,1.7C7.1,2,7,2.3,6.8,2.4C6.7,2.5,6.6,2.5,6.5,2.5z"/>
	</g>
	<g>
		<path class="st0" d="M20.6,20h-11c-0.2,0-0.3-0.1-0.4-0.2l-0.9-1.6c-0.1-0.2-0.1-0.5,0.2-0.7c0.2-0.1,0.5-0.1,0.7,0.2L10,19h10.4
			l5.2-9l-1-1.7c-0.1-0.2-0.1-0.5,0.2-0.7c0.2-0.1,0.5-0.1,0.7,0.2l1.1,1.9c0.1,0.2,0.1,0.3,0,0.5l-5.5,9.5C21,19.9,20.8,20,20.6,20
			z M19.4,18h-8.6c-0.2,0-0.3-0.1-0.4-0.3l-0.9-1.5c-0.1-0.2-0.1-0.5,0.2-0.7c0.2-0.1,0.5-0.1,0.7,0.2l0.7,1.3h8l4.1-7.2
			c0.1-0.2,0.4-0.3,0.7-0.2c0.2,0.1,0.3,0.4,0.2,0.7l-4.3,7.5C19.8,17.9,19.6,18,19.4,18z M5.3,12.4c-0.2,0-0.3-0.1-0.4-0.2
			l-1.1-1.9c-0.1-0.2-0.1-0.3,0-0.5l5.5-9.5C9.3,0.1,9.5,0,9.7,0h11c0.2,0,0.3,0.1,0.4,0.2L22,1.7c0.1,0.3,0,0.6-0.2,0.8
			c-0.2,0.1-0.5,0.1-0.7-0.2L20.3,1H10l-5.2,9l0.9,1.6c0.1,0.2,0.1,0.5-0.2,0.7C5.5,12.4,5.4,12.4,5.3,12.4z M6.6,10.5
			c-0.1,0-0.2,0-0.2-0.1C6.1,10.3,6,10,6.1,9.8l4.3-7.5C10.5,2.1,10.7,2,10.9,2h8.6c0.2,0,0.3,0.1,0.4,0.3l0.9,1.5
			c0.1,0.2,0.1,0.5-0.2,0.7c-0.2,0.1-0.5,0.1-0.7-0.2L19.1,3h-8L7,10.2C6.9,10.4,6.8,10.5,6.6,10.5z"/>
	</g>
	<g>
		<path class="st0" d="M29.5,20h-4.8c-0.2,0-0.3-0.1-0.4-0.2l-0.9-1.5c-0.1-0.2-0.1-0.5,0.2-0.7c0.2-0.1,0.5-0.1,0.7,0.2L25,19h4.5
			c0.3,0,0.5,0.2,0.5,0.5S29.8,20,29.5,20z M29.5,18h-3.6c-0.2,0-0.3-0.1-0.4-0.3l-0.9-1.5c-0.1-0.2-0.1-0.5,0.2-0.7
			c0.2-0.1,0.5-0.1,0.7,0.2l0.7,1.3h3.3c0.3,0,0.5,0.2,0.5,0.5S29.8,18,29.5,18z M20.5,12.7c-0.2,0-0.3-0.1-0.4-0.2l-1.3-2.2
			c-0.1-0.2-0.1-0.3,0-0.5l5.5-9.5c0-0.2,0.2-0.3,0.4-0.3h4.8C29.8,0,30,0.2,30,0.5S29.8,1,29.5,1H25l-5.2,9l1.1,2
			c0.1,0.2,0.1,0.5-0.2,0.7C20.7,12.7,20.6,12.7,20.5,12.7z M21.6,10.5c-0.1,0-0.2,0-0.2-0.1c-0.2-0.1-0.3-0.4-0.2-0.7l4.3-7.5
			c0-0.1,0.2-0.2,0.4-0.2h3.6C29.8,2,30,2.2,30,2.5S29.8,3,29.5,3h-3.3L22,10.2C21.9,10.4,21.8,10.5,21.6,10.5z"/>
	</g>
</g>
</svg>
