<?xml version="1.0" encoding="utf-8"?>
<!-- Generator: Adobe Illustrator 25.4.1, SVG Export Plug-In . SVG Version: 6.00 Build 0)  -->
<svg version="1.1" id="Layer_1" xmlns="http://www.w3.org/2000/svg" xmlns:xlink="http://www.w3.org/1999/xlink" x="0px" y="0px"
	 viewBox="0 0 128 128" style="enable-background:new 0 0 128 128;" xml:space="preserve">
<style type="text/css">
	.st0{fill:#FFB600;}
</style>
<polygon class="st0" points="58.6,6.4 58.6,7.9 58.3,9.8 57.9,11.7 58.1,13.6 57.5,15.5 57.9,17.4 57.7,19.4 57.1,21.2 56.5,23 
	56,24.9 55.9,26.8 55.3,28.7 55.6,30.7 55,32.5 54.6,34.4 53.6,36.2 53.7,38.1 52.9,39.9 52.3,41.7 52,43.6 51.4,45.5 50.5,47.2 
	49.3,48.8 49,50.7 48.3,52.6 47.9,54.4 46.9,56.1 46.6,57.9 45.2,59.5 44.7,61.3 44.7,63.5 43.2,64.7 42.9,66.7 41.7,68.5 
	41.3,70.1 40.7,72.2 39.3,73.3 38.9,75.2 38.1,76.9 36.8,78.4 36.3,80.2 35.4,81.8 34.5,83.5 34,85.3 32.7,86.8 31.6,88.3 30.8,90 
	30,91.7 28.9,93.2 28,94.9 27,96.5 25.7,97.9 25.1,99.7 23.9,101.2 23.1,102.9 21.7,104.2 20.6,105.7 19.8,106.8 21.1,106.1 
	22.1,104.5 23.9,103.7 24.8,101.9 26.6,101.2 27.4,99.3 29.2,98.5 29.9,96.6 31.1,95.2 32.5,93.9 34,92.8 35,91.2 36.5,90 
	37.6,88.5 38.5,86.8 39.8,85.5 40.5,83.7 41.8,82.3 43.2,81 43.8,79.2 44.5,77.4 46,76.2 46.3,74.2 47.8,72.9 48.3,71 49.3,69.5 
	50.7,68.3 51,66.1 51.5,64.3 52.7,62.8 53.5,61.1 53.4,59.1 54.4,57.4 55.2,55.7 55.3,53.8 55.7,52 56.9,50.4 57,48.5 57.4,46.7 
	57.4,44.8 57.6,43 58,41.2 58.2,39.3 58.7,37.5 59.4,35.7 58.8,33.8 59.8,32 59.8,30.1 59.1,28.2 59.8,26.4 59.7,24.5 59.9,22.6 
	59.3,20.8 59.5,19 59.8,17.1 59.2,15.2 59.4,13.3 59.1,11.6 59.1,9.8 59,7.9 "/>
<polygon class="st0" points="106.9,19.8 107,22.4 106.6,24.9 106,27 106.2,29 105.6,30.8 105.7,32.8 105,34.6 104.6,36.5 
	104.5,38.4 103.7,40.2 103.3,42.1 103.2,44 101.9,45.7 102,47.7 100.9,49.4 101.3,51.3 100.3,53.3 99.1,54.7 98.8,56.8 98.2,58.7 
	96.8,60.2 96.9,62.3 95.3,63.7 95.3,65.8 94.2,67.4 93.3,69.2 92.8,71 91.4,72.5 91.4,74.6 89.7,75.9 88.9,77.6 88.7,79.6 
	87.4,80.6 86.9,82.9 85.5,84.3 85.3,86.3 84,87.8 83.7,89.4 81.8,90.8 81.1,92.7 79.8,94 79.4,96 78.8,97.7 77.2,99.1 76.5,100.7 
	74.8,102 74,103.8 72.7,105.2 72.2,107.1 70.6,108.4 69.9,110.2 68.2,111.3 67.6,113.2 65.9,114.1 64.9,115.9 62.5,118.1 
	65.6,116.6 66.8,115.2 68.7,114.4 69.6,112.7 71.3,111.7 73.3,110.9 74.4,109.3 76,108.3 76.7,106.6 78.4,105.8 79.3,103.8 
	80.8,103.1 82,101.2 83.8,100.4 84.8,98.7 85.7,97 86.9,95.5 88.5,94.4 89.3,92.7 91,91.7 91.6,89.7 92.8,88.5 93.2,86.1 94.9,85.1 
	95.1,83.2 96.5,81.6 96.8,79.8 98.4,78.3 98.6,76.5 100.2,75 100.4,73.1 100.8,71.2 102.2,69.5 102.3,67.7 103.1,66 103.2,64.1 
	104.3,62.4 104.3,60.5 105.4,58.8 105.1,56.8 106.3,55.1 105.9,53.1 106.9,51.4 106.4,49.4 106.7,47.5 107.2,45.7 107.7,43.8 
	107.7,41.9 108.2,40 108.2,38.2 107.9,36.3 108.2,34.4 107.8,32.5 108,30.6 107.9,28.8 107.7,26.8 107.9,25 107.8,22.8 "/>
<polygon class="st0" points="83.6,0 83.7,2.2 83.1,3.9 83,5.8 83.2,7.7 82.3,9.5 82.2,11.4 81.9,13.3 82.1,15.2 81.4,17 81.7,19 
	81.4,20.9 81.5,22.9 80.7,24.6 79.9,26 79.9,28.3 79,30 79.1,32 78.2,33.7 77.8,35.6 77.4,37.4 77.5,39.4 76.6,41.1 76.3,43 
	76,44.9 74.8,46.5 74.6,48.4 73.6,50.1 73.2,51.9 72.9,53.8 72,55.6 71.6,57.4 71,59.2 69.7,60.8 69.6,62.8 68.3,64.3 67.8,66.1 
	67.6,68.1 66.9,69.9 65.3,71.2 64.9,73.1 64.5,74.9 63.3,76.5 62.7,78.3 61.4,79.7 60.3,81.2 60.1,83.3 58.8,84.7 57.9,86.3 
	57.4,88.2 56.3,89.7 55.2,91.3 54.4,93 52.8,94.1 51.6,95.6 50.9,97.4 50.2,99.2 48.8,100.5 47.8,102.1 46.9,103.7 45.5,105 
	44.5,106.6 43.6,108.3 41.9,109.4 41.3,111.2 39.7,112.4 38.9,114.2 37.8,115.7 36.4,117 35.3,118.4 34.1,119.9 32.3,120.8 
	31.5,122.7 29.9,123.5 29.1,125.5 27.6,126.6 26.2,128 27.8,127 29.7,126.2 30.8,124.6 32.8,124.1 34.3,122.9 35.4,121.2 
	36.9,120.1 38.4,118.8 40.2,118.1 41.1,116.3 42.9,115.4 44.4,114.2 45.9,113.1 47.1,111.5 48.7,110.5 49.6,108.7 50.9,107.3 
	52.4,106.1 53.8,104.9 55.2,103.6 56.2,101.9 57.6,100.6 58.3,98.7 59.9,97.9 60.6,95.7 62.1,94.7 62.8,92.6 64.6,91.8 65.2,89.7 
	66,87.9 67.6,87 68.3,84.9 69.7,83.5 70.3,81.7 71.2,80 72.6,78.9 73,76.7 74.3,75.4 74.8,73.3 75.9,71.7 75.8,69.6 76.4,67.8 
	77.4,66.2 77.6,64.1 78.8,63 79.2,60.6 79.8,58.8 79.9,56.9 80.4,55 81.3,53.3 81.4,51.3 81.8,49.5 82.2,47.6 82.2,45.7 83,43.9 
	83.5,42 83.2,40.3 83.6,38.2 84.4,36.3 84.2,34.4 84.3,32.5 84.8,30.6 84.4,28.7 84.3,26.8 84.5,24.9 84.9,23 84.9,21.1 84.4,19.2 
	85,17.2 84.5,15.4 85.1,13.4 84.3,11.6 85,9.6 84.5,7.8 84.7,5.8 84,4.1 84.3,2.1 "/>
</svg>
