<?xml version="1.0" encoding="utf-8"?>
<!-- Generator: Adobe Illustrator 25.4.1, SVG Export Plug-In . SVG Version: 6.00 Build 0)  -->
<svg version="1.1" id="Layer_1" xmlns="http://www.w3.org/2000/svg" xmlns:xlink="http://www.w3.org/1999/xlink" x="0px" y="0px"
	 viewBox="0 0 664.6 664.6" style="enable-background:new 0 0 664.6 664.6;" xml:space="preserve">
<style type="text/css">
	.st0{fill:#D53841;}
	.st1{clip-path:url(#SVGID_00000098928619050961883510000001463834917235269543_);}
	.st2{clip-path:url(#SVGID_00000145039313469720837960000016338630702791196294_);fill:#AD2F3B;}
	.st3{clip-path:url(#SVGID_00000022532136603207540520000004796418897116524457_);}
	.st4{fill:#17191B;}
	.st5{clip-path:url(#SVGID_00000163781611281189598390000015918631418309471363_);}
	.st6{clip-path:url(#SVGID_00000151519948542707667560000000269579428672283793_);}
	.st7{clip-path:url(#SVGID_00000054948241567361569520000013905064044672174485_);fill:none;}
	.st8{clip-path:url(#SVGID_00000002358321206365106810000002026408667045636737_);}
	.st9{fill:none;}
	.st10{fill:none;stroke:#000000;stroke-width:11;stroke-miterlimit:10;}
</style>
<g>
	<circle class="st0" cx="332.3" cy="332.3" r="326.8"/>
	<g>
		<g>
			<defs>
				<circle id="SVGID_1_" cx="332.3" cy="332.3" r="326.8"/>
			</defs>
			<clipPath id="SVGID_00000101080769935741064080000013154493124445512853_">
				<use xlink:href="#SVGID_1_"  style="overflow:visible;"/>
			</clipPath>
			<g style="clip-path:url(#SVGID_00000101080769935741064080000013154493124445512853_);">
				<g>
					<defs>
						<circle id="SVGID_00000052081258602068484350000017688187066418491298_" cx="331.2" cy="329.5" r="326.8"/>
					</defs>
					<clipPath id="SVGID_00000120546522417799441260000008031937405786588596_">
						<use xlink:href="#SVGID_00000052081258602068484350000017688187066418491298_"  style="overflow:visible;"/>
					</clipPath>
					<path style="clip-path:url(#SVGID_00000120546522417799441260000008031937405786588596_);fill:#AD2F3B;" d="M724.9,659.1
						c-293.5,0-724-145.8-646.4-599.2L-236.1,207l126.7,747.5L724.9,659.1z"/>
				</g>
			</g>
		</g>
		<g>
			<defs>
				<circle id="SVGID_00000000183054429267080450000005629951470657623457_" cx="332.3" cy="332.3" r="326.8"/>
			</defs>
			<clipPath id="SVGID_00000165940113606891681520000010296346210675287188_">
				<use xlink:href="#SVGID_00000000183054429267080450000005629951470657623457_"  style="overflow:visible;"/>
			</clipPath>
		</g>
		<g>
			<defs>
				<circle id="SVGID_00000137100301502968288260000003906701555291465375_" cx="332.3" cy="332.3" r="326.8"/>
			</defs>
			<clipPath id="SVGID_00000043445507801666571460000014935260754786807713_">
				<use xlink:href="#SVGID_00000137100301502968288260000003906701555291465375_"  style="overflow:visible;"/>
			</clipPath>
			<g style="clip-path:url(#SVGID_00000043445507801666571460000014935260754786807713_);">
				<path class="st4" d="M488.6,37.6C470,52.8,444,53.3,420.1,55.5c-18.6,1.7-37,4.8-55.1,9.4c-13.9,3.5-28.8,8.7-36.5,20.8
					c18.9,2.6,38.1,0.8,57.2,0.2c56.4-1.9,113,6,169.1,0.2c-10.3-18.5-20.7-37.1-31-55.6c-4.5-8.1-6.1-13.6-15.8-8.9
					C500.5,25.1,495,32.3,488.6,37.6z"/>
				<path class="st4" d="M577.7,111.5c-5.3,0.5-10.9,1.1-15.5,3.8c-2,1.1-3.8,2.6-5.8,3.5c-4.1,1.7-8.7,1-13.1,1.1
					c-11,0.1-21.9,5.3-28.8,13.9c30.5-0.7,61.1-1.4,91.4-5.5c3.3-0.4-5.2-16.1-7.2-17.3C593.2,107.9,583.9,110.9,577.7,111.5z"/>
			</g>
		</g>
	</g>
</g>
<g>
	<defs>
		<circle id="SVGID_00000160872679226844361270000013115641446271696800_" cx="332.3" cy="332.3" r="326.8"/>
	</defs>
	<clipPath id="SVGID_00000050655979934388294870000017869051093740928386_">
		<use xlink:href="#SVGID_00000160872679226844361270000013115641446271696800_"  style="overflow:visible;"/>
	</clipPath>
	<g style="clip-path:url(#SVGID_00000050655979934388294870000017869051093740928386_);">
		<path d="M470.7,776.8c-2.5-1.6-4.9-3-7.5-4.6c-2.2-1.4-4.3-3-6.7-4c-1.6-0.6-3.7-1-5.4-0.6c-7.6,1.4-14.6-0.2-20.7-5.1
			c-0.5-0.5-1.3-0.6-1.7-1c-7.8-4.1-14.3-9.5-16.1-18.8c-1.7-8.9-8.4-15.1-12.7-22.4c-2.2-3.7-4.6-7.3-7.3-10.5
			c-4-4.9-8.4-9.1-15.3-10c-3-0.5-5.7-2.5-8.6-3.5c-1.6-0.6-3.8-1.6-5.1-1c-8.3,4.6-17.6,4.8-26.5,6.5c-12.7,2.5-25.6,4.6-38.5,6.8
			c-0.3,0-0.5,0.2-0.8,0.2c-8.9-1.3-13.5,3.3-15.9,11.4c-1,3.5-3,6.7-4.9,10.8c11,1.4,20.8,2.9,30.8,4.1c0.6,0,1.6-0.2,1.9-0.6
			c2.4-3.5,4.8-2.1,7.2,0c5.6,4.6,11.6,3,17.8,1.7c3-0.6,6.2-3.2,8.9,0.8c0.2,0.3,1,0,1.6,0c5.2-0.2,10.5-0.6,15.9-0.5
			c4,0,7.9,0.8,12.1,1.3c-0.8,1.4-1.1,2.1-1.3,2.5c1.7,0.6,3.2,1.4,4.8,1.7c1,0.2,1.9,0,2.9-0.3c0.8-0.3,1.6-1.1,2.2-1.6
			c0.5,1,1,2.1,1.4,3.3c-5.2,1.3-10,2.4-15.3,3.7c0.5,1.1,0.6,2.9,1.3,3c6,1.9,12.1,3.7,18.6,5.6c-2.2,3.7-6,4.1-9.5,5.1
			c-2.7,0.6-5.4,0.8-8.1,1.4c-1.3,0.3-2.5,1.6-4,2.5c5.6,2.9,10.5,5.4,15.6,7.9c0,0.5-0.2,0.8-0.2,1.3c-3.5,0.5-7.2,1.6-10.7,1.3
			c-6.2-0.8-8.3,3.7-11.3,7.3c-0.5,0.6-0.8,1.4-1.1,2.4c3.8,3,7.6,6.2,12.1,9.9c-6.2,1.3-11-0.6-15.9-2.2c-1.7-0.5-3.7-0.3-5.6-0.5
			c-2.4,0-5.2,0.8-7.2-0.2c-5.9-2.9-12.1-2.5-18.3-3.3c-4-0.5-7.6-2.2-11.6-2.9c-3.8-0.6-7.8-0.6-11.8-1.1c-5.7-1-11.4-2.4-17.3-3.3
			c-3-0.6-6.2-0.5-9.2-1.4c-3.5-1.1-6.8-3-10.3-4.6c-0.8-0.3-1.7-1-2.7-1c-4.8-0.6-9.5-1-14.1-1.6c-7.3-1-14.6-2.2-21.9-3.2
			c-5.6-0.6-11.3-1.1-17-1.4c-0.5,0-1,1-1.6,1.6c-6-0.5-12.9-1-20-1.6c0.2,0.6,0.3,1.3,0.5,1.9c-0.3,0-0.5,0.2-0.8,0.2
			c-6.8-1.6-13.8-3-20.7-4.6c-3.7-0.8-7.2-0.5-10.8-0.5c-6.8-0.2-13.5-2.4-20.2-3.5c-3.8-0.6-7.8-0.5-11.8-1.1
			c-4.1-0.6-7.8-2.4-10.2-6.7c-1.3,0.2-2.9,0.2-4.9,0.3c-0.2-2.1-0.3-4-0.5-6.2c-2.2-0.5-4.3-0.8-5.9-1.1c-2.1-1.9-3.5-4-5.6-4.9
			c-4-1.7-7.6-4.1-12.2-4.6c-2.1-0.2-3.8-2.9-6.4-4.8c-2.5-0.2-6-0.2-9.7-0.5c-3-0.3-5.9-1-8.9-1.3c-2.5-0.3-4-1.4-3.8-4.3
			c0-1-0.8-1.7-1.1-2.7c-0.2-0.5-0.5-1-0.6-1.4c5.2-2.5,0.3-8.1,3.7-11.6c1-1.1,0-4.1-0.5-6.4c-0.5-2.4-1-4.5,2.2-5.4
			c1.1-0.3,2.5-3.3,2.1-3.8c-2.7-3.3-0.3-5.7,1.6-7.6c4.3-4.6,4.3-10,4.3-16.4c-17.6,9.4-36.1,14.3-55.5,15.3
			c-0.2-0.6-0.3-1.1-0.5-1.7c4.9-2.2,10-4.3,14.9-6.5c2.4-1.1,4.6-2.5,7-3.7c4.1-2.1,8.3-3.8,12.2-6c4.8-2.7,9.2-5.9,13.8-8.7
			c9.2-5.9,18.4-11.9,27.8-17.8c2.4-1.4,5.1-2.1,5.1-6c0-1.9,2.4-3.8,3.3-5.9c0.5-1.1,0.5-2.4-0.2-4.1c-2.1,2.1-4.1,4.1-6.2,6.2
			c-0.2-0.2-0.3-0.3-0.6-0.5c2.5-2.9,4.9-5.9,7.6-8.4c2.9-2.5,4.5-6.8,9.1-7.2c0.5,0,1.3-1.3,1.3-1.9c0.5-6.7,4.5-11.6,8.4-18.1
			c-2.5,0.5-4.5,0.6-6.2,1.3c-5.6,2.1-11.1,4.5-16.7,6.4c-6,2.1-12.1,4.1-18.4,5.2c-7.6,1.3-15.3,1.6-22.9,2.2
			c-1.4,0.2-2.9-0.3-5.1-0.6c10.5-4,20.3-7.2,29.7-11.6c11.6-5.6,22.6-12.2,33.9-18.3c6.4-3.5,12.9-6.8,19.4-9.7
			c4.3-1.9,8.3-3.3,9.7-8.7c0.5-1.9,2.5-3.5,4.3-4.9c1.9-1.4,2.7-2.9,3-5.4c1-5.6,3-10.8,8.4-14.1c2.1-1.3,3.8-3,5.9-4.8
			c-1.1-0.5-1.9-0.8-2.5-1.1c0.5-0.6,1-1.4,1.4-2.1c1.6-1.7,2.7-3.3,1.9-6c-0.3-1.3,0.6-3.3,1.7-4.3c1.6-1.6,3.8-2.7,5.6-4.1
			c0.8-0.6,2.1-1.6,1.9-1.9c-1.4-4.8,3.5-4.9,5.2-7.2c0.3-0.3,1-0.5,1.4-0.8c-3.3-7.3,6.2-5.9,6.7-11.1c-4-0.2-8.1-0.5-12.2-0.5
			c-17,0-33.4,4.5-50.1,7.8c-17.8,3.5-35.9,4.5-54,1c-3.8-0.8-7.6-1-11.4-1.3c0-0.5,0-1.1-0.2-1.6c4-0.6,7.9-1.4,11.9-1.9
			c16.2-1.9,32.1-5.6,47.7-11.1c8.9-3.2,17.8-6,26.7-8.9c5.6-1.9,11.1-4,16.8-5.6c3.7-1,7.5-1,11.3-1.4c12.9-1.6,25.3-4.6,36.1-12.1
			c1-0.6,1.4-2.4,1.9-3.7c0.8-1.7,1.3-3.5,2.4-5.1c1.4-2.2,3-4.5,4.8-6.8c-2.5,0.2-4.6,0.3-6.7,0.5c-0.2-0.3-0.2-0.5-0.3-0.8
			c4.1-3.5,8.6-6.7,12.2-10.5s7-7.9,10-12.4c2.2-3.2,0-7.3-4.3-8.9c0.6-1,1.4-1.9,2.4-3c-8.3-3-15.6-5.2-23.2,1
			c-5.9,4.8-12.6,8.4-19.1,12.6c-0.8,0.5-1.7,0.5-3.2,1c2.7-4.1,4.8-7.8,7.3-11.1c1.7-2.4,2.9-4.8,1.7-7.5c-1.1-2.9-3.7-4.5-6.8-4.5
			c-13.2,0-26.2-0.3-39.4,0.5c-6.8,0.5-13.7,2.7-20.3,4.8c-13.2,4-26.1,8.7-38.5,14.9c-6,3-10.7,7.2-15.7,11.1
			c-0.3,0.2-0.6,0.5-1,0.6c-3.7,0.8-7.5,1.7-11,2.5c-2.2,5.9-7.9,5.2-11.9,7.8c-0.3-0.3-0.6-0.6-1-1c2.5-3.7,5.1-7.3,7.9-11.4
			c0.5,0,1.7-0.3,2.9-0.5c-0.2-0.2-0.3-0.5-0.6-0.6c3.2-3.5,6.5-7,10.5-11.3c2.9,0.2,5.7-1,7-5.6c0.5-1.7,3.7-2.5,5.6-3.8
			c1.6-1,3.2-2.1,4.8-3s3-1.7,4.6-2.7c2.1-1.3,4.1-2.4,5.9-4c2.1-1.9,5.4-1.7,6.5-5.1c0.3-1.1,3.5-1.4,5.4-2.1
			c4.9-1.9,9.9-3.8,14.8-5.7c1-0.3,2.1-0.3,3.2-0.6c0.8-0.2,2.2-0.3,2.2-0.6c0.8-4.6,4.5-2.9,7-3.3c6.7-1.1,13.5-1.3,19.9-3.3
			c13.2-4.5,26.7-5.1,40.4-5.6c2.7-0.2,5.4-0.2,8.1-0.8c5.1-1,10-0.6,14.8,1.7c1,0.5,2.2,0,3.2,0.2c6.4,0.6,12.6,1.4,18.9,1.7
			c3,0.2,6.5,1.1,8.9-2.4c2.2-3.3,5.4-5.9,7.5-9.2c0.8-1.4-0.2-3.8,0-5.7c0.2-1.7,0.2-3.8,1-5.4c3.5-7.2,7.5-14,10.8-21.1
			c1.4-3,1.7-6.5,2.7-9.7c0.8-2.2,1.9-4.1,2.7-6.4c1-2.7,2.1-5.6,2.5-8.3c0.2-0.6-1.6-1.6-3-2.9c0-8.3,8.6-12.7,11.6-20.3
			c-1.1-0.5-2.2-1.1-3.8-1.9c8.1-8.1,17.3-15.7,13-30c0.8-2.1,6.5-4,2.7-9.1c1,0.5,2.1,1.1,3.2,1.7c1.7-2.4,3.3-4.6,2.7-8.3
			c-0.5-2.4,2.1-5.2,3.2-7.8c0.5-1,1.1-1.7,1.7-3c-6.7-3.3-13-6.7-19.6-9.9c-2.5-1.3-5.2-1.9-7.6-3.3c-1.1-0.6-2.2-2.2-2.2-3.3
			c0-1.3,1.1-3.2,2.2-3.7c4.6-1.9,9.4-3.3,14.1-5.2c7.3-2.9,14.5-5.9,21.8-8.9c1.3-0.5,2.2-1.4,3.2-2.5c4.9-5.9,11.9-8.4,18.3-12.2
			c1.9-1.1,4.5-0.8,6.7-1.4c3.5-1,6.8-2.1,10.2-3.8c-4-0.2-7.9-0.3-11.9-0.6c0-0.2,0-0.3,0-0.5c2.1-0.2,4-0.5,6-0.3
			c8.4,0.3,16.1-1.9,23.2-6.5c1.6-1,3.8-1.4,5.7-1.3c5.4,0.3,10.8,1.9,16.2,1.6c4.6-0.3,9.5-1.6,13.5-3.8c10.7-6,21-12.7,31.3-19.6
			c5.9-3.8,11.3-8.4,17-12.7c5.2-4,12.9-2.4,15.6,3.8c3.2,7.2,6.2,14.5,6,22.4c0,2.7-1.3,5.6-2.7,8.1c-2.1,3.7-4.6,7-7.8,9.9
			c-0.8,0.8,0.2,3.8,0.6,5.7c0.3,1.4,0.8,2.9,1.3,4.3c-0.3,0.2-0.6,0.5-1,0.6c-1.4-1.1-2.9-2.2-4.6-3.5c-4.3,3.8-8.6,7.6-12.9,11.6
			c-1.6,1.6-2.5,3.7,0.5,5.2c4.9,2.7,9.2,5.9,15.6,4.6c4.8-1,9.9-0.2,14.9,0.5c2.7,0.3,3.5-0.5,3.5-3c0-2.7,0.3-5.4,0.5-8.3
			c0.3-0.2,0.6-0.2,1-0.3c1,2.7,1.9,5.4,3,8.4c1-1.1,1.6-2.1,2.4-2.9c0.3,0.3,0.6,0.6,0.8,1c1.4,2.9,2.9,5.9,4.3,8.7
			c1.1,2.4,1.7,5.2,5.4,4.9c0.6,0,1.6,1.1,1.9,1.9c1.7,4.3,0,9.9-3.8,12.7c-1,0.6-1.6,1.7-2.2,2.7c-0.8,1-1.3,2.4-2.2,3
			c-11,7.2-22.4,13.7-34.3,19.1c-3.5,1.6-5.6,5.9-8.9,8.3c-3.2,2.4-4.1,4.9-3.3,8.4c0.2,0.8,0.3,1.6,0.8,2.2
			c1.6,2.5,3.7,4.8,4.6,7.3c1.3,3.2,1.6,6.7,2.7,10c1.7,5.2,4.5,10.2,5.4,15.6c1,5.2,0.3,11,0.5,16.4c0.2,4.6,0.2,9.2,0.8,13.8
			c0.2,1,3,1.7,3,2.7c0,2.2-1.3,4.3-1.6,6.5c-0.2,2.4,0.2,4.9,0.3,7.5c0,0.6,0.6,1.6,0.3,2.1c-0.5,1.4-1.4,2.7-2.1,4
			c-0.3,0.6-0.3,1.3-0.3,1.9c0.3,2.5,0.5,5.2,1.4,7.6c0.3,1,2.4,1.4,4.6,2.7c-1.1,2.9-2.7,6-3.5,9.5c-1.4,6.2-1.7,12.6-3.3,18.8
			c-1.3,4.9-1.1,9.2,0.8,14c0.5,1.4-1.4,4.3-3,5.7c-1.9,1.7-3.5,3.3-4.6,6c-8.9,21.6-13.8,44.5-19.7,66.9
			c-1.9,7.5-2.7,15.9-6.8,22.3c-5.2,8.1-0.6,14.5,1,21.1c1.6,6.2,4.5,12.1,6.5,18.1c0.5,1.3-0.2,2.9-0.2,4.5c0,0.8-0.2,2.2,0.2,2.4
			c3.5,1.4,3.3,4.6,4,7.5c1.1,4.1,2.7,8.1,4.1,12.1c4.3,12.2,8.7,24.5,13,36.7c1.3,3.3,2.5,6.8,3.7,10.2c-1.1,1.4-2.5,3-3.7,4.5
			c0.5,0.6,0.6,1.1,0.8,1.1c5.2-0.3,7.3,2.4,9.5,7c5.1,11.1,7,22.9,9.9,34.5c1.4,5.4,3.8,10.8,6.4,15.9c1.1,2.1,4,3.5,6.2,4.6
			c5.2,2.5,10.8,3.2,16.8,2.9c4.6-0.3,8.4,2.1,11.3,5.7c2.2,3,4.5,5.2,8.4,5.7c2.5,0.3,4.8,2.1,5.7,5.1c0.3,1.3,1.7,2.4,2.7,3.5
			c1,1.4,1.9,2.9,3.3,4.9c-6.7-1-12.1-1.7-18.3-2.7c1.9,4.1,3.3,7.2,4.8,10.2c-2.7-0.8-5.9-1.9-9.2-2.4c-3.3-0.5-6.8,0-10.2,0
			c-3.8,0.2-7.6,0.5-11.4,0.3c-5.1-0.2-10-1-14.9-1.1c-3.7-0.2-7.8-0.6-9.5,4.5c-0.5-1.4-1-2.9-1.4-4.5c-2.5,0.3-4.9,0.6-7.5,1
			c0-0.5-0.2-1-0.2-1.6c2.4-0.3,4.8-0.6,8.3-1c-0.6-4-1.4-8.3-2.1-12.4c-2.9,0-4.8,0-6.5,0c0-0.2,0-0.3,0-0.6
			c1.6-0.2,3.2-0.5,5.7-0.8c-3-6.2-5.7-12.2-8.6-18c-3.2-6.2-6.4-12.4-10-18.4c-2.2-3.7-4.6-7.2-7.8-9.9c-3.8-3.2-6-7-6.7-11.6
			c-5.6-0.2-9.4-3.2-13-6.7c-5.9-5.6-11.9-10.8-18-16.2c-0.8-0.6-1.9-1.3-2.9-1.6c-3.2-0.8-5.2-2.5-6-5.9c-0.2-0.6-1.3-1.1-1.9-1.6
			c-0.5,0.6-1.6,1.6-1.4,2.1c0.8,3.2,1.9,6.2,3.2,9.2c0.2,0.5,1.7,0.5,2.7,0.6c5.4,11.4,11,23.4,16.7,35.4
			c6.7-1.3,12.9-0.5,18.1,5.1c-3.2,0.8-6.2,1.3-8.9,2.4c-1.6,0.6-3.7,2.5-3.5,3.7c0.2,1.6,2.2,2.7,3.5,4.1c0.3,0.3,0.8,0.6,0.2,1.3
			c0,1.4-0.5,3,0.2,4.3c2.2,5.6,5.1,10.8,7.2,16.4c2.1,5.4,6.4,5.9,11.1,5.9c1.3,0,2.4-0.2,3.7,0.6c-2.5,0.2-5.2,0.3-7.6,0.5
			c-1,3.3,0.8,4.8,2.7,6.7c5.7,5.9,13,5.6,20.2,6.7c-4.3,0.2-8.6,0.2-13,0.3c-0.3,2.2,0.3,3.5,3,4.1c8.3,1.6,14.3,7.9,21.6,11.4
			c6,2.9,10.3,7.5,14.8,12.4c2.9,3.2,6.7,5.7,8.9,9.5c1.4,2.4,1.7,4.3-1.6,4.8c0.5,1.7,1,3.3,1.6,5.2c-8.7-2.4-15.7-10.8-25.4-4.6
			c1.6,4,3,7.6,4.5,11.3C471.2,776.2,470.8,776.5,470.7,776.8z M378.5,584.5c-0.6,0.3-1.3,0.6-2.1,1c1.3,4,2.5,8.1,4.1,12.1
			c0.6,1.4,3,2.2,3.5,3.7c0.8,3.3,2.7,4.8,5.9,5.6c6.5,1.7,12.9,3.5,19.2,5.2c2.1,0.6,4,1.3,6.8,2.2c-6.7-13.5-12.9-25.9-19.2-38.6
			c-5.4,4.9-10.3,9.5-15.1,13.8C380.4,587.3,379.4,585.9,378.5,584.5z M312.5,677c12.7-2.1,24.5-4,37.2-6.2
			c-7.6-8.1-16.4-11.6-25.3-14.8c-0.6-0.2-1.9,0.6-2.4,1.4c-2.9,4.8-5.4,9.7-8.1,14.8C313.5,673.2,313.1,674.6,312.5,677z
			 M328.2,643.1c7,1.9,13,3.5,19.1,5.1c0.2-0.3,0.3-0.6,0.5-1c-3.8-6.2-7.6-12.4-11.4-18.4c-0.5,0-1,0-1.4,0
			C332.9,633.4,330.6,638,328.2,643.1z"/>
		<path d="M356.1,734.2c-4.5-0.3-7.6-0.6-10.8-0.8c-0.3-0.5-0.5-0.8-0.8-1.3c1.6-0.6,3.3-1.4,4.9-2.1c-0.5-0.5-1-0.8-1.4-1.3
			C350.3,730.4,352.7,732,356.1,734.2z"/>
	</g>
	<g style="clip-path:url(#SVGID_00000050655979934388294870000017869051093740928386_);">
		<g>
			<defs>
				<circle id="SVGID_00000050638757781355779950000011410732022572820404_" cx="332.3" cy="332.3" r="326.8"/>
			</defs>
			<clipPath id="SVGID_00000016798164763398826300000017615415063868289466_">
				<use xlink:href="#SVGID_00000050638757781355779950000011410732022572820404_"  style="overflow:visible;"/>
			</clipPath>
			<g style="clip-path:url(#SVGID_00000016798164763398826300000017615415063868289466_);">
				<g>
					<defs>
						<circle id="SVGID_00000181052776313075957650000001961437992056320907_" cx="331.2" cy="329.5" r="326.8"/>
					</defs>
					<clipPath id="SVGID_00000170243217690815885660000011971567629350273408_">
						<use xlink:href="#SVGID_00000181052776313075957650000001961437992056320907_"  style="overflow:visible;"/>
					</clipPath>
					<path style="clip-path:url(#SVGID_00000170243217690815885660000011971567629350273408_);fill:none;" d="M724.9,659.1
						c-293.5,0-724-145.8-646.4-599.2L-236.1,207l126.7,747.5L724.9,659.1z"/>
				</g>
			</g>
		</g>
		<g>
			<defs>
				<circle id="SVGID_00000145745019175206671590000001496392387115601050_" cx="332.3" cy="332.3" r="326.8"/>
			</defs>
			<clipPath id="SVGID_00000000185535664094188340000003736637159451102621_">
				<use xlink:href="#SVGID_00000145745019175206671590000001496392387115601050_"  style="overflow:visible;"/>
			</clipPath>
		</g>
		<g>
			<defs>
				<circle id="SVGID_00000170958069418473124160000005678066265577568647_" cx="332.3" cy="332.3" r="326.8"/>
			</defs>
			<clipPath id="SVGID_00000174592434719733863960000016944684889325183931_">
				<use xlink:href="#SVGID_00000170958069418473124160000005678066265577568647_"  style="overflow:visible;"/>
			</clipPath>
			<g style="clip-path:url(#SVGID_00000174592434719733863960000016944684889325183931_);">
				<path class="st9" d="M533.6,82.6C515,97.8,489,98.3,465.1,100.5c-18.6,1.7-37,4.8-55.1,9.4c-13.9,3.5-28.8,8.7-36.5,20.8
					c18.9,2.6,38.1,0.8,57.2,0.2c56.4-1.9,113,6,169.1,0.2c-10.3-18.5-20.7-37.1-31-55.6c-4.5-8.1-6.1-13.6-15.8-8.9
					C545.5,70.1,540,77.3,533.6,82.6z"/>
				<path class="st9" d="M622.7,156.5c-5.3,0.5-10.9,1.1-15.5,3.8c-2,1.1-3.8,2.6-5.8,3.5c-4.1,1.7-8.7,1-13.1,1.1
					c-11,0.1-21.9,5.3-28.8,13.9c30.5-0.7,61.1-1.4,91.4-5.5c3.3-0.4-5.2-16.1-7.2-17.3C638.2,152.9,628.9,155.9,622.7,156.5z"/>
			</g>
		</g>
	</g>
</g>
<circle class="st10" cx="332.3" cy="332.3" r="326.8"/>
</svg>
