<?xml version="1.0" encoding="utf-8"?>
<!-- Generator: Adobe Illustrator 25.4.1, SVG Export Plug-In . SVG Version: 6.00 Build 0)  -->
<svg version="1.1" id="Layer_1" xmlns="http://www.w3.org/2000/svg" xmlns:xlink="http://www.w3.org/1999/xlink" x="0px" y="0px"
	 viewBox="0 0 1564.2 1835.3" style="enable-background:new 0 0 1564.2 1835.3;" xml:space="preserve">
<style type="text/css">
	.st0{fill:#FAA719;stroke:#000000;stroke-width:25;stroke-miterlimit:10;}
</style>
<g id="wolf_outline">
	<path class="st0" d="M163.9,1824.8c-8.3-24.1-12.3-49.1-12.3-74.5c0-23.5-3.3-46.1-8.2-69.1c-4.9-23.1-4.2-47.4-5.2-71.2
		c-1.4-34.1-1.5-68.2-3-102.3c-1.4-31-1.2-61.7,5.3-93.5c-6.7,3.1-12.3,5.7-18.3,8.5c-0.2-1.1-0.7-2-0.4-2.5
		c24.8-48.8,40.7-101,58.8-152.4c4.1-11.5,12.7-23.6,11.3-34.4c-1.4-10.6-13.3-19.5-19.9-29.7c-19-29.4-38.8-58.5-48.9-92.5
		c-17.6-58.9-5.7-114.2,22.1-167.2c7.7-14.7,16.4-28.9,26.1-45.9C126.9,922.6,82,933.3,33,923c2.3-1.1,4.3-2.4,6.5-3
		c55.3-15.4,91.8-53.4,121.4-100c17.9-28.2,32.1-58.1,43.6-89.4c1-2.6,1.6-5.4,2.9-9.6c-43,12.8-81.6,32.3-122.1,53.7
		c2.2-4.3,3.1-6.6,4.4-8.5c35.2-51.3,70.6-102.4,105.6-153.8c9.9-14.5,23-20.2,39.8-17.9c8.2,1.1,11.5-1.9,14.5-9.4
		c16.5-40.5,38.4-77.9,64.8-112.7c1.6-2,3-4.2,3.9-5.6c-43.4,0-86.9,0-132.8,0c10.4-12.3,19.1-22.8,28-33
		c28.1-32.4,55.6-65.4,84.8-96.9c17.2-18.6,39.1-31,65.2-32.4c13.9-0.7,27.9,2.6,41.9,2.4c13.9-0.2,27.9-2,41.7-4.1
		c4.5-0.7,8.8-4.3,12.8-7.2c54-39.5,114.5-62,181.2-59.7c50.9,1.8,102.4,5.9,150.8,26.1c19,7.9,39.5,12.2,59.2,18.7
		c7.1,2.3,11.7,0.6,17.1-4.2c55.7-48.7,114.3-93.8,177.5-132.4c78.7-48,161.7-87.3,248.4-118.6c30.1-10.9,61.4-16.2,93.7-15
		c27.5,1,46.5,13.3,56.1,39.4c1.7,4.6,3.5,9.3,5.4,14.3c2-1.5,3.9-2.8,6-4.2c0.9,0.6,1.9,1.2,2.7,2c12,12.6,12.6,28.9,15.1,44.8
		c0.9,6.1,2.9,12.5,6.2,17.6c21.7,34.3,42.6,68.9,55.8,107.7c14.5,42.3,9.8,82.1-14.2,119.7c-1.5,2.3-4.7,3.4-8.6,6.1
		c3.9,2.4,8.6,7.2,14.1,8.5c21.9,5.3,27,20.1,27.6,38.9c0.8,27.8-4,54.6-10.2,81.4c-10.4,45.5-39.8,71.7-84.6,78.8
		c-70,11.1-134.2,37.1-195,72.3c-65.8,38.1-129.9,78.7-186.9,129.6c-6.8,6-13.2,12.4-19.8,18.5c-6.4,5.9-8.1,12-5.2,21
		c8.6,26.8,9.8,53.9-1.8,80.4c-0.8,1.9-1.7,3.7-2.6,5.5c-0.5,1-1.2,1.9-2.4,3.7c-2.8-10.6-5.4-20.4-8.6-32.7
		c-12.3,16.8-25.6,29.8-29.3,48.5c-3.9,19.4-7.2,39-10.9,58.4c-1.3,6.9,0.1,11,7.3,14.2c35.3,16,71.2,29.4,113.4,29.4
		c-38.3,21.6-76.4,35.7-119.9,37.9c3.3,13.1,6.6,25.3,9.2,37.7c0.7,3.3-0.6,7-2.3,10.5c7.7,20.4,27.3,29.4,44.2,41.5
		c-24,1.8-45.9-4.3-68.3-17.5c4.9,8.6,8.9,14.9,12.1,21.5c13.3,27.4,17.1,56.1,12.4,86.2c-0.5,3.2,0.4,7.7,2.4,10.1
		c58.3,69,91.6,149.1,104.4,238c4.4,30.9,7,62,11.2,92.9c3.7,26.5,9.4,52.8,12.7,79.4c6,48,11,96.2,16.1,144.3
		c0.9,8.9,0.1,18.1,0.1,27.8C822.7,1824.8,493.8,1824.8,163.9,1824.8z"/>
</g>
</svg>
