<?xml version="1.0" encoding="utf-8"?>
<!-- Generator: Adobe Illustrator 25.4.1, SVG Export Plug-In . SVG Version: 6.00 Build 0)  -->
<svg version="1.1" id="Layer_1" xmlns="http://www.w3.org/2000/svg" xmlns:xlink="http://www.w3.org/1999/xlink" x="0px" y="0px"
	 viewBox="0 0 882 882.3" style="enable-background:new 0 0 882 882.3;" xml:space="preserve">
<style type="text/css">
	.st0{fill:#FBA919;stroke:#000000;stroke-width:26;stroke-miterlimit:10;}
	.st1{clip-path:url(#SVGID_00000181782376358233691300000012884253301403541640_);}
	.st2{stroke:#000000;stroke-width:18;stroke-miterlimit:10;}
</style>
<ellipse id="moon" class="st0" cx="441" cy="441.1" rx="428" ry="428.1"/>
<g id="fear-wolf">
	<defs>
		<ellipse id="SVGID_1_" cx="441" cy="441.1" rx="428" ry="428.1"/>
	</defs>
	<clipPath id="SVGID_00000137120949902794712170000003720284029724844444_">
		<use xlink:href="#SVGID_1_"  style="overflow:visible;"/>
	</clipPath>
	
		<g id="wolf_outline_00000114034702432508291410000009237159085990461073_" style="clip-path:url(#SVGID_00000137120949902794712170000003720284029724844444_);">
		<path class="st2" d="M168.1,877.1c-2.8-8.1-4.1-16.5-4.1-25.1c0-7.9-1.1-15.5-2.7-23.3c-1.6-7.8-1.4-16-1.8-24
			c-0.5-11.5-0.5-23-1-34.4c-0.5-10.4-0.4-20.8,1.8-31.5c-2.2,1-4.1,1.9-6.2,2.9c-0.1-0.4-0.2-0.7-0.1-0.9
			c8.4-16.4,13.7-34,19.8-51.3c1.4-3.9,4.3-7.9,3.8-11.6c-0.5-3.6-4.5-6.6-6.7-10c-6.4-9.9-13.1-19.7-16.5-31.1
			c-5.9-19.8-1.9-38.5,7.4-56.3c2.6-4.9,5.5-9.7,8.8-15.4c-14.9,8.3-30.1,11.9-46.6,8.4c0.8-0.4,1.4-0.8,2.2-1
			c18.6-5.2,30.9-18,40.9-33.7c6-9.5,10.8-19.6,14.7-30.1c0.3-0.9,0.6-1.8,1-3.2c-14.5,4.3-27.5,10.9-41.1,18.1
			c0.7-1.4,1-2.2,1.5-2.9c11.8-17.3,23.8-34.5,35.5-51.8c3.3-4.9,7.8-6.8,13.4-6c2.8,0.4,3.9-0.7,4.9-3.2
			c5.5-13.6,12.9-26.2,21.8-37.9c0.5-0.7,1-1.4,1.3-1.9c-14.6,0-29.3,0-44.7,0c3.5-4.1,6.4-7.7,9.4-11.1c9.5-10.9,18.7-22,28.5-32.6
			c5.8-6.2,13.2-10.5,21.9-10.9c4.7-0.2,9.4,0.9,14.1,0.8c4.7-0.1,9.4-0.7,14-1.4c1.5-0.2,3-1.4,4.3-2.4
			c18.2-13.3,38.5-20.9,61-20.1c17.2,0.6,34.5,2,50.8,8.8c6.4,2.7,13.3,4.1,19.9,6.3c2.4,0.8,4,0.2,5.8-1.4
			c18.8-16.4,38.5-31.6,59.8-44.6c26.5-16.2,54.4-29.4,83.6-39.9c10.1-3.7,20.7-5.4,31.5-5c9.3,0.3,15.6,4.5,18.9,13.3
			c0.6,1.6,1.2,3.1,1.8,4.8c0.7-0.5,1.3-0.9,2-1.4c0.3,0.2,0.6,0.4,0.9,0.7c4,4.2,4.3,9.7,5.1,15.1c0.3,2,1,4.2,2.1,5.9
			c7.3,11.5,14.3,23.2,18.8,36.2c4.9,14.2,3.3,27.7-4.8,40.3c-0.5,0.8-1.6,1.1-2.9,2.1c1.3,0.8,2.9,2.4,4.7,2.9
			c7.4,1.8,9.1,6.8,9.3,13.1c0.3,9.3-1.4,18.4-3.4,27.4c-3.5,15.3-13.4,24.1-28.5,26.5c-23.6,3.7-45.2,12.5-65.6,24.3
			c-22.1,12.8-43.7,26.5-62.9,43.6c-2.3,2-4.4,4.2-6.7,6.2c-2.2,2-2.7,4-1.7,7.1c2.9,9,3.3,18.1-0.6,27.1c-0.3,0.6-0.6,1.3-0.9,1.9
			c-0.2,0.3-0.4,0.6-0.8,1.2c-0.9-3.6-1.8-6.9-2.9-11c-4.1,5.7-8.6,10-9.9,16.3c-1.3,6.5-2.4,13.1-3.7,19.7c-0.4,2.3,0,3.7,2.5,4.8
			c11.9,5.4,24,9.9,38.2,9.9c-12.9,7.3-25.7,12-40.4,12.8c1.1,4.4,2.2,8.5,3.1,12.7c0.2,1.1-0.2,2.3-0.8,3.5
			c2.6,6.9,9.2,9.9,14.9,14c-8.1,0.6-15.4-1.5-23-5.9c1.7,2.9,3,5,4.1,7.2c4.5,9.2,5.8,18.9,4.2,29c-0.2,1.1,0.1,2.6,0.8,3.4
			c19.6,23.2,30.8,50.2,35.1,80.1c1.5,10.4,2.3,20.9,3.8,31.3c1.2,8.9,3.2,17.8,4.3,26.7c2,16.2,3.7,32.4,5.4,48.6
			c0.3,3,0,6.1,0,9.4C389.9,877.1,279.2,877.1,168.1,877.1z"/>
	</g>
	<use xlink:href="#SVGID_1_"  style="overflow:visible;fill:none;stroke:#000000;stroke-width:18;stroke-miterlimit:10;"/>
</g>
</svg>
