<?xml version="1.0" encoding="utf-8"?>
<!-- Generator: Adobe Illustrator 25.4.1, SVG Export Plug-In . SVG Version: 6.00 Build 0)  -->
<svg version="1.1" id="Layer_1" xmlns="http://www.w3.org/2000/svg" xmlns:xlink="http://www.w3.org/1999/xlink" x="0px" y="0px"
	 viewBox="0 0 925.3 1057.9" style="enable-background:new 0 0 925.3 1057.9;" xml:space="preserve">
<style type="text/css">
	.st0{fill:#C0565A;}
	.st1{fill-rule:evenodd;clip-rule:evenodd;fill:#C0565A;}
	.st2{fill-rule:evenodd;clip-rule:evenodd;}
	.st3{clip-path:url(#SVGID_00000045597205998498038990000006209059257595535022_);}
</style>
<ellipse id="moon" class="st0" cx="428" cy="629.8" rx="428" ry="428.1"/>
<g id="layer1" transform="translate(0,-1020.3622)">
	<path id="path12387" class="st1" d="M911.1,1020.4c7.7-0.1,14,6,14.1,13.7s-6,14-13.7,14.1c-0.1,0-0.3,0-0.4,0h-27.9v72.4
		c13.3,10.3,24.6,21.6,32,33.1c8.5,13.3,14.2,28.4,6.5,42.8c-0.3,0.5-0.6,0.9-0.9,1.4l-87.4,125c-0.9,1.3-2.1,2.5-3.4,3.5
		c-10.5,11.6-26.6,16.1-42.7,14.9c-17.8-1.3-36.8-8.4-54.4-20.7c-17.6-12.3-32.6-27.1-38.1-44c-7.6-23.6-6.4-38.2,5.6-55.3l50.5-72
		v-101.2H723c-7.7,0.1-14-6-14.1-13.7s6-14,13.7-14.1c0.1,0,0.3,0,0.4,0L911.1,1020.4z M855.3,1048.2h-76.6v61.5l5.7-8.1
		c0.4-0.6,0.9-1.2,1.5-1.7c6.4-6.5,14.2-9.2,22.6-9.7c2.8-0.3,5.7,0,8.5,0.3c3.9,0.4,7.8,1.1,11.7,2c8.6,2,17.6,5.7,26.7,10.2
		L855.3,1048.2z M740.5,1236.5c-11.6-0.8-18.3,2.3-21.3,6.6c-3,4.3-3.6,11.7,1.1,22.3c4.7,10.6,14.7,22.8,28.6,32.6
		c13.9,9.7,28.8,14.9,40.3,15.7c11.6,0.8,18.3-2.2,21.3-6.5s3.6-11.7-1.1-22.3c-4.7-10.6-14.7-22.8-28.6-32.5
		C766.8,1242.5,752,1237.3,740.5,1236.5L740.5,1236.5z"/>
	<path id="path12389" class="st2" d="M774.1,1312.9c-5.8,0-10.9,3.5-13,8.9l-104.2,256.5l22.3,19.1l107.7-265.1
		c3-7.1-0.3-15.3-7.4-18.3C777.8,1313.3,776,1312.9,774.1,1312.9z M626.5,1653.1L561,1814.3c-3.1,7,0,15.3,7.1,18.4
		c7,3.1,15.3,0,18.4-7.1c0.1-0.3,0.2-0.5,0.3-0.8l62-152.6L626.5,1653.1z"/>
	<path id="path12391" class="st2" d="M731.9,1248.1c7.6,1.2,12.8,8.3,11.6,15.9c-0.7,4.2-3.2,7.8-6.9,9.9l-601.5,352
		c-6.5,4.2-15.1,2.4-19.3-4.1c-4.2-6.5-2.4-15.1,4.1-19.3c0.3-0.2,0.8-0.5,1.2-0.7L722.6,1250
		C725.2,1248.3,728.6,1247.7,731.9,1248.1z"/>
	<path id="path10080" d="M155.5,1507.6c0,15.4-12.5,27.9-27.9,27.9s-27.9-12.5-27.9-27.9s12.5-27.9,27.9-27.9
		S155.5,1492.2,155.5,1507.6z"/>
	<path id="path10082" d="M730.2,1759.8c0,15.4-12.5,27.9-27.9,27.9s-27.9-12.5-27.9-27.9s12.5-27.9,27.9-27.9
		C717.7,1732,730.2,1744.4,730.2,1759.8z"/>
	<path id="path10084" class="st2" d="M470.9,1330.3l-46.5-19.9l-23.2-49.8l-23.2,49.8l-46.5,19.9l46.5,19.9l23.2,49.8l23.2-49.8
		L470.9,1330.3z"/>
	<path id="path10086" d="M827.7,1474.2c0,15.4-12.5,27.9-27.9,27.9s-27.9-12.5-27.9-27.9s12.5-27.9,27.9-27.9
		S827.7,1458.8,827.7,1474.2z"/>
	<circle id="circle10090" cx="549" cy="1857.4" r="13.9"/>
	
		<ellipse id="circle10092" transform="matrix(9.968703e-02 -0.995 0.995 9.968703e-02 -1659.799 1637.248)" cx="74.8" cy="1735.8" rx="13.9" ry="13.9"/>
</g>
<g id="fear-wolf">
	<g>
		<g>
			<g>
				<g>
					<defs>
						<ellipse id="SVGID_1_" cx="428" cy="629.8" rx="428" ry="428.1"/>
					</defs>
					<clipPath id="SVGID_00000060005994337353799490000015011653068594283952_">
						<use xlink:href="#SVGID_1_"  style="overflow:visible;"/>
					</clipPath>
					<g style="clip-path:url(#SVGID_00000060005994337353799490000015011653068594283952_);">
						<path d="M631.7,2091.6c-6.5-4.1-12.6-7.7-19.2-11.8c-5.7-3.7-11-7.7-17.1-10.2c-4.1-1.6-9.4-2.4-13.9-1.6
							c-19.6,3.7-37.5-0.4-53-13c-1.2-1.2-3.3-1.6-4.5-2.4c-20-10.6-36.7-24.5-41.2-48.1c-4.5-22.8-21.6-38.7-32.6-57.5
							c-5.7-9.4-11.8-18.8-18.8-26.9c-10.2-12.6-21.6-23.2-39.1-25.7c-7.7-1.2-14.7-6.5-22-9c-4.1-1.6-9.8-4.1-13-2.4
							c-21.2,11.8-45.3,12.2-68.1,16.7c-32.6,6.5-65.6,11.8-98.7,17.5c-0.8,0-1.2,0.4-2,0.4c-22.8-3.3-34.7,8.6-40.8,29.4
							c-2.4,9-7.7,17.1-12.6,27.7c28.1,3.7,53.4,7.3,79.1,10.6c1.6,0,4.1-0.4,4.9-1.6c6.1-9,12.2-5.3,18.3,0
							c14.3,11.8,29.8,7.7,45.7,4.5c7.7-1.6,15.9-8.2,22.8,2c0.4,0.8,2.4,0,4.1,0c13.5-0.4,26.9-1.6,40.8-1.2c10.2,0,20.4,2,31,3.3
							c-2,3.7-2.9,5.3-3.3,6.5c4.5,1.6,8.2,3.7,12.2,4.5c2.4,0.4,4.9,0,7.3-0.8c2-0.8,4.1-2.9,5.7-4.1c1.2,2.4,2.4,5.3,3.7,8.6
							c-13.5,3.3-25.7,6.1-39.1,9.4c1.2,2.9,1.6,7.3,3.3,7.7c15.5,4.9,31,9.4,47.7,14.3c-5.7,9.4-15.5,10.6-24.5,13
							c-6.9,1.6-13.9,2-20.8,3.7c-3.3,0.8-6.5,4.1-10.2,6.5c14.3,7.3,26.9,13.9,40,20.4c0,1.2-0.4,2-0.4,3.3
							c-9,1.2-18.3,4.1-27.3,3.3c-15.9-2-21.2,9.4-29,18.8c-1.2,1.6-2,3.7-2.9,6.1c9.8,7.7,19.6,15.9,31,25.3
							c-15.9,3.3-28.1-1.6-40.8-5.7c-4.5-1.2-9.4-0.8-14.3-1.2c-6.1,0-13.5,2-18.3-0.4c-15.1-7.3-31-6.5-46.9-8.6
							c-10.2-1.2-19.6-5.7-29.8-7.3c-9.8-1.6-20-1.6-30.2-2.9c-14.7-2.4-29.4-6.1-44.4-8.6c-7.7-1.6-15.9-1.2-23.7-3.7
							c-9-2.9-17.5-7.7-26.5-11.8c-2-0.8-4.5-2.4-6.9-2.4c-12.2-1.6-24.5-2.4-36.3-4.1c-18.8-2.4-37.5-5.7-56.3-8.2
							c-14.3-1.6-29-2.9-43.6-3.7c-1.2,0-2.4,2.4-4.1,4.1c-15.5-1.2-33-2.4-51.4-4.1c0.4,1.6,0.8,3.3,1.2,4.9c-0.8,0-1.2,0.4-2,0.4
							c-17.5-4.1-35.5-7.7-53-11.8c-9.4-2-18.3-1.2-27.7-1.2c-17.5-0.4-34.7-6.1-51.8-9c-9.8-1.6-20-1.2-30.2-2.9
							c-10.6-1.6-20-6.1-26.1-17.1c-3.3,0.4-7.3,0.4-12.6,0.8c-0.4-5.3-0.8-10.2-1.2-15.9c-5.7-1.2-11-2-15.1-2.9
							c-5.3-4.9-9-10.2-14.3-12.6c-10.2-4.5-19.6-10.6-31.4-11.8c-5.3-0.4-9.8-7.3-16.3-12.2c-6.5-0.4-15.5-0.4-24.9-1.2
							c-7.7-0.8-15.1-2.4-22.8-3.3c-6.5-0.8-10.2-3.7-9.8-11c0-2.4-2-4.5-2.9-6.9c-0.4-1.2-1.2-2.4-1.6-3.7
							c13.5-6.5,0.8-20.8,9.4-29.8c2.4-2.9,0-10.6-1.2-16.3c-1.2-6.1-2.4-11.4,5.7-13.9c2.9-0.8,6.5-8.6,5.3-9.8
							c-6.9-8.6-0.8-14.7,4.1-19.6c11-11.8,11-25.7,11-42c-45.3,24.1-92.6,36.7-142.3,39.1c-0.4-1.6-0.8-2.9-1.2-4.5
							c12.6-5.7,25.7-11,38.3-16.7c6.1-2.9,11.8-6.5,17.9-9.4c10.6-5.3,21.2-9.8,31.4-15.5c12.2-6.9,23.7-15.1,35.5-22.4
							c23.7-15.1,47.3-30.6,71.4-45.7c6.1-3.7,13-5.3,13-15.5c0-4.9,6.1-9.8,8.6-15.1c1.2-2.9,1.2-6.1-0.4-10.6
							c-5.3,5.3-10.6,10.6-15.9,15.9c-0.4-0.4-0.8-0.8-1.6-1.2c6.5-7.3,12.6-15.1,19.6-21.6c7.3-6.5,11.4-17.5,23.2-18.3
							c1.2,0,3.3-3.3,3.3-4.9c1.2-17.1,11.4-29.8,21.6-46.5c-6.5,1.2-11.4,1.6-15.9,3.3c-14.3,5.3-28.5,11.4-42.8,16.3
							c-15.5,5.3-31,10.6-47.3,13.5c-19.6,3.3-39.1,4.1-58.7,5.7c-3.7,0.4-7.3-0.8-13-1.6c26.9-10.2,52.2-18.3,76.3-29.8
							c29.8-14.3,57.9-31.4,86.9-46.9c16.3-9,33-17.5,49.7-24.9c11-4.9,21.2-8.6,24.9-22.4c1.2-4.9,6.5-9,11-12.6
							c4.9-3.7,6.9-7.3,7.7-13.9c2.4-14.3,7.7-27.7,21.6-36.3c5.3-3.3,9.8-7.7,15.1-12.2c-2.9-1.2-4.9-2-6.5-2.9
							c1.2-1.6,2.4-3.7,3.7-5.3c4.1-4.5,6.9-8.6,4.9-15.5c-0.8-3.3,1.6-8.6,4.5-11c4.1-4.1,9.8-6.9,14.3-10.6c2-1.6,5.3-4.1,4.9-4.9
							c-3.7-12.2,9-12.6,13.5-18.3c0.8-0.8,2.4-1.2,3.7-2c-8.6-18.8,15.9-15.1,17.1-28.5c-10.2-0.4-20.8-1.2-31.4-1.2
							c-43.6,0-85.6,11.4-128.4,20c-45.7,9-92.2,11.4-138.6,2.4c-9.8-2-19.6-2.4-29.4-3.3c0-1.2,0-2.9-0.4-4.1
							c10.2-1.6,20.4-3.7,30.6-4.9c41.6-4.9,82.4-14.3,122.3-28.5c22.8-8.2,45.7-15.5,68.5-22.8c14.3-4.9,28.5-10.2,43.2-14.3
							c9.4-2.4,19.2-2.4,29-3.7c33-4.1,64.8-11.8,92.6-31c2.4-1.6,3.7-6.1,4.9-9.4c2-4.5,3.3-9,6.1-13c3.7-5.7,7.7-11.4,12.2-17.5
							c-6.5,0.4-11.8,0.8-17.1,1.2c-0.4-0.8-0.4-1.2-0.8-2c10.6-9,22-17.1,31.4-26.9s17.9-20.4,25.7-31.8c5.7-8.2,0-18.8-11-22.8
							c1.6-2.4,3.7-4.9,6.1-7.7c-21.2-7.7-40-13.5-59.5,2.4c-15.1,12.2-32.2,21.6-48.9,32.2c-2,1.2-4.5,1.2-8.2,2.4
							c6.9-10.6,12.2-20,18.8-28.5c4.5-6.1,7.3-12.2,4.5-19.2c-2.9-7.3-9.4-11.4-17.5-11.4c-33.8,0-67.3-0.8-101.1,1.2
							c-17.5,1.2-35.1,6.9-52.2,12.2c-33.8,10.2-66.9,22.4-98.7,38.3c-15.5,7.7-27.3,18.3-40.4,28.5c-0.8,0.4-1.6,1.2-2.4,1.6
							c-9.4,2-19.2,4.5-28.1,6.5c-5.7,15.1-20.4,13.5-30.6,20c-0.8-0.8-1.6-1.6-2.4-2.4c6.5-9.4,13-18.8,20.4-29.4
							c1.2,0,4.5-0.8,7.3-1.2c-0.4-0.4-0.8-1.2-1.6-1.6c8.2-9,16.7-17.9,26.9-29c7.3,0.4,14.7-2.4,17.9-14.3
							c1.2-4.5,9.4-6.5,14.3-9.8c4.1-2.4,8.2-5.3,12.2-7.7c4.1-2.4,7.7-4.5,11.8-6.9c5.3-3.3,10.6-6.1,15.1-10.2
							c5.3-4.9,13.9-4.5,16.7-13c0.8-2.9,9-3.7,13.9-5.3c12.6-4.9,25.3-9.8,37.9-14.7c2.4-0.8,5.3-0.8,8.2-1.6
							c2-0.4,5.7-0.8,5.7-1.6c2-11.8,11.4-7.3,17.9-8.6c17.1-2.9,34.7-3.3,51-8.6c33.8-11.4,68.5-13,103.6-14.3
							c6.9-0.4,13.9-0.4,20.8-2c13-2.4,25.7-1.6,37.9,4.5c2.4,1.2,5.7,0,8.2,0.4c16.3,1.6,32.2,3.7,48.5,4.5
							c7.7,0.4,16.7,2.9,22.8-6.1c5.7-8.6,13.9-15.1,19.2-23.7c2-3.7-0.4-9.8,0-14.7c0.4-4.5,0.4-9.8,2.4-13.9
							c9-18.3,19.2-35.9,27.7-54.2c3.7-7.7,4.5-16.7,6.9-24.9c2-5.7,4.9-10.6,6.9-16.3c2.4-6.9,5.3-14.3,6.5-21.2
							c0.4-1.6-4.1-4.1-7.7-7.3c0-21.2,22-32.6,29.8-52.2c-2.9-1.2-5.7-2.9-9.8-4.9c20.8-20.8,44.4-40.4,33.4-77.1
							c2-5.3,16.7-10.2,6.9-23.2c2.4,1.2,5.3,2.9,8.2,4.5c4.5-6.1,8.6-11.8,6.9-21.2c-1.2-6.1,5.3-13.5,8.2-20
							c1.2-2.4,2.9-4.5,4.5-7.7c-17.1-8.6-33.4-17.1-50.2-25.3c-6.5-3.3-13.5-4.9-19.6-8.6c-2.9-1.6-5.7-5.7-5.7-8.6
							c0-3.3,2.9-8.2,5.7-9.4c11.8-4.9,24.1-8.6,36.3-13.5c18.8-7.3,37.1-15.1,55.9-22.8c3.3-1.2,5.7-3.7,8.2-6.5
							c12.6-15.1,30.6-21.6,46.9-31.4c4.9-2.9,11.4-2,17.1-3.7c9-2.4,17.5-5.3,26.1-9.8c-10.2-0.4-20.4-0.8-30.6-1.6
							c0-0.4,0-0.8,0-1.2c5.3-0.4,10.2-1.2,15.5-0.8c21.6,0.8,41.2-4.9,59.5-16.7c4.1-2.4,9.8-3.7,14.7-3.3
							c13.9,0.8,27.7,4.9,41.6,4.1c11.8-0.8,24.5-4.1,34.7-9.8c27.3-15.5,53.8-32.6,80.3-50.2c15.1-9.8,29-21.6,43.6-32.6
							c13.5-10.2,33-6.1,40,9.8c8.2,18.3,15.9,37.1,15.5,57.5c0,6.9-3.3,14.3-6.9,20.8c-5.3,9.4-11.8,17.9-20,25.3
							c-2,2,0.4,9.8,1.6,14.7c0.8,3.7,2,7.3,3.3,11c-0.8,0.4-1.6,1.2-2.4,1.6c-3.7-2.9-7.3-5.7-11.8-9c-11,9.8-22,19.6-33,29.8
							c-4.1,4.1-6.5,9.4,1.2,13.5c12.6,6.9,23.7,15.1,40,11.8c12.2-2.4,25.3-0.4,38.3,1.2c6.9,0.8,9-1.2,9-7.7
							c0-6.9,0.8-13.9,1.2-21.2c0.8-0.4,1.6-0.4,2.4-0.8c2.4,6.9,4.9,13.9,7.7,21.6c2.4-2.9,4.1-5.3,6.1-7.3c0.8,0.8,1.6,1.6,2,2.4
							c3.7,7.3,7.3,15.1,11,22.4c2.9,6.1,4.5,13.5,13.9,12.6c1.6,0,4.1,2.9,4.9,4.9c4.5,11,0,25.3-9.8,32.6
							c-2.4,1.6-4.1,4.5-5.7,6.9c-2,2.4-3.3,6.1-5.7,7.7c-28.1,18.3-57.5,35.1-88.1,48.9c-9,4.1-14.3,15.1-22.8,21.2
							c-8.2,6.1-10.6,12.6-8.6,21.6c0.4,2,0.8,4.1,2,5.7c4.1,6.5,9.4,12.2,11.8,18.8c3.3,8.2,4.1,17.1,6.9,25.7
							c4.5,13.5,11.4,26.1,13.9,40c2.4,13.5,0.8,28.1,1.2,42c0.4,11.8,0.4,23.7,2,35.5c0.4,2.4,7.7,4.5,7.7,6.9
							c0,5.7-3.3,11-4.1,16.7c-0.4,6.1,0.4,12.6,0.8,19.2c0,1.6,1.6,4.1,0.8,5.3c-1.2,3.7-3.7,6.9-5.3,10.2
							c-0.8,1.6-0.8,3.3-0.8,4.9c0.8,6.5,1.2,13.5,3.7,19.6c0.8,2.4,6.1,3.7,11.8,6.9c-2.9,7.3-6.9,15.5-9,24.5
							c-3.7,15.9-4.5,32.2-8.6,48.1c-3.3,12.6-2.9,23.7,2,35.9c1.2,3.7-3.7,11-7.7,14.7c-4.9,4.5-9,8.6-11.8,15.5
							c-22.8,55.5-35.5,114.2-50.6,171.7c-4.9,19.2-6.9,40.8-17.5,57.1c-13.5,20.8-1.6,37.1,2.4,54.2c4.1,15.9,11.4,31,16.7,46.5
							c1.2,3.3-0.4,7.3-0.4,11.4c0,2-0.4,5.7,0.4,6.1c9,3.7,8.6,11.8,10.2,19.2c2.9,10.6,6.9,20.8,10.6,31
							c11,31.4,22.4,62.8,33.4,94.2c3.3,8.6,6.5,17.5,9.4,26.1c-2.9,3.7-6.5,7.7-9.4,11.4c1.2,1.6,1.6,2.9,2,2.9
							c13.5-0.8,18.8,6.1,24.5,17.9c13,28.5,17.9,58.7,25.3,88.5c3.7,13.9,9.8,27.7,16.3,40.8c2.9,5.3,10.2,9,15.9,11.8
							c13.5,6.5,27.7,8.2,43.2,7.3c11.8-0.8,21.6,5.3,29,14.7c5.7,7.7,11.4,13.5,21.6,14.7c6.5,0.8,12.2,5.3,14.7,13
							c0.8,3.3,4.5,6.1,6.9,9c2.4,3.7,4.9,7.3,8.6,12.6c-17.1-2.4-31-4.5-46.9-6.9c4.9,10.6,8.6,18.3,12.2,26.1
							c-6.9-2-15.1-4.9-23.7-6.1c-8.6-1.2-17.5,0-26.1,0c-9.8,0.4-19.6,1.2-29.4,0.8c-13-0.4-25.7-2.4-38.3-2.9
							c-9.4-0.4-20-1.6-24.5,11.4c-1.2-3.7-2.4-7.3-3.7-11.4c-6.5,0.8-12.6,1.6-19.2,2.4c0-1.2-0.4-2.4-0.4-4.1
							c6.1-0.8,12.2-1.6,21.2-2.4c-1.6-10.2-3.7-21.2-5.3-31.8c-7.3,0-12.2,0-16.7,0c0-0.4,0-0.8,0-1.6c4.1-0.4,8.2-1.2,14.7-2
							c-7.7-15.9-14.7-31.4-22-46.1c-8.2-15.9-16.3-31.8-25.7-47.3c-5.7-9.4-11.8-18.3-20-25.3c-9.8-8.2-15.5-17.9-17.1-29.8
							c-14.3-0.4-24.1-8.2-33.4-17.1c-15.1-14.3-30.6-27.7-46.1-41.6c-2-1.6-4.9-3.3-7.3-4.1c-8.2-2-13.5-6.5-15.5-15.1
							c-0.4-1.6-3.3-2.9-4.9-4.1c-1.2,1.6-4.1,4.1-3.7,5.3c2,8.2,4.9,15.9,8.2,23.7c0.4,1.2,4.5,1.2,6.9,1.6
							c13.9,29.4,28.1,59.9,42.8,90.9c17.1-3.3,33-1.2,46.5,13c-8.2,2-15.9,3.3-22.8,6.1c-4.1,1.6-9.4,6.5-9,9.4
							c0.4,4.1,5.7,6.9,9,10.6c0.8,0.8,2,1.6,0.4,3.3c0,3.7-1.2,7.7,0.4,11c5.7,14.3,13,27.7,18.3,42c5.3,13.9,16.3,15.1,28.5,15.1
							c3.3,0,6.1-0.4,9.4,1.6c-6.5,0.4-13.5,0.8-19.6,1.2c-2.4,8.6,2,12.2,6.9,17.1c14.7,15.1,33.4,14.3,51.8,17.1
							c-11,0.4-22,0.4-33.4,0.8c-0.8,5.7,0.8,9,7.7,10.6c21.2,4.1,36.7,20.4,55.5,29.4c15.5,7.3,26.5,19.2,37.9,31.8
							c7.3,8.2,17.1,14.7,22.8,24.5c3.7,6.1,4.5,11-4.1,12.2c1.2,4.5,2.4,8.6,4.1,13.5c-22.4-6.1-40.4-27.7-65.2-11.8
							c4.1,10.2,7.7,19.6,11.4,29C632.9,2089.9,632.1,2090.8,631.7,2091.6z M395.2,1598.2c-1.6,0.8-3.3,1.6-5.3,2.4
							c3.3,10.2,6.5,20.8,10.6,31c1.6,3.7,7.7,5.7,9,9.4c2,8.6,6.9,12.2,15.1,14.3c16.7,4.5,33,9,49.3,13.5
							c5.3,1.6,10.2,3.3,17.5,5.7c-17.1-34.7-33-66.5-49.3-99.1c-13.9,12.6-26.5,24.5-38.7,35.5
							C400.1,1605.5,397.6,1601.8,395.2,1598.2z M226,1835.5c32.6-5.3,62.8-10.2,95.4-15.9c-19.6-20.8-42-29.8-64.8-37.9
							c-1.6-0.4-4.9,1.6-6.1,3.7c-7.3,12.2-13.9,24.9-20.8,37.9C228.4,1825.7,227.6,1829.4,226,1835.5z M266.3,1748.6
							c17.9,4.9,33.4,9,48.9,13c0.4-0.8,0.8-1.6,1.2-2.4c-9.8-15.9-19.6-31.8-29.4-47.3c-1.2,0-2.4,0-3.7,0
							C278.2,1723.8,272.5,1735.6,266.3,1748.6z"/>
						<path d="M370.4,1297.9c-6.8-0.5-11.6-1-16.5-1.2c-0.5-0.7-0.7-1.2-1.2-1.9c2.4-1,5.1-2.2,7.5-3.2c-0.7-0.7-1.5-1.2-2.2-1.9
							C361.6,1292.1,365.3,1294.5,370.4,1297.9z"/>
					</g>
				</g>
			</g>
		</g>
	</g>
</g>
</svg>
