<?xml version="1.0" encoding="utf-8"?>
<!-- Generator: Adobe Illustrator 25.4.1, SVG Export Plug-In . SVG Version: 6.00 Build 0)  -->
<svg version="1.1" id="Layer_1" xmlns="http://www.w3.org/2000/svg" xmlns:xlink="http://www.w3.org/1999/xlink" x="0px" y="0px"
	 viewBox="0 0 653.6 653.6" style="enable-background:new 0 0 653.6 653.6;" xml:space="preserve">
<style type="text/css">
	.st0{fill:#931620;}
	.st1{clip-path:url(#SVGID_00000016770939810754346680000011952421630975057840_);}
	.st2{clip-path:url(#SVGID_00000070108897364040796730000003869367510567551363_);fill:#B22032;}
	.st3{clip-path:url(#SVGID_00000106134438166055198000000002065792113550525321_);}
	.st4{clip-path:url(#SVGID_00000133526420319131822410000012554638139692945566_);}
	.st5{fill:#17191B;}
</style>
<g>
	<circle class="st0" cx="326.8" cy="326.8" r="326.8"/>
	<g>
		<g>
			<defs>
				<circle id="SVGID_1_" cx="326.8" cy="326.8" r="326.8"/>
			</defs>
			<clipPath id="SVGID_00000166639612925999801930000006845431257058888079_">
				<use xlink:href="#SVGID_1_"  style="overflow:visible;"/>
			</clipPath>
			<g style="clip-path:url(#SVGID_00000166639612925999801930000006845431257058888079_);">
				<g>
					<defs>
						<circle id="SVGID_00000091708590427795377190000002379925318104218790_" cx="325.7" cy="324" r="326.8"/>
					</defs>
					<clipPath id="SVGID_00000028292981294865153300000003487107456268040361_">
						<use xlink:href="#SVGID_00000091708590427795377190000002379925318104218790_"  style="overflow:visible;"/>
					</clipPath>
					<path style="clip-path:url(#SVGID_00000028292981294865153300000003487107456268040361_);fill:#B22032;" d="M719.4,653.6
						C425.9,653.6-4.6,507.8,73,54.4l-314.6,147.1L-114.9,949L719.4,653.6z"/>
				</g>
			</g>
		</g>
		<g>
			<defs>
				<circle id="SVGID_00000134967562208090736630000007855406664972061335_" cx="326.8" cy="326.8" r="326.8"/>
			</defs>
			<clipPath id="SVGID_00000037683337964654412880000016322595651129328036_">
				<use xlink:href="#SVGID_00000134967562208090736630000007855406664972061335_"  style="overflow:visible;"/>
			</clipPath>
			<path style="clip-path:url(#SVGID_00000037683337964654412880000016322595651129328036_);" d="M0.2,633.6
				c-0.9-4.6,19.7-18,23.7-20.5c17.2-11.1,18.4-12.6,37-21.1c6.1-2.8,12.4-5.4,18.5-8.2c14.4-6.7,27.9-15,42.4-21.5
				c51.4-22.9,112.5-21.5,159.9-51.9c6-3.8,11.9-8.2,18.7-10.1c7.9-2.1,16.1-0.6,24.2,0.2c39.6,3.5,78-12.3,114.6-27.9l9.7-3.9
				c8,6.8,7.8,19.5,4.3,29.5s-4.6,24-5.9,34.4c-2.5,19,8.4,33.8,2.3,52c-2.6,7.9-13.9,22.5-18.2,29.6
				c-11.6,19.1-24.2,39.4-31.8,67.8"/>
		</g>
		<g>
			<defs>
				<circle id="SVGID_00000029005578951113504440000002235689480869865622_" cx="326.8" cy="326.8" r="326.8"/>
			</defs>
			<clipPath id="SVGID_00000090259387746973048380000007306346344050276267_">
				<use xlink:href="#SVGID_00000029005578951113504440000002235689480869865622_"  style="overflow:visible;"/>
			</clipPath>
			<g style="clip-path:url(#SVGID_00000090259387746973048380000007306346344050276267_);">
				<path class="st5" d="M528.1,77.1c-18.6,15.2-44.6,15.7-68.5,17.9c-18.6,1.7-37,4.8-55.1,9.4c-13.9,3.5-28.8,8.7-36.5,20.8
					c18.9,2.6,38.1,0.8,57.2,0.2c56.4-1.9,113,6,169.1,0.2c-10.3-18.5-20.7-37.1-31-55.6c-4.5-8.1-6.1-13.6-15.8-8.9
					C540,64.6,534.5,71.8,528.1,77.1z"/>
				<path class="st5" d="M617.2,151c-5.3,0.5-10.9,1.1-15.5,3.8c-2,1.1-3.8,2.6-5.8,3.5c-4.1,1.7-8.7,1-13.1,1.1
					c-11,0.1-21.9,5.3-28.8,13.9c30.5-0.7,61.1-1.4,91.4-5.5c3.3-0.4-5.2-16.1-7.2-17.3C632.7,147.4,623.4,150.4,617.2,151z"/>
			</g>
		</g>
	</g>
</g>
<g>
	<path d="M388,583.6c-1.6-1-3.1-1.9-4.7-2.9c-1.4-0.9-2.7-1.9-4.2-2.5c-1-0.4-2.3-0.6-3.4-0.4c-4.8,0.9-9.2-0.1-13-3.2
		c-0.3-0.3-0.8-0.4-1.1-0.6c-4.9-2.6-9-6-10.1-11.8c-1.1-5.6-5.3-9.5-8-14.1c-1.4-2.3-2.9-4.6-4.6-6.6c-2.5-3.1-5.3-5.7-9.6-6.3
		c-1.9-0.3-3.6-1.6-5.4-2.2c-1-0.4-2.4-1-3.2-0.6c-5.2,2.9-11.1,3-16.7,4.1c-8,1.6-16.1,2.9-24.2,4.3c-0.2,0-0.3,0.1-0.5,0.1
		c-5.6-0.8-8.5,2.1-10,7.2c-0.6,2.2-1.9,4.2-3.1,6.8c6.9,0.9,13.1,1.8,19.4,2.6c0.4,0,1-0.1,1.2-0.4c1.5-2.2,3-1.3,4.5,0
		c3.5,2.9,7.3,1.9,11.2,1.1c1.9-0.4,3.9-2,5.6,0.5c0.1,0.2,0.6,0,1,0c3.3-0.1,6.6-0.4,10-0.3c2.5,0,5,0.5,7.6,0.8
		c-0.5,0.9-0.7,1.3-0.8,1.6c1.1,0.4,2,0.9,3,1.1c0.6,0.1,1.2,0,1.8-0.2c0.5-0.2,1-0.7,1.4-1c0.3,0.6,0.6,1.3,0.9,2.1
		c-3.3,0.8-6.3,1.5-9.6,2.3c0.3,0.7,0.4,1.8,0.8,1.9c3.8,1.2,7.6,2.3,11.7,3.5c-1.4,2.3-3.8,2.6-6,3.2c-1.7,0.4-3.4,0.5-5.1,0.9
		c-0.8,0.2-1.6,1-2.5,1.6c3.5,1.8,6.6,3.4,9.8,5c0,0.3-0.1,0.5-0.1,0.8c-2.2,0.3-4.5,1-6.7,0.8c-3.9-0.5-5.2,2.3-7.1,4.6
		c-0.3,0.4-0.5,0.9-0.7,1.5c2.4,1.9,4.8,3.9,7.6,6.2c-3.9,0.8-6.9-0.4-10-1.4c-1.1-0.3-2.3-0.2-3.5-0.3c-1.5,0-3.3,0.5-4.5-0.1
		c-3.7-1.8-7.6-1.6-11.5-2.1c-2.5-0.3-4.8-1.4-7.3-1.8c-2.4-0.4-4.9-0.4-7.4-0.7c-3.6-0.6-7.2-1.5-10.9-2.1
		c-1.9-0.4-3.9-0.3-5.8-0.9c-2.2-0.7-4.3-1.9-6.5-2.9c-0.5-0.2-1.1-0.6-1.7-0.6c-3-0.4-6-0.6-8.9-1c-4.6-0.6-9.2-1.4-13.8-2
		c-3.5-0.4-7.1-0.7-10.7-0.9c-0.3,0-0.6,0.6-1,1c-3.8-0.3-8.1-0.6-12.6-1c0.1,0.4,0.2,0.8,0.3,1.2c-0.2,0-0.3,0.1-0.5,0.1
		c-4.3-1-8.7-1.9-13-2.9c-2.3-0.5-4.5-0.3-6.8-0.3c-4.3-0.1-8.5-1.5-12.7-2.2c-2.4-0.4-4.9-0.3-7.4-0.7c-2.6-0.4-4.9-1.5-6.4-4.2
		c-0.8,0.1-1.8,0.1-3.1,0.2c-0.1-1.3-0.2-2.5-0.3-3.9c-1.4-0.3-2.7-0.5-3.7-0.7c-1.3-1.2-2.2-2.5-3.5-3.1c-2.5-1.1-4.8-2.6-7.7-2.9
		c-1.3-0.1-2.4-1.8-4-3c-1.6-0.1-3.8-0.1-6.1-0.3c-1.9-0.2-3.7-0.6-5.6-0.8c-1.6-0.2-2.5-0.9-2.4-2.7c0-0.6-0.5-1.1-0.7-1.7
		c-0.1-0.3-0.3-0.6-0.4-0.9c3.3-1.6,0.2-5.1,2.3-7.3c0.6-0.7,0-2.6-0.3-4c-0.3-1.5-0.6-2.8,1.4-3.4c0.7-0.2,1.6-2.1,1.3-2.4
		c-1.7-2.1-0.2-3.6,1-4.8c2.7-2.9,2.7-6.3,2.7-10.3c-11.1,5.9-22.7,9-34.9,9.6c-0.1-0.4-0.2-0.7-0.3-1.1c3.1-1.4,6.3-2.7,9.4-4.1
		c1.5-0.7,2.9-1.6,4.4-2.3c2.6-1.3,5.2-2.4,7.7-3.8c3-1.7,5.8-3.7,8.7-5.5c5.8-3.7,11.6-7.5,17.5-11.2c1.5-0.9,3.2-1.3,3.2-3.8
		c0-1.2,1.5-2.4,2.1-3.7c0.3-0.7,0.3-1.5-0.1-2.6c-1.3,1.3-2.6,2.6-3.9,3.9c-0.1-0.1-0.2-0.2-0.4-0.3c1.6-1.8,3.1-3.7,4.8-5.3
		c1.8-1.6,2.8-4.3,5.7-4.5c0.3,0,0.8-0.8,0.8-1.2c0.3-4.2,2.8-7.3,5.3-11.4c-1.6,0.3-2.8,0.4-3.9,0.8c-3.5,1.3-7,2.8-10.5,4
		c-3.8,1.3-7.6,2.6-11.6,3.3c-4.8,0.8-9.6,1-14.4,1.4c-0.9,0.1-1.8-0.2-3.2-0.4c6.6-2.5,12.8-4.5,18.7-7.3
		c7.3-3.5,14.2-7.7,21.3-11.5c4-2.2,8.1-4.3,12.2-6.1c2.7-1.2,5.2-2.1,6.1-5.5c0.3-1.2,1.6-2.2,2.7-3.1c1.2-0.9,1.7-1.8,1.9-3.4
		c0.6-3.5,1.9-6.8,5.3-8.9c1.3-0.8,2.4-1.9,3.7-3c-0.7-0.3-1.2-0.5-1.6-0.7c0.3-0.4,0.6-0.9,0.9-1.3c1-1.1,1.7-2.1,1.2-3.8
		c-0.2-0.8,0.4-2.1,1.1-2.7c1-1,2.4-1.7,3.5-2.6c0.5-0.4,1.3-1,1.2-1.2c-0.9-3,2.2-3.1,3.3-4.5c0.2-0.2,0.6-0.3,0.9-0.5
		c-2.1-4.6,3.9-3.7,4.2-7c-2.5-0.1-5.1-0.3-7.7-0.3c-10.7,0-21,2.8-31.5,4.9c-11.2,2.2-22.6,2.8-34,0.6c-2.4-0.5-4.8-0.6-7.2-0.8
		c0-0.3,0-0.7-0.1-1c2.5-0.4,5-0.9,7.5-1.2c10.2-1.2,20.2-3.5,30-7c5.6-2,11.2-3.8,16.8-5.6c3.5-1.2,7-2.5,10.6-3.5
		c2.3-0.6,4.7-0.6,7.1-0.9c8.1-1,15.9-2.9,22.7-7.6c0.6-0.4,0.9-1.5,1.2-2.3c0.5-1.1,0.8-2.2,1.5-3.2c0.9-1.4,1.9-2.8,3-4.3
		c-1.6,0.1-2.9,0.2-4.2,0.3c-0.1-0.2-0.1-0.3-0.2-0.5c2.6-2.2,5.4-4.2,7.7-6.6s4.4-5,6.3-7.8c1.4-2,0-4.6-2.7-5.6
		c0.4-0.6,0.9-1.2,1.5-1.9c-5.2-1.9-9.8-3.3-14.6,0.6c-3.7,3-7.9,5.3-12,7.9c-0.5,0.3-1.1,0.3-2,0.6c1.7-2.6,3-4.9,4.6-7
		c1.1-1.5,1.8-3,1.1-4.7c-0.7-1.8-2.3-2.8-4.3-2.8c-8.3,0-16.5-0.2-24.8,0.3c-4.3,0.3-8.6,1.7-12.8,3c-8.3,2.5-16.4,5.5-24.2,9.4
		c-3.8,1.9-6.7,4.5-9.9,7c-0.2,0.1-0.4,0.3-0.6,0.4c-2.3,0.5-4.7,1.1-6.9,1.6c-1.4,3.7-5,3.3-7.5,4.9c-0.2-0.2-0.4-0.4-0.6-0.6
		c1.6-2.3,3.2-4.6,5-7.2c0.3,0,1.1-0.2,1.8-0.3c-0.1-0.1-0.2-0.3-0.4-0.4c2-2.2,4.1-4.4,6.6-7.1c1.8,0.1,3.6-0.6,4.4-3.5
		c0.3-1.1,2.3-1.6,3.5-2.4c1-0.6,2-1.3,3-1.9s1.9-1.1,2.9-1.7c1.3-0.8,2.6-1.5,3.7-2.5c1.3-1.2,3.4-1.1,4.1-3.2
		c0.2-0.7,2.2-0.9,3.4-1.3c3.1-1.2,6.2-2.4,9.3-3.6c0.6-0.2,1.3-0.2,2-0.4c0.5-0.1,1.4-0.2,1.4-0.4c0.5-2.9,2.8-1.8,4.4-2.1
		c4.2-0.7,8.5-0.8,12.5-2.1c8.3-2.8,16.8-3.2,25.4-3.5c1.7-0.1,3.4-0.1,5.1-0.5c3.2-0.6,6.3-0.4,9.3,1.1c0.6,0.3,1.4,0,2,0.1
		c4,0.4,7.9,0.9,11.9,1.1c1.9,0.1,4.1,0.7,5.6-1.5c1.4-2.1,3.4-3.7,4.7-5.8c0.5-0.9-0.1-2.4,0-3.6c0.1-1.1,0.1-2.4,0.6-3.4
		c2.2-4.5,4.7-8.8,6.8-13.3c0.9-1.9,1.1-4.1,1.7-6.1c0.5-1.4,1.2-2.6,1.7-4c0.6-1.7,1.3-3.5,1.6-5.2c0.1-0.4-1-1-1.9-1.8
		c0-5.2,5.4-8,7.3-12.8c-0.7-0.3-1.4-0.7-2.4-1.2c5.1-5.1,10.9-9.9,8.2-18.9c0.5-1.3,4.1-2.5,1.7-5.7c0.6,0.3,1.3,0.7,2,1.1
		c1.1-1.5,2.1-2.9,1.7-5.2c-0.3-1.5,1.3-3.3,2-4.9c0.3-0.6,0.7-1.1,1.1-1.9c-4.2-2.1-8.2-4.2-12.3-6.2c-1.6-0.8-3.3-1.2-4.8-2.1
		c-0.7-0.4-1.4-1.4-1.4-2.1c0-0.8,0.7-2,1.4-2.3c2.9-1.2,5.9-2.1,8.9-3.3c4.6-1.8,9.1-3.7,13.7-5.6c0.8-0.3,1.4-0.9,2-1.6
		c3.1-3.7,7.5-5.3,11.5-7.7c1.2-0.7,2.8-0.5,4.2-0.9c2.2-0.6,4.3-1.3,6.4-2.4c-2.5-0.1-5-0.2-7.5-0.4c0-0.1,0-0.2,0-0.3
		c1.3-0.1,2.5-0.3,3.8-0.2c5.3,0.2,10.1-1.2,14.6-4.1c1-0.6,2.4-0.9,3.6-0.8c3.4,0.2,6.8,1.2,10.2,1c2.9-0.2,6-1,8.5-2.4
		c6.7-3.8,13.2-8,19.7-12.3c3.7-2.4,7.1-5.3,10.7-8c3.3-2.5,8.1-1.5,9.8,2.4c2,4.5,3.9,9.1,3.8,14.1c0,1.7-0.8,3.5-1.7,5.1
		c-1.3,2.3-2.9,4.4-4.9,6.2c-0.5,0.5,0.1,2.4,0.4,3.6c0.2,0.9,0.5,1.8,0.8,2.7c-0.2,0.1-0.4,0.3-0.6,0.4c-0.9-0.7-1.8-1.4-2.9-2.2
		c-2.7,2.4-5.4,4.8-8.1,7.3c-1,1-1.6,2.3,0.3,3.3c3.1,1.7,5.8,3.7,9.8,2.9c3-0.6,6.2-0.1,9.4,0.3c1.7,0.2,2.2-0.3,2.2-1.9
		c0-1.7,0.2-3.4,0.3-5.2c0.2-0.1,0.4-0.1,0.6-0.2c0.6,1.7,1.2,3.4,1.9,5.3c0.6-0.7,1-1.3,1.5-1.8c0.2,0.2,0.4,0.4,0.5,0.6
		c0.9,1.8,1.8,3.7,2.7,5.5c0.7,1.5,1.1,3.3,3.4,3.1c0.4,0,1,0.7,1.2,1.2c1.1,2.7,0,6.2-2.4,8c-0.6,0.4-1,1.1-1.4,1.7
		c-0.5,0.6-0.8,1.5-1.4,1.9c-6.9,4.5-14.1,8.6-21.6,12c-2.2,1-3.5,3.7-5.6,5.2c-2,1.5-2.6,3.1-2.1,5.3c0.1,0.5,0.2,1,0.5,1.4
		c1,1.6,2.3,3,2.9,4.6c0.8,2,1,4.2,1.7,6.3c1.1,3.3,2.8,6.4,3.4,9.8c0.6,3.3,0.2,6.9,0.3,10.3c0.1,2.9,0.1,5.8,0.5,8.7
		c0.1,0.6,1.9,1.1,1.9,1.7c0,1.4-0.8,2.7-1,4.1c-0.1,1.5,0.1,3.1,0.2,4.7c0,0.4,0.4,1,0.2,1.3c-0.3,0.9-0.9,1.7-1.3,2.5
		c-0.2,0.4-0.2,0.8-0.2,1.2c0.2,1.6,0.3,3.3,0.9,4.8c0.2,0.6,1.5,0.9,2.9,1.7c-0.7,1.8-1.7,3.8-2.2,6c-0.9,3.9-1.1,7.9-2.1,11.8
		c-0.8,3.1-0.7,5.8,0.5,8.8c0.3,0.9-0.9,2.7-1.9,3.6c-1.2,1.1-2.2,2.1-2.9,3.8c-5.6,13.6-8.7,28-12.4,42.1c-1.2,4.7-1.7,10-4.3,14
		c-3.3,5.1-0.4,9.1,0.6,13.3c1,3.9,2.8,7.6,4.1,11.4c0.3,0.8-0.1,1.8-0.1,2.8c0,0.5-0.1,1.4,0.1,1.5c2.2,0.9,2.1,2.9,2.5,4.7
		c0.7,2.6,1.7,5.1,2.6,7.6c2.7,7.7,5.5,15.4,8.2,23.1c0.8,2.1,1.6,4.3,2.3,6.4c-0.7,0.9-1.6,1.9-2.3,2.8c0.3,0.4,0.4,0.7,0.5,0.7
		c3.3-0.2,4.6,1.5,6,4.4c3.2,7,4.4,14.4,6.2,21.7c0.9,3.4,2.4,6.8,4,10c0.7,1.3,2.5,2.2,3.9,2.9c3.3,1.6,6.8,2,10.6,1.8
		c2.9-0.2,5.3,1.3,7.1,3.6c1.4,1.9,2.8,3.3,5.3,3.6c1.6,0.2,3,1.3,3.6,3.2c0.2,0.8,1.1,1.5,1.7,2.2c0.6,0.9,1.2,1.8,2.1,3.1
		c-4.2-0.6-7.6-1.1-11.5-1.7c1.2,2.6,2.1,4.5,3,6.4c-1.7-0.5-3.7-1.2-5.8-1.5c-2.1-0.3-4.3,0-6.4,0c-2.4,0.1-4.8,0.3-7.2,0.2
		c-3.2-0.1-6.3-0.6-9.4-0.7c-2.3-0.1-4.9-0.4-6,2.8c-0.3-0.9-0.6-1.8-0.9-2.8c-1.6,0.2-3.1,0.4-4.7,0.6c0-0.3-0.1-0.6-0.1-1
		c1.5-0.2,3-0.4,5.2-0.6c-0.4-2.5-0.9-5.2-1.3-7.8c-1.8,0-3,0-4.1,0c0-0.1,0-0.2,0-0.4c1-0.1,2-0.3,3.6-0.5
		c-1.9-3.9-3.6-7.7-5.4-11.3c-2-3.9-4-7.8-6.3-11.6c-1.4-2.3-2.9-4.5-4.9-6.2c-2.4-2-3.8-4.4-4.2-7.3c-3.5-0.1-5.9-2-8.2-4.2
		c-3.7-3.5-7.5-6.8-11.3-10.2c-0.5-0.4-1.2-0.8-1.8-1c-2-0.5-3.3-1.6-3.8-3.7c-0.1-0.4-0.8-0.7-1.2-1c-0.3,0.4-1,1-0.9,1.3
		c0.5,2,1.2,3.9,2,5.8c0.1,0.3,1.1,0.3,1.7,0.4c3.4,7.2,6.9,14.7,10.5,22.3c4.2-0.8,8.1-0.3,11.4,3.2c-2,0.5-3.9,0.8-5.6,1.5
		c-1,0.4-2.3,1.6-2.2,2.3c0.1,1,1.4,1.7,2.2,2.6c0.2,0.2,0.5,0.4,0.1,0.8c0,0.9-0.3,1.9,0.1,2.7c1.4,3.5,3.2,6.8,4.5,10.3
		c1.3,3.4,4,3.7,7,3.7c0.8,0,1.5-0.1,2.3,0.4c-1.6,0.1-3.3,0.2-4.8,0.3c-0.6,2.1,0.5,3,1.7,4.2c3.6,3.7,8.2,3.5,12.7,4.2
		c-2.7,0.1-5.4,0.1-8.2,0.2c-0.2,1.4,0.2,2.2,1.9,2.6c5.2,1,9,5,13.6,7.2c3.8,1.8,6.5,4.7,9.3,7.8c1.8,2,4.2,3.6,5.6,6
		c0.9,1.5,1.1,2.7-1,3c0.3,1.1,0.6,2.1,1,3.3c-5.5-1.5-9.9-6.8-16-2.9c1,2.5,1.9,4.8,2.8,7.1C388.3,583.2,388.1,583.4,388,583.6z
		 M330,462.6c-0.4,0.2-0.8,0.4-1.3,0.6c0.8,2.5,1.6,5.1,2.6,7.6c0.4,0.9,1.9,1.4,2.2,2.3c0.5,2.1,1.7,3,3.7,3.5
		c4.1,1.1,8.1,2.2,12.1,3.3c1.3,0.4,2.5,0.8,4.3,1.4c-4.2-8.5-8.1-16.3-12.1-24.3c-3.4,3.1-6.5,6-9.5,8.7
		C331.2,464.4,330.6,463.5,330,462.6z M288.5,520.8c8-1.3,15.4-2.5,23.4-3.9c-4.8-5.1-10.3-7.3-15.9-9.3c-0.4-0.1-1.2,0.4-1.5,0.9
		c-1.8,3-3.4,6.1-5.1,9.3C289.1,518.4,288.9,519.3,288.5,520.8z M298.4,499.5c4.4,1.2,8.2,2.2,12,3.2c0.1-0.2,0.2-0.4,0.3-0.6
		c-2.4-3.9-4.8-7.8-7.2-11.6c-0.3,0-0.6,0-0.9,0C301.3,493.4,299.9,496.3,298.4,499.5z"/>
	<path d="M315.9,556.8c-2.8-0.2-4.8-0.4-6.8-0.5c-0.2-0.3-0.3-0.5-0.5-0.8c1-0.4,2.1-0.9,3.1-1.3c-0.3-0.3-0.6-0.5-0.9-0.8
		C312.3,554.4,313.8,555.4,315.9,556.8z"/>
</g>
</svg>
