<?xml version="1.0" encoding="utf-8"?>
<!-- Generator: Adobe Illustrator 25.4.1, SVG Export Plug-In . SVG Version: 6.00 Build 0)  -->
<svg version="1.1" id="Layer_1" xmlns="http://www.w3.org/2000/svg" xmlns:xlink="http://www.w3.org/1999/xlink" x="0px" y="0px"
	 viewBox="0 0 925.3 1057.9" style="enable-background:new 0 0 925.3 1057.9;" xml:space="preserve">
<style type="text/css">
	.st0{fill-rule:evenodd;clip-rule:evenodd;fill:#FFFFFF;}
	.st1{fill:#FFFFFF;}
	.st2{clip-path:url(#SVGID_00000020379712622874104020000012851079047634410687_);}
</style>
<ellipse id="moon" cx="428" cy="629.8" rx="428" ry="428.1"/>
<g id="layer1" transform="translate(0,-1020.3622)">
	<path id="path12387" class="st0" d="M911.1,1020.4c7.7-0.1,14,6,14.1,13.7s-6,14-13.7,14.1c-0.1,0-0.3,0-0.4,0h-27.9v72.4
		c13.3,10.3,24.6,21.6,32,33.1c8.5,13.3,14.2,28.4,6.5,42.8c-0.3,0.5-0.6,0.9-0.9,1.4l-87.4,125c-0.9,1.3-2.1,2.5-3.4,3.5
		c-10.5,11.6-26.6,16.1-42.7,14.9c-17.8-1.3-36.8-8.4-54.4-20.7c-17.6-12.3-32.6-27.1-38.1-44c-7.6-23.6-6.4-38.2,5.6-55.3l50.5-72
		v-101.2H723c-7.7,0.1-14-6-14.1-13.7s6-14,13.7-14.1c0.1,0,0.3,0,0.4,0L911.1,1020.4z M855.3,1048.2h-76.6v61.5l5.7-8.1
		c0.4-0.6,0.9-1.2,1.5-1.7c6.4-6.5,14.2-9.2,22.6-9.7c2.8-0.3,5.7,0,8.5,0.3c3.9,0.4,7.8,1.1,11.7,2c8.6,2,17.6,5.7,26.7,10.2
		L855.3,1048.2z M740.5,1236.5c-11.6-0.8-18.3,2.3-21.3,6.6c-3,4.3-3.6,11.7,1.1,22.3c4.7,10.6,14.7,22.8,28.6,32.6
		c13.9,9.7,28.8,14.9,40.3,15.7c11.6,0.8,18.3-2.2,21.3-6.5s3.6-11.7-1.1-22.3c-4.7-10.6-14.7-22.8-28.6-32.5
		C766.8,1242.5,752,1237.3,740.5,1236.5L740.5,1236.5z"/>
	<path id="path12389" class="st0" d="M774.1,1312.9c-5.8,0-10.9,3.5-13,8.9l-104.2,256.5l22.3,19.1l107.7-265.1
		c3-7.1-0.3-15.3-7.4-18.3C777.8,1313.3,776,1312.9,774.1,1312.9z M626.5,1653.1L561,1814.3c-3.1,7,0,15.3,7.1,18.4
		c7,3.1,15.3,0,18.4-7.1c0.1-0.3,0.2-0.5,0.3-0.8l62-152.6L626.5,1653.1z"/>
	<path id="path12391" class="st0" d="M711.4,1269.4c7.7-0.2,14.1,5.9,14.2,13.6c0.1,4.3-1.8,8.3-5,11L191,1747
		c-5.6,5.3-14.4,5-19.7-0.6s-5-14.4,0.6-19.7c0.3-0.3,0.7-0.6,1.1-0.9l529.6-452.9C704.9,1270.7,708.1,1269.5,711.4,1269.4z"/>
	<path id="path10080" class="st1" d="M214.5,1585.6c0,15.4-12.5,27.9-27.9,27.9s-27.9-12.5-27.9-27.9s12.5-27.9,27.9-27.9
		S214.5,1570.2,214.5,1585.6z"/>
	<path id="path10082" class="st1" d="M730.2,1759.8c0,15.4-12.5,27.9-27.9,27.9s-27.9-12.5-27.9-27.9s12.5-27.9,27.9-27.9
		C717.7,1732,730.2,1744.4,730.2,1759.8z"/>
	<path id="path10084" class="st0" d="M569.9,1655.3l-46.5-19.9l-23.2-49.8l-23.2,49.8l-46.5,19.9l46.5,19.9l23.2,49.8l23.2-49.8
		L569.9,1655.3z"/>
	<path id="path10086" class="st1" d="M827.7,1474.2c0,15.4-12.5,27.9-27.9,27.9s-27.9-12.5-27.9-27.9s12.5-27.9,27.9-27.9
		S827.7,1458.8,827.7,1474.2z"/>
	<circle id="circle10088" class="st1" cx="298.1" cy="1752.9" r="13.9"/>
	<circle id="circle10090" class="st1" cx="549" cy="1857.4" r="13.9"/>
	
		<ellipse id="circle10092" transform="matrix(3.327797e-02 -0.9994 0.9994 3.327797e-02 -1632.5105 1845.8281)" class="st1" cx="137.9" cy="1766.8" rx="13.9" ry="13.9"/>
</g>
<g id="fear-wolf">
	<g>
		<g>
			<defs>
				<ellipse id="SVGID_1_" cx="428" cy="629.8" rx="428" ry="428.1"/>
			</defs>
			<clipPath id="SVGID_00000043453026176071695090000015654448420438614957_">
				<use xlink:href="#SVGID_1_"  style="overflow:visible;"/>
			</clipPath>
			
				<g id="wolf_outline_00000114034702432508291410000009237159085990461073_" style="clip-path:url(#SVGID_00000043453026176071695090000015654448420438614957_);">
				<path class="st1" d="M155.1,1065.8c-2.8-8.1-4.1-16.5-4.1-25.1c0-7.9-1.1-15.5-2.7-23.3c-1.6-7.8-1.4-16-1.8-24
					c-0.5-11.5-0.5-23-1-34.4c-0.5-10.4-0.4-20.8,1.8-31.5c-2.2,1-4.1,1.9-6.2,2.9c-0.1-0.4-0.2-0.7-0.1-0.9
					c8.4-16.4,13.7-34,19.8-51.3c1.4-3.9,4.3-7.9,3.8-11.6c-0.5-3.6-4.5-6.6-6.7-10c-6.4-9.9-13.1-19.7-16.5-31.1
					c-5.9-19.8-1.9-38.5,7.4-56.3c2.6-4.9,5.5-9.7,8.8-15.4c-14.9,8.3-30.1,11.9-46.6,8.4c0.8-0.4,1.4-0.8,2.2-1
					c18.6-5.2,30.9-18,40.9-33.7c6-9.5,10.8-19.6,14.7-30.1c0.3-0.9,0.6-1.8,1-3.2c-14.5,4.3-27.5,10.9-41.1,18.1
					c0.7-1.4,1-2.2,1.5-2.9c11.8-17.3,23.8-34.5,35.5-51.8c3.3-4.9,7.8-6.8,13.4-6c2.8,0.4,3.9-0.7,4.9-3.2
					c5.5-13.6,12.9-26.2,21.8-37.9c0.5-0.7,1-1.4,1.3-1.9c-14.6,0-29.3,0-44.7,0c3.5-4.1,6.4-7.7,9.4-11.1
					c9.5-10.9,18.7-22,28.5-32.6c5.8-6.2,13.2-10.5,21.9-10.9c4.7-0.2,9.4,0.9,14.1,0.8c4.7-0.1,9.4-0.7,14-1.4
					c1.5-0.2,3-1.4,4.3-2.4c18.2-13.3,38.5-20.9,61-20.1c17.2,0.6,34.5,2,50.8,8.8c6.4,2.7,13.3,4.1,19.9,6.3c2.4,0.8,4,0.2,5.8-1.4
					c18.8-16.4,38.5-31.6,59.8-44.6c26.5-16.2,54.4-29.4,83.6-39.9c10.1-3.7,20.7-5.4,31.5-5c9.3,0.3,15.6,4.5,18.9,13.3
					c0.6,1.6,1.2,3.1,1.8,4.8c0.7-0.5,1.3-0.9,2-1.4c0.3,0.2,0.6,0.4,0.9,0.7c4,4.2,4.3,9.7,5.1,15.1c0.3,2,1,4.2,2.1,5.9
					c7.3,11.5,14.3,23.2,18.8,36.2c4.9,14.2,3.3,27.7-4.8,40.3c-0.5,0.8-1.6,1.1-2.9,2.1c1.3,0.8,2.9,2.4,4.7,2.9
					c7.4,1.8,9.1,6.8,9.3,13.1c0.3,9.3-1.4,18.4-3.4,27.4c-3.5,15.3-13.4,24.1-28.5,26.5c-23.6,3.7-45.2,12.5-65.6,24.3
					c-22.1,12.8-43.7,26.5-62.9,43.6c-2.3,2-4.4,4.2-6.7,6.2c-2.2,2-2.7,4-1.7,7.1c2.9,9,3.3,18.1-0.6,27.1
					c-0.3,0.6-0.6,1.3-0.9,1.9c-0.2,0.3-0.4,0.6-0.8,1.2c-0.9-3.6-1.8-6.9-2.9-11c-4.1,5.7-8.6,10-9.9,16.3
					c-1.3,6.5-2.4,13.1-3.7,19.7c-0.4,2.3,0,3.7,2.5,4.8c11.9,5.4,24,9.9,38.2,9.9c-12.9,7.3-25.7,12-40.4,12.8
					c1.1,4.4,2.2,8.5,3.1,12.7c0.2,1.1-0.2,2.3-0.8,3.5c2.6,6.9,9.2,9.9,14.9,14c-8.1,0.6-15.4-1.5-23-5.9c1.7,2.9,3,5,4.1,7.2
					c4.5,9.2,5.8,18.9,4.2,29c-0.2,1.1,0.1,2.6,0.8,3.4c19.6,23.2,30.8,50.2,35.1,80.1c1.5,10.4,2.3,20.9,3.8,31.3
					c1.2,8.9,3.2,17.8,4.3,26.7c2,16.2,3.7,32.4,5.4,48.6c0.3,3,0,6.1,0,9.4C376.9,1065.8,266.2,1065.8,155.1,1065.8z"/>
			</g>
		</g>
	</g>
</g>
</svg>
