<?xml version="1.0" encoding="utf-8"?>
<!-- Generator: Adobe Illustrator 25.4.1, SVG Export Plug-In . SVG Version: 6.00 Build 0)  -->
<svg version="1.1" id="Layer_1" xmlns="http://www.w3.org/2000/svg" xmlns:xlink="http://www.w3.org/1999/xlink" x="0px" y="0px"
	 viewBox="0 0 460.5 408.3" style="enable-background:new 0 0 460.5 408.3;" xml:space="preserve">
<g>
	<path d="M55.4,392.1c-1.7-9.9-3.4-19.7-4.9-28.9c0.4-2.3,1.3-4.3,1.1-6.2c-0.8-11.7-2.1-23.4-2.7-35.1c-0.4-8.6,0.2-17.3,0-26
		c-0.1-2.6-1.4-5.2-2.9-7.7c-2.8,14-3.6,28.3-11.9,40.3c-0.4-0.1-0.9-0.2-1.3-0.4c0.7-2.6,1.5-5.3,2.2-7.9c2.1-7.5,3-15.2,1.3-22.9
		c-0.3-1.2-1.9-2.7-3.1-2.9c-2.6-0.4-5.5-0.8-7.8,0c-5.8,2.1-10.7-0.4-15.6-2.3c-1.5-0.6-3.1-3.6-2.8-5.1c0.5-3.2,2-6.4,3.6-9.3
		c2.4-4.1,6-7.7,7.8-12c1.6-3.7,3.4-9.3,1.8-12.2c-4.1-7.1-9.9-8.2-16.8-5.8c-1,0.3-2.1,0.2-3.5,0.4c6.9-7.9,14.8-8,23.9-3.6
		c0.7-2.2,2.2-4.3,1.7-5.6c-1.5-3.6,0.1-5.7,1.9-8.4c3.2-4.9,4.9-10.2,4.2-16.3c-0.2-2.3,1.6-4.9,2.8-7.2c1.9-3.7,2.6-7.1,1.9-11.7
		c-0.6-4.3,2.1-9.4,4.1-13.8c1.9-4.3,3.2-8.2,3.5-13.1c0.6-12.5,5.3-23.8,13.8-33.3c3.8-4.2,6.9-9,10.3-13.5
		c0.3-0.4,0.5-1.1,0.8-1.2c4.9-1.3,6.9-4.7,7.1-9.5c0-0.5,1.5-1,2.3-1.4c2.4-1.3,4.9-2.5,8.2-4.2c-10.8-8.8-20.3-17.8-25.7-30.5
		c1.2,1.1,2.3,2.4,3.7,3.3C74.8,84.7,85,91.5,95.6,97.7c2.5,1.5,6.4,0.8,9.7-0.1c-0.8-0.4-1.6-0.9-3.2-1.8c7,0,13.1,0,19.3,0
		c-10.6-10.2-20.7-19.7-26-33.3c6.9,5.2,13.5,10.7,20.6,15.4c8.4,5.6,17,10.9,25.9,15.6c5.2,2.7,11.1,4.1,17.2,1.4
		c1.6-0.7,4.1,0.3,7-0.6c-4.1-3.9-7.9-8-12.2-11.6c-8-6.7-16.6-12.6-24.2-19.7c-5.5-5.2-9.7-11.8-14.4-17.7c0.4-0.4,0.8-0.7,1.2-1.1
		c5.8,4,11.5,8.2,17.5,11.9c6.5,4,13.1,7.7,20,11c13,6.3,24.5,14.2,33,26.2c1.1,1.5,4.9,1.2,8.6,1.9c-1.1-2.5-1.6-3.4-2.1-4.5
		c2.7-1.4,7.4,0.8,7.5-4.6c0-0.4,2.3-0.9,3.6-1c1.6-0.1,3.2,0.1,5.3-0.5c-10-15.4-20.5-30.1-35.6-41c-15.1-11-33.2-14.2-50.9-18.5
		c0.1-0.6,0.1-1.2,0.2-1.8c6.8-0.3,13.8-1.4,20.5-0.8c18.1,1.6,34.8,7.8,49.2,18.9c13.5,10.4,26.3,21.5,40.8,33.4
		c5.8-2.7,13.3-6.3,20.9-9.9c-0.2-0.5-0.3-1.1-0.5-1.6c-2.2-0.5-4.4-1-6.6-1.5c7.8-4.3,17-3.5,24.8-8.8c7.2-4.8,16.4-6.7,24.1-9.6
		c-0.1-1.4-0.5-2.7-0.1-3.1c1.3-1.3,2.7-2.8,4.3-3.2c2.5-0.6,5.2,0,7.8-0.4c6.9-0.9,13.1-5,20.8-3.3c3.3,0.7,7.5-2.7,11.3-4
		c1.2-0.4,2.7-0.1,3-0.1c4.7-8.8,9.1-17.6,14.1-26c2.7-4.5,4.6-4.3,7.8-0.1c2.6,3.4,5.5,6.9,6.7,10.8c1.7,5.4,5.4,7.9,9.9,9.9
		c2.9,1.3,5.7,2.7,9.4,4.5c3.7-4,7.7-8.4,11.7-12.7c0.5,0.2,1,0.3,1.5,0.5c-0.4,3.5-0.3,7.2-1.4,10.5c-2.8,8.1,0.8,13.2,7.2,17.8
		c0-1.3,0-2.4,0-3.9c0.7,0.5,1.3,0.6,1.4,0.9c1.4,5,4.9,8.3,8.5,11.8c1.8,1.7,3.2,4.9,3.1,7.4c-0.1,7.1,4.7,10.2,9.6,13.3
		c7.8,4.9,15.8,9.6,23.6,14.6c4.4,2.8,4.5,5.2,0.3,12.2c-2,3.3-4.8,6.1-7.2,9.2c-4.2-2.6-8.4-0.9-10,4.1c-0.6,1.7-1.5,3.3-2.2,5
		c-0.8,1.9-1.8,3.3-0.6,6c1.6,3.5-2.4,4.8-5.3,5.6c-7.9,2.1-15.3,0.1-22.5-3c-2.2-1-4.6-1.6-6.9-2.6c-6.9-2.8-12.7-1.6-17.5,4.4
		c-5.3,6.8-11.1,13.1-19.1,17c-1,0.5-1.2,2.3-2,3.3c-1.2,1.5-2.4,3.4-4,4.1c-9,4-15.3,10.9-20.2,19.2c-0.4,0.7-0.8,1.9-1.3,2
		c-6.2,1-5.6,6.6-7.6,10.7c-5,10.6-10.5,20.9-16.1,31.2c-2.2,4.1-5.7,7.5-7.5,11.7c-1.9,4.3-3.2,9.2-3.3,13.8
		c-0.1,10.5,0.8,21.1,1.1,31.6c0.3,9.5-0.1,19.1,0.4,28.6c0.4,8.1,1.7,16.1,2.8,25.1c2.6-1.6,4.2-2.6,7-4.3
		c-1.2,2.2-1.6,4.2-2.5,4.5c-4.7,1.4-3.2,4.7-3.3,7.9c-0.1,8-1.3,16-0.7,24c0.5,6.7-1,14,3.4,20.2c0.9,1.3,1.4,3,1.4,4.6
		c0.1,6.4,2.1,8,8.8,7.4c3.5-0.3,7.2-0.6,10.7,0c5.4,1,7.5,5.3,9.2,11.6c-4.7,0.7-9.1,1.3-13.5,2.1c-2.7,0.5-5.4,1.3-8.2,1.8
		c-1.2,0.3-2.5,0.6-3.8,0.5c-8.7-0.5-16-3.7-20.5-12.5c-1.9,2-3.2,3.4-5.4,5.6c0.4-4.7,0.4-8.4,1.2-12.1c1.4-6.7,1-13-1.5-19.3
		c-0.9-2.3-0.4-5.1-1.2-7.4c-1.5-4.2-1.2-9.2-6.4-11.9c-2.3-1.2-3.1-5.1-4.6-7.8c-0.3-0.5-0.1-1.4-0.5-1.8
		c-9.6-12.3-17.4-26.2-31-34.9c-2.2-1.4-3.7-3.7-6.4-6.6c-0.3,10.8-0.6,20.6-0.9,30.4c-0.4,10.1-0.9,20.1-1.3,30.2
		c0,1.1-0.3,2.3-0.1,3.4c0.8,6.2,0.9,12.1-2.5,17.8c-0.6,1.1,0.4,4.4,1.5,4.9c3.5,1.7,7.5,2.4,11.2,3.8c1.4,0.6,2.6,1.9,3.7,3.1
		c1.1,1.2,1.7,3,3,3.8c4.2,2.7,4.9,5.1,1.5,6.9c-7.6-0.2-13.8-0.3-20.1-0.6c-4.4-0.2-8.9-0.8-13.3-1.4c-0.9-0.1-2.1-0.7-2.5-1.5
		c-2.6-5.5-7.5-9.7-7.3-16.7c0.6-16.5,0.8-33.1-2.4-49.5c-0.4-2-2.3-3.6-2.8-5.6c-3.6-15-10.9-28.4-18.1-41.9
		c-2.7-5-3.1-11.3-4.6-17.6c8.1,11,15.6,21.4,23.2,31.8c0.7-0.3,1.3-0.5,2-0.8c-0.7-18.1-1.5-36.1-2.2-54.4
		c-20.1-1.8-38.3-7.7-54.3-19.4c-2.6,6.2-5.2,12.1-7.6,18.2c-6.1,15.7-17.2,27.2-30.3,37.2c-10.1,7.7-19.8,16-29.6,24.3
		c-4.6,3.9-7.1,9-7.5,15.2c-0.7,13.2-1.8,26.3-2.3,39.5c-0.1,3.3,1.1,6.9,2.5,10c0.6,1.3,3.2,1.7,5.4,2.8c-3.4,1.5-6.5,2.9-10.3,4.6
		c5.3,0.3,9.8,0.6,14.6,0.9c1.1,2.7,2.1,5.3,2.9,7.2c-1.7,2-2.8,4-4.5,5.1c-2.7,1.6-5.9,3.7-8.8,3.6
		C71.1,394.5,63.4,393.1,55.4,392.1z M265.6,235.6c-5,1.5-10,3-15,4.4c-3.5,1-5.4,2.5-5.7,6.8c-0.7,13.1-2.3,26.1-3.2,39.2
		c-0.1,2,0.3,5,1.7,5.9c9.9,6.8,20,13.2,30,19.7c0.5-0.4,0.9-0.8,1.4-1.2C271.7,285.8,268.7,261.1,265.6,235.6z M57.6,281.8
		c6.1-3.6,2.4-7.4,1.2-12.4c-2.3,3-3.9,5.1-5.6,7.3C54.8,278.6,56.2,280.1,57.6,281.8z M75,249.8c-0.5-0.2-1-0.4-1.5-0.6
		c-1.7,2.5-3.6,4.9-5.1,7.5c-0.4,0.6,0.4,1.9,0.7,2.9c0.8-0.3,2.1-0.4,2.4-1C72.7,255.7,73.8,252.8,75,249.8z"/>
</g>
</svg>
