<?xml version="1.0" encoding="utf-8"?>
<!-- Generator: Adobe Illustrator 25.4.1, SVG Export Plug-In . SVG Version: 6.00 Build 0)  -->
<svg version="1.1" id="Layer_1" xmlns="http://www.w3.org/2000/svg" xmlns:xlink="http://www.w3.org/1999/xlink" x="0px" y="0px"
	 viewBox="0 0 325.2 156.4" style="enable-background:new 0 0 325.2 156.4;" xml:space="preserve">
<style type="text/css">
	.st0{fill:#FFAA00;}
	.st1{fill:#FFA300;}
	.st2{fill:#FFB000;}
</style>
<g>
	<path class="st0" d="M5.3,114.3l10.2,2.6c0.6,0.1,1.2,0.2,1.7,0.2c1.2,0,2.4-0.3,3.4-0.9L49.5,100l15.5,7.2L41.5,130
		c-1.1,1.1-1.8,2.5-2,4l-1.8,12.4c-0.6,3.8,2.1,7.4,5.9,7.9c0.3,0.1,0.7,0.1,1,0.1c3.4,0,6.4-2.5,6.9-6l1.5-10l24.2-23.6l31,3.5
		c2.3,0.3,4.6-0.7,6.1-2.4L131.9,95c1.2-5.7,0.7-9.9,0.6-10.3l4-0.6c0.1,0.4,0.7,4.9-0.6,11.2c22.3,6.7,44.5,16.4,60.3,18.6
		c6.8,1,15.6-1,24.7-3.9c-6.6-3.9-12.8-6.9-12.9-7l1.8-3.6c0.8,0.4,17.2,8.5,25.4,15.4l18.2,11l18,18c1.1,1.1,2.4,1.8,3.9,2l10,1.5
		c0.3,0.1,0.7,0.1,1,0.1c3.4,0,6.4-2.5,6.9-6c0.6-3.8-2.1-7.4-5.9-7.9l-7.8-1.1l-16.3-16.2c-0.2-0.3-0.5-0.5-0.7-0.7l-16.5-14.6
		c1.8-0.7,3.5-1.3,5.1-1.8l23.4,14.3l0.6,0.5c1.1,0.9,2.3,1.4,3.6,1.5l19.6,7.7c0.6,0.2,1.3,0.4,2,0.5l10.1,0.8c0.2,0,0.4,0,0.6,0
		c3.6,0,6.7-2.8,7-6.4c0.3-3.9-2.6-7.2-6.4-7.5l-9.1-0.7l-19.9-7.8L259,82.5c0,0,0,0,0,0l2.9-2.1L248.5,68l18.7,8.5l0,0l5.2-13
		l22.4,2.2l7.5-2.7l-0.9-1.9l-9.2,1.2l2.1-4.6l-7.1,0.5l0.2-5.8l-6.3,1l-0.5-2.7l9.6-1.6l-0.2,6.1l8.7-0.7l-2,4.3l6.2-0.8l2,3.9
		l4.8-1.7l0.9-4.6l-15-11.5l-5.3-9.6l-4-5.6l6.9-4.3c0,0-3.4-1.6-7.9-2.6l4.6-7.4c0,0-11.9,0.1-18.1,6l-29,5.7l-2.1,0.7l-12.1-4.4
		l4.3,6.2l-12.7-2.6l4.9,5.3l-12-1.9l4.7,4.6l-12.5-1.8L210,37l-14-2.2l5.3,5.2L188,39.7l4.5,3.3l-8.6,2.9l2.9,2.3
		c-6.2,0.5-13.4,0.3-21.3-1.3c-17.3-3.5-30.5-1.5-43.1,0.4c-28.6-7-33.5-24.3-65.5-5.4l6.6,4.2l-10.8-1.6c-0.7,0.5-1.4,0.9-2.2,1.4
		c-27,18-37.2,11.5-41.5,3.9c-4.4-7.6-7.3,14.8,21.7,20.7c2.7,0.6,5.4,0.7,7.9,0.5l7.6-8.3L43.8,70c21.1-5.3,34.8-29.9,48-3.8
		L60.3,89.5l-8.1-3.8c-2-1-4.4-0.9-6.4,0.2l-29.5,16.7l-7.5-1.9c-3.7-1-7.6,1.3-8.5,5C-0.7,109.5,1.5,113.3,5.3,114.3z M288.5,41.4
		c-0.3,1.7-2,2.8-3.7,2.5c-1.7-0.3-2.8-2-2.5-3.7C282.6,38.5,288.8,39.7,288.5,41.4z"/>
	<path class="st1" d="M179.2,34c-2.3,1.8-2.7,4.7-2.7,4.9c-0.1,0.5,0.3,1,0.9,1.1c0,0,0.1,0,0.1,0c0.5,0,0.9-0.4,1-0.9
		c0,0,0.3-2.2,1.9-3.5c1.1-0.8,2.5-1.1,4.3-0.8c0.5,0.1,1.1-0.3,1.1-0.8c0.1-0.5-0.3-1.1-0.8-1.1C182.6,32.4,180.7,32.8,179.2,34z"
		/>
	<path class="st1" d="M185.2,28.3c-3.5-0.7-6.4-0.2-8.7,1.4c-3.5,2.5-4.2,6.6-4.2,6.8c-0.1,0.5,0.3,1.1,0.8,1.1c0.1,0,0.1,0,0.2,0
		c0.5,0,0.9-0.3,1-0.8c0,0,0.6-3.5,3.4-5.5c1.8-1.3,4.3-1.7,7.2-1.1c0.5,0.1,1.1-0.3,1.2-0.8C186.1,28.9,185.7,28.4,185.2,28.3z"/>
	<path class="st2" d="M315.2,66.9c0.3,0.5,0.9,0.6,1.4,0.3c2-1.3,3.2-2.9,3.6-4.8c0.6-2.9-1.1-5.3-1.2-5.4c-0.3-0.4-0.9-0.6-1.4-0.2
		c0,0-0.1,0-0.1,0.1c-0.4,0.3-0.5,0.9-0.2,1.3c0,0,1.3,1.9,0.9,3.9c-0.3,1.3-1.2,2.5-2.7,3.4C315,65.9,314.9,66.5,315.2,66.9z"/>
	<path class="st2" d="M319.4,70.7c3-1.8,4.9-4.1,5.6-6.8c1-4.2-1.2-7.8-1.3-7.9c-0.3-0.5-0.9-0.6-1.4-0.3c0,0-0.1,0.1-0.1,0.1
		c-0.4,0.3-0.4,0.9-0.2,1.3c0,0,1.9,3.1,1.1,6.4c-0.5,2.2-2.1,4.1-4.7,5.6c-0.5,0.3-0.6,0.9-0.4,1.4C318.3,70.8,318.9,71,319.4,70.7
		z"/>
	<path class="st2" d="M24.6,77.5c2.9,0.7,5.4-0.9,5.5-0.9c0.5-0.3,0.6-0.9,0.3-1.4c0,0,0-0.1-0.1-0.1c-0.3-0.4-0.9-0.5-1.3-0.2
		c0,0-1.9,1.2-3.9,0.7c-1.3-0.3-2.4-1.3-3.3-2.8c-0.3-0.5-0.9-0.6-1.4-0.4c-0.5,0.3-0.6,0.9-0.4,1.4C21.2,75.8,22.8,77,24.6,77.5z"
		/>
	<path class="st2" d="M16.9,75c-0.5,0.3-0.7,0.9-0.4,1.4c1.7,3.1,3.9,5.1,6.6,5.9c4.1,1.2,7.8-0.9,8-0.9c0.5-0.3,0.6-0.9,0.4-1.4
		c0,0-0.1-0.1-0.1-0.1c-0.3-0.4-0.8-0.5-1.3-0.2c0,0-3.1,1.7-6.4,0.8c-2.2-0.6-4-2.3-5.3-4.9C18,74.9,17.4,74.7,16.9,75z"/>
	<rect x="163.7" class="st1" width="65.5" height="1.6"/>
	<rect x="150" y="9.3" class="st1" width="65.5" height="1.6"/>
	<rect x="109.2" y="4.7" class="st1" width="94" height="1.6"/>
</g>
</svg>
