<?xml version="1.0" encoding="utf-8"?>
<!-- Generator: Adobe Illustrator 25.4.1, SVG Export Plug-In . SVG Version: 6.00 Build 0)  -->
<svg version="1.1" id="Layer_1" xmlns="http://www.w3.org/2000/svg" xmlns:xlink="http://www.w3.org/1999/xlink" x="0px" y="0px"
	 viewBox="0 0 897.9 270.1" style="enable-background:new 0 0 897.9 270.1;" xml:space="preserve">
<style type="text/css">
	.st0{clip-path:url(#SVGID_00000041288859460604805670000003723302007884180353_);}
	.st1{fill-rule:evenodd;clip-rule:evenodd;fill:#711011;}
	.st2{fill-rule:evenodd;clip-rule:evenodd;fill:#E51C42;}
	.st3{fill-rule:evenodd;clip-rule:evenodd;fill:#FFFFFF;}
	.st4{clip-path:url(#SVGID_00000112609925044430053730000015980887255307212989_);}
	.st5{fill-rule:evenodd;clip-rule:evenodd;fill:#282727;}
	.st6{fill-rule:evenodd;clip-rule:evenodd;fill:#443E3F;}
	.st7{fill:#FFFFFF;}
	.st8{fill:#ED2024;}
</style>
<g>
	<g>
		<defs>
			<rect id="SVGID_1_" y="-3.5" width="897.9" height="265.1"/>
		</defs>
		<clipPath id="SVGID_00000040569982428146176410000007351567614589166254_">
			<use xlink:href="#SVGID_1_"  style="overflow:visible;"/>
		</clipPath>
		<g style="clip-path:url(#SVGID_00000040569982428146176410000007351567614589166254_);">
			<path class="st1" d="M662.4,273.9c0,0,28.8-54.4,21.6-77.9c0,0-29.8-8.8-49.5-4.1c0,0-10.3-22.7-15.8-26.8c0,0-21-18.2,2.2-31.2
				c0,0,19.1-12.4,24.9-14.6c0,0,0.3-11.9,14.1-26.5l11.2-11.1c0,0,3.7-17.7-2-36.5c0,0,22.1,0.2,34.5,18.2l13.8-1.4
				c0,0,3.5-24,15.1-45.2c0,0,30.7,21.6,43.5,68c0,0,40.9,24.3,64.1,58c0,0-14.9-6.5-29-9.5c0,0,50.5,34.5,62.7,77.1
				c0,0-15.9-14.1-28.1-21c0,0,11.1,46.3,2.3,109.9C848,299,746.5,241.3,662.4,273.9"/>
			<path class="st2" d="M708.5,151.5c0,0,11.8,10.1,14,23.6c0,0-4.6-2.9-11-3.3c0,0-3.9,17.9-7.7,18.6c-3.8,0.7-32.5-13.1-65.9-10.3
				c0,0-3.8-3.8-3.6-6.3c0,0,13.9,1.1,34-2l29.8,5.1l5.4-12.2l11.2,3.7c0,0-23-17.4-24.7-17.9c0,0-31.9,15.2-45.1,16
				c0,0-16.6,2.8-21.7-6.6c0,0,1,0,2-3.5c0,0,2.7-4.1,3.2-1c0,0-1.5,5.7,1.1,5.3c2.7-0.4,4.8-3.3,5.6-6.6s15.9-14.2,24.6-18.5
				L634,146.4l-12.1-2.1c0,0,36.9-14.7,47.9-35.6c0,0-6.7,5.1-12.2,6c0,0-2.4-3.1-0.2-8.9c0,0,14.7-21.6,37.7-32.5c0,0-7,7-8.1,21.6
				c19.6-13.8,30.2-15.3,50.8-10.3L726,94.5c0,0,41.8,8.9,67.7,34.4c0,0-31.4-18.7-69.6-21.1l13.7,15.4c0,0-28.5,6-34.5,14.4
				c0,0,25.5-2.1,33.1,3.3c0,0-3.6-7.5-6.2-9.8c20.1,2.2,45.5,22.9,49.4,39c0,0-26.1-15.1-43-16c0,0,14.7,17,15.1,28.1
				C751.7,182.1,721.4,152.2,708.5,151.5"/>
			<path class="st3" d="M669.2,167.7c6.7-4.4,8.8-5.8,18.6-8l9.4,3.7l-3.6,8.1C693.6,171.5,681.3,166.3,669.2,167.7"/>
			<path class="st2" d="M767.3,268.9c0,0,6.3-25.4,6.3-23.4c0,0-4.7-15.2-7.6-27.8c0,0,5.7,3.1,20,19.7c0,0-10.4-30-20-44.4
				l0.8,12.8l-20.2-14.4c0,0,0.3,37.4,0.5,36.3c0.2-1-7-28.7-18.1-35.7c0,0-4,34.5-4,31.8s-0.1-18.2-6-30.8l-8.5,13.3
				c0,0-2,35.9-19.4,60.2"/>
		</g>
	</g>
	<g>
		<defs>
			<rect id="SVGID_00000019642672751205340420000000416901342690012292_" y="-3.5" width="897.9" height="265.1"/>
		</defs>
		<clipPath id="SVGID_00000155860763014899554720000008208136801531236285_">
			<use xlink:href="#SVGID_00000019642672751205340420000000416901342690012292_"  style="overflow:visible;"/>
		</clipPath>
		<g style="clip-path:url(#SVGID_00000155860763014899554720000008208136801531236285_);">
			<path class="st5" d="M223.8,272.4c0,0-28.8-54.4-21.6-77.9c0,0,29.8-8.8,49.5-4.1c0,0,10.3-22.7,15.8-26.8c0,0,21-18.2-2.2-31.2
				c0,0-19.1-12.4-24.9-14.6c0,0-0.3-11.9-14.1-26.5L215.1,80c0,0-3.7-17.7,2-36.5c0,0-22.1,0.2-34.5,18.2l-13.8-1.4
				c0,0-3.5-24-15.1-45.2c0,0-30.7,21.6-43.5,68c0,0-40.9,24.3-64.1,58c0,0,14.9-6.5,29-9.5c0,0-50.5,34.5-62.7,77.1
				c0,0,15.9-14.1,28.1-21c0,0-11.1,46.3-2.3,109.9C38.3,297.5,139.8,239.8,223.8,272.4"/>
			<path class="st6" d="M177.7,150c0,0-11.8,10.1-14,23.6c0,0,4.6-2.9,11-3.3c0,0,3.9,17.9,7.7,18.6c3.8,0.7,32.5-13.1,65.9-10.3
				c0,0,3.8-3.8,3.6-6.3c0,0-13.9,1.1-34-2l-29.8,5.1l-5.4-12.2l-11.2,3.7c0,0,23-17.4,24.7-17.9c0,0,31.9,15.2,45.1,16
				c0,0,16.6,2.8,21.7-6.6c0,0-1,0-2-3.5c0,0-2.7-4.1-3.2-1c0,0,1.5,5.7-1.1,5.3c-2.7-0.4-4.8-3.3-5.6-6.6s-15.9-14.2-24.6-18.5
				l25.8,10.8l12.1-2.1c0,0-36.9-14.7-47.9-35.6c0,0,6.7,5.1,12.2,6c0,0,2.4-3.1,0.2-8.9c0,0-14.7-21.6-37.7-32.5c0,0,7,7,8.1,21.6
				c-19.7-13.9-30.3-15.5-51-10.4l11.8,9.9c0,0-41.8,8.9-67.7,34.4c0,0,31.4-18.7,69.6-21.1l-13.7,15.4c0,0,28.5,6,34.5,14.4
				c0,0-25.5-2.1-33.1,3.3c0,0,3.6-7.5,6.2-9.8c-20.1,2.2-45.5,22.9-49.4,39c0,0,26.1-15,43-16c0,0-14.7,17-15.1,28.1
				C134.6,180.6,164.8,150.6,177.7,150"/>
			<path class="st3" d="M217.1,166.2c-6.6-4.4-8.8-5.8-18.6-8l-9.4,3.7l3.6,8.1C192.7,169.9,205,164.8,217.1,166.2"/>
			<path class="st6" d="M118.9,267.4c0,0-6.3-25.4-6.3-23.4c0,0,4.7-15.2,7.6-27.8c0,0-5.7,3.1-20,19.7c0,0,10.4-30,20-44.4
				l-0.8,12.8l20.2-14.4c0,0-0.3,37.4-0.5,36.3c-0.2-1,7-28.7,18.1-35.7c0,0,4,34.5,4,31.8s0.1-18.2,6-30.8l8.5,13.3
				c0,0,2,35.9,19.4,60.2"/>
		</g>
	</g>
</g>
<g>
	<path class="st7" d="M540.9,68.4h-7.1l6.7-16.2V12.5L535.3,6h47.1v20.3l-5.8-4.6h-16.5v30.6h23.4l-7.4,16.2h-16v58.1l5,6.9h-29.8
		l5.5-6.7L540.9,68.4L540.9,68.4z M488.5,12.5L483.2,6H513l-5,6.5v105.4h16.3l5.8-5.2l-4.3,20.6h-42.6l5.3-6.7L488.5,12.5
		L488.5,12.5z M438.4,133.7c4.5,0,8.6-1.1,12.3-3.2c3.7-2.1,7.1-5,10-8.5c2.9-3.6,5.5-7.6,7.7-12.2s4-9.3,5.5-14.2
		c1.5-4.9,2.6-9.7,3.3-14.4c0.7-4.8,1-9.1,1-13.2v-2.4c-0.2-5.7-1-12-2.3-18.7s-3.5-13-6.5-19s-7.1-11-12.1-15.2s-11.4-6.6-19.1-7.3
		c-6.8,0.9-12.6,3.5-17.6,7.7s-9.1,9.2-12.5,15c-3.3,5.8-5.8,12-7.5,18.5s-2.5,12.5-2.5,18v2.1c0,1,0.1,1.7,0.2,2.1
		c0,3.8,0.3,8,1,12.7s1.7,9.5,3.2,14.3c1.4,4.8,3.2,9.5,5.3,14.1c2.1,4.6,4.6,8.6,7.6,12.1c2.9,3.5,6.2,6.3,9.8,8.5
		c3.6,2.2,7.7,3.3,12.1,3.3h1.1V133.7z M436,114.1c-3.7-1.4-6.7-3.7-9.2-7.1c-2.5-3.3-4.4-7.1-5.9-11.2s-2.6-8.4-3.3-12.9
		s-1-8.6-1-12.4v-2.9c0-3.9,0.3-8,0.9-12.3s1.7-8.4,3.2-12.4s3.5-7.6,5.9-10.8c2.5-3.3,5.5-5.8,9.2-7.7l2.8-0.5
		c4.4,2,7.9,4.7,10.6,8.3s4.8,7.4,6.4,11.6c1.5,4.2,2.6,8.5,3.2,12.8c0.6,4.4,0.9,8.3,0.9,11.9c0,6.1-0.6,11.7-1.8,16.8
		c-1.2,5.1-2.8,9.6-4.6,13.4c-1.9,3.8-4,7.1-6.2,9.7s-4.4,4.5-6.6,5.7l-2.1,0.3L436,114.1z M330.4,53.7l-6.2-41.3l6.4-6.5h-32.3
		l6.4,6.5L323,145.7l26.3-76.4l25.1,76.4l20.8-133.3l6.4-6.5h-32.8l5.8,6.5l-6.9,41.3l-18-47.8L330.4,53.7z"/>
	<path class="st8" d="M560,174.2v25.3h-13v-25.3H560z M525.8,212.7h5.5v47.4l-4.2,5.5h24.2l-4.2-5.5v-47.4h13v47.4l-4.5,5.5h24.2
		l-4.3-5.2v-90.5c-0.2-1.3-0.8-2.4-2-3.4c-1.1-1-2.4-1.8-4-2.5c-1.5-0.7-3.1-1.2-4.8-1.5s-3.2-0.5-4.6-0.5h-13
		c-1.3,0-2.8,0.2-4.6,0.5s-3.5,0.8-5.1,1.4c-1.6,0.6-3,1.4-4.2,2.4s-1.8,2.2-1.9,3.6v29.8L525.8,212.7z M502.1,167.2l-4.2-5.3h24.9
		l-4.2,5.5v108.3l-28.5-68.5v53l4.2,5.5h-24.2l4.2-5.5v-92.9l-4.2-5.3h14.1l17.9,40.1L502.1,167.2L502.1,167.2z M447,252.9h13.3
		l4.9-4.2v16.8h-38.3l4.5-5.5v-47.4h-5.7l5.5-13.4v-31.9l-4.2-5.5h38.3v16.4l-4.9-3.8H447v25h19l-6,12.9h-13V252.9z M383.8,175h3.9
		c2.5,0,4.6,0.4,6.4,1.3c1.7,0.8,3.1,2,4.1,3.4s1.8,3,2.2,4.8c0.5,1.8,0.7,3.5,0.7,5.3c0,1.6-0.3,3.3-0.8,5.1s-1.3,3.5-2.3,5
		s-2.4,2.7-4,3.7s-3.6,1.5-5.9,1.5h-4.3L383.8,175L383.8,175z M402,211.3c4.3-2.8,7.6-6.4,10.1-10.8c2.4-4.4,3.6-9.1,3.6-14.1
		c0-3-0.6-5.9-1.7-8.9c-1.1-2.9-2.8-5.5-5-7.8s-4.9-4.1-8.2-5.6c-3.3-1.4-7.1-2.2-11.5-2.2h-26l4.3,5.3v93.3l-4.3,5h24.2l-4.1-5
		v-51.1l21.4,51.5v4.6h20.4l-5.6-5L402,211.3z M340.6,174.2v25.3h-13v-25.3H340.6z M306.3,212.7h5.5v47.4l-4.2,5.5h24.2l-4.2-5.5
		v-47.4h13v47.4l-4.5,5.5h24.2l-4.3-5.2v-90.5c-0.2-1.3-0.8-2.4-2-3.4c-1.1-1-2.4-1.8-4-2.5c-1.5-0.7-3.1-1.2-4.8-1.5
		c-1.7-0.3-3.2-0.5-4.6-0.5h-13c-1.3,0-2.8,0.2-4.6,0.5c-1.8,0.3-3.5,0.8-5.1,1.4c-1.6,0.6-3,1.4-4.2,2.4s-1.8,2.2-1.9,3.6v29.8
		L306.3,212.7z"/>
</g>
</svg>
