<?xml version="1.0" encoding="utf-8"?>
<!-- Generator: Adobe Illustrator 25.4.1, SVG Export Plug-In . SVG Version: 6.00 Build 0)  -->
<svg version="1.1" id="Layer_1" xmlns="http://www.w3.org/2000/svg" xmlns:xlink="http://www.w3.org/1999/xlink" x="0px" y="0px"
	 viewBox="0 0 402 567.2" style="enable-background:new 0 0 402 567.2;" xml:space="preserve">
<style type="text/css">
	.st0{fill:none;stroke:#F99C1C;stroke-width:16;stroke-miterlimit:10;}
</style>
<path id="XMLID_281_" class="st0" d="M12.9,478c1.4,1.9,2.8,2.5,5,1.2c2-1.2,3.7-2.4,4.8-4.6c0.6-1.2,3.7-9.9,4.3-13.2
	c1.6,4.2,3.4,8.6,2.3,13c-0.3,1.2-0.8,2.4-1.1,3.5c-1.9,7,2.3,15.2,3.7,22c1.9,9.2,3.8,18.2,3.7,27.6c0,3.3,0.5,6.6,0.8,9.8
	c0.2,2.1,1.5,3.7,3.3,4c5.2,0.8,10.4,2,15.7,0.9c3.6-0.7,4.5-2.2,3.3-5.6c-1.6-4.5-2.9-9.3-6.8-12.5c-0.9-0.8-1.2-2-1.3-3.2
	c-0.4-5-1.4-9.9-2.3-14.8c-1.6-8.7-2.4-17.2-0.7-26c1-5.2,2.4-10.2,4.8-14.9c2.7-5.5,4.6-11.2,5.1-17.3c0.4-4.3,2.9-12.3,3.6-17.7
	c0.3,0.3,0.7,0.7,1,1c-1.8,12.7,0.5,17.1-1.6,24.2c-2.6,8.7-5.3,17.4-8,26c-0.7,2.4-1.5,4.7-0.9,7.3c2.1,9.2,4.3,18.4,6,27.7
	c1.3,7.1,4,13.5,7.4,19.8c0.6,1.1,1.3,2.5,2.7,2.8c7.1,1.5,14.2,3,21.4,0.4c2.8-1,4-3.8,2-5.8c-3.5-3.5-6.1-8.5-11.8-9.3
	c-1.3-0.2-2.2-1-2.8-2c-3.3-4.9-5.3-10.5-6.8-16.1c-1.6-6-0.8-12.2-0.2-18.4c0.5-5.2,2.4-9.8,5.5-13.6c5.7-6.9,12-11.5,16.5-19.3
	c0.4-0.7,1.1-2.8,1.1-5c2.4,0.7,4.9,1.4,7.4,2c0.3,0.1,3.1,0.8,3.7,0.5c0.4,8.9,0.4,17.8,0.9,26.8c0.6,10,2,19.9,0.7,29.9
	c-0.6,4.3-0.5,8.7,0,13c1,7.9,1.1,15.7-1.4,23.5c-0.5,1.5-0.4,3.1-0.4,4.7c0,3.7,1.3,5.2,5,5.9c2,0.4,3.8,0.9,5.7,1.6
	c5.4,2,13,0.5,18.4,0.1c2.5-0.2,3.6-1.3,2.8-4.2c-0.9-3.4-2.1-6.7-5-8.7c-5-3.4-7.8-7.8-8-13c-0.2-7,0.4-14,1.4-20.9
	c1.3-8.6,4.2-17.1,3.7-26c-0.1-2.2,0.7-4.4,0.9-6.6c0.6-8.3,4.4-16.2,5.2-24.6h0c2.8,0.1,6.2,0.1,8.5-0.2c0.1,0,0.2,0,0.3,0
	c0.5,0.6,0.5,3.5,0.8,4.6c1,5.4,1.6,10.9,2.2,16.4c1.1,9.5,0.4,19.2,0.8,28.8c0.4,9.1,1.1,18.1,3,27c1.1,5.2,1.6,10.5,2.1,15.9
	c0.6,6.6,1.1,9.6,9,9.6c3.4,0,6.8,0.8,10.1,1.2c4.3,0.5,8.6,1.7,12.8-0.3c3.2-1.5,3.6-2.6,2.6-5.8c-1.5-4.5-4.8-6.5-9-7.2
	c-3.2-0.5-5.3-2.1-6.9-4.6c-3.6-5.6-5.5-11.8-5.7-18.5c-0.5-11.2,1.6-22.2,2.6-33.3c0.4-3.9,0.8-7.9,2-11.6c1.8-5.6,3.5-11.2,4-17.1
	c0.1-1.7,0-5.7,0.3-10.3l0,0c0.5-0.4,1-0.9,1.5-1.3c3.4-3.2,6.1-7,8.9-10.8c4.6-6.4,6.3-16,7.5-23.8c1.1-6.8,2.8-17.4,7.1-22.8
	c2.2-2.8,2.7-6.5,3.8-9.9c2.6-7.7,3.8-16.6,6.4-24.3c1.7-5,5.4-7.3,7.2-12.3c1.5-4.4,2.4-8.9,3-13.4c1.3-10.7,1.8-19.4,0.6-29.9
	c-0.7-6.1-2.2-12.1-1.7-18.3c0.1-1.5,0.1-2.9,0-4.4c-0.1-2,0.2-4.1,1.3-5.7c2.3-3.6,3.9-7.4,5.1-11.4c0-2.1,0-4.2,0-6.3
	c0-4.5-2.8-5.4-6.6-4.3c-1.5,0.4-4.4,1.3-5.6,2.1c-0.3-3.5,0.8-5.9,1.1-7c1.1-3.4,0.9-6.8-0.2-10.1c-0.5-1.5-1.7-2.8-1.9-4.3
	c-0.4-2.4-1.2-4.5-3.8-4.8c-3.1-0.4-6.6-0.9-8.5,2.5c-3.8,6.5-8.9,12-12.5,18.6c-0.9,1.6-2.1,3-4,3.7c-4.1,1.5-7.7,3.9-11.7,5.6
	c-3.2,1.3-6,3.6-8.5,6.3c-5.7,6.3-11.6,13.4-11.9,24.6c-1.1,0.5-3.6,1.5-3.9,1.7c-4.7,3-9.7,5.2-14.7,7.6
	c-7.7,3.7,2.4,11.4,10.8,15.2c-3,4-8.5,9.6-12.6,12.4c-4.3,2.9-7.3,1.3-12.2,2.8c-8.2,2.5-16.2,1-24-1.5
	c-11.3-3.5-22.7-6.9-34.8-5.7c-4,0.4-7.5,1.7-11.1,3.5c-3.1,1.6-6,3.6-8.9,5.5c-4.4,2.7-8.8,5.5-11.7,10.2
	c-5.5,8.8-9.1,18.3-12.4,28c-2.6,7.6-4.1,15.1-2.9,23.2c1.6,11.1,1.9,22.3-1.2,33.2c-0.7,2.5-1,5.2-1.2,7.8
	c-0.8,11.1-1,22.1-0.3,33.1C8.8,469,9.9,473.8,12.9,478z M179.2,257.3c1.1-0.2,1.6,0.4,2,1.2c1.2,2.9-3.8,10.7-6.8,10.7
	c-1.8,0-2.9-0.8-3-2.7C171.2,264.6,177.2,257.7,179.2,257.3z"/>
<path id="XMLID_23122_" class="st0" d="M208.6,532.3c-3.3,5,3.3,10.5,7.5,11.8c4.8,1.5,10.6,1.1,15.6,1.2c5.2,0.2,11.5-1.5,16.8-0.3
	c6.8,10.1,30.8,8.1,37.1-1.5c4.1-6.3,4.7-17.3,6.6-24.3c3.9-14.1,7.9-27.9,14-41.1c6.8-14.8,11.3-33.5,19.2-48.6
	c-2,24.9-3.7,56.2-1,66.3c-1.5,4.6-3.1,9.2-4.2,14c-1.8,7.3-2.4,16.3,0.5,23.5c-12.7,4.7-27.3,11.5-17.5,21.2
	c5.4,5.3,17.8,4.5,24.4,4.5c9.2,0.2,20.3-1.6,28.8-6.4c0.3,0.4,0.7,0.7,1.2,0.7c21.5-1.3,13.9-19.2,14.9-36.1
	c1.9-32.3,9.6-68.1,1.7-100.3c2-15.3,2.1-30.9,2.4-46.3c0.4-22.2,5.3-46,4.3-68.3c6.8-10.8,11-22.6,12.6-35.7
	c2.5-20.1-5.2-34.7-10-52.5c2.2-19.8-2.3-38.1-7.8-57.4c-4.3-15.2-8.2-37.2-19.1-50.4c-0.5-1-1.1-2-1.8-2.9
	c-10.1-15.1-23.2-22.8-38.8-30.6c-1.5-3-3.3-5.8-5.8-8.1c-0.1-0.1-0.6-0.6-1.3-1.1c0.9-15,1.7-31.6-8.3-43.8c-1.7-2.1-3.8-4-5.9-5.5
	c-1-0.8-1.9-1.4-2.9-1.9c-1.1-0.7-2.2-1.3-3.3-1.7c-1-0.5-2-0.9-3.1-1.1c-0.2-0.1-0.4-0.2-0.6-0.3c-0.4-0.1-0.7-0.3-1.1-0.3
	c-0.2-0.1-0.4-0.2-0.7-0.3c-0.1,0.1-0.1,0-0.1,0c-1-0.3-2-0.4-3-0.5c-0.1,0-0.1,0-0.2,0c-0.6-0.1-1.1-0.1-1.7-0.1
	c-0.3,0-0.5,0-0.8,0c-4.1-0.1-8.2,0.6-12.1,2.3c-10,4.3-27,15.9-27.8,28.6c-0.4,6.4,1.7,6.4,5,4.8c-0.8,2.7-0.6,6.1-0.7,8.5
	c-0.1,2.8,0.7,5.1,2,7.3c0.4,3,0.6,5.9,0.5,9c-0.1,2.2-0.4,4-1,6c-0.2,0.7-0.6,1.5-0.4,2.2c0.2,1.7,1.1,2,2.7,2.4
	c1,0.3,2.4,0.4,3.8,0.5c1.3,2.2,3.6,4.7,6.1,5c-0.8,0.7-0.4,2.7,0.2,3.4c0.6,0.8,2,1.3,3.3,1.6c0.7,2.1,0.5,4.3,2,6.1
	c1.3,1.6,3.4,2.5,5.4,2.7c2.9,0.4,5.5-0.5,8.2-1.6c1.4-0.6,2.7-0.8,4.1-1c0.4,0.4,0.9,1,1.5,1.5c-2,2.3-3.8,4.7-4.8,7.4
	c-0.6,1.6-1,3.1-1,4.6c-0.1,0.2-0.2,0.4-0.2,0.7c0,17.3,0.6,34.6,0.9,51.9c0.1,9.3,0.6,20.8,2.9,30.6c-0.3,11.3,1,23,2.3,33.1
	c-3.3,5-3,14-4.7,19.6c-1,2.9-2.1,5.8-3.3,8.7c-2.2,5.3-3.4,10.7-4.8,16.1c-0.1,0.3-0.2,0.6-0.3,1c-0.1,0.6-0.3,1.3-0.5,1.9
	c-0.1,0.1-0.1,0.1-0.1,0.1c-2,2.6-3.4,5.4-4.2,8.2c0,0.1-0.1,0.1-0.1,0.2c-0.1,0.3-0.2,0.6-0.3,0.8c0,0.1-0.1,0.1-0.1,0.1
	c-0.8,2.5-1.2,5.2-1.1,7.9c0,1,0.1,2,0.2,2.9c0,0.1,0,0.2,0,0.3c0.1,2.6,0.5,5.4,1,8.2c0.1,0.6,0.4,1.8,0.8,3.2
	c0.1,0.2,0.1,0.3,0.2,0.5c0,0.1,0,0.1,0,0.1c0,0.1,0.1,0.3,0.1,0.4c0.1,0.8,0.4,1.6,0.8,2.2c0,0.1,0,0.1,0.1,0.2
	c1.8,4.6,4.6,9.1,7.5,5c0.9,1.5,2.1,2.9,3.6,2.9c1.8,0.1,2.2-1.5,2-3.1c1.3,0.6,2.8,1,3.9,0.3c2.3-1.3,0.5-4.8-0.8-6.6
	c1.5,0.3,3.2,0.2,2.9-2.2c-0.3-1.6-2-2.9-2.7-4.3c-0.4-0.8-0.8-1.8-1.1-2.9c0.1-0.1,0-0.1,0-0.1c-0.1-0.7-0.3-1.4-0.3-2.1
	c1.3-2.4,2.8-4.7,4-7.3c0-0.1,0.1-0.2,0.1-0.3c0.1-0.2,0.2-0.4,0.3-0.6c0.1-0.4,0.3-0.7,0.4-1.1c0.2-0.5,0.4-1.1,0.5-1.7
	c1.5-6.2-0.2-12.4,1.9-18.4c0.2-0.5,0.5-1.1,0.9-1.8c0.1,0.4,0.2,0.8,0.3,1.3c1.7,6.4,5.2,12.7,6.9,19c-3.4,4.1-5.2,9.8-6.7,15.2
	c-0.1,0.3-0.1,0.5-0.2,0.7c-0.8,2.3-1.3,4.5-1.8,6.3c0,0.1-0.1,0.1-0.1,0.2c-0.1,0.1-0.1,0.2-0.1,0.3c-0.1,0.5-0.3,1-0.4,1.4
	c-0.3,0.6-0.4,1.2-0.4,1.8v0.1c0,0-0.1,0,0,0.1c-0.2,0.6-0.3,1.3-0.3,2c-0.1,0.7-0.1,1.5-0.2,2.2c-0.1,0.8-0.1,1.5-0.1,2.3
	c0,0.4,0,0.9,0.1,1.3c0.1,4.1,1,8.3,2.7,11.5c-7.1,27.9-14.5,58.4-12.1,86.6c-2.7,5.7-5.2,11.5-6.8,17.7c-2,7.8-3.4,16.1-4.1,24.4
	c-4.1,8.5-8.2,16.9-11.5,25.7c-2,5.3-4.4,10.5-5.2,16.2c-0.2,1.1-0.6,10.1-0.6,15.1c-0.6,0.1-1.2,0.3-1.8,0.6c-4.6,2-8.3,5.7-12.7,8
	c-6.2,3.4-12.4,3.8-18.8,5.9C211.3,530.7,209.6,530.8,208.6,532.3z M326.2,498.9c0.1,0.1,0.3,0.1,0.4,0.2c-0.2,0-0.4,0.1-0.6,0.1
	C326.1,499.1,326.1,499.1,326.2,498.9z M246.2,518.8c0.1,0.2,0.1,0.3,0.1,0.3c-0.3-0.1-0.6-0.1-0.9,0c0.1,0,0.1-0.1,0.1-0.1
	C245.8,518.9,246.1,518.8,246.2,518.8z"/>
</svg>
