<?xml version="1.0" encoding="utf-8"?>
<!-- Generator: Adobe Illustrator 25.4.1, SVG Export Plug-In . SVG Version: 6.00 Build 0)  -->
<svg version="1.1" id="Layer_1" xmlns="http://www.w3.org/2000/svg" xmlns:xlink="http://www.w3.org/1999/xlink" x="0px" y="0px"
	 viewBox="0 0 32.5 27.9" style="enable-background:new 0 0 32.5 27.9;" xml:space="preserve">
<style type="text/css">
	.st0{fill:#659BDB;}
	.st1{fill:none;}
	.st2{fill:none;stroke:#FFB600;stroke-width:0.5;stroke-linecap:round;stroke-linejoin:round;stroke-miterlimit:10;}
	.st3{fill:#FFB600;}
	.st4{fill:#FCBA00;}
	.st5{fill:none;stroke:#FCBA00;stroke-width:0.4;stroke-linecap:round;stroke-linejoin:round;stroke-miterlimit:10;}
	.st6{fill:none;stroke:#FFB600;stroke-width:0.4;stroke-linecap:round;stroke-linejoin:round;stroke-miterlimit:10;}
	.st7{fill:none;stroke:#FFB000;stroke-width:0.4;stroke-linecap:round;stroke-linejoin:round;stroke-miterlimit:10;}
	.st8{fill:none;stroke:#000000;stroke-width:0.4;stroke-linecap:round;stroke-linejoin:round;stroke-miterlimit:10;}
	.st9{fill:none;stroke:#FFFFFF;stroke-width:0.4;stroke-linecap:round;stroke-linejoin:round;stroke-miterlimit:10;}
</style>
<g id="Padding__x26__Artboard">
</g>
<g id="Icons">
	<g>
		<path class="st0" d="M9.9,25.5c-0.4-0.1-0.8-0.2-1.2-0.4"/>
		<g>
			<line class="st1" x1="24.2" y1="9.3" x2="24.4" y2="10.2"/>
			<line class="st1" x1="24.7" y1="11.4" x2="24.7" y2="12.4"/>
			<line class="st1" x1="23.5" y1="10.6" x2="23.7" y2="11.5"/>
		</g>
		<g>
			<line class="st1" x1="3.5" y1="19" x2="3" y2="18.2"/>
			<line class="st1" x1="2.4" y1="17.1" x2="2" y2="16.2"/>
			<line class="st1" x1="3.8" y1="17.6" x2="3.3" y2="16.8"/>
		</g>
		<line class="st1" x1="24.8" y1="13.7" x2="24.7" y2="14.6"/>
		<path d="M24.8,18.6c0.8-1.6,1.2-3.5,1.2-5.4c0-7-5.7-12.7-12.7-12.7S0.6,6.2,0.6,13.2c0,5.1,3,9.4,7.2,11.5l3.5,1.1
			c0.7,0.1,1.3,0.2,2,0.2c1.1,0,2.1-0.1,3.1-0.4l4.3-2c0.5-0.4,1-0.7,1.4-1.2L24.8,18.6z"/>
		<path class="st2" d="M24.8,18.6c0.8-1.6,1.2-3.5,1.2-5.4c0-7-5.7-12.7-12.7-12.7S0.6,6.2,0.6,13.2c0,5.1,3,9.4,7.2,11.5l3.5,1.1
			c0.7,0.1,1.3,0.2,2,0.2c1.1,0,2.1-0.1,3.1-0.4l4.3-2c0.5-0.4,1-0.7,1.4-1.2L24.8,18.6z"/>
		<path class="st3" d="M29.5,21.7c0.1-0.1,0.2-0.6,0.2-0.6c-0.5,0.4-1.9,0.3-2.7,0c-0.2-0.2-0.4-0.3-0.6-0.4c-0.5-0.4-1.2-1-1.2-1
			l0.4,0.5c-0.1-0.1-0.2-0.1-0.3-0.2c-0.1-0.2-0.1-0.3-0.1-0.3c-0.8-2.4-2.8-3-4.9-3.3S15,14.6,15,14.6l0.2-0.2
			c-0.4,0-0.7-0.6-0.7-0.6c-0.4-1.2-2-1.7-2-1.7c0.1-0.1,0.1-0.4,0.1-0.4c-0.4,0.1-0.9-0.1-1.3-0.3c-0.2-0.1-0.3-0.2-0.5-0.3
			c0.3-0.1,0.4-0.2,0.4-0.2l-0.1-0.1c-0.3-0.3-0.5-0.9-0.5-0.9C10.5,9.5,10,9,10,9S9.2,7.6,8.7,7.2c0,0-0.2-0.2-0.5-0.3
			c0,0-0.9-0.4-1.2-1.4c0,0-0.3-0.5-0.6-0.4c-0.1,0-0.2,0.2-0.3,0.3l0,0l0,0C6.1,5.5,6,5.6,6,5.7C6,6,5.8,6.1,5.8,6.2s0.4,0.7,0.4,1
			c0,0-0.5-0.2-0.6-0.4c0,0-0.6,0.5,0,1.3s0.8,1.7,0.6,2.2c0,0-0.3,0.7-0.7,0.8c0,0,0.5,0.1,0.7-0.1c0,0-0.4,1-0.6,2.3
			c-0.1,1.3,0.3,2.8,0.4,3.1c0,0,0.2,0.4,0,0.8c0,0,0.4-0.1,0.4-0.4c0,0,1.2,2.6,1.1,3l0.2-0.2c0,0,0.4,3.2,0.1,4.8
			c0,0-0.3,0.9-0.7,1.3c0,0-0.5,0-0.7,0.5l-0.2,0.5c0,0,0.6,0.3,0.8,0.2c0,0,0.1,0,0.2,0l0,0l0,0c0.3,0,0.9,0.1,1-0.1
			c0.2-0.3,0.3-0.5,0.3-0.9s0-0.7,0.2-0.9c0.2-0.1,0.5-0.6,0.5-1.1s0.1-1.6,0.2-2v-0.2c0.2,0.6,0.3,1.1,0.4,1.3c0,0,0.3,2.3-0.1,3.1
			c0,0-0.6-0.1-0.7,0.4c-0.1,0.5-0.2,0.8-0.2,0.8s0,0.4,0.2,0.4c0,0,0.1,0,0.3,0.1l0,0l0,0c0.2,0,0.6,0,0.8-0.1c0,0,1.2,0.3,1.2-0.3
			c0.1-0.5-0.1-1.1-0.2-1.6c-0.2-0.6,0.1-3.3,0.1-3.7c0-0.1,0-0.3,0-0.5h0.1c0.7,0.8,2.5,0.8,2.5,0.8c-0.2,0-0.6-0.5-0.6-0.5
			c0.8,0.4,2.3-0.1,3.1-0.7c0.1-0.1,0.2-0.1,0.3-0.2c0.1,0,0.1,0,0.2,0c0.1,0.2,0.5,0.8,1,1.2c0.6,0.5,1.5,2,0,3
			c0,0-0.6,0.4-0.9,0.3c-0.4-0.1-0.3-0.2-0.5,0.3c-0.2,0.4-0.5,0.5-0.4,0.9c0,0,0.5,0.2,0.7,0.1c0,0,0.6,0.3,1.2,0
			c0.6-0.2,0.6-0.6,0.6-0.6s0.5-1,1.2-1.4c0.6-0.4,0.9-1.2,0.7-1.6c0,0-0.3-0.7-0.4-1.2h0.5c0,0-0.3-0.7-0.6-1.2H20
			c1,0.6,1.7,1.3,1.7,1.3c1.5,1.6,3.6,1,3.6,1c1.8,0.1,2.8,2.5,2.8,2.5c-0.1-0.1-0.4,0-0.5,0.3c0,0.3-0.2,0.8-0.2,0.8
			c0,0.6,0.5,0.4,0.5,0.4H28l0,0l0,0c0.7,0.3,1.3,0,1.3,0c0.8,0.4,1.1-0.1,1.1-0.1c0.1-0.4-0.4-1.1-0.8-1.6c-0.2-0.3-0.8-1.2-1.4-2
			c0.9,0.3,2-0.4,2.5-0.8c0.4-0.4,1.5-0.2,1.5-0.2C31.7,21.8,29.5,21.7,29.5,21.7z"/>
		<path class="st4" d="M29.5,21.7c0.2-0.1,0.2-0.6,0.2-0.6c-0.5,0.4-1.9,0.3-2.7,0c-0.2-0.2-0.4-0.3-0.6-0.4c-0.5-0.4-1.2-1-1.2-1
			c-0.8-2.4-2.8-3-4.9-3.3c-2.2-0.3-5.3-1.8-5.3-1.8l0.2-0.2c-0.4,0-0.7-0.6-0.7-0.6c-0.4-1.2-2-1.7-2-1.7c0.1-0.1,0.1-0.4,0.1-0.4
			c-0.4,0.1-0.9-0.1-1.3-0.3c-0.2-0.1-0.3-0.2-0.5-0.3c0.3-0.1,0.4-0.2,0.4-0.2l-0.1-0.1c-0.3-0.3-0.5-0.9-0.5-0.9
			C10.5,9.5,10,9,10,9S9.7,8.7,9.6,8.4c0.2,0.5,0.2,0.8,0.1,0.4C9.4,8,8.2,7.5,8.2,7.5C7.2,7,6.7,6,6.7,6c0.4-0.1,0.2-0.5,0-0.7l0,0
			C6.5,5.1,6.4,5.1,6.4,5.1c-0.1,0-0.2,0.2-0.2,0.3l0,0C6.1,5.5,6,5.6,6,5.7C6,6,5.8,6.1,5.8,6.2s0.4,0.7,0.4,1c0,0-0.5-0.2-0.6-0.4
			c0,0-0.6,0.5,0,1.3s0.8,1.7,0.6,2.2c0,0-0.3,0.7-0.7,0.8c0,0,0.5,0.1,0.6-0.1c0,0.1-0.4,1.1-0.6,2.3c-0.1,1.3,0.3,2.8,0.4,3
			c0,0,0.2,0.5,0,0.8c0,0,0.4-0.1,0.4-0.4c0,0,1.2,2.6,1.1,3l0.2-0.2c0,0,0.4,3.2,0.1,4.8c0,0-0.3,0.9-0.7,1.3c0,0-0.5,0-0.7,0.5
			l-0.2,0.5c0,0,0.6,0.3,0.8,0.2c0,0,0.1,0,0.2,0s0.3,0,0.5,0s0.5,0,0.6-0.1c0.2-0.3,0.3-0.5,0.3-0.9s0-0.7,0.2-0.8
			c0.2-0.2,0.5-0.6,0.5-1.1s0.1-1.6,0.2-2v-0.2c0.2,0.6,0.3,1.1,0.4,1.3c0,0,0.3,2.3-0.1,3.1c0,0-0.6-0.1-0.7,0.4
			c-0.1,0.5-0.2,0.8-0.2,0.8s0,0.3,0.2,0.3c0,0,0.2,0,0.3,0.1c0.1,0,0.2,0,0.3,0c0.2,0,0.3,0,0.5-0.1c0,0,1.2,0.3,1.2-0.3
			c0.1-0.5-0.1-1.1-0.2-1.6s0.1-3.3,0.1-3.7c0-0.1,0-0.3,0-0.5c0,0,0,0,0.1,0c0.7,0.8,2.5,0.8,2.5,0.8c-0.2,0-0.6-0.5-0.6-0.5
			c0.8,0.4,2.3-0.1,3.1-0.7c0.1-0.1,0.2-0.1,0.3-0.2h0.2c0.1,0.2,0.5,0.8,1,1.2c0.6,0.5,1.5,2,0,3c0,0-0.6,0.4-0.9,0.3
			c-0.4-0.1-0.3-0.2-0.5,0.3c-0.2,0.4-0.5,0.5-0.4,0.9c0,0,0.5,0.2,0.7,0.1c0,0,0.6,0.3,1.2,0c0.6-0.2,0.6-0.6,0.6-0.6
			s0.5-1,1.2-1.4c0.6-0.4,0.9-1.2,0.7-1.6c0,0-0.3-0.7-0.4-1.2h0.5c0,0-0.3-0.7-0.6-1.2H20c1,0.6,1.7,1.3,1.7,1.3
			c1.5,1.5,3.6,1,3.6,1c1.8,0.1,2.8,2.5,2.8,2.5c-0.1-0.1-0.5,0-0.5,0.3s-0.2,0.8-0.2,0.8c0,0.6,0.5,0.4,0.5,0.4H28
			c0.7,0.3,1.3,0,1.3,0c0.8,0.4,1.1-0.1,1.1-0.1c0.1-0.4-0.4-1.1-0.8-1.6c-0.2-0.2-0.8-1.2-1.4-2c0.9,0.3,2-0.4,2.5-0.8
			c0.4-0.4,1.5-0.2,1.5-0.2C31.7,21.8,29.5,21.7,29.5,21.7z M25.2,20c-0.1-0.1-0.1-0.2-0.1-0.3l0.4,0.5C25.4,20.1,25.3,20,25.2,20z"
			/>
		<path d="M25.1,19.7c0,0,0,0.2,0.1,0.3c0.1,0,0.2,0.1,0.3,0.2L25.1,19.7z M30.3,22.2c-1.8,0-2.7,0.3-2.7,0.3s-0.1-0.6-1-0.6
			c0,0-0.9-0.2-0.7-0.4c0,0,0.7,0.1-0.3-0.6c0,0-0.6-0.8-0.7-1.4c-0.3-0.7-0.7-1.2-1.1-1.6c0.2,0.3,0.3,0.5,0.4,0.8
			c0.1,0.2,0.2,0.5,0.2,0.7s-0.1,0.1-0.2,0c-0.3-0.3-0.6-0.6-1-0.9c-0.5-0.3-1.1-0.5-1.6-0.7s-1-0.3-1.6-0.4
			c-2.5-0.6-5.1-2.6-5.1-2.6c0.1,0,0.1-0.1,0.1-0.1c-0.1-0.1-0.2-0.1-0.2-0.1l0.2-0.2c-0.4,0-0.7-0.6-0.7-0.6c0-0.1-0.1-0.3-0.2-0.4
			c-1.3-1.1-3.7-1.3-2.4-0.6c0.6,0.3,1.4,0.9,1.4,1.6c0,0.2-0.1,0.3-0.3,0.3s-0.3-0.1-0.4-0.2c-0.3-0.1-0.6-0.2-0.9-0.2
			c-0.8-0.1-1.6-0.2-2.2-0.8c-0.9-1-1.2-0.5-1.2-0.5c-0.4,1.3,0.8,2.9,0.1,2.7c-0.7-0.2-1.4-1.2-1.6-1.8c-0.1-0.6-0.2-0.5-0.2-0.5
			C5.8,14,5.8,15,5.8,15s0,0-0.1,0.1C5.8,15.7,6,16.2,6,16.3c0,0,0.2,0.5,0,0.8c0,0,0.4-0.1,0.4-0.4c0,0,1.2,2.6,1.1,3l0.2-0.2
			c0,0,0,0.1,0,0.3c0-0.2,0.1-0.2,0.1-0.2s1,1.5,1,2.3s0.4,0.4,0.4,0.4s0,1,0,1.8c0-0.1,0-0.1,0-0.2c0-0.5,0.1-1.6,0.2-2l0,0
			c-0.1-0.2-0.1-0.5-0.1-0.6l-0.7-2.1c0,0,1.5,1.2,2,2.8c0,0,0.2,0.5,0.4-0.1c0,0-0.1,2.1-0.1,3.5c0,0,0.3,0.9,0.3,1.4
			s-0.9,0.1-0.9,0.1s-0.8,0.2-0.8,0c0,0-0.5,0.1-0.5,0c-0.1,0.2-0.1,0.4-0.1,0.4s0,0.3,0.2,0.3c0,0,0.2,0,0.3,0.1c0.1,0,0.2,0,0.3,0
			c0.2,0,0.3,0,0.5-0.1c0,0,1.2,0.3,1.2-0.3c0.1-0.5-0.1-1.1-0.2-1.6s0.1-3.3,0.1-3.7c0-0.1,0-0.3,0-0.5c0,0,0,0,0.1,0
			c0.7,0.8,2.5,0.8,2.5,0.8c-0.2,0-0.6-0.5-0.6-0.5c0.8,0.4,2.3-0.1,3.1-0.7c0.1-0.1,0.2-0.1,0.3-0.2h0.2c0.1,0.2,0.5,0.8,1,1.2
			c0.1,0.1,0.1,0.1,0.2,0.2c-0.3-0.4-0.7-0.8-0.9-1.1c0,0,1-0.7,1.8,0.9c0.1,0.2,0.2,0.5,0.4,0.7c0.1,0.1,0.2,0.3,0.3,0.5
			c0.1,0.2,0,0.4-0.1,0.5c-0.1,0.2-0.1,0.3-0.2,0.5c-0.3,0.6-0.7,1.1-1.3,1.4c-1.4,0.5-1.8,0.6-1.8,0.4V26c-0.2,0.2-0.3,0.3-0.2,0.7
			c0,0,0.5,0.2,0.7,0.1c0,0,0.6,0.3,1.2,0c0.6-0.2,0.6-0.6,0.6-0.6s0.5-1,1.2-1.4c0.6-0.4,0.9-1.2,0.7-1.6c0,0-0.3-0.7-0.4-1.2h0.5
			c0,0-0.3-0.7-0.6-1.2h0.1c1,0.6,1.7,1.3,1.7,1.3c1.5,1.5,3.6,1,3.6,1c1.8,0.1,2.8,2.5,2.8,2.5c-0.1-0.1-0.5,0-0.5,0.3
			s-0.2,0.8-0.2,0.8c0,0.6,0.5,0.4,0.5,0.4h0.1c0.7,0.3,1.3,0,1.3,0c0.8,0.4,1.1-0.1,1.1-0.1c0.1-0.4-0.4-1.1-0.8-1.6
			c-0.2-0.2-0.8-1.2-1.4-2c0.9,0.3,2-0.4,2.5-0.8c0.4-0.3,1.2-0.2,1.4-0.2C31.8,22.4,31.2,22.2,30.3,22.2z M7.6,26.3
			c0,0-1.2,0-1-0.4c0,0.1-0.1,0.1-0.1,0.2l-0.2,0.5c0,0,0.6,0.3,0.8,0.2c0,0,0.1,0,0.2,0s0.3,0,0.5,0s0.5,0,0.6-0.1
			c0.2-0.2,0.3-0.4,0.3-0.6C8.3,26.4,7.9,26.6,7.6,26.3z M25.1,19.7c0,0,0,0.2,0.1,0.3c0.1,0,0.2,0.1,0.3,0.2L25.1,19.7z"/>
		<path d="M5.5,7.5c0.1,0.1,1.3,0.9,1.6,1.8c0,0.2,0.1,0.8,0.3,0.8v0.1c-0.4,0.7-0.8,1.3-1.2,2c-0.3,0.7-0.6,1.5-0.6,2.2
			c-0.1-0.9,0-1.9,0.3-2.8L6,11H5.9c0,0,0.4-0.3,0.4-1S5.5,8,5.5,7.8C5.5,7.5,5.5,7.5,5.5,7.5z"/>
		<path d="M6.2,5.5c0,0,0.1-0.4,0.3-0.4C6.7,5.2,7,5.5,6.8,5.7C6.6,5.9,6.2,5.5,6.2,5.5z"/>
		<g>
			<path class="st5" d="M9.5,21.9c-0.2,0.4-0.2,1.6-0.2,2.1S9,25,8.8,25.1S8.6,25.6,8.6,26s0,0.6-0.3,0.9C8.1,27.2,7.1,27,7.1,27
				c-0.2,0-0.8-0.2-0.8-0.2l0.2-0.5c0.1-0.5,0.7-0.5,0.7-0.5c0.4-0.4,0.7-1.3,0.7-1.3c0.3-1.6-0.1-4.8-0.1-4.8l-0.2,0.2
				c0.1-0.4-1.1-3-1.1-3c0,0.3-0.4,0.4-0.4,0.4c0.2-0.4,0-0.8,0-0.8c-0.1-0.3-0.6-1.8-0.4-3.1C5.7,12,6.2,11,6.2,11
				c-0.2,0.2-0.7,0.1-0.7,0.1c0.4-0.1,0.7-0.8,0.7-0.8c0.2-0.5,0-1.4-0.6-2.2s0-1.3,0-1.3C5.7,7,6.2,7.2,6.2,7.2
				c0-0.3-0.4-0.9-0.4-1C5.8,6.1,6,6,6,5.7s0.1-0.6,0.4-0.6C6.6,5,7,5.5,7,5.5c0.4,1,1.2,1.4,1.2,1.4C8.5,7,8.7,7.2,8.7,7.2
				c0.5,0.4,1.1,1.7,1.1,1.7s0.5,0.5,0.6,0.9c0,0,0.3,0.8,0.7,1c0,0-0.9,0.7-1.8,0.3L9,11.2c0,0-0.3-0.3-0.5-0.7"/>
			<path class="st6" d="M8.9,9.1c0,0,0.1,0.6,0.4,0.8l0.2-0.3c0,0,1.2,1.1,1.6,1.1"/>
			<path class="st6" d="M8.4,9.3c0,0-0.1,0.6-0.4,0.9"/>
			<path class="st6" d="M7.6,9.8c0,0,0,0.3-0.3,0.5"/>
			<path class="st6" d="M6.1,5.4c0,0,0.2,0.7,0.9,0.3"/>
			<path class="st6" d="M10.7,11.1c0,0,1.1,0.8,1.7,0.6c0,0,0,0.3-0.1,0.4c0,0,1.7,0.5,2,1.7c0,0,0.3,0.6,0.7,0.6l-0.2,0.2
				c0,0,3.2,1.5,5.3,1.8s4.1,0.9,4.9,3.3c0,0,0.5,1.6,1.2,1.6c0,0-0.3,0.2-0.6,0.2c0,0,0.3,0.3,0.6,0.3c0.3-0.1,0.9,0,1.2,0.5
				c0.3,0.5,1.8,2.8,2.2,3.2c0.4,0.4,0.8,1.2,0.8,1.6c0,0-0.3,0.5-1.1,0.1c0,0-0.6,0.3-1.4,0c0,0-0.5,0.2-0.5-0.4
				c0,0,0.1-0.5,0.2-0.8c0-0.3,0.4-0.4,0.5-0.3c0,0-1-2.4-2.8-2.5c0,0-2.1,0.6-3.6-1c0,0-2.1-1.9-4-2.4"/>
			<path class="st6" d="M18.9,20.3c0,0-1.8,0.2-2.6,0.8c-0.8,0.6-2.3,1.1-3.1,0.7c0,0,0.4,0.5,0.6,0.5c0,0-1.9,0.1-2.6-0.8"/>
			<path class="st7" d="M25.1,19.7c0,0,1,0.7,1.4,1.1c0.4,0.5,2.5,0.8,3.2,0.3c0,0,0,0.5-0.2,0.6c0,0,2.2,0.1,2.8,0.9
				c0,0-1-0.2-1.5,0.2c-0.4,0.4-1.6,1.1-2.5,0.8"/>
			<path class="st6" d="M19.7,20.7c0.3,0.3,0.8,1.4,0.8,1.4L20,22c0.1,0.4,0.4,1.2,0.4,1.2c0.3,0.4,0,1.2-0.7,1.6
				c-0.6,0.4-1.2,1.4-1.2,1.4s0,0.4-0.6,0.6s-1.2,0-1.2,0c-0.2,0.1-0.7-0.1-0.7-0.1c-0.1-0.4,0.1-0.5,0.4-0.9
				c0.2-0.4,0.2-0.3,0.5-0.3c0.4,0.1,0.9-0.3,0.9-0.3c1.5-1,0.6-2.5,0-3s-1-1.2-1-1.2"/>
			<path class="st5" d="M8.3,18.5c0,0,1.4,3.7,1.5,4.5c0,0,0.3,2.3-0.1,3.1c0,0-0.6-0.1-0.7,0.4c-0.1,0.5-0.2,0.8-0.2,0.8
				s0,0.4,0.2,0.4c0,0,0.7,0.2,1.1,0c0,0,1.2,0.3,1.2-0.3c0.1-0.5-0.1-1.1-0.2-1.6c-0.2-0.6,0.1-3.3,0.1-3.7c0-0.4,0-1.7,0.3-2.3
				l0.4,0.2c0,0,0-1.9-0.5-2.3c0,0,0.8,0.3,1,0c0,0-0.8-0.3-1.2-0.9"/>
			<path class="st6" d="M8.2,19.7c0,0,0.5,0.6,0.9,0.9"/>
			<path class="st8" d="M22.6,18c0,0,0.7,0.3,1,0.6"/>
			<path class="st8" d="M23.1,19c0,0,0.6,0.3,0.8,0.5"/>
			<path class="st8" d="M7.9,26c0,0-0.4,0.1-0.5,0.3c-0.1,0.2-0.2,0.6-0.2,0.6"/>
			<path class="st8" d="M10.5,26.3L10.4,27c0,0-0.1,0.2,0,0.6"/>
			<path class="st8" d="M9.6,26.4c0,0-0.3,0.7-0.3,1.2"/>
			<path class="st8" d="M17.9,25.7c0,0-0.4,0.1-0.6,0.3c-0.2,0.2-0.6,0.7-0.6,0.7"/>
			<path class="st8" d="M29.3,26.2c0,0-0.1,0.5,0,1"/>
			<path class="st8" d="M28.4,26.1c0,0-0.4,0.6-0.4,1.1"/>
			<path class="st8" d="M8.1,7.5c0,0,0.1,0.1,0.2,0.3"/>
		</g>
		<g>
			<path class="st9" d="M24.2,9.3"/>
		</g>
	</g>
</g>
</svg>
