<?xml version="1.0" encoding="utf-8"?>
<!-- Generator: Adobe Illustrator 25.4.1, SVG Export Plug-In . SVG Version: 6.00 Build 0)  -->
<svg version="1.1" id="Layer_1" xmlns="http://www.w3.org/2000/svg" xmlns:xlink="http://www.w3.org/1999/xlink" x="0px" y="0px"
	 viewBox="0 0 128 128" style="enable-background:new 0 0 128 128;" xml:space="preserve">
<style type="text/css">
	.st0{fill:none;stroke:#FF9700;stroke-width:4;stroke-linecap:round;stroke-linejoin:round;}
</style>
<path class="st0" d="M59.4,12.6c-12.6,3-23.6,10.8-30.7,21.7"/>
<path class="st0" d="M102.7,5.4c-2.5-1.5-5.2-2.8-8-3.9"/>
<path class="st0" d="M122.4,26.9c-3.2-6.7-7.8-12.5-13.6-17.2"/>
<path class="st0" d="M119.6,102.9c1.7-2.4,3.2-5,4.5-7.7"/>
<path class="st0" d="M96.5,120.7c6.9-2.6,13.1-6.8,18.3-12.1"/>
<path class="st0" d="M107,46.6c2.3,0,4.1,1.8,4.1,4.1s-1.8,4.1-4.1,4.1c-2.3,0-4.1-1.8-4.1-4.1l0,0"/>
<path class="st0" d="M105.7,82.8c0,5.4-4.4,9.8-9.8,9.8s-9.8-4.4-9.8-9.8s4.4-9.8,9.8-9.8c3.1,0,6,1.4,7.8,3.9"/>
<line class="st0" x1="18.5" y1="92.8" x2="18.5" y2="92.8"/>
<path class="st0" d="M40.1,70c0,0-18.1,0.2-21.6-8c10.6-1.6,11.6-0.6,17.5-6.7s14.9-13.6,20.8-14.6c3.6-0.7,6.7-3,8.4-6.3l7.8-11
	c0,0,6.7,5.1,6.9,10.6c0,3.9-0.5,7.8-1.6,11.6c1.6,0.2,3.3,0.1,4.9-0.4s3.1-1.2,4.5-2c0,0,0,7.8-3.1,10S76,61.1,75,71.7
	S72,87.2,69.9,91c-1.5,2.5-3.2,4.8-5.1,7c0,0,1.2-8.4-3.3-11s-6.1-7.3-5.1-8.8c-4.7-2.4-8.2-5.3-7.1-9.2s7.3-3.5,7.3-3.5
	c-2.5-3.7-6.3-5.3-3.4-8.2l2.9-2.9c0,0-3-3.7-2.9-6.9c-3.3,2.3-6.3,4.9-9.1,7.8"/>
<path class="st0" d="M58.7,46.6c0,0,1.8-3,4.7-3"/>
<path class="st0" d="M68.2,30.3c0,0,7.9,2.3,10.7,0"/>
<path class="st0" d="M69.1,98c0,0-3.1,10.2-7.1,15.7s-5.5,8.1-5.3,12.8c-15.3-2.8-32.6-13.3-41.4-25.9l-12-16.1c0,0,16-8,19.8-12.2"
	/>
<path class="st0" d="M124.6,58.2c0,0.9,0.1,1.7,0.1,2.6c0,31.2-25.3,56.6-56.6,56.6c-2.8,0-5.6-0.2-8.4-0.6"/>
<path class="st0" d="M14.3,78.5C4.5,48.8,20.7,16.8,50.4,7.1s61.7,6.4,71.4,36.1c0.7,2,1.2,4.1,1.7,6.2"/>
<path class="st0" d="M51.5,118.4c0,0-15.4-5.1-22.1-13.4"/>
<line class="st0" x1="25.5" y1="101.3" x2="21.9" y2="97.3"/>
<line class="st0" x1="40.2" y1="59.5" x2="38.2" y2="60.7"/>
</svg>
