<?xml version="1.0" encoding="utf-8"?>
<!-- Generator: Adobe Illustrator 25.4.1, SVG Export Plug-In . SVG Version: 6.00 Build 0)  -->
<svg version="1.1" id="Layer_1" xmlns="http://www.w3.org/2000/svg" xmlns:xlink="http://www.w3.org/1999/xlink" x="0px" y="0px"
	 viewBox="0 0 899.8 294.5" style="enable-background:new 0 0 899.8 294.5;" xml:space="preserve">
<style type="text/css">
	.st0{fill:url(#SVGID_1_);}
	.st1{fill:#FF9D00;}
	.st2{fill:#F3A761;}
	.st3{fill:#C172A2;}
</style>
<g>
	<g>
		
			<linearGradient id="SVGID_1_" gradientUnits="userSpaceOnUse" x1="2.5" y1="145.3" x2="347.4" y2="145.3" gradientTransform="matrix(1 0 0 -1 0 293)">
			<stop  offset="0" style="stop-color:#7C6DCE"/>
			<stop  offset="1" style="stop-color:#F3A761"/>
		</linearGradient>
		<path class="st0" d="M338.2,16.9c2.8,0,5.1,2.3,5.1,5.1s-2.3,5.1-5.1,5.1c-2.8,0-5.1-2.3-5.1-5.1
			C333.2,19.1,335.4,16.9,338.2,16.9z M340.8,83.5c0,4.4-3.6,7.9-7.9,7.9c-4.4,0-7.9-3.6-7.9-7.9s3.6-7.9,7.9-7.9
			C337.3,75.6,340.8,79.2,340.8,83.5z M302.5,141.8c0,5.7-4.6,10.3-10.3,10.3s-10.3-4.6-10.3-10.3s4.6-10.3,10.3-10.3
			S302.5,136.1,302.5,141.8z M285.1,83.4c0-6.8,5.5-12.4,12.4-12.4c6.8,0,12.4,5.5,12.4,12.4s-5.5,12.4-12.4,12.4
			C290.7,95.8,285.1,90.3,285.1,83.4z M307,162.1c6.5,0,11.8,5.2,11.8,11.8c0,6.5-5.2,11.8-11.8,11.8c-6.5,0-11.8-5.2-11.8-11.8
			C295.3,167.4,300.5,162.1,307,162.1z M312.4,124.9c-6.8,0-12.5-5.6-12.5-12.5c0-6.8,5.6-12.5,12.5-12.5s12.5,5.6,12.5,12.5
			C324.8,119.3,319.2,124.9,312.4,124.9z M327.7,136.1c4.8,0,8.8,3.9,8.8,8.8c0,4.8-3.9,8.8-8.8,8.8s-8.8-3.9-8.8-8.8
			C318.9,140,322.9,136.1,327.7,136.1z M330.9,51.1c0,7.2-5.9,13.1-13.1,13.1s-13.1-5.9-13.1-13.1S310.6,38,317.8,38
			C325,38.1,330.9,43.9,330.9,51.1z M302.8,3.4c8,0,14.4,6.5,14.4,14.4c0,8-6.5,14.4-14.4,14.4c-8,0-14.4-6.5-14.4-14.4
			S294.9,3.4,302.8,3.4z M282.3,36.9c7.3,0,13.2,5.9,13.2,13.2s-5.9,13.2-13.2,13.2s-13.2-5.9-13.2-13.2
			C269,42.8,275,36.9,282.3,36.9z M261.9,64.2c7.2,0,13.1,5.9,13.1,13.1s-5.9,13.1-13.1,13.1s-13.1-5.9-13.1-13.1
			C248.9,70.1,254.7,64.2,261.9,64.2z M241.5,96.1c5.7,0,10.3,4.6,10.3,10.3c0,5.7-4.6,10.3-10.3,10.3s-10.3-4.6-10.3-10.3
			C231.1,100.7,235.7,96.1,241.5,96.1z M221,126.8c4.8,0,8.8,3.9,8.8,8.8s-3.9,8.8-8.8,8.8s-8.8-3.9-8.8-8.8S216.1,126.8,221,126.8z
			 M204.9,152.1c3.6,0,6.6,2.9,6.6,6.6s-2.9,6.6-6.6,6.6c-3.6,0-6.6-2.9-6.6-6.6S201.4,152.1,204.9,152.1z M191,173.6
			c2.8,0,5.1,2.3,5.1,5.1s-2.3,5.1-5.1,5.1s-5.1-2.3-5.1-5.1C185.8,175.9,188.1,173.6,191,173.6z M174.9,189.3
			c5.7,0,10.3,4.6,10.3,10.3s-4.6,10.3-10.3,10.3s-10.3-4.6-10.3-10.3C164.5,193.9,169.2,189.3,174.9,189.3z M159,173.6
			c2.8,0,5.1,2.3,5.1,5.1s-2.3,5.1-5.1,5.1s-5.1-2.3-5.1-5.1C154,175.9,156.2,173.6,159,173.6z M145,152.1c3.6,0,6.6,2.9,6.6,6.6
			s-2.9,6.6-6.6,6.6s-6.6-2.9-6.6-6.6S141.3,152.1,145,152.1z M128.9,126.8c4.9,0,8.8,3.9,8.8,8.8s-3.9,8.8-8.8,8.8
			c-4.9,0-8.8-3.9-8.8-8.8C120.2,130.7,124.1,126.8,128.9,126.8z M108.5,96.1c5.7,0,10.3,4.6,10.3,10.3c0,5.7-4.6,10.3-10.3,10.3
			s-10.3-4.6-10.3-10.3C98.1,100.7,102.7,96.1,108.5,96.1z M101,77.3c0,7.2-5.9,13.1-13.1,13.1s-13.1-5.9-13.1-13.1
			s6-13.1,13.2-13.1S101,70.1,101,77.3z M80.8,50.1c0,7.3-5.9,13.2-13.2,13.2s-13.2-5.9-13.2-13.2s5.9-13.2,13.2-13.2
			C74.8,36.9,80.8,42.8,80.8,50.1z M25.1,112.4c0-6.8,5.6-12.5,12.5-12.5S50,105.6,50,112.4s-5.6,12.5-12.5,12.5
			S25.1,119.4,25.1,112.4z M30.9,144.9c0,4.8-3.9,8.8-8.8,8.8s-8.8-3.9-8.8-8.8s3.9-8.8,8.8-8.8S30.9,140,30.9,144.9z M42.8,162.1
			c6.5,0,11.8,5.2,11.8,11.8c0,6.5-5.2,11.8-11.8,11.8S31,180.5,31,173.9C31,167.4,36.3,162.1,42.8,162.1z M47.4,141.8
			c0-5.7,4.6-10.3,10.3-10.3S68,136.1,68,141.8s-4.6,10.3-10.3,10.3C52,152.2,47.4,147.6,47.4,141.8z M52.3,95.8
			c-6.8,0-12.4-5.5-12.4-12.4c0-6.8,5.5-12.4,12.4-12.4s12.4,5.5,12.4,12.4S59.2,95.8,52.3,95.8z M47,3.4c8,0,14.4,6.5,14.4,14.4
			c0,8-6.5,14.4-14.4,14.4c-8,0-14.4-6.5-14.4-14.4S39,3.4,47,3.4z M32.1,38.1c7.2,0,13.1,5.9,13.1,13.1s-5.9,13.1-13.1,13.1
			S19,58.4,19,51.2C19,43.9,24.9,38.1,32.1,38.1z M24.9,83.5c0,4.4-3.6,7.9-7.9,7.9s-7.9-3.6-7.9-7.9s3.6-7.9,7.9-7.9
			S24.9,79.2,24.9,83.5z M11.7,16.9c2.8,0,5.1,2.3,5.1,5.1s-2.3,5.1-5.1,5.1S6.6,24.8,6.6,22C6.6,19.1,8.9,16.9,11.7,16.9z
			 M2.5,177.1c0-2.8,2.3-5.1,5.1-5.1s5.1,2.3,5.1,5.1s-2.3,5.1-5.1,5.1S2.5,179.9,2.5,177.1z M12.6,245.1c-3.6,0-6.6-2.9-6.6-6.6
			c0-3.6,2.9-6.6,6.6-6.6s6.6,2.9,6.6,6.6C19.2,242.2,16.3,245.1,12.6,245.1z M17.3,206.1c0-5.8,4.7-10.5,10.5-10.5
			s10.5,4.7,10.5,10.5s-4.7,10.5-10.5,10.5S17.3,212,17.3,206.1z M33.2,276.5c-4.7,0-8.6-3.8-8.6-8.6c0-4.7,3.8-8.6,8.6-8.6
			s8.6,3.8,8.6,8.6C41.8,272.6,37.9,276.5,33.2,276.5z M48.1,247.3c-6.5,0-11.8-5.2-11.8-11.8c0-6.5,5.2-11.8,11.8-11.8
			c6.5,0,11.8,5.2,11.8,11.8C60,242,54.6,247.3,48.1,247.3z M63.2,210.3c-4,0-7.2-3.2-7.2-7.2s3.2-7.2,7.2-7.2s7.2,3.2,7.2,7.2
			S67.2,210.3,63.2,210.3z M61,109.5c0-6.6,5.3-11.9,11.9-11.9s11.9,5.3,11.9,11.9s-5.3,11.9-11.9,11.9S61,116.1,61,109.5z
			 M78.3,176c-2.8,0-5.1-2.3-5.1-5.1s2.3-5.1,5.1-5.1c2.8,0,5.1,2.3,5.1,5.1S81.1,176,78.3,176z M83.1,138.7
			c0-5.7,4.6-10.3,10.3-10.3c5.7,0,10.3,4.6,10.3,10.3S99.1,149,93.4,149C87.7,149.1,83.1,144.5,83.1,138.7z M98.7,205.1
			c-2.8,0-5.1-2.3-5.1-5.1s2.3-5.1,5.1-5.1c2.8,0,5.1,2.3,5.1,5.1C103.8,202.9,101.5,205.1,98.7,205.1z M101.8,167.8
			c0-6.5,5.2-11.8,11.8-11.8c6.5,0,11.8,5.2,11.8,11.8c0,6.5-5.2,11.8-11.8,11.8C107,179.7,101.8,174.3,101.8,167.8z M119.1,234.9
			c-3.2,0-5.8-2.6-5.8-5.8s2.6-5.8,5.8-5.8c3.2,0,5.8,2.6,5.8,5.8C124.8,232.3,122.2,234.9,119.1,234.9z M122.4,196.7
			c0-6.5,5.2-11.7,11.7-11.7c6.5,0,11.7,5.2,11.7,11.7s-5.2,11.7-11.7,11.7C127.6,208.5,122.4,203.2,122.4,196.7z M139.6,265.5
			c-4,0-7.2-3.2-7.2-7.2s3.2-7.2,7.2-7.2s7.2,3.2,7.2,7.2S143.6,265.5,139.6,265.5z M144.2,226.1c0-5.7,4.6-10.3,10.3-10.3
			s10.3,4.6,10.3,10.3s-4.6,10.3-10.3,10.3C148.8,236.4,144.2,231.8,144.2,226.1z M159.9,292c-2.5,0-4.4-2-4.4-4.4
			c0-2.5,2-4.4,4.4-4.4s4.4,2,4.4,4.4S162.3,292,159.9,292z M174.9,266.3c-5.7,0-10.3-4.6-10.3-10.3s4.6-10.3,10.3-10.3
			s10.3,4.6,10.3,10.3S180.6,266.3,174.9,266.3z M190,292c-2.5,0-4.4-2-4.4-4.4c0-2.5,2-4.4,4.4-4.4s4.4,2,4.4,4.4
			S192.5,292,190,292z M195.3,236.4c-5.7,0-10.3-4.6-10.3-10.3s4.6-10.3,10.3-10.3s10.3,4.6,10.3,10.3
			C205.7,231.8,201,236.4,195.3,236.4z M210.3,265.5c-4,0-7.2-3.2-7.2-7.2s3.2-7.2,7.2-7.2s7.2,3.2,7.2,7.2S214.3,265.5,210.3,265.5
			z M215.7,208.5c-6.5,0-11.7-5.2-11.7-11.7s5.2-11.7,11.7-11.7s11.7,5.2,11.7,11.7C227.4,203.2,222.2,208.5,215.7,208.5z
			 M230.8,234.9c-3.2,0-5.8-2.6-5.8-5.8s2.6-5.8,5.8-5.8s5.8,2.6,5.8,5.8C236.5,232.3,233.9,234.9,230.8,234.9z M236.3,179.7
			c-6.5,0-11.8-5.2-11.8-11.8c0-6.5,5.2-11.8,11.8-11.8c6.5,0,11.8,5.2,11.8,11.8C248.1,174.3,242.8,179.7,236.3,179.7z
			 M251.2,205.1c-2.8,0-5.1-2.3-5.1-5.1s2.3-5.1,5.1-5.1s5.1,2.3,5.1,5.1C256.3,202.9,254,205.1,251.2,205.1z M256.4,149.1
			c-5.7,0-10.3-4.6-10.3-10.3s4.6-10.3,10.3-10.3c5.7,0,10.3,4.6,10.3,10.3C266.8,144.5,262.2,149.1,256.4,149.1z M271.5,176
			c-2.8,0-5.1-2.3-5.1-5.1s2.3-5.1,5.1-5.1s5.1,2.3,5.1,5.1S274.4,176,271.5,176z M265.1,109.5c0-6.6,5.3-11.9,11.9-11.9
			s11.9,5.3,11.9,11.9s-5.3,11.9-11.9,11.9C270.5,121.4,265.1,116.1,265.1,109.5z M279.4,203.1c0-4,3.2-7.2,7.2-7.2s7.2,3.2,7.2,7.2
			s-3.2,7.2-7.2,7.2S279.4,207.1,279.4,203.1z M290,235.5c0-6.5,5.2-11.8,11.8-11.8c6.5,0,11.8,5.2,11.8,11.8
			c0,6.5-5.2,11.8-11.8,11.8C295.3,247.3,290,242,290,235.5z M316.6,276.5c-4.7,0-8.6-3.8-8.6-8.6c0-4.7,3.8-8.6,8.6-8.6
			c4.7,0,8.6,3.8,8.6,8.6C325.3,272.6,321.4,276.5,316.6,276.5z M322.1,216.7c-5.8,0-10.5-4.7-10.5-10.5s4.7-10.5,10.5-10.5
			s10.5,4.7,10.5,10.5C332.5,212,327.8,216.7,322.1,216.7z M337.2,245.1c-3.6,0-6.6-2.9-6.6-6.6c0-3.6,2.9-6.6,6.6-6.6
			c3.6,0,6.6,2.9,6.6,6.6C343.8,242.2,340.8,245.1,337.2,245.1z M342.3,182.2c-2.8,0-5.1-2.3-5.1-5.1s2.3-5.1,5.1-5.1
			c2.8,0,5.1,2.3,5.1,5.1S345.2,182.2,342.3,182.2z"/>
	</g>
	<g>
		<path class="st1" d="M897.4,283.6c-0.1-0.5-0.2-0.8-0.4-1.1s-0.4-0.5-0.6-0.6c-0.2-0.1-0.5-0.2-0.7-0.2h-26.3V258h22.2
			c0.3,0,0.5-0.1,0.7-0.2s0.4-0.3,0.6-0.6c0.2-0.3,0.3-0.6,0.3-1.1c0.1-0.4,0.1-1,0.1-1.6s0-1.2-0.1-1.7s-0.2-0.9-0.3-1.1
			c-0.2-0.3-0.3-0.5-0.6-0.6c-0.2-0.2-0.5-0.2-0.7-0.2h-22.2v-20.8h25.9c0.3,0,0.5-0.1,0.7-0.2c0.2-0.1,0.4-0.3,0.5-0.6
			s0.2-0.7,0.3-1.1c0.1-0.5,0.1-1,0.1-1.6c0-0.7,0-1.3-0.1-1.7c-0.1-0.5-0.2-0.8-0.3-1.2c-0.1-0.3-0.3-0.5-0.5-0.7
			c-0.2-0.1-0.5-0.2-0.7-0.2h-31.4c-0.8,0-1.5,0.3-2.2,0.8s-1,1.5-1,2.8v59.1c0,1.3,0.3,2.3,1,2.8s1.4,0.8,2.2,0.8h31.8
			c0.3,0,0.5-0.1,0.7-0.2s0.4-0.4,0.6-0.7c0.2-0.3,0.3-0.7,0.4-1.2s0.1-1,0.1-1.6C897.5,284.7,897.4,284.1,897.4,283.6z M844,229.2
			c-0.2-0.6-0.5-1.1-0.9-1.5s-1.3-1-2.4-1.7c-1.2-0.7-2.6-1.3-4.4-1.9c-1.7-0.6-3.7-1.1-5.9-1.6c-2.2-0.4-4.6-0.7-7.1-0.7
			c-4.9,0-9.4,0.8-13.4,2.5s-7.5,4-10.4,7s-5.1,6.6-6.7,10.9c-1.6,4.3-2.4,9-2.4,14.3c0,5.1,0.7,9.6,2.2,13.7s3.6,7.6,6.4,10.5
			c2.8,2.9,6.2,5.2,10.2,6.8c4,1.6,8.6,2.4,13.7,2.4c1.7,0,3.4-0.1,5.1-0.3c1.7-0.2,3.4-0.5,5.1-0.9c1.7-0.4,3.3-0.9,4.9-1.5
			c1.6-0.6,2.8-1.1,3.8-1.6s1.6-1.1,1.9-1.7c0.3-0.6,0.5-1.4,0.5-2.3v-25.2c0-0.6-0.1-1.2-0.3-1.6c-0.2-0.5-0.4-0.9-0.7-1.1
			c-0.3-0.3-0.6-0.5-1-0.6s-0.8-0.2-1.1-0.2h-21c-0.3,0-0.6,0.1-0.8,0.2c-0.2,0.1-0.4,0.4-0.5,0.6c-0.2,0.3-0.3,0.7-0.3,1.1
			c-0.1,0.5-0.1,1-0.1,1.7c0,1.2,0.1,2.1,0.4,2.7s0.7,0.9,1.3,0.9h15.4v19.3c-1.8,1-3.8,1.7-5.9,2.2c-2.1,0.5-4.2,0.7-6.2,0.7
			c-3.4,0-6.6-0.6-9.5-1.7c-2.9-1.2-5.4-2.9-7.5-5.1c-2.1-2.3-3.7-5-4.9-8.3s-1.8-7-1.8-11.3c0-3.8,0.5-7.3,1.6-10.5s2.6-6,4.6-8.4
			s4.5-4.2,7.4-5.5s6.2-2,9.8-2c3.1,0,5.7,0.3,8,1c2.2,0.6,4.2,1.4,5.8,2.2s2.9,1.5,3.8,2.2s1.6,1,2,1c0.2,0,0.5-0.1,0.7-0.2
			c0.2-0.1,0.4-0.4,0.5-0.7s0.2-0.7,0.3-1.2s0.1-1.1,0.1-1.7C844.2,230.6,844.1,229.8,844,229.2z M770.1,266.9c-1,3.3-2.4,6-4.4,8.2
			c-1.9,2.2-4.4,3.8-7.3,4.9c-2.9,1.1-6.5,1.6-10.7,1.6h-9.1V230h9c4.6,0,8.3,0.6,11.2,1.9c2.9,1.3,5.3,3,7.2,5.3s3.3,4.9,4.2,8
			s1.3,6.4,1.3,10C771.6,259.8,771.1,263.7,770.1,266.9z M778.8,241.5c-1.4-4-3.4-7.3-6.1-10.1c-2.7-2.8-6-4.9-10-6.4
			s-8.8-2.2-14.5-2.2h-15c-0.8,0-1.5,0.3-2.2,0.8s-1,1.5-1,2.8v59.1c0,1.3,0.3,2.3,1,2.8s1.4,0.8,2.2,0.8h14
			c5.7,0,10.5-0.7,14.6-2.1s7.6-3.5,10.4-6.3s5-6.4,6.4-10.7c1.5-4.3,2.2-9.3,2.2-15C780.9,249.9,780.2,245.4,778.8,241.5z
			 M712.3,224.1c0-0.3-0.1-0.5-0.2-0.7c-0.1-0.2-0.4-0.4-0.7-0.5s-0.8-0.2-1.4-0.3s-1.3-0.1-2.1-0.1s-1.5,0-2,0.1
			c-0.6,0.1-1,0.2-1.4,0.3s-0.6,0.3-0.8,0.5s-0.2,0.4-0.2,0.7v63.6c0,0.3,0.1,0.5,0.2,0.7c0.1,0.2,0.4,0.4,0.7,0.5s0.8,0.2,1.4,0.3
			c0.6,0.1,1.3,0.1,2.1,0.1c0.9,0,1.6,0,2.1-0.1c0.6-0.1,1-0.2,1.4-0.3c0.3-0.1,0.6-0.3,0.7-0.5c0.1-0.2,0.2-0.4,0.2-0.7V224.1z
			 M676.7,245.6c-0.5,1.4-1.4,2.6-2.5,3.6s-2.5,1.8-4.2,2.4c-1.7,0.6-3.7,0.8-6,0.8h-8.6V230h7.4c1.7,0,3.1,0.1,4.2,0.2
			c1.1,0.1,2,0.3,2.9,0.5c2.7,0.8,4.7,2.1,5.8,3.9c1.2,1.8,1.7,4,1.7,6.6C677.5,242.7,677.2,244.2,676.7,245.6z M690.5,286.5
			c-0.1-0.5-0.4-1.4-0.9-2.6l-5.9-14.6c-0.7-1.7-1.4-3.2-2-4.5c-0.7-1.3-1.4-2.5-2.2-3.5s-1.6-1.9-2.5-2.6s-1.9-1.3-3-1.8
			c1.9-0.7,3.7-1.5,5.3-2.5s2.9-2.2,4-3.5s2-2.9,2.6-4.7s0.9-3.7,0.9-6s-0.3-4.4-1-6.3c-0.7-1.9-1.7-3.6-3-5c-1.3-1.5-3-2.7-4.9-3.6
			c-2-1-4.2-1.7-6.8-2.1c-0.9-0.1-1.9-0.2-3-0.3s-2.5-0.1-4.2-0.1h-14.1c-0.8,0-1.5,0.3-2.2,0.8s-1,1.5-1,2.8v61.3
			c0,0.3,0.1,0.5,0.2,0.7c0.1,0.2,0.4,0.4,0.7,0.5s0.8,0.2,1.4,0.3c0.6,0.1,1.3,0.1,2.1,0.1c0.9,0,1.6,0,2.1-0.1
			c0.6-0.1,1-0.2,1.3-0.3c0.3-0.1,0.6-0.3,0.7-0.5c0.2-0.2,0.2-0.4,0.2-0.7v-28.2h5.9c2,0,3.7,0.3,5.2,0.9c1.4,0.6,2.7,1.4,3.7,2.5
			c1.1,1.1,2,2.4,2.7,3.8c0.8,1.5,1.5,3.1,2.2,4.9l6.1,15.6c0.1,0.4,0.3,0.8,0.5,1c0.2,0.3,0.5,0.5,0.8,0.6c0.3,0.2,0.8,0.3,1.4,0.3
			c0.6,0.1,1.3,0.1,2.2,0.1c1,0,1.8,0,2.5-0.1c0.6-0.1,1.1-0.2,1.4-0.3c0.3-0.1,0.6-0.3,0.7-0.5s0.2-0.4,0.2-0.7
			S690.7,287,690.5,286.5z M622.9,275.4c-0.6,1.4-1.5,2.6-2.7,3.5c-1.1,0.9-2.5,1.6-4,2.1s-3.3,0.7-5.3,0.7h-12.8v-23.4h10.5
			c2.8,0,5,0.3,6.9,0.8c1.8,0.5,3.3,1.3,4.5,2.3s2.1,2.3,2.8,3.8c0.6,1.5,0.9,3.2,0.9,5.2C623.9,272.3,623.6,274,622.9,275.4z
			 M619.3,244.5c-0.4,1.3-1.1,2.5-2,3.5s-2.1,1.8-3.5,2.4c-1.4,0.6-3.2,0.9-5.5,0.9h-10v-21.5h9.1c2.5,0,4.5,0.2,6.1,0.7
			c1.5,0.5,2.8,1.2,3.7,2.1c1,0.9,1.7,2,2.1,3.3c0.4,1.3,0.7,2.7,0.7,4.4C619.9,241.8,619.7,243.2,619.3,244.5z M632.2,263.8
			c-0.7-1.9-1.6-3.5-2.8-4.9s-2.6-2.6-4.1-3.5c-1.6-0.9-3.3-1.5-5.1-1.9c1.4-0.6,2.7-1.4,3.8-2.4s2-2,2.8-3.3c0.7-1.2,1.3-2.5,1.7-4
			c0.4-1.4,0.6-2.9,0.6-4.5c0-2.6-0.4-5-1.3-7.1s-2.1-3.8-3.8-5.3c-1.7-1.4-3.8-2.5-6.3-3.3s-5.8-1.1-9.7-1.1h-15.1
			c-0.8,0-1.5,0.3-2.2,0.8s-1,1.5-1,2.8v59.1c0,1.3,0.3,2.3,1,2.8s1.4,0.8,2.2,0.8h17.3c2.5,0,4.7-0.2,6.6-0.5
			c1.9-0.4,3.7-0.9,5.4-1.6s3.2-1.6,4.6-2.7c1.3-1.1,2.5-2.3,3.5-3.7c1-1.4,1.7-3,2.2-4.7c0.5-1.8,0.8-3.7,0.8-5.8
			C633.2,267.7,632.8,265.7,632.2,263.8z M556.1,224.8c-0.1-0.5-0.2-0.9-0.3-1.2c-0.2-0.3-0.3-0.5-0.6-0.7c-0.2-0.1-0.5-0.2-0.7-0.2
			h-46.1c-0.3,0-0.5,0.1-0.7,0.2c-0.2,0.1-0.4,0.4-0.5,0.7s-0.2,0.7-0.3,1.2c-0.1,0.5-0.1,1.1-0.1,1.7c0,0.6,0,1.2,0.1,1.7
			s0.2,0.9,0.3,1.2s0.3,0.5,0.5,0.6s0.5,0.2,0.7,0.2H527v57.5c0,0.3,0.1,0.5,0.2,0.7s0.4,0.4,0.7,0.5s0.8,0.2,1.4,0.3
			c0.6,0.1,1.3,0.1,2.1,0.1c0.9,0,1.6,0,2.1-0.1c0.6-0.1,1-0.2,1.4-0.3c0.3-0.1,0.6-0.3,0.7-0.5c0.1-0.2,0.2-0.4,0.2-0.7v-57.5h18.6
			c0.3,0,0.5-0.1,0.7-0.2c0.2-0.1,0.4-0.3,0.6-0.6s0.3-0.7,0.3-1.2c0.1-0.5,0.1-1,0.1-1.7C556.2,225.9,556.2,225.3,556.1,224.8z
			 M501.2,224.8c-0.1-0.5-0.2-0.9-0.4-1.2c-0.2-0.3-0.4-0.5-0.6-0.7c-0.2-0.1-0.5-0.2-0.7-0.2h-29.8c-0.8,0-1.5,0.3-2.2,0.8
			s-1,1.5-1,2.8v61.3c0,0.2,0.1,0.5,0.2,0.7s0.4,0.4,0.7,0.5c0.3,0.1,0.8,0.2,1.4,0.3c0.6,0.1,1.3,0.1,2.1,0.1c0.9,0,1.6,0,2.2-0.1
			c0.5-0.1,1-0.2,1.3-0.3c0.3-0.1,0.6-0.3,0.7-0.5s0.2-0.5,0.2-0.7V260h22.9c0.2,0,0.5-0.1,0.7-0.2c0.2-0.2,0.4-0.4,0.6-0.7
			c0.2-0.3,0.3-0.7,0.4-1.1s0.1-1,0.1-1.7c0-0.7,0-1.3-0.1-1.8s-0.2-0.8-0.4-1.1c-0.2-0.3-0.4-0.5-0.6-0.6s-0.5-0.2-0.7-0.2h-22.9
			v-22.5h24.3c0.2,0,0.5-0.1,0.7-0.2c0.2-0.1,0.4-0.3,0.6-0.6s0.3-0.7,0.4-1.2s0.1-1,0.1-1.7C501.3,225.9,501.3,225.3,501.2,224.8z
			 M448.9,224.2c0-0.2-0.1-0.5-0.2-0.7s-0.4-0.4-0.7-0.5c-0.3-0.2-0.8-0.3-1.4-0.3s-1.3-0.1-2.1-0.1c-0.9,0-1.6,0-2.2,0.1
			s-1,0.2-1.4,0.3c-0.3,0.2-0.6,0.3-0.7,0.5s-0.2,0.4-0.2,0.7v35.9c0,2.7,0,5.5,0,8.4s0.1,5.7,0.1,8.4H440c-0.8-1.6-1.6-3.2-2.4-4.8
			c-0.8-1.6-1.6-3.2-2.4-4.8c-0.8-1.6-1.7-3.3-2.6-5s-1.8-3.4-2.8-5.2L414.3,228c-0.6-1.1-1.1-1.9-1.6-2.6c-0.5-0.7-1-1.2-1.6-1.6
			c-0.5-0.4-1.2-0.7-1.9-0.8c-0.7-0.2-1.5-0.3-2.6-0.3h-4.3c-0.9,0-1.8,0.3-2.5,0.9c-0.8,0.6-1.2,1.6-1.2,2.9v61.1
			c0,0.2,0.1,0.5,0.2,0.7s0.4,0.4,0.7,0.5c0.3,0.1,0.8,0.2,1.3,0.3c0.6,0.1,1.3,0.1,2.1,0.1c0.9,0,1.6,0,2.1-0.1
			c0.6-0.1,1-0.2,1.4-0.3c0.3-0.1,0.6-0.3,0.7-0.5s0.2-0.5,0.2-0.7v-40c0-2.5,0-5.1-0.1-7.6c0-2.6-0.1-5.1-0.2-7.5h0.1
			c0.9,2,1.9,4.1,3,6.2c1.1,2.1,2.1,4.2,3.2,6.1l20.2,37.7c0.7,1.3,1.3,2.4,2,3.3s1.2,1.5,1.9,2c0.6,0.5,1.3,0.8,2,1
			s1.5,0.3,2.4,0.3h2.9c0.5,0,0.9-0.1,1.4-0.2s0.9-0.4,1.2-0.7s0.7-0.7,0.9-1.2c0.2-0.5,0.3-1.1,0.3-1.7v-61.1H448.9z"/>
		<path class="st2" d="M897.4,283.6l2-0.3c-0.1-0.6-0.3-1.3-0.6-1.8s-0.7-1-1.3-1.3c-0.5-0.3-1.2-0.5-1.8-0.5h-24.3V260h20.2
			c0.6,0,1.2-0.1,1.7-0.4c0.6-0.3,1.1-0.9,1.4-1.4c0.3-0.6,0.5-1.1,0.6-1.7s0.1-1.2,0.1-1.9s0-1.4-0.1-2s-0.2-1.2-0.6-1.8
			c-0.3-0.5-0.7-1-1.2-1.3c-0.5-0.4-1.2-0.6-1.9-0.6h-20.2V232h23.9c0.6,0,1.3-0.2,1.8-0.5c0.6-0.4,1-0.9,1.3-1.5
			c0.2-0.5,0.4-1,0.5-1.6s0.2-1.3,0.2-2c0-0.8,0-1.4-0.2-2.1c-0.1-0.6-0.3-1.1-0.5-1.6c-0.3-0.6-0.7-1.2-1.3-1.6
			c-0.5-0.3-1.2-0.5-1.8-0.5h-31.4c-1.2,0-2.5,0.4-3.4,1.2c-1.4,1.1-1.9,2.8-1.8,4.4v59.1c0,1.6,0.4,3.3,1.8,4.4
			c1,0.8,2.2,1.2,3.4,1.2h31.8c0.6,0,1.3-0.2,1.8-0.5c0.6-0.4,1-0.9,1.3-1.4c0.3-0.6,0.5-1.2,0.6-1.8c0.1-0.6,0.1-1.2,0.1-1.9
			c0-0.8,0-1.4-0.1-2L897.4,283.6l-2,0.3c0,0.3,0.1,0.8,0.1,1.4c0,0.5,0,1-0.1,1.3c0,0.3-0.1,0.4-0.1,0.5l0,0l0.5,0.4l-0.3-0.5
			l-0.1,0.1l0.5,0.4l-0.3-0.5l0.3,0.5V287l-0.3,0.1l0.3,0.5V287h-31.8c-0.3,0-0.6-0.1-1-0.4c0,0-0.2-0.2-0.3-1.2v-59.1
			c0-1,0.2-1.2,0.3-1.2c0.4-0.3,0.7-0.4,1-0.4h31.4v-0.6l-0.3,0.5l0.3,0.1v-0.6l-0.3,0.5l0.4-0.7l-0.6,0.5c0,0,0.1,0.1,0.2,0.2
			l0.4-0.7l-0.6,0.5l0.2-0.1l-0.2,0.1l0,0l0.2-0.1l-0.2,0.1c0,0.1,0.1,0.4,0.2,0.7c0.1,0.3,0.1,0.8,0.1,1.3s0,0.9-0.1,1.3
			c-0.1,0.3-0.1,0.6-0.2,0.6l0.5,0.2l-0.3-0.5c-0.2,0.1-0.2,0.2-0.2,0.2l0.5,0.2l-0.3-0.5l0.3,0.5v-0.6l-0.3,0.1l0.3,0.5v-0.6h-27.9
			v24.8h24.2v-0.7l-0.4,0.6c0.1,0.1,0.3,0.1,0.4,0.1v-0.7l-0.4,0.6l0.2-0.3l-0.2,0.2l0.1,0.1l0.2-0.3l-0.2,0.2l0,0v0.1
			c0,0.1,0,0.2,0.1,0.4c0.1,0.4,0.1,0.8,0.1,1.4c0,0.5,0,1-0.1,1.3c0,0.3-0.1,0.4-0.1,0.4l0.5,0.3l-0.3-0.5
			c-0.2,0.1-0.2,0.2-0.2,0.2l0.5,0.3l-0.3-0.5l0.2,0.4V256l-0.2,0.1l0.2,0.4V256h-24.2v27.7H896v-0.6l-0.3,0.5l0.3,0.1v-0.6
			l-0.3,0.5l0.3-0.4l-0.4,0.3l0.1,0.1l0.3-0.4l-0.4,0.3l0,0c0,0,0.1,0.1,0.1,0.4L897.4,283.6z M844,229.2l1.9-0.6
			c-0.3-0.9-0.8-1.7-1.4-2.4c-0.7-0.7-1.6-1.3-2.8-2c-1.3-0.8-2.9-1.5-4.7-2.1s-3.9-1.2-6.2-1.6c-2.4-0.5-4.9-0.7-7.5-0.7
			c-5.1,0-9.9,0.9-14.2,2.6c-4.3,1.8-8,4.2-11.1,7.5c-3.1,3.2-5.5,7.1-7.1,11.6c-1.7,4.5-2.5,9.5-2.5,15c0,5.2,0.8,10.1,2.3,14.4
			s3.8,8.1,6.8,11.2c3,3.2,6.7,5.6,10.9,7.3c4.3,1.7,9.1,2.5,14.5,2.5c1.8,0,3.5-0.1,5.3-0.3c1.8-0.2,3.6-0.5,5.3-1
			c1.7-0.4,3.4-0.9,5.1-1.6c1.6-0.6,3-1.2,4-1.7c1.2-0.6,2.3-1.4,2.9-2.6c0.5-1,0.7-2,0.7-3.2v-25.2c0-0.8-0.1-1.6-0.4-2.3
			c-0.3-0.7-0.7-1.4-1.3-1.9c-0.5-0.4-1.1-0.8-1.7-1c-0.6-0.2-1.2-0.3-1.8-0.3h-21c-0.6,0-1.3,0.1-1.9,0.5c-0.6,0.4-0.9,0.9-1.2,1.4
			c-0.3,0.6-0.5,1.2-0.5,1.8c-0.1,0.6-0.1,1.2-0.1,2c0,1.4,0.1,2.5,0.6,3.6s1.8,2,3.1,2h13.4v17.3h2l-1-1.8c-1.6,0.9-3.4,1.6-5.4,2
			c-2,0.5-3.9,0.7-5.8,0.7c-3.2,0-6.1-0.5-8.8-1.6c-2.6-1.1-4.8-2.6-6.7-4.6s-3.4-4.6-4.5-7.6s-1.6-6.5-1.6-10.6
			c0-3.6,0.5-6.9,1.5-9.9s2.4-5.6,4.3-7.7c1.8-2.1,4-3.8,6.7-5c2.6-1.2,5.6-1.8,9-1.8c2.9,0,5.4,0.3,7.4,0.9c2.2,0.6,4,1.3,5.4,2
			c1.5,0.8,2.8,1.4,3.6,2c1.1,0.7,1.8,1.2,3.2,1.3c0.6,0,1.3-0.2,1.8-0.5c0.6-0.4,1-1,1.2-1.6c0.2-0.5,0.4-1.1,0.4-1.7
			c0.1-0.6,0.1-1.3,0.1-2c0-1.2-0.1-2.2-0.3-3.1L844,229.2l-1.9,0.6c0.1,0.3,0.2,1,0.2,1.9c0,0.6,0,1.1-0.1,1.4
			c-0.1,0.4-0.1,0.6-0.2,0.7l0,0l0,0l0,0l0,0l0,0l0.7,0.5l-0.5-0.7c-0.1,0.1-0.2,0.2-0.2,0.2l0.7,0.5l-0.5-0.7l0.4,0.7v-0.8
			c-0.1,0-0.4,0.1-0.4,0.1l0.4,0.7v-0.8v0.7l0.2-0.7c0,0,0,0-0.2,0v0.7l0.2-0.7c0,0-0.5-0.2-1.1-0.6c-1.1-0.7-2.4-1.5-4.1-2.3
			c-1.7-0.9-3.8-1.6-6.1-2.3c-2.5-0.7-5.3-1.1-8.5-1.1c-3.9,0-7.5,0.7-10.7,2.2c-3.1,1.4-5.9,3.5-8.1,6c-2.2,2.6-3.9,5.6-5,9.1
			s-1.7,7.2-1.7,11.2c0,4.4,0.6,8.4,1.9,11.9c1.3,3.5,3,6.5,5.3,9s5,4.4,8.2,5.6c3.1,1.3,6.6,1.9,10.2,1.9c2.2,0,4.4-0.3,6.7-0.8
			s4.4-1.3,6.4-2.4l1-0.6V258h-17.4v0.6l0.3-0.5c-0.1-0.1-0.3-0.1-0.3-0.1v0.6l0.3-0.5l-0.3,0.5l0.5-0.4l-0.1-0.1l-0.3,0.5l0.5-0.4
			l0,0l0,0l0,0l0,0l0,0c-0.1-0.1-0.2-0.8-0.2-1.8c0-0.6,0-1,0.1-1.4c0-0.3,0.1-0.5,0.1-0.5l0,0l-0.5-0.4l0.3,0.5l0.1-0.1l-0.5-0.4
			l0.3,0.5l-0.3-0.5v0.6c0,0,0.2,0,0.3-0.1l-0.3-0.5v0.6h21c0.1,0,0.3,0,0.4,0.1c0.1,0,0.2,0.1,0.4,0.2c0,0,0.1,0.1,0.2,0.3
			c0.1,0.2,0.1,0.5,0.1,1v25.2c0,0.7-0.1,1.1-0.3,1.4c0,0.1-0.3,0.4-1,0.8c-0.9,0.4-2.1,1-3.6,1.5c-1.5,0.6-3,1-4.6,1.4
			s-3.2,0.7-4.8,0.9c-1.6,0.2-3.2,0.3-4.8,0.3c-4.9,0-9.2-0.8-13-2.2c-3.8-1.5-6.9-3.6-9.5-6.3c-2.6-2.7-4.6-6-5.9-9.8
			c-1.4-3.8-2.1-8.2-2.1-13c0-5.1,0.8-9.6,2.3-13.6s3.6-7.4,6.3-10.2s5.9-5,9.7-6.5s8-2.3,12.7-2.3c2.4,0,4.6,0.2,6.7,0.6
			c2.1,0.4,4,0.9,5.7,1.5c1.6,0.6,3,1.2,4,1.8c1.1,0.7,1.8,1.2,2,1.4s0.3,0.4,0.4,0.7L844,229.2z M770.1,266.9l-1.9-0.6
			c-0.9,3.1-2.2,5.5-4,7.5c-1.7,1.9-3.8,3.4-6.5,4.3c-2.6,1-6,1.5-10,1.5h-7.1V232h7c4.4,0,7.9,0.6,10.4,1.7
			c2.6,1.2,4.8,2.7,6.5,4.7s3,4.4,3.8,7.3c0.8,2.9,1.3,6,1.3,9.5c0,4.4-0.5,8.1-1.4,11.1L770.1,266.9l1.9,0.6
			c1-3.5,1.5-7.6,1.5-12.3c0-3.8-0.5-7.3-1.4-10.6c-1-3.3-2.5-6.3-4.6-8.8s-4.8-4.4-7.9-5.8c-3.3-1.4-7.3-2.1-12-2.1h-11v55.6h11.1
			c4.4,0,8.2-0.5,11.4-1.7s5.9-3,8.1-5.4c2.2-2.4,3.8-5.5,4.8-9L770.1,266.9z M778.8,241.5l1.9-0.7c-1.5-4.2-3.7-7.8-6.5-10.8
			c-2.9-3-6.5-5.3-10.7-6.9c-4.3-1.6-9.3-2.4-15.2-2.4h-15c-1.2,0-2.5,0.4-3.4,1.2c-1.4,1.1-1.9,2.8-1.8,4.4v59.1
			c0,1.6,0.4,3.3,1.8,4.4c1,0.8,2.2,1.2,3.4,1.2h14c5.8,0,10.9-0.7,15.3-2.2c4.4-1.5,8.1-3.8,11.1-6.8c3.1-3.1,5.4-6.9,6.9-11.4
			c1.6-4.5,2.3-9.8,2.3-15.7c0-5.2-0.7-9.9-2.2-14.1L778.8,241.5l-1.9,0.7c1.3,3.7,2,8,2,12.8c0,5.6-0.7,10.4-2.1,14.4
			c-1.4,4-3.4,7.3-5.9,9.9c-2.6,2.6-5.8,4.5-9.6,5.8s-8.5,2-14,2h-14c-0.3,0-0.6-0.1-1-0.4c0,0-0.2-0.2-0.3-1.2v-59.1
			c0-1,0.2-1.2,0.3-1.2c0.4-0.3,0.7-0.4,1-0.4h15c5.6,0,10.2,0.7,13.8,2.1c3.7,1.4,6.8,3.4,9.2,5.9c2.5,2.6,4.3,5.7,5.6,9.4
			L778.8,241.5z M712.3,224.1h2c0-0.6-0.2-1.3-0.5-1.8c-0.5-0.7-1.1-1.1-1.7-1.3c-0.5-0.2-1.1-0.3-1.7-0.4c-0.7-0.1-1.5-0.2-2.4-0.2
			s-1.6,0-2.3,0.2c-0.6,0.1-1.2,0.2-1.7,0.4c-0.6,0.2-1.2,0.5-1.7,1.2c-0.4,0.6-0.6,1.3-0.6,1.9v63.6c0,0.6,0.2,1.3,0.5,1.8
			c0.5,0.7,1.1,1.1,1.7,1.3c0.5,0.2,1.1,0.3,1.7,0.4c0.7,0.1,1.5,0.1,2.4,0.1s1.7,0,2.4-0.1c0.6-0.1,1.2-0.2,1.7-0.4
			c0.6-0.2,1.2-0.6,1.7-1.3c0.4-0.5,0.5-1.2,0.5-1.8v-63.6L712.3,224.1l-2,0v63.6h0.7l-0.6-0.4c-0.1,0.1-0.1,0.3-0.1,0.4h0.7
			l-0.6-0.4l0.8,0.5l-0.5-0.8c-0.1,0-0.2,0.1-0.3,0.3l0.8,0.5l-0.5-0.8l0.2,0.3l-0.2-0.4h-0.1l0.2,0.3l-0.2-0.4l0,0
			c-0.2,0.1-0.5,0.1-1,0.2c-0.4,0.1-1,0.1-1.8,0.1c-0.7,0-1.4,0-1.8-0.1c-0.5-0.1-0.9-0.2-1-0.2l0,0l-0.4,0.8l0.7-0.5
			c-0.2-0.2-0.3-0.3-0.3-0.3l-0.4,0.8l0.7-0.5l-0.6,0.4h0.7c0-0.1,0-0.3-0.1-0.4l-0.6,0.4h0.7v-63.6h-0.8l0.6,0.5
			c0.1-0.1,0.2-0.4,0.2-0.5h-0.8l0.6,0.5l-0.7-0.5l0.5,0.7c0,0,0.1-0.1,0.2-0.2l-0.7-0.5l0.5,0.7l-0.1-0.2l0.1,0.2l0,0l-0.1-0.2
			l0.1,0.2l0,0c0.2-0.1,0.6-0.2,1-0.2c0.4-0.1,1-0.1,1.7-0.1c0.8,0,1.4,0,1.8,0.1c0.5,0.1,0.8,0.2,1,0.2l0,0l0.4-0.7l-0.7,0.4
			c0.1,0.2,0.3,0.3,0.3,0.3l0.4-0.7l-0.7,0.4l0.6-0.4h-0.7c0,0.1,0,0.3,0.1,0.4l0.6-0.4h-0.7h2.2V224.1z M676.7,245.6l-1.9-0.7
			c-0.4,1.1-1,2-2,2.8c-0.9,0.8-2,1.5-3.5,2c-1.4,0.5-3.2,0.7-5.4,0.7h-6.6V232h5.4c1.7,0,3.1,0.1,4,0.1c1,0.1,1.8,0.2,2.5,0.4
			c2.4,0.7,3.9,1.7,4.7,3c0.9,1.4,1.4,3.2,1.4,5.5c0,1.4-0.2,2.6-0.7,3.7L676.7,245.6l1.9,0.7c0.6-1.6,0.9-3.4,0.9-5.2
			c0-2.9-0.7-5.5-2.1-7.7c-1.5-2.3-3.9-3.8-7-4.7c-1-0.3-2.1-0.5-3.3-0.6s-2.6-0.2-4.4-0.2h-9.4v26.3H664c2.5,0,4.7-0.3,6.6-0.9
			c1.9-0.6,3.6-1.5,4.9-2.8c1.3-1.2,2.4-2.7,3-4.3L676.7,245.6z M690.5,286.5l1.9-0.5c-0.2-0.6-0.5-1.5-1-2.8l0,0l-5.9-14.6
			c-0.7-1.7-1.4-3.3-2.1-4.7c-0.7-1.4-1.5-2.7-2.4-3.8c-0.9-1.1-1.8-2.1-2.8-3s-2.2-1.6-3.4-2.1l-0.8,1.8l0.7,1.9
			c2.1-0.7,4-1.6,5.7-2.7c1.7-1.1,3.2-2.4,4.5-3.9s2.3-3.3,2.9-5.3c0.7-2,1-4.2,1-6.6c0-2.5-0.4-4.8-1.1-6.9
			c-0.7-2.1-1.9-4.1-3.4-5.7c-1.5-1.7-3.4-3-5.5-4.1c-2.2-1.1-4.6-1.8-7.3-2.3h-0.1h-0.1c-0.9-0.1-1.9-0.2-3.1-0.3
			c-1.2-0.1-2.6-0.1-4.3-0.1h-14.1c-1.2,0-2.5,0.4-3.4,1.2c-1.4,1.1-1.9,2.8-1.8,4.4v61.3c0,0.6,0.2,1.3,0.5,1.8
			c0.5,0.7,1.1,1.1,1.7,1.3c0.5,0.2,1.1,0.3,1.7,0.4c0.7,0.1,1.5,0.2,2.4,0.2s1.7,0,2.4-0.1s1.2-0.2,1.7-0.4
			c0.6-0.2,1.2-0.6,1.6-1.2c0.4-0.5,0.6-1.3,0.6-1.9v-26.2h3.9c1.8,0,3.3,0.3,4.4,0.7c1.2,0.5,2.2,1.2,3.1,2.1
			c0.9,0.9,1.7,2,2.4,3.4s1.5,3,2.2,4.7l1.9-0.7l-1.9,0.7l6.1,15.6l1.9-0.7l-1.9,0.6c0.2,0.5,0.4,1,0.7,1.5c0.4,0.6,1,1.1,1.6,1.3
			c0.6,0.3,1.2,0.4,1.9,0.5s1.5,0.1,2.4,0.1c1.1,0,1.9,0,2.7-0.1c0.7-0.1,1.3-0.2,2-0.4c0.6-0.2,1.3-0.6,1.7-1.5
			c0.3-0.5,0.4-1.1,0.4-1.6c0-0.6-0.1-1.1-0.3-1.7L690.5,286.5l-1.9,0.5c0.1,0.2,0.1,0.4,0.1,0.5s0,0.1,0,0.1h0.4l-0.4-0.2
			c-0.1,0.1-0.1,0.2-0.1,0.2h0.4l-0.4-0.2l1,0.5l-0.7-0.9c-0.1,0.1-0.2,0.2-0.3,0.4l1,0.5l-0.7-0.9l0.3,0.4l-0.3-0.5h-0.1l0.3,0.4
			l-0.3-0.5l0,0c-0.1,0-0.4,0.1-0.9,0.2s-1.3,0.1-2.2,0.1c-0.8,0-1.5,0-1.9-0.1c-0.4,0-0.7-0.1-0.8-0.2l0,0l-0.2,0.2l0.2-0.2
			l-0.1-0.1l-0.2,0.2l0.2-0.2c-0.1-0.1-0.1-0.3-0.2-0.5l0,0l-6.1-15.7l0,0c-0.7-1.8-1.5-3.5-2.3-5.1s-1.9-3.1-3.1-4.3
			c-1.2-1.3-2.7-2.3-4.4-3s-3.7-1-5.9-1H653v30.2h0.8l-0.6-0.5c-0.1,0.1-0.2,0.4-0.2,0.5h0.8l-0.6-0.5l0.6,0.5l-0.4-0.6
			c0,0-0.1,0.1-0.2,0.2l0.6,0.5l-0.4-0.6l0,0v-0.1l0,0l0,0v-0.1c-0.1,0-0.5,0.1-0.9,0.2s-1,0.1-1.8,0.1s-1.4,0-1.8-0.1
			c-0.5-0.1-0.8-0.2-1-0.2l0,0l-0.4,0.8l0.7-0.5c-0.2-0.2-0.3-0.3-0.3-0.3l-0.4,0.8l0.7-0.5l-0.6,0.4h0.7c0-0.1,0-0.3-0.1-0.4
			l-0.6,0.4h0.7V226c0-1,0.2-1.2,0.3-1.2c0.4-0.3,0.7-0.4,1-0.4h14.1c1.6,0,3,0,4,0.1c1.1,0.1,2.1,0.2,2.9,0.3l0.2-2l-0.3,2
			c2.4,0.4,4.5,1.1,6.3,1.9c1.8,0.9,3.2,1.9,4.3,3.2c1.2,1.3,2,2.7,2.6,4.4s0.9,3.5,0.9,5.6c0,2-0.3,3.8-0.8,5.3s-1.3,2.9-2.2,4
			c-1,1.2-2.2,2.2-3.6,3.1c-1.4,0.9-3.1,1.7-4.9,2.3l-4.8,1.7l4.6,2c0.9,0.4,1.8,0.9,2.5,1.5c0.8,0.6,1.5,1.4,2.2,2.3s1.4,2,2,3.2
			c0.7,1.3,1.3,2.7,2,4.3l5.9,14.6l1.9-0.8l-1.9,0.7c0.5,1.2,0.8,2,0.9,2.4H690.5z M622.9,275.4l-1.8-0.8c-0.5,1.1-1.2,2.1-2.1,2.8
			c-0.9,0.8-2,1.4-3.3,1.8s-2.8,0.6-4.7,0.6h-10.8v-19.4h8.5c2.6,0,4.8,0.3,6.3,0.7c1.6,0.5,2.9,1.1,3.8,1.9c1,0.8,1.7,1.8,2.2,3
			s0.8,2.7,0.8,4.4c0,1.6-0.3,2.9-0.8,4L622.9,275.4l1.8,0.8c0.8-1.7,1.2-3.6,1.2-5.7c0-2.2-0.3-4.2-1.1-6c-0.7-1.8-1.9-3.3-3.3-4.5
			c-1.5-1.2-3.2-2.1-5.3-2.7s-4.5-0.9-7.4-0.9h-12.5v27.4H611c2.2,0,4.1-0.3,5.9-0.8c1.7-0.5,3.3-1.4,4.6-2.5
			c1.4-1.1,2.5-2.6,3.2-4.2L622.9,275.4z M619.3,244.5l-1.9-0.6c-0.3,1.1-0.9,2-1.6,2.8c-0.7,0.8-1.6,1.4-2.8,1.9
			c-1,0.4-2.6,0.7-4.7,0.7h-8v-17.5h7.1c2.4,0,4.2,0.2,5.5,0.6c1.3,0.4,2.3,1,2.9,1.6c0.7,0.7,1.2,1.5,1.6,2.5
			c0.4,1.1,0.6,2.3,0.6,3.7c0,1.2-0.2,2.4-0.5,3.6L619.3,244.5l1.9,0.6c0.5-1.5,0.7-3.1,0.7-4.8c0-1.8-0.2-3.5-0.8-5
			c-0.5-1.6-1.4-3-2.6-4.1c-1.2-1.2-2.8-2-4.5-2.5c-1.8-0.6-4-0.8-6.7-0.8h-11.1v25.5h12c2.5,0,4.5-0.3,6.3-1.1
			c1.6-0.7,3-1.7,4.2-2.9c1.1-1.2,1.9-2.7,2.4-4.3L619.3,244.5z M632.2,263.8l1.9-0.7c-0.8-2.1-1.8-3.9-3.1-5.5s-2.9-2.9-4.7-3.9
			s-3.7-1.7-5.7-2.1l-0.4,2l0.8,1.8c1.6-0.7,3.1-1.6,4.3-2.7c1.3-1.1,2.3-2.3,3.2-3.7c0.8-1.4,1.5-2.9,1.9-4.5s0.6-3.3,0.6-5
			c0-2.8-0.5-5.5-1.4-7.8c-1-2.4-2.4-4.4-4.4-6c-1.9-1.6-4.3-2.9-7-3.7c-2.8-0.8-6.2-1.2-10.3-1.2h-15.1c-1.2,0-2.5,0.4-3.4,1.2
			c-1.4,1.1-1.9,2.8-1.8,4.4v59.1c0,1.6,0.4,3.3,1.8,4.4c1,0.8,2.2,1.2,3.4,1.2h17.3c2.6,0,4.9-0.2,7-0.6s4-1,5.8-1.7
			c1.8-0.8,3.5-1.8,5-2.9c1.5-1.2,2.8-2.6,3.9-4.1c1.1-1.6,1.9-3.4,2.5-5.3c0.6-2,0.9-4.1,0.9-6.3c0-2.5-0.4-4.8-1.1-6.9
			L632.2,263.8l-1.9,0.7c0.6,1.6,0.9,3.5,0.9,5.5c0,1.9-0.2,3.6-0.7,5.2s-1.1,3-2,4.2c-0.8,1.2-1.8,2.3-3,3.2
			c-1.2,0.9-2.6,1.7-4.1,2.4c-1.5,0.7-3.2,1.2-5,1.5s-3.9,0.5-6.3,0.5h-17.3c-0.3,0-0.6-0.1-1-0.4c0,0-0.2-0.2-0.3-1.2v-59.1
			c0-1,0.2-1.2,0.3-1.2c0.4-0.3,0.7-0.4,1-0.4h15.1c3.8,0,6.9,0.4,9.2,1c2.3,0.7,4.2,1.7,5.6,2.9c1.5,1.2,2.5,2.7,3.3,4.5
			c0.7,1.8,1.1,3.9,1.1,6.3c0,1.4-0.2,2.7-0.5,4s-0.8,2.4-1.4,3.4c-0.6,1-1.4,1.9-2.4,2.8c-0.9,0.8-2,1.5-3.3,2l-6,2.6l6.4,1.2
			c1.6,0.3,3.1,0.8,4.4,1.6c1.4,0.8,2.6,1.8,3.6,3s1.8,2.6,2.4,4.3L632.2,263.8z M556.1,224.8l2-0.3c-0.1-0.6-0.2-1.2-0.5-1.8
			c-0.3-0.5-0.7-1.1-1.3-1.5c-0.5-0.3-1.2-0.5-1.8-0.5h-46.1c-0.6,0-1.3,0.2-1.8,0.5c-0.7,0.4-1.1,1-1.3,1.6
			c-0.2,0.5-0.4,1.1-0.5,1.7c-0.1,0.6-0.2,1.3-0.2,2.1c0,0.7,0,1.4,0.2,2c0.1,0.6,0.2,1.1,0.5,1.7c0.3,0.5,0.7,1.1,1.3,1.5
			c0.5,0.3,1.2,0.5,1.8,0.5H525v55.5c0,0.6,0.2,1.3,0.5,1.8c0.5,0.7,1.1,1.1,1.7,1.3c0.5,0.2,1.1,0.3,1.8,0.4s1.5,0.1,2.4,0.1
			s1.7,0,2.4-0.1c0.6-0.1,1.2-0.2,1.7-0.4c0.6-0.2,1.2-0.6,1.7-1.3c0.4-0.5,0.5-1.2,0.5-1.8v-55.5h16.6c0.6,0,1.3-0.2,1.8-0.5
			c0.6-0.4,1-0.9,1.3-1.4c0.3-0.6,0.5-1.2,0.5-1.8c0.1-0.6,0.1-1.3,0.1-2s0-1.4-0.1-2L556.1,224.8l-2,0.3c0.1,0.4,0.1,0.9,0.1,1.4
			c0,0.6,0,1.1-0.1,1.4c0,0.3-0.1,0.5-0.1,0.5h0.1l0,0l0,0h0.1l0,0l0.5,0.4l-0.3-0.5l-0.1,0.1l0.5,0.4l-0.3-0.5l0.3,0.5v-0.6
			c-0.1,0-0.2,0-0.3,0.1l0.3,0.5v-0.6h-20.6v59.5h0.7l-0.6-0.4c-0.1,0.1-0.1,0.3-0.1,0.4h0.7l-0.6-0.4l0.8,0.5l-0.5-0.8
			c-0.1,0-0.2,0.1-0.3,0.3l0.8,0.5l-0.5-0.8l0.2,0.3l-0.2-0.4h-0.1l0.2,0.3l-0.2-0.4l0,0c-0.2,0.1-0.5,0.1-1,0.2
			c-0.4,0.1-1,0.1-1.8,0.1c-0.7,0-1.4,0-1.8-0.1c-0.5-0.1-0.9-0.2-1-0.2l0,0l-0.4,0.8l0.7-0.5c-0.1-0.2-0.3-0.3-0.3-0.3l-0.4,0.8
			l0.7-0.5l-0.6,0.4h0.7c0-0.1,0-0.3-0.1-0.4l-0.6,0.4h0.7V228h-20.6v0.6l0.3-0.5l-0.3-0.1v0.6l0.3-0.5l-0.4,0.6l0.6-0.5L509,228
			l-0.4,0.7l0.6-0.5l-0.2,0.2l0.2-0.1v-0.1l-0.2,0.2l0.2-0.1c0,0-0.1-0.3-0.2-0.6s-0.1-0.8-0.1-1.3c0-0.6,0-1,0.1-1.4
			s0.2-0.7,0.2-0.7l-0.2-0.1l0.2,0.1l0,0l-0.2-0.1l0.2,0.1l-0.6-0.5l0.4,0.7c0.1-0.1,0.2-0.1,0.2-0.2l-0.6-0.5l0.4,0.7l-0.3-0.5v0.6
			l0.3-0.1l-0.3-0.5v0.6h46.1V224l-0.3,0.5l0.3,0.1V224l-0.3,0.5l0.4-0.6l-0.5,0.5l0.2,0.1l0.4-0.6l-0.5,0.5l0,0l0,0l0,0l0,0l0,0
			c0,0,0.1,0.2,0.1,0.6L556.1,224.8z M501.2,224.8l2-0.3c-0.1-0.7-0.3-1.3-0.6-1.9c-0.3-0.5-0.7-1-1.3-1.4c-0.5-0.3-1.1-0.5-1.7-0.5
			h-29.8c-1.2,0-2.5,0.4-3.4,1.2c-1.4,1.1-1.9,2.8-1.8,4.4v61.3c0,0.6,0.2,1.2,0.5,1.7c0.5,0.7,1.1,1.1,1.8,1.3
			c0.5,0.2,1.1,0.3,1.7,0.4c0.7,0.1,1.5,0.1,2.4,0.1c1,0,1.8,0,2.5-0.2c0.6-0.1,1.2-0.2,1.7-0.4c0.6-0.2,1.3-0.6,1.8-1.3
			c0.3-0.5,0.5-1.1,0.5-1.7v-25.6h20.9c0.7,0,1.3-0.2,1.8-0.6s0.9-0.8,1.2-1.3c0.3-0.6,0.5-1.2,0.6-1.8c0.1-0.6,0.1-1.2,0.1-2
			c0-0.8,0-1.5-0.1-2.1s-0.3-1.3-0.6-1.9c-0.3-0.5-0.7-1-1.3-1.3c-0.5-0.3-1.1-0.4-1.6-0.4h-20.9V232h22.3c0.6,0,1.2-0.2,1.7-0.5
			c0.6-0.4,1-0.8,1.3-1.3c0.4-0.6,0.5-1.2,0.6-1.9c0.1-0.6,0.1-1.3,0.1-2s0-1.4-0.1-2L501.2,224.8l-2,0.3c0.1,0.4,0.1,0.9,0.1,1.4
			c0,0.6,0,1.1-0.1,1.4c0,0.3-0.1,0.4-0.1,0.4l0,0l0.4,0.4l-0.3-0.4l-0.1,0.1l0.4,0.4l-0.3-0.4l0.4,0.6v-0.7c-0.1,0-0.3,0.1-0.4,0.1
			l0.4,0.6v-0.7h-26.3v26.5h24.9v-0.5l-0.3,0.5c0,0,0.2,0.1,0.3,0.1v-0.5l-0.3,0.5l0.3-0.6l-0.5,0.5l0.1,0.1l0.3-0.6l-0.5,0.5l0,0
			l0,0l0,0l0,0l0,0l0.1-0.1h-0.1l0,0l0.1-0.1h-0.1c0,0,0.1,0.1,0.1,0.3c0,0.3,0.1,0.8,0.1,1.5c0,0.6,0,1-0.1,1.4
			c0,0.3-0.1,0.4-0.1,0.4l-0.1,0.1l0.2,0.2l-0.1-0.2l0,0l0.2,0.2l-0.1-0.2l0.4,0.6v-0.8c-0.2,0-0.4,0.1-0.4,0.1l0.4,0.6V258h-24.9
			v29.6h0.7l-0.6-0.4c0,0-0.1,0.2-0.1,0.4h0.7l-0.6-0.4l0.8,0.5l-0.6-0.8c-0.1,0-0.2,0.1-0.3,0.3l0.8,0.5l-0.6-0.8l0.2,0.2l-0.1-0.3
			h-0.1l0.2,0.2l-0.1-0.3c-0.2,0.1-0.5,0.1-1,0.2c-0.4,0.1-1,0.1-1.8,0.1c-0.7,0-1.4,0-1.8-0.1c-0.5-0.1-0.9-0.2-1-0.2l-0.1,0.3
			l0.2-0.2h-0.1l-0.1,0.3l0.2-0.2l-0.6,0.8l0.8-0.5c-0.1-0.1-0.2-0.2-0.3-0.3l-0.6,0.8l0.8-0.5l-0.6,0.4h0.7c0-0.1-0.1-0.3-0.1-0.4
			l-0.6,0.4h0.7v-61.3c0-1,0.2-1.2,0.3-1.2c0.4-0.3,0.7-0.4,1-0.4h29.8V224l-0.4,0.6c0,0,0.2,0.1,0.4,0.1V224l-0.4,0.6l0.3-0.5
			l-0.4,0.4l0.1,0.1l0.3-0.5l-0.4,0.4l0,0c0,0,0.1,0.2,0.1,0.5L501.2,224.8z M448.9,224.2h2c0-0.6-0.2-1.3-0.6-1.8
			c-0.4-0.6-1-1-1.5-1.2c-0.6-0.3-1.3-0.4-2-0.5s-1.4-0.1-2.3-0.1c-1,0-1.7,0-2.4,0.1c-0.7,0.1-1.3,0.2-1.9,0.5
			c-0.5,0.3-1.1,0.6-1.5,1.2c-0.4,0.5-0.6,1.2-0.6,1.8v35.9c0,2.7,0,5.5,0,8.4s0.1,5.8,0.1,8.5h2v-2h-0.1v2l1.8-0.9
			c-0.8-1.6-1.6-3.2-2.4-4.8c-0.8-1.6-1.6-3.2-2.4-4.8c-0.8-1.7-1.7-3.3-2.6-5s-1.8-3.4-2.8-5.2l-15.5-29.1
			c-0.6-1.1-1.2-2.1-1.8-2.9c-0.6-0.8-1.3-1.5-2-2.1c-0.8-0.5-1.6-0.9-2.5-1.2c-0.9-0.2-1.9-0.3-3-0.3h-4.3c-1.3,0-2.7,0.5-3.7,1.3
			c-1.4,1.1-2,2.8-2,4.5v61.1c0,0.6,0.2,1.3,0.5,1.8c0.4,0.7,1.1,1.1,1.7,1.3c0.5,0.2,1.1,0.3,1.7,0.4c0.7,0.1,1.5,0.2,2.4,0.2
			s1.7,0,2.4-0.1c0.6-0.1,1.2-0.2,1.7-0.4c0.6-0.2,1.3-0.6,1.7-1.3c0.3-0.5,0.5-1.1,0.5-1.8v-40c0-2.5,0-5.1-0.1-7.7
			c0-2.6-0.1-5.1-0.2-7.6l-2,0.1v2h0.1v-2l-1.8,0.8c0.9,2,1.9,4.1,3,6.3s2.2,4.2,3.2,6.2l20.2,37.7l1.8-0.9l-1.8,0.9
			c0.7,1.4,1.4,2.6,2.1,3.5c0.7,1,1.4,1.8,2.2,2.4c0.8,0.6,1.7,1.1,2.7,1.4c0.9,0.2,1.9,0.4,2.9,0.4h2.9c0.7,0,1.3-0.1,1.9-0.3
			c0.7-0.2,1.4-0.6,2-1c0.6-0.5,1.1-1.1,1.4-1.8c0.4-0.8,0.5-1.7,0.5-2.6v-61.1h-1.6h-2v61.1c0,0.5-0.1,0.7-0.1,0.9
			c-0.1,0.3-0.2,0.4-0.4,0.5c-0.2,0.1-0.3,0.2-0.5,0.3c-0.3,0.1-0.5,0.1-0.8,0.1h-2.9c-0.8,0-1.4-0.1-1.9-0.2
			c-0.4-0.1-0.8-0.3-1.2-0.7c-0.4-0.3-0.9-0.9-1.5-1.6c-0.5-0.7-1.2-1.8-1.8-3l0,0l-20.2-37.7c-1.1-1.9-2.1-4-3.2-6.1
			s-2.1-4.2-3-6.2l-0.5-1.2h-3.4l0.1,2.1c0.1,2.4,0.1,4.9,0.2,7.5c0,2.6,0.1,5.1,0.1,7.6v40h0.7l-0.6-0.4c0,0-0.1,0.2-0.1,0.4h0.7
			l-0.6-0.4l0.8,0.5L406,287c-0.1,0-0.2,0.1-0.2,0.3l0.8,0.5L406,287l0.3,0.4L406,287h-0.1l0.3,0.4L406,287l0,0
			c-0.2,0.1-0.5,0.1-1,0.2c-0.4,0.1-1,0.1-1.8,0.1s-1.4,0-1.8-0.1c-0.5-0.1-0.8-0.2-0.9-0.2l-0.1,0.3l0.2-0.2h-0.1l-0.1,0.3l0.2-0.2
			l-0.5,0.7l0.7-0.5c-0.1-0.1-0.2-0.2-0.2-0.2l-0.5,0.7l0.7-0.5l-0.6,0.4h0.7c0-0.2-0.1-0.4-0.1-0.4l-0.6,0.4h0.7v-61.1
			c0-1,0.2-1.2,0.4-1.3c0.5-0.3,0.9-0.5,1.3-0.5h4.3c0.9,0,1.6,0.1,2.1,0.2c0.5,0.1,0.8,0.3,1.2,0.5c0.3,0.2,0.7,0.6,1.1,1.2
			c0.4,0.6,0.9,1.4,1.5,2.4l15.5,29.1c1,1.8,1.9,3.5,2.8,5.2s1.7,3.3,2.6,5c0.8,1.6,1.6,3.3,2.5,4.8c0.8,1.6,1.6,3.2,2.4,4.8
			l0.5,1.1h1.3h2.1l-0.1-2c-0.1-2.7-0.1-5.5-0.1-8.4s0-5.7,0-8.4v-35.9h-0.8l0.7,0.5c0.1-0.1,0.2-0.3,0.1-0.5h-0.8l0.7,0.5l-0.6-0.4
			l0.4,0.6c0,0,0.1-0.1,0.2-0.2l-0.6-0.4l0.4,0.6h0.1c0.1,0,0.3-0.1,0.8-0.2c0.4-0.1,1.1-0.1,1.9-0.1c0.7,0,1.3,0,1.8,0.1
			c0.4,0,0.7,0.1,0.7,0.2h0.1l0.4-0.5l-0.5,0.4c0.1,0.1,0.1,0.1,0.1,0.1l0.4-0.5l-0.5,0.4l0.7-0.5h-0.8c0,0.2,0.1,0.4,0.1,0.5
			l0.7-0.5h-0.8h1.7V224.2z"/>
	</g>
</g>
<g>
	<path class="st3" d="M403.5,149c-1.4,0-2.2-0.7-2.2-2V4.7c0-0.5,0.2-1.1,0.5-1.4c0.5-0.5,0.9-0.7,1.6-0.7h17.2
		c0.9,0,1.6,0.5,2.2,1.8l52.4,121.4L527.7,4.3c0.5-1.1,1.3-1.8,2.3-1.8h17.2c1.4,0,2,0.7,2,2.2V147c0,1.4-0.7,2-2,2h-14.6
		c-1.4,0-2-0.7-2-2V45.5l-45.3,101.9c-0.4,1.1-1.1,1.6-2.2,1.6h-15.5c-1.1,0-2-0.5-2.2-1.6L420.2,45.5V147c0,1.4-0.7,2-2,2H403.5z"
		/>
	<path class="st3" d="M666.8,44.4c1.4,0,2,0.7,2,2V147c0,1.4-0.7,2-2,2h-14.6c-1.4,0-2-0.7-2-2l1.3-17.7
		c-2.3,6.9-6.5,12.3-12.5,16.1s-13.5,5.8-22.6,5.8c-14.3,0-24.6-4.3-30.9-13.2c-6.3-8.9-9.6-22.6-9.6-41.2V46.4c0-1.4,0.7-2,2-2h15
		c1.4,0,2,0.7,2,2l-0.2,50.2c0,7.9,0.5,14.6,1.6,19.9c1.3,5.2,3.1,9.4,5.6,12.3s5.4,4.9,8.9,6c3.3,1.1,7.4,1.6,12.3,1.6
		c8.7,0,15.2-3.1,20.1-9.2c4.7-6.1,7-16.3,7.2-30.5V46.4c0-1.4,0.7-2,2-2H666.8z"/>
	<path class="st3" d="M700.7,136.9c-8.7-9.4-12.8-22.6-12.8-39.2c0-16.8,4.3-30.4,12.8-40.3c8.7-10.1,20.6-15,36-15
		c15.2,0,27.1,5.1,35.6,15c8.7,9.9,12.8,23.5,12.8,40.3c0,16.6-4.2,29.6-12.6,39.2c-8.5,9.4-20.4,14.3-36,14.3
		C721.3,151,709.4,146.3,700.7,136.9z M714.3,67.9c-5.1,7.2-7.4,17.2-7.4,29.8c0,25.8,9.9,38.7,30,38.7c19.7,0,29.6-12.8,29.6-38.7
		c0-12.6-2.5-22.6-7.4-29.8s-12.3-10.8-22.2-10.8C726.7,56.9,719.3,60.7,714.3,67.9z"/>
	<path class="st3" d="M804.4,147V46.4c0-1.4,0.7-2,2-2H821c1.4,0,2,0.7,2,2l-1.3,17.7c2.3-6.9,6.5-12.3,12.5-16.1s13.6-5.8,22.6-5.8
		c7.6,0,13.9,1.3,19.3,3.8c5.2,2.5,9.4,6.3,12.5,11.2c3.1,5.1,5.2,10.7,6.5,17s2,13.7,2.2,22.2V147c0,1.4-0.7,2-2,2h-15
		c-1.4,0-2-0.7-2-2l0.2-50.2c0-14.6-1.8-24.9-6-30.9c-4-6-10.7-8.9-20.2-8.9c-9.6,0-16.8,3.1-21.7,9.2c-5.1,6.1-7.4,16.3-7.6,30.5
		V147c0,1.4-0.7,2-2,2h-14.6C805.2,149,804.4,148.3,804.4,147z"/>
</g>
</svg>
