<?xml version="1.0" encoding="utf-8"?>
<!-- Generator: Adobe Illustrator 25.4.1, SVG Export Plug-In . SVG Version: 6.00 Build 0)  -->
<svg version="1.1" id="Layer_1" xmlns="http://www.w3.org/2000/svg" xmlns:xlink="http://www.w3.org/1999/xlink" x="0px" y="0px"
	 viewBox="0 0 491.2 102" style="enable-background:new 0 0 491.2 102;" xml:space="preserve">
<style type="text/css">
	.st0{fill:#8247E5;}
</style>
<g>
	<path class="st0" d="M81,102c-7.7-4.6-15.3-9.2-23-13.8c-8.8-5.2-9-15.9-0.2-21.1c1.4-0.8,2.9-1.6,5.2-2.9c0,2.5,0,4.4,0,6.2
		c0,1,0,2,0,3c0.5,7.7,18.3,17.3,25,13.6c0.4-0.2,0.9-0.5,1.3-0.8c16.7-10.3,14.2-5.4,14.4-26.1c0-0.3,0-0.7,0-1
		c-0.6-8.4-18.4-18-25.6-13.8c-13.5,7.9-27,15.7-40.4,23.8c-4.2,2.5-7.8,2.8-12,0.1c-6.6-4.2-13.5-7.8-20.2-11.9
		C3.4,56,1.8,53.8,0,52c0-11,0-22,0-33c2-1.7,3.7-3.6,5.9-5C13.5,9.2,21.3,4.7,29,0c1.7,0,3.3,0,5,0c7.8,4.7,15.6,9.4,23.4,14.1
		c8,4.9,8.2,15.6,0.2,20.3c-1.7,1-3.4,1.9-5.2,3c-0.3-0.8-0.5-1.3-0.6-1.7c-0.6-4,0.2-9.5-2.2-11.7c-4.7-4.4-10.9-7.5-16.8-10.3
		c-3.9-1.8-21,8.7-21.4,13c-0.6,5.9-0.3,12-0.1,18c0,1.2,0.8,2.9,1.7,3.5c5.8,3.6,11.6,7.1,17.6,10.1c1.4,0.7,4.2-0.5,5.9-1.5
		C50,48.9,63.4,41.1,76.6,33c4.6-2.8,8.6-3.3,13.3-0.2c6.7,4.4,13.7,8.2,20.6,12.1c3.2,1.8,4.8,4.3,4.7,8.1c-0.1,8-0.3,16,0.1,24
		c0.3,5.6-1.7,9-6.6,11.6C101,92.7,93.6,97.5,86,102C84.4,102,82.7,102,81,102z"/>
	<path class="st0" d="M336.1,92.6c0-3.3,0-6.4,0-10.1c5.8,0,11.4,0,17.1,0c10.8,0,12.6-2,11.7-12c-4.3,1.2-8.6,3.2-13.1,3.3
		c-15.9,0.5-25.7-13.4-22.2-31C333,26.1,350,19.1,364.5,29c0.3-1.3,0.6-2.4,1-3.6c4,0,8.2,0,12.8,0c0,6.2,0,12.1,0,18.1
		c0,10.5,0,21,0,31.5c0,10.4-4.8,16.6-15.1,17.5C354.3,93.3,345.3,92.6,336.1,92.6z M342.1,48.8c-0.1,8.2,4.5,13.8,11.6,13.9
		c7,0.2,12.2-5.5,12.3-13.4c0-8.1-4.7-13.5-12-13.5C346.8,35.8,342.2,40.8,342.1,48.8z"/>
	<path class="st0" d="M147.2,25.3c4.4,0,8.4,0,12.5,0c0.2,1.3,0.5,2.5,0.7,3.8c0.5-0.1,0.9-0.1,1.1-0.2c13.5-9.5,29.9-3.3,33.8,12.8
		c4,16.2-4.1,30.4-18.9,32c-5.1,0.5-10.5-1.2-16.2-2c0,6.1,0,13.4,0,21c-4.7,0-8.7,0-13,0C147.2,70.2,147.2,48,147.2,25.3z
		 M183,49.4c0-8.5-4.4-13.6-11.9-13.5c-7.2,0.1-11.8,5.2-12,13.2c-0.1,7.8,5.1,13.8,12.1,13.7C178.3,62.7,183,57.3,183,49.4z"/>
	<path class="st0" d="M226.5,24.5c14.9,0,25.6,10.3,25.6,24.7c0,14.4-10.9,24.9-25.6,24.8C212,74,201.2,63.6,201.1,49.5
		C200.9,35.1,211.7,24.5,226.5,24.5z M238.9,49.1c-0.1-8-5-13.3-12.4-13.3c-7.2,0-12.2,5.5-12.1,13.5c0.1,7.8,5.3,13.5,12.3,13.5
		C233.7,62.7,239,56.7,238.9,49.1z"/>
	<path class="st0" d="M412.5,24.5c15,0.3,25.2,10.7,25,25.3c-0.3,14.4-11.3,24.6-26.1,24.2c-14.6-0.4-24.9-10.9-24.7-25.1
		C386.9,34.4,397.7,24.2,412.5,24.5z M424.2,49.2c0-8.1-4.8-13.4-12.2-13.3c-7.4,0-12,5.2-12,13.4c0,8,4.9,13.5,12.1,13.5
		C419.2,62.7,424.2,57.1,424.2,49.2z"/>
	<path class="st0" d="M491.1,72.9c-4.5,0-8.5,0-13.2,0c0-5.8,0.1-11.6,0-17.3c-0.1-4,0-8-0.6-11.9c-0.7-4.7-3.9-7.3-8.6-7.5
		c-4.7-0.2-8.1,2-9.5,6.5c-0.7,2-0.9,4.2-0.9,6.4c-0.1,7.8,0,15.6,0,23.8c-4.4,0-8.5,0-12.8,0c0-15.7,0-31.5,0-47.4
		c4.3,0,8.4,0,12.6,0c0.2,1.7,0.3,3.3,0.4,4.1c4.3-1.6,8.3-4.1,12.7-4.6c11.3-1.5,19.6,5.8,20,17.1
		C491.4,52.1,491.1,62.2,491.1,72.9z"/>
	<path class="st0" d="M280,25.4c13.1-0.8,13.1-0.8,17.1,10.9c2,6,4,12,6,17.9c0.1,0.3,0.4,0.5,0.9,1.2c2.7-8.2,5.6-15.9,7.7-23.9
		c1.3-5.1,3.5-7.4,8.9-6.4c1.9,0.3,4,0.1,6.7,0.1c-0.7,2-1.2,3.6-1.7,5.2c-6.8,18.9-13.8,37.7-20.3,56.7c-1.5,4.5-3.4,6.7-8.3,5.9
		c-1.8-0.3-3.6,0-6.4,0c1.8-5.2,3.3-10,5.2-14.6c1.5-3.6,1.4-6.8,0-10.5C290.3,53.8,285.3,39.8,280,25.4z"/>
	<path class="st0" d="M260.4,4.5c1.2-0.1,2.2-0.2,3.2-0.2c3,0,5.9,0,9.4,0c0,23,0,45.6,0,68.6c-4.1,0-8.2,0-12.5,0
		C260.4,50.2,260.4,27.6,260.4,4.5z"/>
</g>
</svg>
