<?xml version="1.0" encoding="utf-8"?>
<!-- Generator: Adobe Illustrator 25.4.1, SVG Export Plug-In . SVG Version: 6.00 Build 0)  -->
<svg version="1.1" id="Слой_1" xmlns="http://www.w3.org/2000/svg" xmlns:xlink="http://www.w3.org/1999/xlink" x="0px" y="0px"
	 viewBox="0 0 379 382.2" style="enable-background:new 0 0 379 382.2;" xml:space="preserve">
<style type="text/css">
	.st0{fill:#FFFFFF;}
	.st1{fill:none;stroke:#FFFFFF;stroke-width:6;stroke-linecap:round;stroke-linejoin:round;}
	.st2{fill:none;stroke:#FFFFFF;stroke-width:13;stroke-miterlimit:10;}
</style>
<ellipse cx="153.8" cy="158.8" rx="142.6" ry="142.6"/>
<g>
	<path class="st0" d="M345.2,382.2c-6.9,0-13.4-2.7-18.2-7.5l-63.5-63.5c-3.6-3.6-3.6-9.4,0-13l31.5-31.5c1.7-1.7,4.1-2.7,6.5-2.7
		l0,0c2.4,0,4.8,1,6.5,2.7l63.5,63.9c9.8,9.9,9.9,25.8,0.2,36.2l-8.5,8.1C358.6,379.6,352.1,382.2,345.2,382.2z M283,304.8l57,57
		c2.7,2.7,7.8,2.7,10.5,0l8.3-7.8c2.6-2.8,2.7-7.4-0.2-10.3l-57-57.4L283,304.8z"/>
	<path class="st0" d="M306.7,313.1c-2.3,0-4.6-0.9-6.4-2.6c-3.6-3.5-3.7-9.3-0.2-13l12.4-12.8c3.5-3.6,9.3-3.7,13-0.2
		c3.6,3.5,3.7,9.3,0.2,13l-12.4,12.8C311.4,312.2,309,313.1,306.7,313.1z"/>
	<path class="st0" d="M285.8,298.2c-2.3,0-4.6-0.9-6.4-2.6l-26.9-26.4c-3.6-3.6-3.7-9.4-0.1-13c3.5-3.6,9.3-3.7,13-0.1l26.9,26.4
		c3.6,3.6,3.7,9.4,0.1,13C290.5,297.3,288.1,298.2,285.8,298.2z"/>
	<path class="st0" d="M155.3,314.6c-41.6,0-80.7-16.2-110-45.5c-60.4-60.8-60.4-159.7,0-220.5c54.3-54.3,138.9-61,201.1-15.9
		c4.1,3,5,8.7,2.1,12.8c-3,4.1-8.7,5-12.8,2c-54.9-39.7-129.5-33.9-177.4,14C5,115.1,5,202.5,58.3,256.1
		c25.9,25.9,60.3,40.1,97.1,40.1c36.7,0,71.2-14.3,97.1-40.2c47.9-47.9,54-122.7,14.4-177.8c-33.2-31.9-27.1-34.6-23-37.5
		c4.1-3-5.6-14.3,37.9,26.8c44.9,62.4,38,147.2-16.3,201.5C236,298.4,196.9,314.6,155.3,314.6z"/>
</g>
<g>
	<path class="st0" d="M192.4,115.3c-2.5,0-4.5-2-4.5-4.5V48c0-2.5,2-4.5,4.5-4.5s4.5,2,4.5,4.5v62.9
		C196.8,113.3,194.8,115.3,192.4,115.3z"/>
	<path class="st0" d="M176.4,115.3c-2.5,0-4.5-2-4.5-4.5V71.4c0-2.5,2-4.5,4.5-4.5s4.5,2,4.5,4.5v39.4
		C180.8,113.3,178.8,115.3,176.4,115.3z"/>
	<path class="st0" d="M160.4,115.3c-2.5,0-4.5-2-4.5-4.5V62.9c0-2.5,2-4.5,4.5-4.5s4.5,2,4.5,4.5v47.9
		C164.9,113.3,162.9,115.3,160.4,115.3z"/>
	<path class="st0" d="M144.6,115.3c-2.5,0-4.5-2-4.5-4.5V79.5c0-2.5,2-4.5,4.5-4.5s4.5,2,4.5,4.5v31.3
		C149.1,113.3,147.1,115.3,144.6,115.3z"/>
	<path class="st0" d="M128.6,115.3c-2.5,0-4.5-2-4.5-4.5V95.1c0-2.5,2-4.5,4.5-4.5s4.5,2,4.5,4.5v15.8
		C133.1,113.3,131.1,115.3,128.6,115.3z"/>
	<path class="st0" d="M112.9,115.3c-2.5,0-4.5-2-4.5-4.5v-25c0-2.5,2-4.5,4.5-4.5s4.5,2,4.5,4.5v25.1
		C117.3,113.3,115.3,115.3,112.9,115.3z"/>
</g>
<g id="wolf">
	<circle class="st0" cx="164.4" cy="130.5" r="3"/>
	<circle class="st0" cx="70.9" cy="161.7" r="3"/>
	<circle class="st0" cx="79.4" cy="263.7" r="3"/>
	<circle class="st0" cx="226.7" cy="178.7" r="3"/>
	<path class="st1" d="M119.4,153.5L91,116.6c0,0-15.6,28.2,4.9,65.1"/>
	<path class="st1" d="M184.5,153.5l28.3-36.8c0,0,15.6,28.2-4.9,65.1"/>
	<path class="st1" d="M171.1,256.4l17.7,5.9c1.6,0.5,3.3-0.3,3.9-1.9c0.1-0.3,0.2-0.6,0.2-1v-8.2l17.9,5.1c1,0.3,2.1-0.3,2.4-1.3
		c0.1-0.4,0.1-0.9-0.1-1.3l-8.7-20.9l13.2-0.2c2,0,3.7-1.7,3.6-3.7c0-0.6-0.2-1.3-0.5-1.8l-15.4-25.8h8.9c2,0,3.6-1.6,3.6-3.6
		c0-0.7-0.2-1.4-0.6-2l-16.4-24.8C190,154.7,171.9,145,152.5,145l0,0c-19.4,0-37.5,9.7-48.3,25.9l-16.4,24.8c-1.1,1.7-0.6,3.9,1,5
		c0.6,0.4,1.3,0.6,2,0.6h8.9L84.4,227c-1,1.7-0.5,4,1.3,5.1c0.6,0.3,1.2,0.5,1.9,0.5h12.2l-8,21.4c-0.4,1,0.1,2.1,1.1,2.5
		c0.4,0.1,0.8,0.2,1.2,0l18.1-5.2v8.2c0,1.7,1.4,3.1,3.1,3.1c0.3,0,0.7-0.1,1-0.2l18.1-6.1"/>
	<path class="st1" d="M103.4,170.5c0,0-9.6-11.3-9.6-22.7"/>
	<path class="st1" d="M134,217.1L134,217.1c-4.1,4-6.4,9.4-6.4,15.1v3.3c0,8.1,3.3,15.8,9.1,21.4l5.6,5.4c2.9,2.9,6.9,4.5,11,4.5
		l0,0c4.1,0,8.1-1.6,11-4.5l5.6-5.4c5.8-5.6,9.1-13.3,9.1-21.4v-3.3c0-5.7-2.3-11.2-6.4-15.1l0,0"/>
	<path class="st1" d="M161,235.5c0,2.7-3.8,8.5-8.5,8.5s-8.5-5.8-8.5-8.5s3.8-5,8.5-5S161,232.8,161,235.5z"/>
	<line class="st1" x1="152.5" y1="245.1" x2="152.5" y2="256.3"/>
	<circle class="st0" cx="175.8" cy="196.9" r="4.7"/>
	<circle class="st0" cx="129.1" cy="196.9" r="4.7"/>
	<path class="st1" d="M164.9,176.1H175c7.3,0,14,3.7,17.9,9.9l0,0"/>
	<path class="st1" d="M143.1,176.1H133c-7.3,0-14,3.7-17.9,9.9l0,0"/>
	<path class="st1" d="M200.5,170.5c0,0,9.6-11.3,9.6-22.7"/>
</g>
<circle class="st2" cx="159.1" cy="158.2" r="151.7"/>
</svg>
