<?xml version="1.0" encoding="utf-8"?>
<!-- Generator: Adobe Illustrator 25.4.1, SVG Export Plug-In . SVG Version: 6.00 Build 0)  -->
<svg version="1.1" id="Layer_1" xmlns:sketch="http://www.bohemiancoding.com/sketch/ns"
	 xmlns="http://www.w3.org/2000/svg" xmlns:xlink="http://www.w3.org/1999/xlink" x="0px" y="0px" viewBox="0 0 60 60"
	 style="enable-background:new 0 0 60 60;" xml:space="preserve">
<style type="text/css">
	.st0{fill-rule:evenodd;clip-rule:evenodd;fill:#FFFFFF;}
</style>
<desc></desc>
<g id="Education">
	<g id="Icon-3">
		<path id="book-open" class="st0" d="M60,16v39c0,2.8-2.2,5-5,5H5c-2.8,0-5-2.2-5-5V16c0-0.6,0.4-1,1-1s1,0.4,1,1v39
			c0,1.7,1.3,3,3,3h24v-2.4c-1.2-0.5-4.3-1.6-8-1.6c-8.7,0-15.7,1.9-15.7,2c-0.1,0-0.2,0-0.3,0c-0.2,0-0.4-0.1-0.6-0.2
			C4.1,55.6,4,55.3,4,55V11c0-0.4,0.3-0.8,0.7-1C5,10,12,8,21,8c5.2,0,9.3,2,9.4,2.1c0.3,0.2,0.6,0.5,0.6,0.9v38.3
			c3-1.7,10.2-5.6,17-8V2.5c-7.4,3-14.4,7.3-14.5,7.4c-0.5,0.3-1.1,0.1-1.4-0.3c-0.3-0.5-0.2-1.1,0.3-1.4c0.1-0.1,8.2-5.1,16.2-8.1
			C49-0.1,49.3,0,49.6,0.2C49.8,0.4,50,0.7,50,1v41c0,0.4-0.3,0.8-0.7,0.9c-8.8,2.9-18.7,8.8-18.8,8.9c-0.3,0.2-0.7,0.2-1,0
			C29.2,51.7,29,51.4,29,51V11.6c-1.2-0.5-4.4-1.6-8-1.6c-7.1,0-13,1.3-15,1.8v41.9c2.4-0.6,8.1-1.7,15-1.7c4.3,0,7.9,1.4,9,1.9
			c1.3-0.5,5.6-1.9,10-1.9c6.7,0,11.7,1.1,14,1.7V11.8c-0.3-0.1-0.8-0.1-1.3-0.2c-0.5-0.1-0.9-0.6-0.8-1.2c0.1-0.5,0.6-0.9,1.2-0.8
			c1.3,0.2,2.1,0.4,2.1,0.4c0.5,0.1,0.8,0.5,0.8,1v44c0,0.3-0.2,0.6-0.4,0.8C55.3,56,55,56,54.7,55.9c-0.1,0-6-1.9-14.7-1.9
			c-3.7,0-7.5,1.2-9,1.7V58h24c1.7,0,3-1.3,3-3V16c0-0.6,0.4-1,1-1S60,15.4,60,16L60,16z M24.2,18.6C18.1,17.1,11,19,10.7,19
			c-0.5,0.1-0.9,0.7-0.7,1.2c0.1,0.4,0.5,0.7,1,0.7c0.1,0,0.2,0,0.3,0c0.1,0,6.8-1.8,12.5-0.5c0.5,0.1,1.1-0.2,1.2-0.7
			C25.1,19.2,24.8,18.7,24.2,18.6L24.2,18.6z M24.2,24.6C18.1,23.1,11,25,10.7,25c-0.5,0.1-0.9,0.7-0.7,1.2c0.1,0.4,0.5,0.7,1,0.7
			c0.1,0,0.2,0,0.3,0c0.1,0,6.8-1.8,12.5-0.5c0.5,0.1,1.1-0.2,1.2-0.7C25.1,25.2,24.8,24.7,24.2,24.6L24.2,24.6z M24.2,30.6
			C18.1,29.1,11,31,10.7,31c-0.5,0.1-0.9,0.7-0.7,1.2c0.1,0.4,0.5,0.7,1,0.7c0.1,0,0.2,0,0.3,0c0.1,0,6.8-1.8,12.5-0.5
			c0.5,0.1,1.1-0.2,1.2-0.7C25.1,31.2,24.8,30.7,24.2,30.6L24.2,30.6z M24.2,36.6C18.1,35.1,11,37,10.7,37c-0.5,0.1-0.9,0.7-0.7,1.2
			c0.1,0.4,0.5,0.7,1,0.7c0.1,0,0.2,0,0.3,0c0.1,0,6.8-1.8,12.5-0.5c0.5,0.1,1.1-0.2,1.2-0.7C25.1,37.2,24.8,36.7,24.2,36.6
			L24.2,36.6z M24.2,42.6C18.1,41.1,11,43,10.7,43c-0.5,0.1-0.9,0.7-0.7,1.2c0.1,0.4,0.5,0.7,1,0.7c0.1,0,0.2,0,0.3,0
			c0.1,0,6.8-1.8,12.5-0.5c0.5,0.1,1.1-0.2,1.2-0.7C25.1,43.2,24.8,42.7,24.2,42.6L24.2,42.6z M34.1,40.5c0.2,0.3,0.5,0.5,0.9,0.5
			c0.2,0,0.3,0,0.5-0.1c0.1,0,5.9-3,8.8-3.9c0.5-0.2,0.8-0.7,0.7-1.3c-0.2-0.5-0.7-0.8-1.3-0.7c-3.1,1-8.9,3.9-9.2,4.1
			C34.1,39.4,33.9,40,34.1,40.5L34.1,40.5z M34.1,34.5c0.2,0.3,0.5,0.5,0.9,0.5c0.2,0,0.3,0,0.5-0.1c0.1,0,5.9-3,8.8-3.9
			c0.5-0.2,0.8-0.7,0.7-1.3c-0.2-0.5-0.7-0.8-1.3-0.7c-3.1,1-8.9,3.9-9.2,4.1C34.1,33.4,33.9,34,34.1,34.5L34.1,34.5z M34.1,28.5
			c0.2,0.3,0.5,0.5,0.9,0.5c0.2,0,0.3,0,0.5-0.1c0.1,0,5.9-3,8.8-3.9c0.5-0.2,0.8-0.7,0.7-1.3c-0.2-0.5-0.7-0.8-1.3-0.7
			c-3.1,1-8.9,3.9-9.2,4.1C34.1,27.4,33.9,28,34.1,28.5L34.1,28.5z M34.1,22.5c0.2,0.3,0.5,0.5,0.9,0.5c0.2,0,0.3,0,0.5-0.1
			c0.1,0,5.9-3,8.8-3.9c0.5-0.2,0.8-0.7,0.7-1.3c-0.2-0.5-0.7-0.8-1.3-0.7c-3.1,1-8.9,3.9-9.2,4.1C34.1,21.4,33.9,22,34.1,22.5
			L34.1,22.5z M35,17c0.2,0,0.3,0,0.5-0.1c0.1,0,5.9-3,8.8-3.9c0.5-0.2,0.8-0.7,0.7-1.3c-0.2-0.5-0.7-0.8-1.3-0.7
			c-3.1,1-8.9,3.9-9.2,4.1c-0.5,0.2-0.7,0.9-0.4,1.3C34.3,16.8,34.6,17,35,17L35,17z"/>
	</g>
</g>
</svg>
