<?xml version="1.0" encoding="utf-8"?>
<!-- Generator: Adobe Illustrator 25.4.1, SVG Export Plug-In . SVG Version: 6.00 Build 0)  -->
<svg version="1.1" id="Layer_2_00000149339928410721108680000005054523989434767007_"
	 xmlns="http://www.w3.org/2000/svg" xmlns:xlink="http://www.w3.org/1999/xlink" x="0px" y="0px" viewBox="0 0 472.6 453.4"
	 style="enable-background:new 0 0 472.6 453.4;" xml:space="preserve">
<style type="text/css">
	.st0{fill:none;stroke:#000000;stroke-width:15;stroke-linecap:round;stroke-linejoin:round;stroke-miterlimit:10;}
</style>
<g>
	<g>
		<path class="st0" d="M216.2,237.5l-19.2,6l7.8-54.1l-24.1,9l20.9-51.6c3.1-7.7,2.6-16.4-1.5-23.6l-26.4-46.7
			c-2.1-3.7-2.8-7.9-1.9-12.1l0,0c0.5-2.4,3.5-3.4,5.3-1.6l31.3,27.3L193,42.2c-2-7.9-0.4-16.3,4.3-23l8.2-11.7l41.9,47.7l40.9,15
			l25.4,34.2l60.3,19.4c5.5,1.8,5.6,9.6,0.1,11.5L313,156.3c0,0,8.9,32.4,29.3,52.9h-29.4c0,0,6.8,27.9,33.8,52"/>
		<path class="st0" d="M349.1,169.1l44.4,32.8l-20.9,12.4c0,0,13.4,15.2,40.8,26.2c0,0-6.3,14.7-40.8,8.8"/>
		<path class="st0" d="M176.6,217.9c0,0-17.4,5.2-27.5,25.6c-10.1,20.3,6.4,44.2,6.4,44.2s-19.2,45.9-2.7,82.6"/>
		<path class="st0" d="M415.6,209.2c0,0,55,8.7,37.8,84.9c0,0,33.6,82.7-13.2,142.8c0,0-106.1,7.3-166.6-52.7l-69.4-8.8
			c0,0-15-24.9-22.9-38s4.7-54.6,4.7-54.6s-4,32.5,4,43.7l25.8,18.5c0,0,0.7-15.9,0.7-45c0-29.1,19.9-43.3,19.9-43.3
			s-19.9,21.1-9.3,41.9c10.6,20.8,19.2,37.8,19.2,37.8l27.5-6.6l19.7-25.3c0,0,0.7-42.2-19.8-47.8c0,0,36.7,7.5,34.8,65.6l-6.6,29
			c0,0,25.5,12,59,7.5c48.7-6.6,58.1,11.5,58.1,11.5"/>
		<path class="st0" d="M171.4,402.8c0,0-3-36.7-55.9-48.4c-27.6-6.1-31.6-36.9-31.6-36.9l19.5-15.5c31.7-36.9,11.7-61.1,11.7-61.1
			c10.4,14.4-12.1,41.6-12.1,41.6l-26.1,6.2l-21.4-10.1c0,0,3.3-15.6,7.3-34.7c4-19.2,28.1-22.5,28.1-22.5s-20.4-1.2-35.7,17.8
			S31,268.2,31,268.2l-7.1-25.7c0.7-11.5,20.3-30.6,20.3-30.6s-30,20.5-31.7,33.2c-1.7,12.7-5,36.8-5,36.8l40.7,42.2
			c8,70.9,81.1,121.8,81.1,121.8s59-7.5,82.1-24.7"/>
		<path class="st0" d="M204.8,397.8c0,0,9,27.4,24.5,43.1"/>
		<path class="st0" d="M376.1,307.9c0,0-10.5,28.1,5.2,49.4"/>
		<path class="st0" d="M247.4,55.2c0,0,19.2,20.1,27.4,44.3"/>
	</g>
	<polyline class="st0" points="199.2,16.5 205.4,21.7 218,21.7 	"/>
</g>
</svg>
