<?xml version="1.0" encoding="utf-8"?>
<!-- Generator: Adobe Illustrator 25.4.1, SVG Export Plug-In . SVG Version: 6.00 Build 0)  -->
<svg version="1.1" id="Layer_1" xmlns="http://www.w3.org/2000/svg" xmlns:xlink="http://www.w3.org/1999/xlink" x="0px" y="0px"
	 viewBox="0 0 26.5 31.6" style="enable-background:new 0 0 26.5 31.6;" xml:space="preserve">
<style type="text/css">
	.st0{fill:#FF8B00;}
	.st1{fill:#FFA300;}
	.st2{fill:#FF9D00;}
</style>
<g id="Icons">
	<g>
		<path class="st0" d="M15.7,10c-0.1,0-0.2,0.1-0.3,0.1c0.2,0.2,0.4,0.3,0.6,0.5C15.9,10.4,15.8,10.2,15.7,10z"/>
		<path class="st1" d="M9.4,4.9c0,0-0.4,0.6-0.3,1.3c0.3,0.2,0.7,0.4,0.8,0.3c0.2-0.2,0.4-0.7,0.6-1C10.1,5.2,9.7,4.8,9.4,4.9
			C9.4,4.8,9.4,4.8,9.4,4.9z"/>
		<path class="st1" d="M10.1,22.2c-0.1,0-0.2,0-0.2-0.1c-0.1-0.1-0.1-0.2,0-0.3c1.2-1.3,0.8-4.2,0.6-5.2c-0.3,0.1-0.6,0-0.7,0
			c-0.1,0-0.2-0.1-0.2-0.2c0-0.1,0-0.2,0.1-0.2c0.2-0.2,0.4-0.7,0.5-1C10.5,13,9,11.5,8.4,11c-0.6-0.5-0.7-1.6-0.8-1.7
			c0-0.2,0.1-1,0.6-1c0.2,0,0.5,0.2,0.8,0.5C9,8.7,8.9,8.6,8.9,8.5C8.2,7.6,8.5,6.6,8.5,6.3C8.4,5.4,8.9,4.6,9,4.5
			c0.2-0.2,0.3-0.2,0.5-0.2c0.7,0,1.6,1.1,1.8,1.3c0.7,0.8,3,2.3,3.6,2.6c1.3-0.6,3.2,0.5,3.2,0.5l2.2,1.6c0.8,0.6,2.8,1.3,2.9,1.3
			c0.1,0,0.1,0.1,0.2,0.2c0,0.1,0,0.2,0,0.2c0,0-0.2,0.2-0.3,0.3c0.2,0.2,0.4,0.5,0.6,0.8l0.4,0.6c0.1-0.6,0.1-1.2,0.1-1.8
			c0-6.6-5.4-12-12.1-12S0,5.4,0,12c0,6.1,4.6,11.2,10.7,11.9l0-0.5c0-0.6,0.1-1.2,0.1-1.6c-0.3,0.3-0.6,0.4-0.6,0.4
			C10.2,22.2,10.1,22.2,10.1,22.2z M6.7,20.7c0,0.1-0.1,0.1-0.2,0.1c-0.1,0-0.1,0-0.2-0.1l-0.5-0.5c-0.1-0.1-0.1-0.3,0-0.4
			c0.1-0.1,0.3-0.1,0.4,0l0.5,0.5C6.8,20.4,6.8,20.6,6.7,20.7z M7.2,19.8c0.1-0.1,0.2-0.1,0.3-0.1l0.6,0.4c0.1,0.1,0.1,0.2,0.1,0.3
			c0,0.1-0.1,0.1-0.2,0.1c-0.1,0-0.1,0-0.1,0l-0.6-0.4C7.2,20,7.1,19.9,7.2,19.8z M8.4,21.7c0,0.1-0.1,0.1-0.2,0.1c0,0-0.1,0-0.1,0
			l-0.4-0.3c-0.1-0.1-0.1-0.2-0.1-0.3C7.7,21,7.8,21,7.9,21l0.4,0.3C8.5,21.4,8.5,21.6,8.4,21.7z"/>
		<path class="st2" d="M25.6,22.1c-0.3-0.1-1-0.5-1.4-1.2c-0.1-0.1,0-0.3,0.1-0.3c0.1-0.1,0.3,0,0.3,0.1c0.4,0.8,1.2,1.1,1.2,1.1
			c0,0,0,0,0,0c0,0,0,0,0,0c0.2,0.1,0.4,0.2,0.6,0.2c-0.2-0.3-0.4-0.6-0.4-0.7c0,0,0-0.1,0-0.1c-0.1-0.7-1.1-1.7-1.5-2
			c-0.1-0.1-0.1-0.2,0-0.3c0.1-0.1,0.2-0.1,0.3-0.1c0.1,0.1,0.2,0.1,0.3,0.1c-0.5-0.4-1.2-1-1.5-1.4c-0.8,0.2-1.9,0.4-3.1-0.1l0,0.1
			c0,0.1,0,0.2-0.1,0.3c0,0-0.1,0-0.1,0c0,0-0.1,0-0.1,0c-0.1,0-0.6-0.4-0.9-0.7l-0.1,0.2c0,0.1-0.1,0.2-0.2,0.2
			c-0.1,0-0.2,0-0.2-0.1c0,0-0.3-0.4-0.5-1c-0.2,0.8-0.7,2.3-1.3,2.7c-0.1,0-0.1,0-0.2,0c-0.1,0-0.1-0.1-0.2-0.1
			c0-0.1-0.2-0.4-0.3-0.9c-0.3,0.5-0.6,1.1-0.9,1.3c0,0-0.1,0-0.1,0c-0.1,0-0.1,0-0.1,0c-0.1-0.1-0.1-0.1-0.1-0.2c0,0,0-0.4,0-0.8
			c-0.3,0.3-0.7,0.7-1,0.8c0,0,0,0-0.1,0c0,0,0,0,0,0c0,0,0,0,0,0c0,0,0,0-0.1,0c0,0,0,0,0,0c0,0,0,0,0,0c0,0,0,0,0,0
			c0,0,0-0.1,0-0.1c0,0,0,0,0,0c0-0.1,0-0.1,0-0.2c0,0,0.2-0.2,0.1-0.6c0-0.1-0.3-0.4-0.6-0.5c-0.4-0.3-0.9-0.7-1.1-1.2
			c0-0.1,0-0.3,0.1-0.3c0.1,0,0.3,0,0.3,0.1c0.1,0.4,0.6,0.7,0.9,1c0.3,0.2,0.6,0.4,0.7,0.7c0.2-0.4,0.3-0.8,0.2-1.2
			c0-0.1,0.1-0.3,0.2-0.3c0.1,0,0.3,0.1,0.3,0.2c0.1,0.4-0.1,0.9-0.2,1.3c0.1-0.1,0.3-0.3,0.4-0.4c0.1-0.1,0.2-0.1,0.3-0.1
			c0.1,0,0.2,0.1,0.2,0.2c0,0.2,0,0.5,0,0.7c0.2-0.4,0.5-0.9,0.7-1.4c0-0.1,0.2-0.2,0.3-0.1c0.1,0,0.2,0.2,0.2,0.3
			c-0.1,0.3,0.1,0.9,0.2,1.3c0.4-0.6,0.8-1.9,1-2.7c0,0,0-0.1,0.1-0.1c-0.1-0.4-0.2-0.8-0.2-1.2l-0.1,0c-0.1,0-0.2,0-0.3,0
			c-0.1,0-0.1-0.1-0.1-0.2c0-0.1,0.1-2,0.4-2.7c0.1-0.1,0.2-0.2,0.3-0.1c0.1,0.1,0.2,0.2,0.1,0.3c-0.2,0.4-0.3,1.4-0.3,2l0,0
			c0.1,0,0.2,0,0.2,0c0.1,0,0.1,0.1,0.1,0.2c0,1.2,0.4,2.1,0.7,2.6l0-0.1c0-0.1,0.1-0.2,0.2-0.2c0.1,0,0.2,0,0.2,0.1
			c0.1,0.1,0.3,0.3,0.6,0.5c0-0.1,0-0.2,0.1-0.2c0.1-0.1,0.2-0.1,0.3,0c1.4,0.7,2.6,0.5,3.4,0.3c0.2-0.1,0.3-0.2,0.3-0.3
			c0-0.3-0.9-0.6-1.6-0.8c-0.4-0.1-1.2-0.5-1.7-0.8l0,0.1c0,0.1,0,0.2-0.1,0.2c-0.1,0-0.2,0-0.2,0c-0.7-0.3-1.5-1.8-1.6-2
			c-0.1-0.1,0-0.3,0.1-0.3c0.1-0.1,0.3,0,0.3,0.1c0.2,0.4,0.6,1.1,1,1.5c0-0.1,0.1-0.1,0.1-0.2c0.1,0,0.2,0,0.2,0
			c0.4,0.2,1.6,0.8,1.9,0.9c0.3,0.1,1.9,0.5,2,1.2c0.1,0,0.1-0.1,0.1-0.1c0,0,0.1-0.1,0-0.3c0-0.1-0.2-0.4-0.6-0.5
			c-0.1,0-0.3-0.1-0.6-0.2c0,0,0,0,0,0c0,0,0,0,0,0c-1.1-0.6-3-1.9-3.2-2.1c-0.1-0.1-0.1-0.2-0.1-0.3s0.2-0.1,0.3-0.1
			c0.5,0.4,1.2,0.9,1.9,1.3c-0.3-0.4-0.5-0.7-0.6-0.8c-0.6-1.3-2.2-1.7-2.2-1.7c-0.1,0-0.2-0.2-0.2-0.3c0-0.1,0.2-0.2,0.3-0.2
			c0.1,0,1.9,0.4,2.6,1.9c0.3,0.4,1.1,1.5,1.5,1.8c0.2,0.1,0.3,0.1,0.4,0.2c0.3,0,0.5,0.2,0.7,0.4c0.1,0,0.3,0,0.5-0.1
			c0.1-0.1,0.1-0.1,0.1-0.2c0-0.3-0.3-0.5-0.4-0.5c-0.3-0.1-1.4-0.5-1.6-1c-0.1-0.3-0.7-0.9-1-1.3c-0.1-0.1-0.1-0.2,0-0.3
			c0.1-0.1,0.2-0.1,0.3-0.1h0c0,0,0,0,0,0c-0.7-0.2-2-0.7-2.6-1.2l-2.2-1.6c0,0-1.8-1.1-2.8-0.4c-0.1,0-0.2,0-0.3,0
			c-0.1-0.1-3.1-1.8-3.9-2.8c0,0,0,0-0.1-0.1c-0.2,0.3-0.4,0.7-0.5,0.9C10.2,6.9,10.1,6.9,10,7c0,0-0.1,0-0.1,0C9.5,7,9.2,6.8,9,6.7
			c-0.1,0.4-0.1,1,0.3,1.5c0.1,0.1,0.7,1,0.5,1.7c0,0.1-0.1,0.2-0.2,0.2c-0.1,0-0.2,0-0.2-0.1c-0.4-0.6-0.9-1.2-1-1.2
			c0,0-0.1,0.3-0.1,0.5c0,0.2,0.2,1,0.6,1.3c0.7,0.6,2.2,2.2,1.9,4.5c0,0.1-0.1,0.5-0.3,0.9c0.1,0,0.1,0,0.1,0
			c0-0.1,0.1-0.2,0.3-0.2c0.1,0,0.2,0.1,0.2,0.2c0,0.1,0.6,2.9,0,4.9c0.2-0.2,0.4-0.5,0.5-0.9c0-0.1,0.2-0.2,0.3-0.2
			c0.1,0,0.2,0.2,0.2,0.3c-0.1,0.4-0.3,0.7-0.5,0.9c0,0.2-0.1,1.3-0.2,2.5c0,0,0,0,0,0l0,0c0,0.9-0.1,1.9,0,2.8
			c0.3-0.4,0.7-1,1.2-1.2c0,0,0.9,3.7,2.1,3.8c0.2,0.1,0.7,0.3,0.9,0.7c0,0.1,0,0.1,0,0.2c0,0,0,0.1,0,0.1c0,0.1,0,0.3,0.1,0.3
			c0,0,0.1,0,0.1,0c0.1,0,0.2-0.1,0.2-0.2c0,0,0-0.1,0-0.1c0.1-0.2,0.2-0.6,0.2-1c0.1,0.1,0.2,0.1,0.3,0.2c0.3,0.2,0.5,0.4,0.7,0.6
			c0.5,0.6,0.4,1.6,0.4,1.6c0,0,0,0,0,0.1c0,0,0,0,0,0c0,0.1,0.1,0.1,0.1,0.1c0,0,0,0,0,0c0,0,0.1,0,0.1,0l0,0l0,0l0,0
			c0.1,0,0.1,0,0.1,0c0,0,0,0,0,0c0.8-0.7,1.1-2.1,1.1-3.3c0.5,0.8,1,1.1,1,1.1c0.1,0.1,0.2,0.1,0.3,0c0.1-0.1,0.1-0.2,0-0.3
			c-0.5-0.6,0-1.9,0.3-2.5c0.2,0.3,0.2,0.8,0.2,0.8c0,0.1,0,0.2,0.1,0.2c0.1,0,0.2,0,0.3,0c0.3-0.3,0.4-0.8,0.4-1.3
			c1.1,1.8,2.9,1.9,2.9,1.9c0,0,0,0,0,0c0,0,0,0,0,0c0,0,0,0,0,0c0,0,0.1,0,0.1,0c0,0,0,0,0,0c0,0,0,0,0.1-0.1c0,0,0,0,0,0
			c0,0,0,0,0,0c0,0,0,0,0,0c0,0,0-0.1,0-0.1c0,0,0,0,0,0c0,0,0,0,0,0c-0.4-0.5,0-2.3,0.4-3.5c0.2,0.5,0.3,1.2,0.4,1.5
			c0,0.1,0.1,0.2,0.2,0.2c0.1,0,0.2,0,0.3-0.1c0.6-0.9,0.3-2.6,0.1-3.5C26,22.3,25.6,22.1,25.6,22.1z M14.6,9.5
			c0.1-0.1,0.3,0,0.3,0.1c0,0.1,0.1,0.1,0.2,0.2c0.1-0.1,0.2-0.2,0.4-0.2c0-0.1-0.1-0.1-0.1-0.2c-0.1-0.1-0.1-0.3,0-0.4
			c0.1-0.1,0.3-0.1,0.4,0c0.1,0.1,1,1.3,1,2c0,0.1,0,0.2-0.1,0.2c0,0-0.1,0-0.1,0c0,0-0.1,0-0.1,0c-0.1,0-1.4-0.7-1.9-1.5
			C14.4,9.7,14.4,9.5,14.6,9.5z M11.3,14.1c-0.1-0.1-0.1-0.3,0-0.4c0.1-0.1,0.3-0.1,0.4,0c1.2,1.3,3.4,0.6,3.4,0.6
			c0.1,0,0.3,0,0.3,0.2c0,0.1,0,0.3-0.2,0.3c0,0-0.7,0.2-1.4,0.2S12.1,14.9,11.3,14.1z M12.6,17.6c0,0.1-0.1,0.1-0.2,0.1
			c0,0-0.1,0-0.1,0c-0.4-0.3-0.8-1-0.8-1.1c-0.1-0.1,0-0.3,0.1-0.3c0.1-0.1,0.3,0,0.3,0.1c0.2,0.3,0.5,0.8,0.7,0.9
			C12.7,17.4,12.7,17.5,12.6,17.6z M21.3,19.2c0-0.1,0.1-0.3,0.2-0.3c0.1,0,0.3,0.1,0.3,0.2c0,0.2,0.1,2.3-0.5,3.1
			c0,0.1-0.1,0.1-0.2,0.1c-0.1,0-0.1,0-0.2-0.1c-0.1-0.1-0.1-0.2,0-0.4C21.3,21.4,21.3,19.8,21.3,19.2z M19.6,22.6
			c0.6-0.5,0.8-1.6,0.8-1.6c0-0.1,0.2-0.2,0.3-0.2c0.1,0,0.2,0.2,0.2,0.3c0,0-0.3,1.2-0.9,1.8c0,0-0.1,0.1-0.2,0.1
			c-0.1,0-0.1,0-0.2-0.1C19.5,22.8,19.5,22.7,19.6,22.6z M17.5,26.7C17.5,26.7,17.5,26.7,17.5,26.7c0.1,0,0.3,0.1,0.3,0.2
			c0,0.2,0,0.5,0,0.6c0,0.1,0,0.2-0.1,0.3c0,0-0.1,0.1-0.2,0.1s-0.1,0-0.2-0.1c-0.1-0.1-0.1-0.1-0.1-0.9
			C17.3,26.8,17.4,26.7,17.5,26.7z M14.5,22.6c0.4-0.4,0.6-1.5,0.6-1.9c0-0.1,0.1-0.2,0.3-0.2c0.1,0,0.2,0.1,0.2,0.3
			c0,0.1-0.2,1.5-0.8,2.2c0,0.1-0.1,0.1-0.2,0.1c-0.1,0-0.1,0-0.2-0.1C14.4,22.8,14.4,22.7,14.5,22.6z"/>
	</g>
</g>
</svg>
