<?xml version="1.0" encoding="utf-8"?>
<!-- Generator: Adobe Illustrator 25.4.1, SVG Export Plug-In . SVG Version: 6.00 Build 0)  -->
<svg version="1.1" id="icons" xmlns="http://www.w3.org/2000/svg" xmlns:xlink="http://www.w3.org/1999/xlink" x="0px" y="0px"
	 viewBox="0 0 184.4 187.8" style="enable-background:new 0 0 184.4 187.8;" xml:space="preserve">
<style type="text/css">
	.st0{fill:none;}
</style>
<circle class="st0" cx="93.4" cy="88.5" r="84.9"/>
<g id="Wolf">
	<path d="M50.8,51.8c-2.8,0.1-5.5-1-7.5-2.9c-5-5-3.4-14.4,3.7-21.5c2.9-3,6.7-5.2,10.8-6.2c3.8-1.1,7.8-0.1,10.7,2.5l0,0
		c5,5,3.4,14.4-3.7,21.5c-2.9,3-6.7,5.2-10.8,6.2C52.9,51.7,51.9,51.8,50.8,51.8z"/>
	<path d="M32.3,73.9c-1.4,0-2.7-0.4-3.9-1.1c-4.2-2.7-4.6-9.2-1.1-14.8s9.7-7.9,13.9-5.3c4.2,2.7,4.6,9.2,1.1,14.8
		C40.2,71.2,36.5,73.6,32.3,73.9z"/>
	<path d="M184.4,90.1c0-49.7-40.3-90-90-90.1C44.7,0,4.3,40.3,4.3,90c0,25.5,10.8,49.8,29.7,66.9c-9.6,8.6-20.4,15.6-32.1,20.9
		c-1.7,0.8-2.4,2.8-1.7,4.5c0.8,1.7,2.7,2.4,4.4,1.7c13.2-6,25.4-14.1,36-24c0.6-0.3,1.1-0.8,1.4-1.4c9.2-8.9,17.1-19.1,23.3-30.2
		c0.9-1.6,0.3-3.7-1.3-4.6c-0.7-0.4-1.5-0.5-2.2-0.4c-6.1,1.1-12.3,0-17.7-3.1c21.6-6.6,28.9-19.1,34.3-28.4
		C82.5,85.1,85,80,94.7,81.5c1,0.2,2.1-0.2,2.8-0.9c9.5-9,17.6-17.3,27.8-28.3c1.3,1.8,2.6,3.8,3.7,5.7c0.3,0.8-0.4,2.2-1.4,4.1
		c-2.2,3-2.9,6.8-2,10.4c0.9,3.8,4.7,6.1,8.5,5.2c0.9-0.2,1.7-0.6,2.4-1.1c-1.3,4.2-3.1,8.1-5.3,11.9c-9.6,18.5-11,22.9-5.1,48.4
		c-0.4,0.2-0.9,0.4-1.2,0.7c-2.4,2-2.3,5.2,1.2,12.3c-1.8,0.3-3.1,2-2.9,3.8c0,0.3,0.1,0.5,0.2,0.8l3.6,8.9c-1.8,0.3-3.1,2-2.8,3.9
		c0,0,0,0.1,0,0.1c1.1,5.4,1.2,10.9,0.2,16.4c-0.3,1.8,0.9,3.6,2.7,3.9c1.8,0.3,3.6-0.9,3.9-2.7c0.7-4.1,0.9-8.3,0.6-12.5
		c1.7,0.8,3.7,0,4.4-1.7c0.2-0.4,0.3-0.8,0.3-1.2C166,154.1,184.5,123.4,184.4,90.1z M134.2,163.1l-1.6-4.1c1.8,0.3,3.6-1,3.9-2.8
		c0.1-0.8,0-1.5-0.4-2.2c-1.8-3-3.4-6.2-4.9-9.4c1.9-0.2,3.2-1.9,2.9-3.8c0-0.1,0-0.2-0.1-0.4c-7-28.9-6.1-30.8,3.3-48.8
		c2.8-5.5,8.7-16,6.1-23c-1.3-3.4-5.2-5.6-8.9,0.2c-0.5,0.7-1.5,2.2-1.7,2.5c-0.3-0.3-0.6-0.7-0.8-1.1c-0.4-1.2,0.3-2.6,1.5-4.8
		c2.2-2.8,2.8-6.5,1.8-10c-1.6-3.1-3.5-6-5.6-8.8c-1.6-2.3-4.8-2.9-7.1-1.3c-0.3,0.2-0.6,0.5-0.8,0.7C111.5,57.4,103.3,65.7,94,74.6
		c-13.1-1.2-17.4,7.2-21.3,13.8c-5.5,9.4-12.3,21.1-34.6,26.5c-2.5,0.6-4,3.1-3.4,5.5c0.2,1,0.8,1.8,1.5,2.5
		c5.7,4.7,12.7,7.3,20.1,7.5c-4.9,7.9-10.7,15.2-17.3,21.7C4.6,121.7,1.6,69,32.1,34.7s83.2-37.4,117.6-6.9s37.4,83.2,6.9,117.6
		C150.2,152.5,142.6,158.6,134.2,163.1L134.2,163.1z"/>
</g>
</svg>
